<svg width="180" height="35" viewBox="0 0 180 35" fill="none" xmlns="http://www.w3.org/2000/svg">
<g clip-path="url(#clip0)">
<path fill-rule="evenodd" clip-rule="evenodd" d="M0 -50H180V83.6667H0V-50Z" fill="white"/>
<path fill-rule="evenodd" clip-rule="evenodd" d="M58.4594 11.7068C58.86 11.6569 59.4764 11.5994 60.6184 11.5994C62.7634 11.5994 64.0362 12.1021 64.0362 13.2082C64.0362 14.2532 62.7597 14.9328 60.0945 14.9328H58.4594V11.7068ZM53.8921 23.6897C54.9156 23.7979 56.6497 23.9144 59.0739 23.9144C63.1696 23.9144 65.6471 23.4671 67.172 22.6356C68.4821 21.9235 69.4057 20.8597 69.4057 19.4867C69.4057 17.5388 67.5987 16.3259 65.3809 15.8995V15.8537C67.6632 15.2594 68.7119 14.0604 68.7119 12.7935C68.7119 11.3664 67.5717 10.3678 66.099 9.86781C64.6348 9.32831 63.0324 9.12305 60.046 9.12305C57.6461 9.12305 55.0472 9.27838 53.8921 9.44411V23.6897ZM58.4594 17.3564H60.1991C62.6317 17.3564 64.5293 17.8779 64.5293 19.3272C64.5293 20.8729 62.5953 21.4034 60.4419 21.4034C59.5501 21.4034 58.9431 21.4034 58.4604 21.3479V17.3564H58.4594ZM167.298 23.7521L165.764 21.8832C165.219 21.2168 164.66 20.479 164.375 20.0505C164.112 20.4783 163.502 21.2425 162.985 21.8832L161.458 23.7521H156.694L162.09 17.6449L157.513 12.4579H162.259L162.984 13.3795C163.476 13.9766 163.94 14.5865 164.374 15.2081C164.66 14.7851 165.248 14.0466 165.763 13.3795L166.498 12.4579H171.234L166.663 17.6449L172.056 23.7521H167.298ZM80.4482 20.4346C80.0093 20.9776 78.9699 21.4706 77.6644 21.4706C75.9555 21.4706 75.3495 20.7599 75.3495 19.9659C75.3495 19.0595 76.1703 18.5505 77.7307 18.5505C79.2762 18.5505 80.2222 18.9382 80.4482 19.0137V20.4346ZM84.4533 23.7521V16.1775C84.4533 13.643 82.0216 12.2131 78.0286 12.2131C75.0507 12.2131 73.0915 13.125 72.5667 13.3656L74.1038 15.4224C74.4334 15.292 75.8855 14.6381 77.9306 14.6381C79.7244 14.6381 80.4491 15.2878 80.4491 16.0742V16.6789C80.0942 16.5617 79.1399 16.2198 77.3497 16.2198C74.1598 16.2198 71.3508 17.4736 71.3508 19.9672C71.3508 22.6981 74.1598 23.99 76.8763 23.99C79.0213 23.99 80.1344 23.1973 80.45 23.0011V23.7528H84.4533V23.7521ZM112.163 20.4346C111.736 20.9776 110.693 21.4706 109.383 21.4706C107.676 21.4706 107.068 20.7599 107.068 19.9659C107.068 19.0595 107.892 18.5505 109.452 18.5505C110.991 18.5505 111.947 18.9382 112.162 19.0137V20.4346H112.163ZM116.164 23.7521V16.1775C116.164 13.643 113.745 12.2131 109.746 12.2131C106.766 12.2131 104.809 13.125 104.289 13.3656L105.828 15.4224C106.153 15.292 107.598 14.6381 109.643 14.6381C111.449 14.6381 112.162 15.2878 112.162 16.0742V16.6789C111.813 16.5617 110.865 16.2198 109.067 16.2198C105.873 16.2198 103.066 17.4736 103.066 19.9672C103.066 22.6981 105.873 23.99 108.591 23.99C110.745 23.99 111.859 23.1973 112.162 23.0011V23.7528H116.164V23.7521ZM96.7807 23.7521V17.3231C96.7807 15.5111 95.5079 15.0174 94.1978 15.0174C92.9539 15.0174 91.5896 15.559 91.5896 17.2552V23.7521H87.6003V12.4579H91.5896V13.2068C91.9108 12.9911 93.0482 12.2124 95.2698 12.2124C98.4448 12.2124 100.777 13.4731 100.777 16.5832V23.7514H96.7807V23.7521ZM137.106 23.7521V17.4472C137.106 15.6498 136.22 15.0174 134.674 15.0174C133.356 15.0174 132.204 15.6172 132.204 17.389V23.7521H128.207V17.4472C128.207 15.6859 127.3 15.0174 125.77 15.0174C124.358 15.0174 123.306 15.6255 123.306 17.389V23.7521H119.322V12.4579H123.306V13.2068C123.597 13.0237 124.831 12.2124 126.946 12.2124C129.489 12.2124 130.601 13.4398 130.848 13.6596C131.101 13.4939 132.742 12.2124 135.564 12.2124C138.771 12.2124 141.104 13.6346 141.104 16.656V23.7514H137.106V23.7521ZM152.691 16.8308H147.47C147.541 15.923 148.272 14.8066 150.057 14.8066C151.848 14.8066 152.577 15.819 152.691 16.8308ZM156.666 18.115C156.666 14.6374 154.231 12.2131 150.173 12.2131C146.317 12.2131 143.392 14.6485 143.392 18.115C143.392 21.6877 146.173 23.9893 150.552 23.9893C152.577 23.9893 154.783 23.327 155.994 22.1592L153.612 20.4922C153.406 20.6517 152.451 21.4713 150.581 21.4713C148.939 21.4713 147.568 20.6101 147.42 19.0602H156.603C156.636 18.8418 156.666 18.5512 156.666 18.115Z" fill="#33348E"/>
<path fill-rule="evenodd" clip-rule="evenodd" d="M20.512 21.8644C19.8696 22.1404 18.96 22.4656 17.916 22.7708C19.059 23.589 21.741 25.2117 25.7452 25.2117C26.6305 25.2117 26.9442 24.8705 26.9442 24.5037C26.9442 24.0037 26.2821 23.7374 25.2549 23.503C23.941 23.2035 21.7073 22.8054 21.7073 21.5364C21.7073 21.4074 21.7344 21.2889 21.7867 21.18C21.415 21.4796 20.9547 21.6709 20.512 21.8644ZM32.7003 9.62018C32.2054 9.62018 31.8225 9.9461 31.8225 10.288C31.8225 10.6188 32.1111 10.9988 32.564 11.453C33.2018 12.066 34.215 12.9779 34.215 13.826C34.215 14.3537 33.791 14.7122 33.5258 14.8419C33.7518 14.8058 33.9768 14.8044 34.1982 14.8044C35.0106 14.8044 36.444 14.9597 37.9222 15.2385C37.6365 14.0909 36.7568 11.5979 33.5258 9.85457C33.212 9.67774 32.9347 9.62018 32.7003 9.62018ZM31.2482 22.2964C31.4032 22.8325 31.5284 23.571 31.6077 24.4052C32.5808 24.0086 34.2878 23.2062 35.6829 21.7965C36.6849 20.698 37.2443 19.6634 37.2443 19.2189C37.2443 18.7189 36.6887 18.5227 36.3235 18.5227C35.8155 18.5227 35.3346 18.8895 34.8051 19.4533C34.0198 20.2806 32.8086 21.7327 31.194 21.3464C31.035 21.3086 30.8852 21.2519 30.7505 21.1786C31.0269 21.5281 31.1315 21.9185 31.2482 22.2964ZM30.6552 17.5692C31.3117 16.0519 32.0718 15.3495 32.846 15.0312C31.8524 15.1213 30.447 14.6463 28.8716 13.7934C27.1385 12.8628 26.4698 12.1076 26.3036 11.4668C26.115 12.1991 25.0654 13.0458 23.4984 13.8939C21.7634 14.8245 20.5886 15.0679 19.7183 14.9826C20.6017 15.3398 21.3534 16.3473 21.9511 17.719C22.3106 18.522 22.4665 19.1697 22.4665 19.6703C22.4665 20.1135 22.3619 20.456 22.1873 20.7202C22.925 20.2161 24.4369 19.9845 26.3746 19.9845C28.5242 19.9845 29.6598 20.3069 30.305 20.7549C30.1407 20.5018 30.0716 20.1738 30.0716 19.8042C30.0725 19.1974 30.2789 18.4242 30.6552 17.5692ZM31.7562 27.6838C31.7562 30.07 28.1909 30.2475 26.1542 30.2475C24.2408 30.2475 21.8764 29.975 20.047 29.3453C17.8534 28.602 17.1895 27.8607 17.1895 25.9266C17.1895 24.9218 17.281 23.666 17.3483 22.9441C16.1685 23.2903 14.9724 23.6051 13.7624 23.8879C10.7088 24.6368 9.37434 22.164 8.74681 20.7292C8.22022 19.5248 7.94836 18.2669 7.94092 17.0006C7.94092 14.5076 8.99147 13.6699 11.5128 13.059C12.7987 12.7518 14.4291 12.4321 15.3769 12.2497C14.5669 11.5245 13.7923 10.7779 13.0545 10.0113C12.6072 9.55846 12.4149 9.10703 12.4149 8.68402C12.4149 7.30961 14.3031 6.16819 15.5497 5.49277C17.1027 4.66202 20.1021 3.41797 22.7 3.41797C24.1353 3.41797 25.0598 3.88605 26.2345 5.07601C27.0283 5.88249 27.9453 6.9511 28.4626 7.5544C29.1455 6.76072 29.8615 5.98299 30.6095 5.22233C31.2968 4.5268 32.1391 4.2619 32.9945 4.2619C34.5362 4.2619 36.1265 5.04203 37.1724 5.59263C38.7207 6.43309 40.4221 7.68546 41.4045 8.99885C41.9517 9.71241 42.2356 10.2873 42.2318 10.8559C42.23 11.5195 41.835 12.1665 41.0057 13.0084C40.2166 13.8211 39.1446 14.7905 38.5199 15.3488C39.6984 15.5734 40.959 15.8494 42.1711 16.14C43.8455 16.5477 44.3432 17.5089 44.3432 18.522C44.3432 20.517 42.5717 23.417 40.6854 24.9378C39.6078 25.7935 38.7449 26.1957 37.5693 26.1957C36.9548 26.1957 36.2619 26.1007 35.4177 25.8899C34.1291 25.5862 32.5565 25.1326 31.6535 24.8636C31.731 25.7637 31.7562 26.7345 31.7562 27.6838ZM26.4129 7.85397C24.6125 7.85397 22.2069 8.15353 19.8761 9.39065C19.4288 9.63266 19.2729 9.88369 19.2729 10.0883C19.2729 10.2907 19.496 10.7755 20.2861 10.7755C21.401 10.7755 22.897 10.0494 24.4341 10.0494C25.8713 10.0494 26.2261 10.8157 26.2747 10.9336C26.3288 10.4371 26.9162 9.3747 28.1376 7.94758C27.5668 7.88349 26.9902 7.85219 26.4129 7.85397ZM15.771 12.6062C15.0903 13.6671 13.8333 16.0575 15.0697 18.8847C15.3452 19.5115 15.8737 19.6308 16.3509 19.5115C16.9897 19.3555 17.1279 18.8098 17.1073 18.0151C17.0802 16.986 16.9168 15.2891 18.5211 14.9015C18.6902 14.855 18.8592 14.8328 19.0189 14.8391C18.2634 14.604 17.1587 13.7989 15.771 12.6062Z" fill="#CC2229"/>
</g>
<defs>
<clipPath id="clip0">
<rect width="180" height="35" fill="white"/>
</clipPath>
</defs>
</svg>
