<svg width="129" height="37" viewBox="0 0 129 37" fill="none" xmlns="http://www.w3.org/2000/svg">
<path fill-rule="evenodd" clip-rule="evenodd" d="M0 -37.752H129V72.3456H0V-37.752Z" fill="white"/>
<path fill-rule="evenodd" clip-rule="evenodd" d="M101.707 24.0621H105.612L110.074 18.609L118.835 30.9304H127.104L114.79 13.2411L121.588 5.31836H117.733L113.218 11.033L109.464 5.31836H101.349L108.399 16.1416L101.707 24.0621Z" fill="black"/>
<path fill-rule="evenodd" clip-rule="evenodd" d="M87.9019 14.8476C87.9019 12.0117 88.4447 7.60963 91.2522 7.60963C94.8962 7.60963 95.0441 12.1813 95.0441 15.0595C95.0441 17.0489 94.6506 22.0866 91.6952 22.0866C87.9515 22.0866 87.9019 16.8375 87.9019 14.8476ZM80.0698 14.8904C80.0698 20.3931 84.9466 24.5061 91.2522 24.5061C97.6059 24.5061 102.778 20.7747 102.778 15.1017C102.778 9.59903 97.7043 5.02734 91.2026 5.02734C84.6012 5.02734 80.0698 9.13352 80.0698 14.8904Z" fill="black"/>
<path fill-rule="evenodd" clip-rule="evenodd" d="M70.7762 24.3481H77.8568V6.05967H85.889V2.67773H62.7446V6.05967H70.7762V24.3481Z" fill="black"/>
<path fill-rule="evenodd" clip-rule="evenodd" d="M52.8598 21.9084V8.09685H54.217C58.6621 8.09685 61.7841 10.618 61.7841 14.9321C61.7841 19.8916 58.1194 21.9084 54.0471 21.9084H52.8598ZM46.5141 24.3462H56.1853C66.9761 24.3462 68.435 17.3693 68.435 15.3805C68.435 9.07699 61.9541 5.65907 55.2691 5.65907H46.5141V24.3462ZM38.5368 21.7022C36.4922 21.7022 36.0204 21.3664 36.0204 19.73V16.3732H43.621V13.7286H36.0211V10.7071C36.0211 9.15467 36.7024 8.52523 38.6425 8.52523H44.4615V5.88126H33.9766C30.5173 5.88126 28.5249 7.30806 28.5249 10.1616V20.6947C28.5249 23.506 30.6217 24.3462 33.8193 24.3462H44.8805V21.7022H38.5368ZM3.02824 24.3462H6.26V10.2131L13.0488 21.4367H13.7434L19.2232 10.2782V24.3462H25.686V6.47699C25.686 4.2277 23.9366 3.13048 22.0802 3.02252C20.4419 2.92714 18.7192 3.60284 18.0413 4.93767L14.8316 11.6633L10.6382 4.85143C9.79626 3.52801 8.56017 2.9854 7.25917 2.99225C5.09151 3.0031 2.88301 4.30367 3.02824 6.21311V24.3462ZM2.01367 29.444C2.0217 30.5161 3.08713 31.0501 4.00198 31.0501C5.17516 31.0501 5.99899 30.3173 5.99899 29.3868C5.99899 28.1731 4.80106 27.8818 4.16862 27.711C3.82731 27.6185 3.37825 27.4837 3.37825 27.0719C3.37825 26.7874 3.57769 26.5173 4.03545 26.5173C4.4845 26.5173 4.67591 26.8017 4.67591 27.065H5.84908C5.80759 26.3396 5.24142 25.5737 4.06824 25.5737C2.8616 25.5737 2.23787 26.3756 2.23787 27.065C2.23787 28.1228 3.27787 28.4073 3.96049 28.6055C4.32656 28.7129 4.85861 28.9111 4.85861 29.4434C4.85861 29.8204 4.526 30.1037 4.02675 30.1037C3.59442 30.1037 3.22834 29.8546 3.20291 29.4434H2.01367V29.444ZM15.197 27.1718C14.681 26.1631 13.6163 25.5742 12.3427 25.5742C10.1623 25.5742 9.12234 27.1227 9.12234 28.2942C9.12234 29.5011 10.171 31.0507 12.326 31.0507C13.6651 31.0507 14.6556 30.4172 15.1636 29.4942H13.8405C13.4577 29.9203 12.9082 30.1042 12.3594 30.1042C11.1776 30.1042 10.2627 29.2812 10.2627 28.2936C10.2627 27.37 11.12 26.5178 12.3514 26.5178C13.0836 26.5178 13.5915 26.8383 13.8994 27.1718H15.197ZM18.6028 30.921H19.7425V25.6668H18.6028V30.921ZM23.5572 30.921H26.8599V29.9774H24.6969V28.7694H26.7689V27.8252H24.6969V26.6109H26.8599V25.6668H23.5572V30.921ZM30.5327 30.921H31.6724V27.3706L34.4183 30.921H35.558V25.6668H34.4183V29.2166L31.6724 25.6668H30.5327V30.921ZM39.9549 30.921H41.0946V26.6109H42.2343V25.6668H38.8152V26.6109H39.9549V30.921ZM45.5082 30.921H46.6479V25.6668H45.5082V30.921ZM50.4613 30.921H51.601V28.7694H53.4983V27.8252H51.601V26.6109H53.59V25.6668H50.4613V30.921ZM57.1296 30.921H58.2693V25.6668H57.1296V30.921ZM67.8414 27.1718C67.3254 26.1631 66.2614 25.5742 64.9865 25.5742C62.8074 25.5742 61.7667 27.1227 61.7667 28.2942C61.7667 29.5011 62.8154 31.0507 64.9711 31.0507C66.3109 31.0507 67.3 30.4172 67.8086 29.4942H66.4842C66.1014 29.9203 65.552 30.1042 65.0032 30.1042C63.822 30.1042 62.9065 29.2812 62.9065 28.2936C62.9065 27.37 63.7637 26.5178 64.9951 26.5178C65.7273 26.5178 66.2346 26.8383 66.5424 27.1718H67.8414ZM71.2646 30.9222H71.7545V31.0427C71.7545 31.2991 71.539 31.4408 71.28 31.4408V31.9171C71.5718 31.9092 71.8709 31.8166 72.071 31.6607C72.3876 31.4117 72.3702 31.0929 72.3702 30.8856V29.9774H71.2646V30.9222ZM80.911 30.921H82.0514V25.6668H80.911V30.921ZM85.8654 30.921H87.0051V27.3706L89.751 30.921H90.8907V25.6668H89.751V29.2166L87.0051 25.6668H85.8654V30.921ZM100.429 27.1718C99.9134 26.1631 98.8486 25.5742 97.5751 25.5742C95.3947 25.5742 94.3547 27.1227 94.3547 28.2942C94.3547 29.5011 95.4027 31.0507 97.5583 31.0507C98.8982 31.0507 99.8886 30.4172 100.396 29.4942H99.0728C98.69 29.9203 98.1406 30.1042 97.5918 30.1042C96.4099 30.1042 95.4951 29.2812 95.4951 28.2936C95.4951 27.37 96.351 26.5178 97.5824 26.5178C98.3159 26.5178 98.8232 26.8383 99.1297 27.1718H100.429ZM103.853 30.921H104.959V29.9774H103.853V30.921Z" fill="black"/>
</svg>
