<svg width="230" height="38" viewBox="0 0 230 38" fill="none" xmlns="http://www.w3.org/2000/svg">
<g clip-path="url(#clip0)">
<path fill-rule="evenodd" clip-rule="evenodd" d="M0 -66.1484H230V103.21H0V-66.1484Z" fill="white"/>
<path fill-rule="evenodd" clip-rule="evenodd" d="M224.061 7.35198V5.46912H224.914L225.379 6.72378L225.842 5.46912H226.618V7.35198H226.152V5.86889L225.611 7.35198H225.146L224.604 5.86889V7.35198H224.061ZM222.435 7.35198V5.81177H221.662V5.46912H223.752V5.81177H222.978V7.35198H222.435ZM193.93 5.46912L214.767 22.4659V5.46912H218.562V30.6221H214.767L190.133 10.9446V30.6221H186.339V5.46912H193.93ZM111.979 5.46912C116.549 5.46912 122.359 8.14976 122.513 12.1993C122.669 16.1346 118.642 18.3593 112.832 18.9857L123.366 30.6221H115L103.382 17.4464H107.488C112.211 17.4464 115.078 15.0504 115 12.3697C115 9.23309 112.134 7.06556 106.248 7.06556H101.369V30.6221H93.3133V5.46912H111.979ZM128.709 5.46912H136.843V30.623H128.709V5.46912ZM161.63 5.12733C172.784 5.12733 181.846 11.0026 181.846 18.3039C181.846 25.4892 172.783 31.4216 161.63 31.4216C150.477 31.4216 141.413 25.4892 141.413 18.3039C141.413 11.0017 150.476 5.12733 161.63 5.12733ZM67.8285 5.12733C78.9827 5.12733 88.0452 11.0026 88.0452 18.3039C88.0452 25.4892 78.9827 31.4216 67.8285 31.4216C56.6743 31.4216 47.5343 25.4892 47.5343 18.3039C47.5343 11.0017 56.6743 5.12733 67.8285 5.12733ZM36.6903 28.0556H29.3317C28.4798 28.0556 27.7829 28.4554 27.7829 28.9123C27.7829 29.4254 28.7124 29.7101 29.3317 29.7101H34.212C30.9581 31.4778 26.9298 32.5621 22.5936 32.5621C11.9811 32.5621 3.38281 26.2299 3.38281 18.5306C3.38281 10.8313 11.9811 4.5 22.5936 4.5C26.5551 4.50275 30.4205 5.39835 33.6703 7.06644H20.6558C19.8039 7.06644 19.107 7.4662 19.107 7.9222C19.107 8.49243 20.0366 8.72086 20.6558 8.72086H36.3801C37.3871 9.51952 38.3167 10.3753 39.0911 11.2873H23.6759C22.8239 11.2873 22.2046 11.63 22.2046 12.086C22.2046 12.7133 23.1342 12.9417 23.6759 12.9417H40.2533C40.7174 13.7404 41.1052 14.5962 41.4154 15.509H25.9227C25.0707 15.509 24.3739 15.8508 24.3739 16.3068C24.3739 16.877 25.3034 17.1626 25.9227 17.1626H41.7245C41.8009 17.6186 41.8784 18.0755 41.8784 18.5315C41.8784 18.8741 41.8784 19.2739 41.8009 19.6148H27.6266C26.7747 19.6148 26.0778 20.0146 26.0778 20.4697C26.0778 21.0408 27.0073 21.2692 27.6266 21.2692H41.4918C41.2597 22.1517 40.8964 23.0126 40.4084 23.8365H28.8664C28.0144 23.8365 27.3176 24.2345 27.3176 24.6343C27.3176 25.2608 28.2471 25.4892 28.8664 25.4892H39.3237C38.5589 26.4045 37.6771 27.2639 36.6903 28.0556Z" fill="black"/>
<path fill-rule="evenodd" clip-rule="evenodd" d="M67.9837 6.72461C76.582 6.72461 79.6796 11.9155 79.6796 18.245C79.6796 24.5192 76.5808 29.6529 67.9837 29.6529C59.3865 29.6529 56.209 24.5183 56.209 18.245C56.209 11.9155 59.3853 6.72461 67.9837 6.72461ZM161.784 6.72461C170.383 6.72461 173.56 11.9155 173.56 18.245C173.56 24.5192 170.383 29.6529 161.784 29.6529C153.187 29.6529 150.013 24.5183 150.013 18.245C150.013 11.9155 153.187 6.72461 161.784 6.72461Z" fill="white"/>
</g>
<defs>
<clipPath id="clip0">
<rect width="230" height="38" fill="white"/>
</clipPath>
</defs>
</svg>
