<svg width="114" height="63" viewBox="0 0 114 63" fill="none" xmlns="http://www.w3.org/2000/svg">
<g clip-path="url(#clip0)">
<path d="M25.0435 24.6254C23.0045 24.8581 21.1705 23.3791 20.9384 21.3233C20.7079 19.2656 22.1724 17.4102 24.2097 17.1774C26.2453 16.9464 28.0843 18.4236 28.3116 20.4796C28.5453 22.537 27.0792 24.3942 25.0435 24.6254ZM39.1801 14.6673C36.7089 13.8542 35.3598 11.1696 36.1617 8.67562C36.9699 6.18008 39.6266 4.81586 42.0992 5.63048C44.567 6.44348 45.921 9.12656 45.1144 11.6238C44.3078 14.1193 41.6528 15.4819 39.1801 14.6673ZM55.5573 9.93139C53.3055 7.70892 53.2638 4.06249 55.4645 1.78844C57.6651 -0.484105 61.2757 -0.526011 63.529 1.69795C65.7792 3.92042 65.8192 7.56686 63.6186 9.83929C61.4164 12.1135 57.8058 12.1555 55.5573 9.93139ZM71.5134 10.906C70.1786 7.42296 71.891 3.50655 75.3417 2.16018C78.7873 0.810579 82.6668 2.54158 84.0016 6.02478C85.3363 9.50636 83.6239 13.4243 80.175 14.7706C76.7229 16.1187 72.8498 14.3876 71.5134 10.906ZM87.284 17.6364C87.284 13.156 90.8818 9.52259 95.3214 9.52259C99.7577 9.52259 103.354 13.1561 103.354 17.6364C103.354 22.1152 99.7577 25.752 95.3214 25.752C90.8817 25.7519 87.284 22.1152 87.284 17.6364Z" fill="#ED1A3D"/>
<path d="M70.6833 35.1032C67.9802 33.7309 65.0034 32.9746 62.3034 32.9746C55.9513 32.9746 51.3422 37.6311 51.3422 44.0446C51.3422 49.1021 54.1908 54.2079 60.5509 54.2079C62.2217 54.2079 63.7102 53.8539 65.0354 53.1201V54.0463C65.0354 56.5047 64.4832 58.7788 60.4693 58.7788C59.5379 58.7788 58.6576 58.6333 57.8591 58.4055C56.854 58.1049 55.9097 57.6135 54.9736 57.1383L54.8679 57.0897C54.6359 56.9913 54.3846 57.0025 54.1525 57.0978C53.9765 57.1673 53.8501 57.2837 53.7412 57.4357C53.61 57.6135 52.2881 59.6791 52.1969 59.8634L52.0784 60.219L52.0641 60.3612C52.0641 60.6489 52.1873 60.9058 52.381 61.0886C52.7986 61.4812 53.3188 61.7836 53.8181 62.0584C53.9652 62.1391 54.1157 62.2118 54.2646 62.2862C55.8074 63.0556 58.0735 63.799 61.0825 63.799C64.2993 63.799 66.844 62.8794 68.6396 61.0643C70.8578 58.8241 70.8578 56.5676 70.8578 53.7165V35.1871L70.6833 35.1032ZM65.0354 48.428C64.7217 48.6333 63.3694 49.3558 61.8153 49.3558C59.5379 49.3558 57.2461 47.6231 57.2461 43.7554C57.2461 40.2625 59.293 37.8235 62.2202 37.8235C63.5231 37.8235 64.6577 38.2277 65.0354 38.3763V48.428ZM27.5422 34.476L27.5247 34.345C27.4494 33.8941 27.0605 33.5513 26.5948 33.5513H22.5858C22.0625 33.5513 21.6383 33.9812 21.6383 34.5098V53.2495C21.6383 53.7781 22.0625 54.2079 22.5858 54.2079H26.5948C27.0638 54.2079 27.451 53.8604 27.5263 53.4078L27.5423 53.264L27.5422 34.476ZM113.94 28.3777C113.909 27.875 113.501 27.479 113 27.479H108.988C108.472 27.479 108.061 27.8944 108.048 28.4149V53.3223C108.087 53.8169 108.492 54.2064 108.988 54.2064H113C113.507 54.2064 113.919 53.7991 113.94 53.2899V28.3777ZM96.6134 32.9745C90.9223 32.9745 86.7933 37.6115 86.7933 44.0008C86.7933 50.5517 90.7911 54.7832 96.9799 54.7832C100.475 54.7832 103.1 53.4951 104.076 52.9357C104.273 52.8307 104.817 52.341 104.347 51.4132L103.372 49.4832C103.106 48.9676 102.741 48.8577 102.484 48.8577C102.356 48.8577 102.226 48.8836 102.031 48.9644L101.911 49.0226C100.369 49.7176 98.9148 50.0555 97.4679 50.0555C95.8979 50.0555 94.5935 49.5512 93.6973 48.5944C92.9019 47.7458 92.5499 46.6644 92.5322 45.8936H105.82V43.962C105.821 37.0815 102.38 32.9745 96.6134 32.9745ZM92.5323 41.4973C93.0125 39.0211 94.608 37.4953 96.735 37.4953C99.8959 37.4953 100.28 40.4903 100.32 41.4973H92.5323ZM85.3079 50.1607C85.0776 49.5271 84.6198 49.4318 84.362 49.4318L83.9748 49.4965C83.3971 49.6517 82.8673 49.7259 82.3055 49.7259C80.1563 49.7259 79.9768 48.1873 79.9768 46.4708V38.5653H85.1591C85.2835 38.5654 85.4067 38.5406 85.5217 38.4926C85.6367 38.4445 85.7411 38.374 85.8291 38.2851C85.9171 38.1963 85.9869 38.0908 86.0345 37.9747C86.0821 37.8585 86.1066 37.7341 86.1066 37.6084V34.5068C86.1066 34.0057 85.7241 33.6018 85.2392 33.5596L85.1736 33.5516H85.1609L85.1596 33.5504L79.9775 33.5516V28.4359C79.9777 28.3104 79.9533 28.1861 79.9058 28.0702C79.8583 27.9542 79.7887 27.8489 79.7008 27.7601C79.6129 27.6714 79.5086 27.601 79.3938 27.5531C79.2789 27.5052 79.1559 27.4806 79.0316 27.4807H75.0225C74.8756 27.4816 74.731 27.517 74.6 27.5841C74.1999 27.7538 74.0752 28.1191 74.0752 28.4068V46.267C74.0752 49.0876 74.0752 51.124 75.8452 52.9132C77.4569 54.5425 79.8687 54.7833 81.165 54.7833C83.1512 54.7833 84.6092 54.3033 85.531 53.8604C85.7807 53.7391 86.4353 53.2784 86.0703 52.2635L85.3085 50.1606L85.3079 50.1607ZM8.54527 35.7949C8.19953 35.6332 7.82985 35.4327 7.50817 35.1775C7.28212 35.018 7.09092 34.8133 6.94641 34.5761L6.82478 34.3418L6.7671 34.1948C6.69289 33.9824 6.655 33.7589 6.65505 33.5337C6.65505 33.1523 6.76391 32.7967 6.9463 32.4912C7.31278 31.835 7.99776 31.3468 8.7068 31.135C10.8178 30.44 13.1063 31.0898 14.9661 32.1727L15.3165 32.3587C15.5279 32.4863 15.7471 32.5655 15.9376 32.5655C16.2497 32.5655 16.5282 32.4282 16.7249 32.2115L16.7198 32.218C17.4032 31.3872 18.4851 29.7078 18.5042 29.6788C18.7027 29.3539 18.7218 28.9126 18.5299 28.5781L18.3394 28.3211L18.0657 28.0998C15.1657 26.0664 11.4383 25.3747 7.98306 25.9436C5.96813 26.2894 4.01076 27.2075 2.62644 28.7447C0.392297 31.1676 -0.0686883 35.1259 1.67414 37.9577C2.89204 39.949 4.96625 41.1935 7.04365 42.102C8.57525 42.8309 10.2572 43.2996 11.6801 44.2517C12.4499 44.7252 12.9652 45.577 12.9652 46.5566C12.9652 47.6185 12.333 48.5253 11.5057 48.9681C11.0575 49.2072 10.619 49.3964 10.1229 49.4966C9.62843 49.5968 9.11945 49.6259 8.61697 49.6096C8.3329 49.5997 8.04938 49.5776 7.76716 49.5435C6.11233 49.3947 4.65277 48.6205 3.19959 47.8867L3.08594 47.8334C2.8363 47.7315 2.5626 47.7397 2.31615 47.84C2.12407 47.9192 1.98967 48.0452 1.86645 48.2085C1.72567 48.3991 0.302927 50.6296 0.202044 50.8301L0.0724344 51.2099L0.0610352 51.3649C0.0610352 51.6768 0.192241 51.9548 0.401873 52.152C1.84547 53.3804 3.69238 54.0658 5.50885 54.5183C8.52247 55.1666 11.8146 55.1132 14.5993 53.6876C19.2677 51.5232 20.8153 44.5117 17.2752 40.6893C14.9193 38.1952 11.5473 37.219 8.54493 35.795L8.54527 35.7949ZM49.1192 48.5621V42.716C49.1256 40.159 49.1304 37.2626 46.8993 35.0095C45.5821 33.6809 43.732 32.9746 41.5411 32.9746C39.1356 32.9746 37.6601 34.1706 36.8935 34.8833V34.5116C36.8855 34.4065 36.8807 34.3646 36.8567 34.2658V34.2646L36.8502 34.2436L36.8422 34.2257L36.8245 34.1676L36.815 34.1336L36.5685 33.7957L36.5188 33.7553L36.5092 33.7473L36.5028 33.7445L36.5017 33.7433C36.3433 33.6269 36.156 33.5541 35.9447 33.5541H31.934C31.4107 33.5541 30.9882 33.9825 30.9882 34.5125V53.2521C30.9882 53.7806 31.4107 54.209 31.934 54.209H35.9447C36.4152 54.209 36.7993 53.863 36.8762 53.4105L36.8938 53.265L36.891 49.4892H36.8938V39.2919C37.4076 38.9314 38.8896 38.1168 40.4004 38.1168C41.279 38.1168 41.9768 38.3496 42.4185 38.7973C43.1019 39.4858 43.2155 40.7579 43.2155 43.3456L43.2167 43.7707V53.2519C43.2167 53.7805 43.6424 54.2089 44.1642 54.2089H48.1733C48.6421 54.2089 49.0295 53.8629 49.1047 53.4104L49.1208 53.2648L49.1196 49.4923L49.1208 49.4809V48.5644L49.1196 48.5633" fill="#231F20"/>
</g>
<defs>
<clipPath id="clip0">
<rect width="114" height="63" fill="white"/>
</clipPath>
</defs>
</svg>
