<svg width="129" height="35" viewBox="0 0 129 35" fill="none" xmlns="http://www.w3.org/2000/svg">
<g clip-path="url(#clip0)">
<path fill-rule="evenodd" clip-rule="evenodd" d="M0 -58.4668H129V96.6468H0V-58.4668Z" fill="white"/>
<path fill-rule="evenodd" clip-rule="evenodd" d="M22.7085 17.3482C24.3843 16.5145 25.0201 17.5912 24.4131 19.1902C24.0952 20.0577 21.3506 25.026 22.9682 26.2427C24.4419 27.2502 27.1576 22.3857 27.2734 20.893C27.7064 19.5378 29.498 21.2406 29.4404 21.5529C29.4404 21.6221 29.585 22.595 29.585 22.595C29.9892 28.8146 33.6299 21.1706 33.832 20.5453C33.8895 20.3015 33.6299 19.9547 33.6299 19.6763C33.6299 18.9818 35.2193 17.9051 35.3056 17.8705C36.4038 17.0368 37.2123 17.419 38.166 18.4611C40.1021 20.5453 40.1021 20.5453 40.1596 21.6913C40.2178 21.7967 39.8705 24.61 40.42 25.6175C40.9687 26.6596 45.5343 20.1293 45.9097 20.893C46.2276 21.2752 46.8634 21.9351 46.4585 22.1097C45.5048 22.5958 44.3203 24.507 43.2515 25.5829C42.1533 26.7288 40.42 29.4383 38.6579 29.3345C36.6642 29.2306 37.1842 22.908 37.1842 22.908C37.1842 22.3865 35.6242 21.0314 35.6242 21.0314C35.6242 21.0314 29.1239 34.0243 27.159 24.923C27.159 24.8884 23.2011 31.4533 20.8608 29.9951C19.1274 28.9184 19.0116 26.2781 19.5611 23.6725C19.3295 23.7779 19.0699 23.7779 18.8965 23.6033C18.5211 23.2556 18.1457 22.3865 18.6074 22.1789C19.185 21.9005 20.0516 21.066 20.5723 20.4769C21.2636 18.8772 22.0727 17.6612 22.7085 17.3482ZM67.1434 18.0435C66.1027 17.5228 62.0003 24.8876 63.3006 25.6513C64.3118 26.2073 67.4606 21.2398 68.0676 19.9885C68.1553 19.7809 70.1195 18.808 70.0325 20.8576C69.9749 21.8651 69.9462 23.8455 69.8886 23.7763C70.0613 26.6934 74.5104 20.0577 74.7995 20.7176L75.3483 21.5174C75.3483 22.1427 70.9861 27.4225 69.3391 27.4933C68.0388 27.5625 67.6634 25.7551 67.3743 24.2269C67.2879 25.0944 62.2024 30.6188 59.862 29.1606C57.0024 27.3878 63.9939 15.4724 67.4606 15.6462C68.5013 15.6808 69.3679 16.9668 69.4255 17.6958C69.4543 18.3211 68.6164 19.1902 67.8073 19.2248C67.1721 19.2248 67.7785 18.3557 67.1434 18.0435ZM50.7912 17.6612C50.7336 17.4528 52.8999 4.87673 54.0269 4.73751C54.6627 4.59829 57.1188 5.32817 56.8873 6.09265C55.8473 9.70582 51.1666 27.284 52.5827 29.7159C54.9518 29.7505 55.7897 28.8138 57.8985 27.9101C58.563 27.6317 58.7652 28.6046 58.4767 28.7776V30.6196C57.3785 31.6963 56.0788 32.3562 54.6915 32.7038C53.9694 32.913 50.4445 33.7113 49.9533 33.086C48.4221 30.9326 50.2999 21.0652 50.9933 18.3219C50.9933 18.3211 50.9063 17.9743 50.7912 17.6612ZM11.1226 12.6583C11.1226 17.7313 17.4791 19.7463 17.5942 26.3457C17.6518 30.1681 10.3999 35.9001 7.10654 34.7526C6.78865 34.7526 5.69043 33.8851 5.69043 32.287C5.69043 31.001 9.73531 29.0552 11.8153 28.8138C11.8441 28.8138 12.2195 28.9868 12.2195 28.9868C12.3346 28.9868 13.5192 28.2577 13.5486 27.2156C13.6932 21.449 7.62587 19.7109 7.62587 14.0143C7.62587 8.24688 15.1669 3.73081 18.1423 4.28687C18.9226 4.49529 19.2981 6.4757 18.8644 7.34398C18.1129 8.87214 14.6174 10.1581 13.1725 10.4703C12.7971 10.5749 12.5662 10.3319 12.5662 10.3319C12.5662 10.3319 11.3823 11.0956 11.1226 12.6583ZM115.796 23.151C115.768 23.151 119.234 20.3361 118.484 19.3286C117.617 18.1135 115.596 21.9689 115.796 23.151ZM95.6878 23.151C96.0344 22.8034 96.2366 22.5258 96.2366 22.4911C96.1215 13.5274 104.961 3.31397 106.754 3.27937C110.048 3.24476 105.569 15.8901 99.0681 22.5258C98.8078 23.0118 98.6927 26.7288 99.6169 26.6942C101.321 26.6596 102.044 24.4007 102.131 22.8042C101.553 22.0043 101.813 20.7184 101.841 20.6492C101.958 19.9201 102.39 19.1218 103.113 19.1218C103.922 19.1218 104.152 20.2331 104.152 20.9968C104.152 21.9351 104.008 22.7696 104.037 22.8042C104.992 23.2902 106.782 22.1443 106.782 22.0389C107.302 13.4582 112.213 3.97464 114.467 4.49529C115.767 4.80832 115.941 15.647 109.151 22.9772C108.804 25.096 109.585 27.0418 109.845 26.9726C110.422 27.9801 113.34 25.1668 113.34 25.096C113.022 18.3565 118.484 15.3694 120.159 17.5236C122.153 20.0585 115.941 24.9576 115.97 25.0268C116.98 30.655 122.556 22.5612 122.587 22.5266C122.846 22.2481 123.308 22.805 123.308 23.221C123.308 23.2556 116.865 34.0597 113.803 26.8688C109.181 31.5933 106.725 28.7784 106.811 23.9155C106.869 23.9155 105.627 25.1668 103.575 24.75C102.305 29.7513 96.2366 31.5933 96.2941 24.6446C95.0239 26.0689 93.6078 27.4941 92.7987 27.5287C91.5271 27.5979 91.1517 25.7905 90.8626 24.2623C90.7762 25.1314 85.69 30.6542 83.3503 29.196C80.4907 27.4233 87.4822 15.5078 90.9489 15.6816C91.9896 15.7162 92.8562 17.0022 92.9138 17.7321C92.9138 18.3565 92.1047 19.2256 91.2956 19.2602C90.6605 19.2602 91.2668 18.3919 90.6317 18.0797C89.591 17.5582 85.4892 24.923 86.7889 25.6529C87.8008 26.2435 90.9496 21.276 91.5559 20.0247C91.6436 19.8171 93.6078 18.948 93.5208 20.8938C93.4632 21.9013 93.4344 23.8817 93.3769 23.8125C93.4632 25.2352 94.5614 24.3315 95.6878 23.151ZM105.165 8.21227C104.674 8.03846 99.386 16.4799 99.3284 19.6763C101.727 17.5228 106.06 9.04596 105.165 8.21227ZM113.746 8.4899C113.341 8.17767 110.22 15.9247 109.556 20.3707C111.925 17.6959 114.497 9.08056 113.746 8.4899ZM76.4746 5.98884C76.5623 4.70371 76.937 3.45319 78.6416 3.6262C79.8261 3.73001 86.9917 3.86922 87.3966 3.93923C88.3783 4.11305 88.8696 4.07764 89.1299 4.42528C89.1875 4.52909 89.3313 5.18976 89.3313 5.18976C89.2738 5.95424 89.1587 8.10766 88.0899 8.14227C88.0323 8.14227 84.5356 7.517 83.8717 7.96844C83.8717 7.96844 84.4205 8.90674 84.4492 9.5312C84.5356 12.4491 82.311 18.9456 81.6184 27.7001C81.4444 29.8551 81.0984 32.4246 80.4044 32.9122C80.0289 33.2945 79.5377 33.5013 78.845 33.4667C78.2963 33.4321 78.6135 31.7301 78.6135 31.6955C78.8738 23.6701 80.7517 11.0248 80.6071 9.4966C80.4345 7.72462 80.146 8.24607 78.9314 8.73212C78.5559 8.90594 76.7356 9.42659 76.5054 9.32278C76.3314 9.21897 76.3601 8.31528 76.3601 8.21147L76.4753 6.09185V5.98884H76.4746Z" fill="black"/>
</g>
<defs>
<clipPath id="clip0">
<rect width="129" height="35" fill="white"/>
</clipPath>
</defs>
</svg>
