<svg width="139" height="343" viewBox="0 0 139 343" fill="none" xmlns="http://www.w3.org/2000/svg">
<path opacity="0.2" fill-rule="evenodd" clip-rule="evenodd" d="M26.4624 34.8544C35.2012 39.2002 43.1517 44.3624 51.8588 48.7713C64.3242 55.0834 82.2835 54.536 89.2628 66.6543C95.7414 77.9033 86.5505 92.1075 84.179 104.889C81.9646 116.825 80.2331 128.64 75.6747 139.892C70.7491 152.051 66.1773 165.017 56.3184 173.662C46.3076 182.441 33.0035 186.751 19.8694 188.827C7.04428 190.854 -7.72718 192.729 -18.4954 185.488C-29.8803 177.833 -28.7375 159.783 -38.161 149.806C-45.3633 142.181 -60.7286 144.658 -65.761 135.449C-70.8419 126.151 -62.2719 114.648 -63.1497 104.079C-63.9965 93.8826 -70.2745 84.9316 -70.8052 74.7136C-71.4456 62.3857 -71.8049 49.5046 -66.5655 38.3206C-60.9724 26.3819 -53.0095 12.5197 -40.2164 9.41932C-26.692 6.14175 -14.0626 17.4932 -1.07202 22.4485C8.43758 26.076 17.3491 30.3223 26.4624 34.8544Z" fill="#5893C1"/>
<path opacity="0.2" fill-rule="evenodd" clip-rule="evenodd" d="M40.731 142.649C51.3085 149.373 66.0009 152.333 71.4146 163.67C77.115 175.607 63.5864 191.165 69.5394 202.976C76.9755 217.729 102.571 218.468 107.057 234.388C110.888 247.979 100.01 263.367 89.0901 272.344C77.9991 281.461 60.6513 276.337 47.9423 282.983C37.6563 288.363 33.7739 302.411 23.0646 306.873C12.1569 311.419 -0.478944 310.767 -11.9152 307.927C-23.199 305.124 -33.5702 298.944 -41.8328 290.754C-49.6761 282.98 -51.2081 270.912 -58.0295 262.219C-66.0007 252.062 -80.7483 247.453 -85.3111 235.352C-89.8411 223.338 -86.3133 209.576 -82.5177 197.274C-78.7122 184.94 -73.8938 171.515 -63.3349 164.125C-52.6906 156.675 -36.4324 164.33 -25.477 157.351C-12.1384 148.854 -11.0809 124.444 4.32802 121.022C18.2849 117.923 28.6877 134.993 40.731 142.649Z" fill="#5F76A2"/>
</svg>
