<svg width="95" height="343" viewBox="0 0 95 343" fill="none" xmlns="http://www.w3.org/2000/svg">
<path opacity="0.2" fill-rule="evenodd" clip-rule="evenodd" d="M139.462 34.8544C148.201 39.2002 156.152 44.3624 164.859 48.7713C177.324 55.0834 195.283 54.536 202.263 66.6543C208.741 77.9033 199.55 92.1075 197.179 104.889C194.965 116.825 193.233 128.64 188.675 139.892C183.749 152.051 179.177 165.017 169.318 173.662C159.308 182.441 146.004 186.751 132.869 188.827C120.044 190.854 105.273 192.729 94.5046 185.488C83.1197 177.833 84.2625 159.783 74.839 149.806C67.6367 142.181 52.2714 144.658 47.239 135.449C42.1581 126.151 50.7281 114.648 49.8503 104.079C49.0035 93.8826 42.7255 84.9316 42.1948 74.7136C41.5544 62.3857 41.1951 49.5046 46.4345 38.3206C52.0276 26.3819 59.9905 12.5197 72.7836 9.41932C86.308 6.14175 98.9374 17.4932 111.928 22.4485C121.438 26.076 130.349 30.3223 139.462 34.8544Z" fill="#5893C1"/>
<path opacity="0.2" fill-rule="evenodd" clip-rule="evenodd" d="M153.731 142.649C164.309 149.373 179.001 152.333 184.415 163.67C190.115 175.607 176.586 191.165 182.539 202.976C189.975 217.729 215.571 218.468 220.057 234.388C223.888 247.979 213.01 263.367 202.09 272.344C190.999 281.461 173.651 276.337 160.942 282.983C150.656 288.363 146.774 302.411 136.065 306.873C125.157 311.419 112.521 310.767 101.085 307.927C89.801 305.124 79.4298 298.944 71.1672 290.754C63.3239 282.98 61.7919 270.912 54.9705 262.219C46.9993 252.062 32.2517 247.453 27.6889 235.352C23.1589 223.338 26.6867 209.576 30.4823 197.274C34.2878 184.94 39.1062 171.515 49.6651 164.125C60.3094 156.675 76.5676 164.33 87.523 157.351C100.862 148.854 101.919 124.444 117.328 121.022C131.285 117.923 141.688 134.993 153.731 142.649Z" fill="#5F76A2"/>
</svg>
