<svg width="28" height="18" viewBox="0 0 28 18" fill="none" xmlns="http://www.w3.org/2000/svg">
<path d="M4.26 15.3L3.75051 16.1605L3.75715 16.1644L3.76386 16.1682L4.26 15.3ZM1.9 12.76L1.00342 13.2029L1.00664 13.2094L1.00996 13.2159L1.9 12.76ZM1.9 5L2.79444 5.44722L2.79658 5.44289L1.9 5ZM4.24 2.46L3.74385 1.59174L3.73896 1.59457L4.24 2.46ZM11.46 2.46L10.959 3.32544L10.9639 3.32824L11.46 2.46ZM13.8 5L12.8992 5.43414L12.9023 5.4407L12.9056 5.44721L13.8 5ZM13.8 12.76L14.6944 13.2072L14.6966 13.2029L13.8 12.76ZM11.46 15.3L11.9611 16.1655L11.9695 16.1605L11.46 15.3ZM10.94 12.76L11.7175 13.3889V13.3889L10.94 12.76ZM10.94 5L10.1625 5.62889L10.1671 5.63449L10.94 5ZM4.78 4.98L5.55293 5.61449L4.78 4.98ZM4.78 12.76L4.00249 13.3889L4.78 12.76ZM7.86 15.18C6.63232 15.18 5.60884 14.919 4.75614 14.4318L3.76386 16.1682C4.96449 16.8543 6.34102 17.18 7.86 17.18V15.18ZM4.76949 14.4395C3.92588 13.94 3.26784 13.237 2.79004 12.3041L1.00996 13.2159C1.65216 14.4697 2.56746 15.46 3.75051 16.1605L4.76949 14.4395ZM2.79658 12.3171C2.33075 11.3741 2.08 10.2315 2.08 8.86H0.08C0.08 10.4752 0.375918 11.9326 1.00342 13.2029L2.79658 12.3171ZM2.08 8.86C2.08 7.50295 2.33032 6.37544 2.79443 5.44721L1.00557 4.55279C0.376351 5.81123 0.08 7.25705 0.08 8.86H2.08ZM2.79658 5.44289C3.26091 4.50289 3.9078 3.80783 4.74104 3.32543L3.73896 1.59457C2.54553 2.28551 1.63242 3.28378 1.00342 4.55711L2.79658 5.44289ZM4.73614 3.32824C5.58744 2.84179 6.61709 2.58 7.86 2.58V0.58C6.32958 0.58 4.9459 0.904878 3.74386 1.59176L4.73614 3.32824ZM7.86 2.58C9.10332 2.58 10.1238 2.84192 10.959 3.32543L11.961 1.59457C10.7695 0.904744 9.39002 0.58 7.86 0.58V2.58ZM10.9639 3.32824C11.8077 3.81043 12.4501 4.50226 12.8992 5.43414L14.7008 4.56586C14.0833 3.2844 13.1656 2.2829 11.9561 1.59176L10.9639 3.32824ZM12.9056 5.44721C13.3697 6.37544 13.62 7.50295 13.62 8.86H15.62C15.62 7.25705 15.3236 5.81123 14.6944 4.55279L12.9056 5.44721ZM13.62 8.86C13.62 10.2315 13.3693 11.3741 12.9034 12.3171L14.6966 13.2029C15.3241 11.9326 15.62 10.4752 15.62 8.86H13.62ZM12.9056 12.3128C12.4414 13.2411 11.792 13.9413 10.9505 14.4395L11.9695 16.1605C13.1547 15.4587 14.0653 14.4655 14.6944 13.2072L12.9056 12.3128ZM10.959 14.4346C10.1238 14.9181 9.10332 15.18 7.86 15.18V17.18C9.39002 17.18 10.7695 16.8553 11.961 16.1654L10.959 14.4346ZM7.86 15.12C9.43692 15.12 10.7677 14.5631 11.7175 13.3889L10.1625 12.1311C9.64561 12.7702 8.92308 13.12 7.86 13.12V15.12ZM11.7175 13.3889C12.6474 12.2392 13.04 10.6817 13.04 8.86H11.04C11.04 10.425 10.6993 11.4674 10.1625 12.1311L11.7175 13.3889ZM13.04 8.86C13.04 7.05072 12.6469 5.50328 11.7129 4.36551L10.1671 5.63449C10.6997 6.28339 11.04 7.30928 11.04 8.86H13.04ZM11.7175 4.37113C10.7677 3.19685 9.43692 2.64 7.86 2.64V4.64C8.92308 4.64 9.64561 4.98981 10.1625 5.62887L11.7175 4.37113ZM7.86 2.64C6.28841 2.64 4.95872 3.18623 4.00707 4.34551L5.55293 5.61449C6.06795 4.9871 6.79159 4.64 7.86 4.64V2.64ZM4.00707 4.34551C3.07209 5.48449 2.68 7.03966 2.68 8.86H4.68C4.68 7.29367 5.02125 6.26218 5.55293 5.61449L4.00707 4.34551ZM2.68 8.86C2.68 10.6817 3.07264 12.2392 4.00249 13.3889L5.55751 12.1311C5.0207 11.4674 4.68 10.425 4.68 8.86H2.68ZM4.00249 13.3889C4.95227 14.5631 6.28308 15.12 7.86 15.12V13.12C6.79692 13.12 6.07439 12.7702 5.55751 12.1311L4.00249 13.3889ZM26.7427 13.9H27.7427V12.9H26.7427V13.9ZM26.7427 16V17H27.7427V16H26.7427ZM17.9627 16H16.9627V17H17.9627V16ZM17.9627 13.9V12.9H16.9627V13.9H17.9627ZM21.0827 13.9V14.9H22.0827V13.9H21.0827ZM21.0827 4.72H22.0827V2.95381L20.5682 3.86251L21.0827 4.72ZM18.1827 6.46H17.1827V8.22619L18.6972 7.31749L18.1827 6.46ZM18.1827 4.16L17.6644 3.3048L17.1827 3.59674V4.16H18.1827ZM22.1427 1.76V0.76H21.8633L21.6244 0.904802L22.1427 1.76ZM23.6427 1.76H24.6427V0.76H23.6427V1.76ZM23.6427 13.9H22.6427V14.9H23.6427V13.9ZM25.7427 13.9V16H27.7427V13.9H25.7427ZM26.7427 15H17.9627V17H26.7427V15ZM18.9627 16V13.9H16.9627V16H18.9627ZM17.9627 14.9H21.0827V12.9H17.9627V14.9ZM22.0827 13.9V4.72H20.0827V13.9H22.0827ZM20.5682 3.86251L17.6682 5.60251L18.6972 7.31749L21.5972 5.57749L20.5682 3.86251ZM19.1827 6.46V4.16H17.1827V6.46H19.1827ZM18.701 5.0152L22.661 2.6152L21.6244 0.904802L17.6644 3.3048L18.701 5.0152ZM22.1427 2.76H23.6427V0.76H22.1427V2.76ZM22.6427 1.76V13.9H24.6427V1.76H22.6427ZM23.6427 14.9H26.7427V12.9H23.6427V14.9Z" fill="#FDFDFD"/>
</svg>
