<svg width="28" height="18" viewBox="0 0 28 18" fill="none" xmlns="http://www.w3.org/2000/svg">
<path d="M4.26 15.3L3.75051 16.1605L3.75715 16.1644L3.76386 16.1682L4.26 15.3ZM1.9 12.76L1.00342 13.2029L1.00664 13.2094L1.00996 13.2159L1.9 12.76ZM1.9 5L2.79444 5.44722L2.79658 5.44289L1.9 5ZM4.24 2.46L3.74385 1.59174L3.73896 1.59457L4.24 2.46ZM11.46 2.46L10.959 3.32544L10.9639 3.32824L11.46 2.46ZM13.8 5L12.8992 5.43414L12.9023 5.4407L12.9056 5.44721L13.8 5ZM13.8 12.76L14.6944 13.2072L14.6966 13.2029L13.8 12.76ZM11.46 15.3L11.9611 16.1655L11.9695 16.1605L11.46 15.3ZM10.94 12.76L11.7175 13.3889V13.3889L10.94 12.76ZM10.94 5L10.1625 5.62889L10.1671 5.63449L10.94 5ZM4.78 4.98L5.55293 5.61449L4.78 4.98ZM4.78 12.76L4.00249 13.3889L4.78 12.76ZM7.86 15.18C6.63232 15.18 5.60884 14.919 4.75614 14.4318L3.76386 16.1682C4.96449 16.8543 6.34102 17.18 7.86 17.18V15.18ZM4.76949 14.4395C3.92588 13.94 3.26784 13.237 2.79004 12.3041L1.00996 13.2159C1.65216 14.4697 2.56746 15.46 3.75051 16.1605L4.76949 14.4395ZM2.79658 12.3171C2.33075 11.3741 2.08 10.2315 2.08 8.86H0.08C0.08 10.4752 0.375918 11.9326 1.00342 13.2029L2.79658 12.3171ZM2.08 8.86C2.08 7.50295 2.33032 6.37544 2.79443 5.44721L1.00557 4.55279C0.376351 5.81123 0.08 7.25705 0.08 8.86H2.08ZM2.79658 5.44289C3.26091 4.50289 3.9078 3.80783 4.74104 3.32543L3.73896 1.59457C2.54553 2.28551 1.63242 3.28378 1.00342 4.55711L2.79658 5.44289ZM4.73614 3.32824C5.58744 2.84179 6.61709 2.58 7.86 2.58V0.58C6.32958 0.58 4.9459 0.904878 3.74386 1.59176L4.73614 3.32824ZM7.86 2.58C9.10332 2.58 10.1238 2.84192 10.959 3.32543L11.961 1.59457C10.7695 0.904744 9.39002 0.58 7.86 0.58V2.58ZM10.9639 3.32824C11.8077 3.81043 12.4501 4.50226 12.8992 5.43414L14.7008 4.56586C14.0833 3.2844 13.1656 2.2829 11.9561 1.59176L10.9639 3.32824ZM12.9056 5.44721C13.3697 6.37544 13.62 7.50295 13.62 8.86H15.62C15.62 7.25705 15.3236 5.81123 14.6944 4.55279L12.9056 5.44721ZM13.62 8.86C13.62 10.2315 13.3693 11.3741 12.9034 12.3171L14.6966 13.2029C15.3241 11.9326 15.62 10.4752 15.62 8.86H13.62ZM12.9056 12.3128C12.4414 13.2411 11.792 13.9413 10.9505 14.4395L11.9695 16.1605C13.1547 15.4587 14.0653 14.4655 14.6944 13.2072L12.9056 12.3128ZM10.959 14.4346C10.1238 14.9181 9.10332 15.18 7.86 15.18V17.18C9.39002 17.18 10.7695 16.8553 11.961 16.1654L10.959 14.4346ZM7.86 15.12C9.43692 15.12 10.7677 14.5631 11.7175 13.3889L10.1625 12.1311C9.64561 12.7702 8.92308 13.12 7.86 13.12V15.12ZM11.7175 13.3889C12.6474 12.2392 13.04 10.6817 13.04 8.86H11.04C11.04 10.425 10.6993 11.4674 10.1625 12.1311L11.7175 13.3889ZM13.04 8.86C13.04 7.05072 12.6469 5.50328 11.7129 4.36551L10.1671 5.63449C10.6997 6.28339 11.04 7.30928 11.04 8.86H13.04ZM11.7175 4.37113C10.7677 3.19685 9.43692 2.64 7.86 2.64V4.64C8.92308 4.64 9.64561 4.98981 10.1625 5.62887L11.7175 4.37113ZM7.86 2.64C6.28841 2.64 4.95872 3.18623 4.00707 4.34551L5.55293 5.61449C6.06795 4.9871 6.79159 4.64 7.86 4.64V2.64ZM4.00707 4.34551C3.07209 5.48449 2.68 7.03966 2.68 8.86H4.68C4.68 7.29367 5.02125 6.26218 5.55293 5.61449L4.00707 4.34551ZM2.68 8.86C2.68 10.6817 3.07264 12.2392 4.00249 13.3889L5.55751 12.1311C5.0207 11.4674 4.68 10.425 4.68 8.86H2.68ZM4.00249 13.3889C4.95227 14.5631 6.28308 15.12 7.86 15.12V13.12C6.79692 13.12 6.07439 12.7702 5.55751 12.1311L4.00249 13.3889ZM23.9227 8.68L23.5696 7.7444L20.6708 8.83828L23.6621 9.64547L23.9227 8.68ZM25.8427 9.92L25.0363 10.5114L25.0405 10.5171L25.0448 10.5228L25.8427 9.92ZM25.1427 15.08L24.5263 14.2925L24.5208 14.2969L25.1427 15.08ZM18.6827 15.72L18.3664 16.6687L18.3707 16.6701L18.6827 15.72ZM16.5027 14.5L15.597 14.0761L15.284 14.7447L15.8308 15.2407L16.5027 14.5ZM17.3827 12.62L17.9972 11.8311L17.0083 11.0608L16.477 12.1961L17.3827 12.62ZM23.3827 13.56L22.7608 12.7769L22.7551 12.7814L22.7494 12.786L23.3827 13.56ZM23.3827 10.34L22.7752 11.1344L22.7827 11.1401L22.7903 11.1457L23.3827 10.34ZM19.4027 9.82H18.4027V10.82H19.4027V9.82ZM19.4027 7.76V6.76H18.4027V7.76H19.4027ZM23.1027 4.16L22.4477 4.91569L22.4477 4.91569L23.1027 4.16ZM17.5827 5.12L16.6733 5.53599L17.1967 6.68014L18.1932 5.91201L17.5827 5.12ZM16.7227 3.24L16.0605 2.49067L15.5048 2.98169L15.8133 3.65599L16.7227 3.24ZM18.8827 2.04L19.2033 2.98725L19.2117 2.9843L18.8827 2.04ZM24.9227 2.62L24.28 3.38619L24.2867 3.39178L24.2935 3.39724L24.9227 2.62ZM26.1827 5.36L27.1825 5.37695L27.1827 5.36847V5.36H26.1827ZM25.5627 7.42L24.7364 6.85666L24.7336 6.86086L25.5627 7.42ZM23.6621 9.64547C24.3218 9.82347 24.7525 10.1244 25.0363 10.5114L26.6491 9.32864C26.0529 8.51564 25.2035 7.98987 24.1832 7.71453L23.6621 9.64547ZM25.0448 10.5228C25.3455 10.9209 25.5227 11.4392 25.5227 12.14H27.5227C27.5227 11.0808 27.2464 10.1191 26.6405 9.31717L25.0448 10.5228ZM25.5227 12.14C25.5227 13.0943 25.1875 13.7751 24.5263 14.2925L25.759 15.8675C26.9379 14.9449 27.5227 13.6657 27.5227 12.14H25.5227ZM24.5208 14.2969C23.8424 14.8356 22.8593 15.16 21.4627 15.16V17.16C23.1593 17.16 24.6296 16.7644 25.7645 15.8631L24.5208 14.2969ZM21.4627 15.16C20.6064 15.16 19.7852 15.0295 18.9946 14.7699L18.3707 16.6701C19.3668 16.9972 20.3989 17.16 21.4627 17.16V15.16ZM18.9989 14.7713C18.2249 14.5133 17.6267 14.1694 17.1745 13.7593L15.8308 15.2407C16.5253 15.8706 17.3804 16.34 18.3664 16.6687L18.9989 14.7713ZM17.4083 14.9239L18.2883 13.0439L16.477 12.1961L15.597 14.0761L17.4083 14.9239ZM16.7681 13.4089C18.1815 14.5098 19.7192 15.1 21.3627 15.1V13.1C20.2327 13.1 19.1172 12.7035 17.9972 11.8311L16.7681 13.4089ZM21.3627 15.1C22.3715 15.1 23.3181 14.9049 24.0159 14.334L22.7494 12.786C22.5672 12.9351 22.1672 13.1 21.3627 13.1V15.1ZM24.0045 14.3431C24.7587 13.7442 25.0627 12.8694 25.0627 11.92H23.0627C23.0627 12.4372 22.9133 12.6558 22.7608 12.7769L24.0045 14.3431ZM25.0627 11.92C25.0627 10.9801 24.7546 10.1076 23.975 9.53435L22.7903 11.1457C22.9173 11.2391 23.0627 11.4199 23.0627 11.92H25.0627ZM23.9901 9.54564C23.2804 9.00296 22.3167 8.82 21.2827 8.82V10.82C22.142 10.82 22.5782 10.9837 22.7752 11.1344L23.9901 9.54564ZM21.2827 8.82H19.4027V10.82H21.2827V8.82ZM20.4027 9.82V7.76H18.4027V9.82H20.4027ZM19.4027 8.76H20.9427V6.76H19.4027V8.76ZM20.9427 8.76C21.9611 8.76 22.908 8.57122 23.6182 8.03083C24.38 7.45115 24.7027 6.59864 24.7027 5.66H22.7027C22.7027 6.12136 22.5653 6.31884 22.4071 6.43917C22.1974 6.59878 21.7642 6.76 20.9427 6.76V8.76ZM24.7027 5.66C24.7027 4.79043 24.427 3.98443 23.7576 3.40431L22.4477 4.91569C22.5784 5.02891 22.7027 5.2229 22.7027 5.66H24.7027ZM23.7576 3.40431C23.1193 2.85113 22.2962 2.64 21.4227 2.64V4.64C21.9891 4.64 22.286 4.77553 22.4477 4.91569L23.7576 3.40431ZM21.4227 2.64C19.8693 2.64 18.3805 3.24242 16.9721 4.32799L18.1932 5.91201C19.3449 5.02425 20.416 4.64 21.4227 4.64V2.64ZM18.492 4.70401L17.632 2.82401L15.8133 3.65599L16.6733 5.53599L18.492 4.70401ZM17.3849 3.98933C17.8411 3.58612 18.4383 3.24612 19.2033 2.98722L18.5621 1.09278C17.5937 1.42055 16.7509 1.88055 16.0605 2.49067L17.3849 3.98933ZM19.2117 2.9843C19.9873 2.71402 20.7762 2.58 21.5827 2.58V0.58C20.5492 0.58 19.538 0.752646 18.5536 1.0957L19.2117 2.9843ZM21.5827 2.58C22.8187 2.58 23.6813 2.88403 24.28 3.38619L25.5653 1.85381C24.5107 0.969304 23.1466 0.58 21.5827 0.58V2.58ZM24.2935 3.39724C24.8829 3.87445 25.1827 4.49392 25.1827 5.36H27.1827C27.1827 3.93274 26.6424 2.72555 25.5519 1.84275L24.2935 3.39724ZM25.1828 5.34305C25.1724 5.95643 25.0147 6.44846 24.7364 6.85666L26.3889 7.98334C26.9106 7.21821 27.1662 6.3369 27.1825 5.37695L25.1828 5.34305ZM24.7336 6.86086C24.4735 7.2465 24.1012 7.54379 23.5696 7.7444L24.2757 9.6156C25.1574 9.28288 25.8785 8.74017 26.3917 7.97914L24.7336 6.86086Z" fill="#FDFDFD"/>
</svg>
