<svg width="56" height="38" viewBox="0 0 56 38" fill="none" xmlns="http://www.w3.org/2000/svg">
<path d="M4.28331 31.968L3.46484 32.5427L3.47194 32.5525L4.28331 31.968ZM4.28331 5.952L3.47192 5.36745L3.46781 5.37325L4.28331 5.952ZM22.8593 5.952L22.0437 6.53079L22.051 6.54069L22.8593 5.952ZM22.8593 31.92L22.045 31.3396L22.0409 31.3454L22.8593 31.92ZM18.3953 28.56L17.5009 28.1128L17.4981 28.1185L18.3953 28.56ZM18.3953 9.36L17.4981 9.80151L17.5023 9.81012L17.5067 9.81864L18.3953 9.36ZM8.74731 9.36L7.85572 8.90713L7.85289 8.91279L8.74731 9.36ZM8.74731 28.56L7.84733 28.9959L7.85145 29.0044L7.85573 29.0129L8.74731 28.56ZM13.5953 35.432C9.81254 35.432 7.02837 34.0675 5.09468 31.3835L3.47194 32.5525C5.82626 35.8205 9.25008 37.432 13.5953 37.432V35.432ZM5.10173 31.3934C3.15717 28.6239 2.11531 24.4931 2.11531 18.864H0.115313C0.115313 24.6909 1.18546 29.2962 3.4649 32.5426L5.10173 31.3934ZM2.11531 18.864C2.11531 13.3342 3.156 9.26836 5.09882 6.53074L3.46781 5.37325C1.18663 8.58764 0.115313 13.1298 0.115313 18.864H2.11531ZM5.09468 6.53653C7.02837 3.85246 9.81254 2.488 13.5953 2.488V0.487998C9.25008 0.487998 5.82626 2.09953 3.47194 5.36746L5.09468 6.53653ZM13.5953 2.488C17.3781 2.488 20.1428 3.85206 22.0438 6.53074L23.6748 5.37325C21.3518 2.09994 17.9406 0.487998 13.5953 0.487998V2.488ZM22.051 6.54069C24.0185 9.24237 25.0753 13.3019 25.0753 18.864H27.0753C27.0753 13.0981 25.9881 8.54962 23.6677 5.3633L22.051 6.54069ZM25.0753 18.864C25.0753 24.4573 24.0188 28.5703 22.045 31.3396L23.6736 32.5004C25.9878 29.2537 27.0753 24.6627 27.0753 18.864H25.0753ZM22.0409 31.3454C20.1381 34.0554 17.3737 35.432 13.5953 35.432V37.432C17.9449 37.432 21.3565 35.8006 23.6777 32.4946L22.0409 31.3454ZM13.5953 32.584C14.8558 32.584 15.9995 32.2945 16.9844 31.6741C17.9681 31.0543 18.7304 30.1439 19.2926 29.0015L17.4981 28.1185C17.0682 28.9921 16.5345 29.5937 15.9183 29.9819C15.3031 30.3695 14.5428 30.584 13.5953 30.584V32.584ZM19.2897 29.0072C20.4217 26.7434 20.9313 23.3168 20.9313 18.864H18.9313C18.9313 23.2432 18.417 26.2806 17.5009 28.1128L19.2897 29.0072ZM20.9313 18.864C20.9313 14.4765 20.4223 11.1069 19.2839 8.90136L17.5067 9.81864C18.4163 11.5811 18.9313 14.5475 18.9313 18.864H20.9313ZM19.2926 8.91849C18.7304 7.77608 17.9681 6.86568 16.9844 6.24591C15.9995 5.62548 14.8558 5.336 13.5953 5.336V7.336C14.5428 7.336 15.3031 7.55052 15.9183 7.93809C16.5345 8.32632 17.0682 8.92792 17.4981 9.80151L19.2926 8.91849ZM13.5953 5.336C12.3346 5.336 11.1888 5.62557 10.1981 6.24353C9.20873 6.86064 8.43466 7.76738 7.85573 8.90714L9.63889 9.81286C10.084 8.93661 10.6299 8.33136 11.2566 7.94047C11.8819 7.55043 12.6481 7.336 13.5953 7.336V5.336ZM7.85289 8.91279C6.75222 11.1141 6.25931 14.4785 6.25931 18.864H8.25931C8.25931 14.5455 8.75841 11.5739 9.64174 9.80721L7.85289 8.91279ZM6.25931 18.864C6.25931 23.3149 6.75283 26.7363 7.84733 28.9959L9.64729 28.1241C8.75779 26.2877 8.25931 23.2451 8.25931 18.864H6.25931ZM7.85573 29.0129C8.43466 30.1526 9.20873 31.0594 10.1981 31.6765C11.1888 32.2944 12.3346 32.584 13.5953 32.584V30.584C12.6481 30.584 11.8819 30.3696 11.2566 29.9795C10.6299 29.5886 10.084 28.9834 9.63889 28.1071L7.85573 29.0129ZM54.3286 30.96H55.3286V29.96H54.3286V30.96ZM54.3286 36V37H55.3286V36H54.3286ZM31.3846 36H30.3846V37H31.3846V36ZM31.3846 31.44L30.6513 30.7601L30.3846 31.0477V31.44H31.3846ZM43.0006 18.912L43.7339 19.5919L43.7384 19.587L43.0006 18.912ZM45.5926 7.536L44.9265 8.28193L44.933 8.28773L44.9396 8.29341L45.5926 7.536ZM32.4406 9.888L31.5312 10.304L32.0467 11.4309L33.0393 10.689L32.4406 9.888ZM30.3766 5.376L29.7056 4.63446L29.1625 5.12589L29.4672 5.79199L30.3766 5.376ZM35.5606 2.496L35.8768 3.44477L35.8896 3.4403L35.5606 2.496ZM50.0566 3.936L49.4068 4.69612L49.4133 4.70173L49.42 4.70722L50.0566 3.936ZM51.7846 16.224L50.8901 15.7768L50.8868 15.7835L50.8836 15.7902L51.7846 16.224ZM47.5606 22.032L48.2889 22.7173L48.2945 22.7112L47.5606 22.032ZM39.1606 30.96L38.4322 30.2748L36.8467 31.96H39.1606V30.96ZM53.3286 30.96V36H55.3286V30.96H53.3286ZM54.3286 35H31.3846V37H54.3286V35ZM32.3846 36V31.44H30.3846V36H32.3846ZM32.1179 32.1199L43.7339 19.5919L42.2673 18.2321L30.6513 30.7601L32.1179 32.1199ZM43.7384 19.587C45.1499 18.0441 46.2199 16.5946 46.9144 15.2403L45.1347 14.3277C44.5493 15.4694 43.6032 16.7719 42.2628 18.237L43.7384 19.587ZM46.9144 15.2403C47.6156 13.8728 47.9846 12.4854 47.9846 11.088H45.9846C45.9846 12.1226 45.7135 13.1992 45.1347 14.3277L46.9144 15.2403ZM47.9846 11.088C47.9846 9.31645 47.4524 7.81902 46.2455 6.77859L44.9396 8.29341C45.5887 8.85298 45.9846 9.72355 45.9846 11.088H47.9846ZM46.2586 6.79006C45.116 5.76991 43.5455 5.336 41.7046 5.336V7.336C43.2556 7.336 44.2771 7.70208 44.9265 8.28193L46.2586 6.79006ZM41.7046 5.336C38.4216 5.336 35.1284 6.6304 31.8419 9.08703L33.0393 10.689C36.0887 8.40959 38.9715 7.336 41.7046 7.336V5.336ZM33.3499 9.47201L31.2859 4.96001L29.4672 5.79199L31.5312 10.304L33.3499 9.47201ZM31.0475 6.11753C32.2683 5.01302 33.8669 4.11465 35.8768 3.44468L35.2443 1.54732C33.0303 2.28534 31.1729 3.30697 29.7056 4.63446L31.0475 6.11753ZM35.8896 3.4403C37.9005 2.73956 39.9174 2.392 41.9446 2.392V0.391999C39.6837 0.391999 37.4447 0.780436 35.2315 1.5517L35.8896 3.4403ZM41.9446 2.392C45.2058 2.392 47.654 3.19777 49.4068 4.69612L50.7063 3.17588C48.4911 1.28223 45.5314 0.391999 41.9446 0.391999V2.392ZM49.42 4.70722C51.1834 6.16272 52.0806 8.12404 52.0806 10.704H54.0806C54.0806 7.58796 52.9617 5.03727 50.6931 3.16477L49.42 4.70722ZM52.0806 10.704C52.0806 12.5024 51.684 14.1891 50.8901 15.7768L52.679 16.6712C53.6132 14.8029 54.0806 12.8096 54.0806 10.704H52.0806ZM50.8836 15.7902C50.111 17.3947 48.7745 19.2479 46.8266 21.3528L48.2945 22.7112C50.3147 20.5281 51.7941 18.5093 52.6856 16.6578L50.8836 15.7902ZM46.8322 21.3468L38.4322 30.2748L39.8889 31.6452L48.2889 22.7172L46.8322 21.3468ZM39.1606 31.96H54.3286V29.96H39.1606V31.96Z" fill="#1958e3"/>
</svg>
