<svg width="55" height="38" viewBox="0 0 55 38" fill="none" xmlns="http://www.w3.org/2000/svg">
<path d="M4.30675 31.968L3.48828 32.5427L3.49538 32.5525L4.30675 31.968ZM4.30675 5.952L3.49536 5.36745L3.49124 5.37325L4.30675 5.952ZM22.8828 5.952L22.0672 6.53079L22.0744 6.54069L22.8828 5.952ZM22.8828 31.92L22.0684 31.3396L22.0643 31.3454L22.8828 31.92ZM18.4188 28.56L17.5243 28.1128L17.5215 28.1185L18.4188 28.56ZM18.4188 9.36L17.5215 9.80151L17.5257 9.81012L17.5301 9.81864L18.4188 9.36ZM8.77075 9.36L7.87915 8.90713L7.87632 8.91279L8.77075 9.36ZM8.77075 28.56L7.87077 28.9959L7.87489 29.0044L7.87917 29.0129L8.77075 28.56ZM13.6188 35.432C9.83598 35.432 7.0518 34.0675 5.11812 31.3835L3.49538 32.5525C5.8497 35.8205 9.27352 37.432 13.6188 37.432V35.432ZM5.12516 31.3934C3.18061 28.6239 2.13875 24.4931 2.13875 18.864H0.13875C0.13875 24.6909 1.20889 29.2962 3.48834 32.5426L5.12516 31.3934ZM2.13875 18.864C2.13875 13.3342 3.17943 9.26836 5.12226 6.53074L3.49124 5.37325C1.21007 8.58764 0.13875 13.1298 0.13875 18.864H2.13875ZM5.11812 6.53653C7.0518 3.85246 9.83598 2.488 13.6188 2.488V0.487998C9.27352 0.487998 5.8497 2.09953 3.49538 5.36746L5.11812 6.53653ZM13.6188 2.488C17.4015 2.488 20.1662 3.85206 22.0672 6.53074L23.6983 5.37325C21.3753 2.09994 17.964 0.487998 13.6188 0.487998V2.488ZM22.0744 6.54069C24.0419 9.24237 25.0988 13.3019 25.0988 18.864H27.0988C27.0988 13.0981 26.0116 8.54962 23.6911 5.3633L22.0744 6.54069ZM25.0988 18.864C25.0988 24.4573 24.0423 28.5703 22.0684 31.3396L23.6971 32.5004C26.0112 29.2537 27.0988 24.6627 27.0988 18.864H25.0988ZM22.0643 31.3454C20.1615 34.0554 17.3971 35.432 13.6188 35.432V37.432C17.9684 37.432 21.38 35.8006 23.7012 32.4946L22.0643 31.3454ZM13.6188 32.584C14.8792 32.584 16.023 32.2945 17.0078 31.6741C17.9916 31.0543 18.7539 30.1439 19.316 29.0015L17.5215 28.1185C17.0916 28.9921 16.5579 29.5937 15.9417 29.9819C15.3265 30.3695 14.5663 30.584 13.6188 30.584V32.584ZM19.3132 29.0072C20.4451 26.7434 20.9548 23.3168 20.9548 18.864H18.9548C18.9548 23.2432 18.4404 26.2806 17.5243 28.1128L19.3132 29.0072ZM20.9548 18.864C20.9548 14.4765 20.4457 11.1069 19.3074 8.90136L17.5301 9.81864C18.4398 11.5811 18.9548 14.5475 18.9548 18.864H20.9548ZM19.316 8.91849C18.7539 7.77608 17.9916 6.86568 17.0078 6.24591C16.023 5.62548 14.8792 5.336 13.6188 5.336V7.336C14.5663 7.336 15.3265 7.55052 15.9417 7.93809C16.5579 8.32632 17.0916 8.92792 17.5215 9.80151L19.316 8.91849ZM13.6188 5.336C12.358 5.336 11.2122 5.62557 10.2215 6.24353C9.23217 6.86064 8.45809 7.76738 7.87917 8.90714L9.66233 9.81286C10.1074 8.93661 10.6533 8.33136 11.28 7.94047C11.9053 7.55043 12.6715 7.336 13.6188 7.336V5.336ZM7.87632 8.91279C6.77565 11.1141 6.28275 14.4785 6.28275 18.864H8.28275C8.28275 14.5455 8.78185 11.5739 9.66518 9.80721L7.87632 8.91279ZM6.28275 18.864C6.28275 23.3149 6.77627 26.7363 7.87077 28.9959L9.67073 28.1241C8.78123 26.2877 8.28275 23.2451 8.28275 18.864H6.28275ZM7.87917 29.0129C8.45809 30.1526 9.23217 31.0594 10.2215 31.6765C11.2122 32.2944 12.358 32.584 13.6188 32.584V30.584C12.6715 30.584 11.9053 30.3696 11.28 29.9795C10.6533 29.5886 10.1074 28.9834 9.66233 28.1071L7.87917 29.0129ZM47.68 18.432L47.3269 17.4964L44.4282 18.5903L47.4195 19.3975L47.68 18.432ZM52.288 21.408L51.4816 21.9994L51.4858 22.0051L51.4901 22.0108L52.288 21.408ZM50.608 33.792L49.9917 33.0045L49.9861 33.0089L50.608 33.792ZM35.104 35.328L34.7878 36.2767L34.792 36.2781L35.104 35.328ZM29.872 32.4L28.9663 31.9761L28.6533 32.6447L29.2002 33.1407L29.872 32.4ZM31.984 27.888L32.5985 27.0991L31.6097 26.3288L31.0783 27.4641L31.984 27.888ZM46.384 30.144L45.7621 29.3609L45.7564 29.3654L45.7508 29.37L46.384 30.144ZM46.384 22.416L45.7766 23.2104L45.784 23.2161L45.7916 23.2216L46.384 22.416ZM36.832 21.168H35.832V22.168H36.832V21.168ZM36.832 16.224V15.224H35.832V16.224H36.832ZM45.712 7.584L45.0571 8.33969L45.712 7.584ZM32.464 9.888L31.5546 10.304L32.078 11.4481L33.0745 10.68L32.464 9.888ZM30.4 5.376L29.7378 4.62667L29.1822 5.11769L29.4906 5.79199L30.4 5.376ZM35.584 2.496L35.9046 3.44325L35.9131 3.4403L35.584 2.496ZM50.08 3.888L49.4374 4.65419L49.444 4.65977L49.4508 4.66524L50.08 3.888ZM53.104 10.464L54.1039 10.4809L54.104 10.4725V10.464H53.104ZM51.616 15.408L50.7898 14.8447L50.7869 14.8489L51.616 15.408ZM47.4195 19.3975C49.2551 19.8928 50.5818 20.7724 51.4816 21.9994L53.0944 20.8166C51.8822 19.1636 50.1369 18.0592 47.9405 17.4665L47.4195 19.3975ZM51.4901 22.0108C52.4256 23.2489 52.92 24.8032 52.92 26.736H54.92C54.92 24.4448 54.3264 22.4471 53.0859 20.8052L51.4901 22.0108ZM52.92 26.736C52.92 29.4263 51.9408 31.4791 49.9917 33.0045L51.2243 34.5795C53.6912 32.6489 54.92 29.9977 54.92 26.736H52.92ZM49.9861 33.0089C48.0384 34.5556 45.338 35.384 41.776 35.384V37.384C45.638 37.384 48.8256 36.4844 51.2299 34.5751L49.9861 33.0089ZM41.776 35.384C39.5757 35.384 37.4572 35.0481 35.416 34.3779L34.792 36.2781C37.0388 37.0159 39.3683 37.384 41.776 37.384V35.384ZM35.4202 34.3793C33.4142 33.7107 31.7987 32.7974 30.5438 31.6593L29.2002 33.1407C30.6973 34.4986 32.5698 35.5373 34.7878 36.2767L35.4202 34.3793ZM30.7777 32.8239L32.8897 28.3119L31.0783 27.4641L28.9663 31.9761L30.7777 32.8239ZM31.3695 28.6769C34.5561 31.1591 37.9512 32.44 41.536 32.44V30.44C38.4648 30.44 35.4919 29.3529 32.5985 27.0991L31.3695 28.6769ZM41.536 32.44C43.8142 32.44 45.7034 31.9929 47.0172 30.918L45.7508 29.37C44.9526 30.0231 43.6098 30.44 41.536 30.44V32.44ZM47.0059 30.9271C48.3947 29.8242 49.016 28.1841 49.016 26.208H47.016C47.016 27.7519 46.5493 28.7358 45.7621 29.3609L47.0059 30.9271ZM49.016 26.208C49.016 24.2601 48.3907 22.6502 46.9764 21.6103L45.7916 23.2216C46.5534 23.7818 47.016 24.6999 47.016 26.208H49.016ZM46.9915 21.6216C45.6471 20.5936 43.7034 20.168 41.344 20.168V22.168C43.5286 22.168 44.9449 22.5744 45.7766 23.2104L46.9915 21.6216ZM41.344 20.168H36.832V22.168H41.344V20.168ZM37.832 21.168V16.224H35.832V21.168H37.832ZM36.832 17.224H40.528V15.224H36.832V17.224ZM40.528 17.224C42.8344 17.224 44.7473 16.7902 46.1015 15.7598C47.5074 14.6902 48.152 13.1026 48.152 11.184H46.152C46.152 12.6254 45.6926 13.5578 44.8905 14.1682C44.0367 14.8178 42.6376 15.224 40.528 15.224V17.224ZM48.152 11.184C48.152 9.39976 47.5963 7.89376 46.3669 6.82831L45.0571 8.33969C45.7477 8.93824 46.152 9.83224 46.152 11.184H48.152ZM46.3669 6.82831C45.1687 5.7898 43.5615 5.336 41.68 5.336V7.336C43.2545 7.336 44.3354 7.7142 45.0571 8.33969L46.3669 6.82831ZM41.68 5.336C38.3347 5.336 35.0538 6.62908 31.8535 9.09599L33.0745 10.68C36.0182 8.41092 38.8813 7.336 41.68 7.336V5.336ZM33.3734 9.47201L31.3094 4.96001L29.4906 5.79199L31.5546 10.304L33.3734 9.47201ZM31.0622 6.12533C32.3211 5.01278 33.9263 4.11278 35.9046 3.44322L35.2634 1.54878C33.0817 2.28721 31.2309 3.30721 29.7378 4.62667L31.0622 6.12533ZM35.9131 3.4403C37.9207 2.74069 39.9695 2.392 42.064 2.392V0.391999C39.7425 0.391999 37.4713 0.779312 35.2549 1.5517L35.9131 3.4403ZM42.064 2.392C45.2601 2.392 47.6813 3.18136 49.4374 4.65419L50.7226 3.12181C48.5107 1.26664 45.5879 0.391999 42.064 0.391999V2.392ZM49.4508 4.66524C51.2163 6.09445 52.104 7.99259 52.104 10.464H54.104C54.104 7.43141 52.9757 4.94555 50.7092 3.11075L49.4508 4.66524ZM52.1041 10.4471C52.0751 12.1618 51.6281 13.6151 50.7898 14.8447L52.4422 15.9713C53.5239 14.3849 54.0689 12.5422 54.1039 10.4809L52.1041 10.4471ZM50.7869 14.8489C49.9855 16.0372 48.8479 16.9225 47.3269 17.4964L48.0331 19.3676C49.9041 18.6615 51.3905 17.5308 52.4451 15.9671L50.7869 14.8489Z" fill="#1958e3"/>
</svg>
