<svg width="32" height="32" viewBox="0 0 32 32" fill="none" xmlns="http://www.w3.org/2000/svg">
<circle opacity="0.2" cx="16" cy="16" r="16" fill="#1958e3"/>
<g clip-path="url(#clip0)">
<path d="M10.0518 10.9927H10.9632V11.9034H10.0518V10.9927Z" fill="#1958e3"/>
<path d="M11.875 10.9927H12.7864V11.9034H11.875V10.9927Z" fill="#1958e3"/>
<path d="M13.6973 10.9927H14.6087V11.9034H13.6973V10.9927Z" fill="#1958e3"/>
<path d="M8.22949 9.16943V22.8894H23.7723V9.16943H8.22949ZM22.8616 10.0801V12.8153H9.14021V10.0801H22.8616ZM9.14021 21.9787V13.726H22.8616V21.9787H9.14021Z" fill="#1958e3"/>
<path d="M13.9259 15.1309L11.7842 17.8526L13.9259 20.5743L14.6415 20.0111L12.9431 17.8526L14.6415 15.694L13.9259 15.1309Z" fill="#1958e3"/>
<path d="M17.3604 15.694L19.0588 17.8526L17.3604 20.0111L18.076 20.5743L20.2177 17.8526L18.076 15.1309L17.3604 15.694Z" fill="#1958e3"/>
<path d="M15.5449 15.1187H16.4556V20.5863H15.5449V15.1187Z" fill="#1958e3"/>
</g>
<defs>
<clipPath id="clip0">
<rect width="15.5429" height="15.5429" fill="white" transform="translate(8.22949 8.22852)"/>
</clipPath>
</defs>
</svg>
