<svg width="50" height="50" viewBox="0 0 50 50" fill="none" xmlns="http://www.w3.org/2000/svg">
<path d="M5.86328 8.8916H8.79526V11.8213H5.86328V8.8916Z" fill="#1958e3"/>
<path d="M11.7271 8.8916H14.659V11.8213H11.7271V8.8916Z" fill="#1958e3"/>
<path d="M17.5903 8.8916H20.5223V11.8213H17.5903V8.8916Z" fill="#1958e3"/>
<path d="M0 3.02734V47.1634H50V3.02734H0ZM47.0703 5.95703V14.7556H2.92969V5.95703H47.0703ZM2.92969 44.2337V17.6853H47.0703V44.2337H2.92969Z" fill="#1958e3"/>
<path d="M18.3248 22.2036L11.4351 30.9591L18.3248 39.7146L20.627 37.903L15.1632 30.9591L20.627 24.0152L18.3248 22.2036Z" fill="#1958e3"/>
<path d="M29.3726 24.0152L34.8363 30.9591L29.3726 37.903L31.6747 39.7146L38.5644 30.9591L31.6747 22.2036L29.3726 24.0152Z" fill="#1958e3"/>
<path d="M23.5352 22.165H26.4648V39.7538H23.5352V22.165Z" fill="#1958e3"/>
</svg>
