<svg width="50" height="50" viewBox="0 0 50 50" fill="none" xmlns="http://www.w3.org/2000/svg">
<g clip-path="url(#clip0)">
<path d="M49.5361 6.77139C49.2518 6.63115 48.9124 6.66426 48.6604 6.85684L35.1131 17.2156C34.4455 17.731 34.2674 18.6633 34.6978 19.3885L32.5602 19.9712L29.4408 18.6431C29.3864 18.6197 29.3297 18.6023 29.2716 18.591C26.279 18.0192 24.7274 18.5707 23.9258 19.1851H15.4092C15.7012 18.4859 15.4865 17.6778 14.8861 17.2156L1.33955 6.85674C1.08779 6.66397 0.748438 6.63076 0.46416 6.77119C0.179785 6.91162 -9.76116e-05 7.20127 4.46072e-08 7.51836V27.5184C-9.76116e-05 27.8175 0.160156 28.0937 0.419922 28.2418L5.57783 31.1886C5.82852 31.3323 6.1125 31.4078 6.40137 31.4075C6.82529 31.4064 7.23291 31.2442 7.5418 30.954L8.5085 31.7264C7.94609 32.4445 7.82324 33.4136 8.18857 34.2494C8.554 35.0853 9.34873 35.6531 10.2579 35.7279C10.3287 35.7345 10.3987 35.7369 10.4687 35.7369C10.5968 35.7357 10.7247 35.7247 10.8512 35.7038C10.9032 36.2986 11.138 36.8628 11.5233 37.3189L11.5242 37.3198C12.0229 37.9116 12.7376 38.2794 13.5091 38.3411C13.5913 38.3484 13.6734 38.3517 13.7557 38.3517C13.7683 38.3517 13.7804 38.3486 13.7929 38.3484C13.8161 38.8901 14.0179 39.4089 14.3668 39.8238C14.8414 40.3833 15.5383 40.7055 16.2719 40.7044C16.5635 40.7039 16.8526 40.6515 17.1258 40.5496C17.4039 41.5435 18.2728 42.2582 19.3017 42.3394C19.3725 42.3459 19.4425 42.3483 19.5124 42.3483C20.0857 42.3518 20.6418 42.1517 21.0814 41.7836L22.3883 40.7739L25.4654 42.8302C25.9417 43.1466 26.5009 43.3153 27.0727 43.3151C27.2688 43.3152 27.4646 43.2959 27.6569 43.2573C28.9105 43.0077 29.8532 41.9673 29.9786 40.6953C30.8127 40.9498 31.7173 40.8118 32.4375 40.3201C33.1577 39.8284 33.6157 39.0362 33.6825 38.1667C34.6478 38.4856 35.7095 38.2761 36.4811 37.6142C37.2526 36.9522 37.6213 35.9348 37.4529 34.9323C38.288 34.8368 39.0392 34.3802 39.5084 33.6829C39.9735 32.9818 40.1141 32.1142 39.8937 31.3022L41.537 29.6595L42.2078 30.6653C42.6942 31.3939 43.6611 31.6223 44.4222 31.1886L49.5801 28.2418C49.8398 28.0936 50.0001 27.8174 50 27.5184V7.51836C50 7.20147 49.8202 6.91192 49.5361 6.77139ZM1.6667 27.035V9.20459L10.9705 16.3189L3.33926 27.9905L1.6667 27.035ZM6.40459 29.7417L4.78867 28.8186L12.2978 17.3339L13.8737 18.5389L6.40459 29.7417ZM10.9896 33.8774C10.8263 34.02 10.6112 34.0887 10.3955 34.0671C10.0736 34.0399 9.79805 33.8256 9.69238 33.5203C9.58672 33.215 9.671 32.8763 9.90723 32.656L11.9914 31.0446C12.138 30.9197 12.3245 30.8513 12.5171 30.8518C12.5398 30.8518 12.5626 30.8525 12.5854 30.8542C12.9074 30.8815 13.1832 31.096 13.2888 31.4014C13.3944 31.7068 13.3101 32.0458 13.0737 32.2661L10.9896 33.8774ZM13.6467 36.6802C13.1493 36.6391 12.7239 36.3062 12.5646 35.8332C12.4052 35.3603 12.5423 34.8378 12.9135 34.5041L15.538 32.4745C15.9238 32.1476 16.4686 32.0854 16.9183 32.3167C17.3679 32.5481 17.6339 33.0276 17.5921 33.5316C17.5684 33.8401 17.4293 34.1284 17.2026 34.3392L16.4885 34.8964L14.5574 36.3889C14.3052 36.6042 13.9771 36.7092 13.6467 36.6802ZM17.9028 37.9717L17.901 37.9736L16.7888 38.8416C16.6238 38.9816 16.4101 39.0503 16.1944 39.0324C15.9788 39.0146 15.7792 38.9116 15.6396 38.7464C15.4989 38.5819 15.4304 38.3679 15.4492 38.1523C15.4635 37.9476 15.5565 37.7562 15.7088 37.6185L17.6568 36.0981L18.2315 35.6539C18.2379 35.6485 18.2422 35.6417 18.2485 35.6362L18.837 35.1771C18.9833 35.052 19.1694 34.9832 19.3619 34.9834C19.3851 34.9833 19.4081 34.9844 19.4311 34.9866C19.7536 35.0139 20.0296 35.2289 20.1348 35.5351C20.2399 35.8411 20.1545 36.1805 19.9169 36.4002L17.9676 37.9216L17.9028 37.9717ZM22.1175 38.8774L20.0333 40.4888C19.8706 40.6324 19.6551 40.7012 19.4393 40.6784C19.1176 40.6513 18.8421 40.4371 18.7364 40.1321C18.6307 39.8272 18.7146 39.4885 18.9504 39.2681L18.9885 39.2384L21.0352 37.6561C21.3738 37.3701 21.8787 37.4067 22.1727 37.7384C22.4665 38.07 22.4421 38.5757 22.1175 38.8774ZM38.1209 32.7601C37.7396 33.3246 36.9781 33.4833 36.4029 33.1182L36.3964 33.1141L30.9235 29.3315C30.6787 29.1613 30.3617 29.135 30.0921 29.2624C29.8226 29.3898 29.6416 29.6516 29.6177 29.9487C29.5938 30.2459 29.7305 30.5332 29.9762 30.7021L35.2722 34.3632L35.2748 34.3658C35.6947 34.6445 35.9051 35.149 35.8073 35.6435C35.7096 36.1379 35.3232 36.5245 34.8288 36.6225C34.5085 36.6891 34.1749 36.6252 33.9019 36.445L28.425 32.6657C28.0461 32.4051 27.5277 32.5005 27.2665 32.8789C27.0053 33.2573 27.0997 33.7759 27.4777 34.0378L31.4778 36.7976L31.4792 36.799C32.0568 37.2047 32.215 37.9921 31.8389 38.5894C31.4633 39.1587 30.6997 39.3201 30.1258 38.9515L28.6519 37.9055L28.6512 37.905H28.651L27.1489 36.8389C26.9062 36.6664 26.5898 36.6366 26.3191 36.7607C26.0484 36.8848 25.8645 37.1439 25.8365 37.4402C25.8086 37.7366 25.9409 38.0255 26.1837 38.198L27.7288 39.2941C27.8033 39.3544 27.874 39.419 27.9407 39.4878C28.4121 39.9348 28.4638 40.6678 28.0598 41.1764C27.6558 41.685 26.93 41.8005 26.388 41.4425L23.6432 39.6081C24.1091 38.8887 24.1682 37.979 23.7993 37.2054C23.4305 36.4317 22.6866 35.9049 21.8344 35.8139C21.8536 34.5166 20.8618 33.4274 19.5684 33.3257C19.4614 33.3193 19.3541 33.3202 19.2473 33.3283C19.2206 32.3025 18.6528 31.3676 17.7551 30.8708C16.8573 30.374 15.7636 30.3896 14.8803 30.9117C14.6309 30.1279 14.0088 29.5189 13.2198 29.2861C12.431 29.0533 11.5779 29.2271 10.9429 29.7499L9.80478 30.6294L8.50693 29.5924L14.3345 20.8518H21.6491C21.0165 21.407 20.7213 22.2533 20.8713 23.0815C21.0456 24.0868 21.8428 24.8683 22.8513 25.0225C24.3928 25.2406 25.9645 25.0142 27.3817 24.3698L29.5065 25.7216C29.5541 25.7489 29.6044 25.7715 29.6564 25.789L37.7805 31.0211C37.9409 31.1315 38.0758 31.2749 38.176 31.4418C38.1801 31.4516 38.185 31.4606 38.1898 31.4703C38.4055 31.8803 38.3789 32.3754 38.1209 32.7601ZM38.9737 29.8656C38.8853 29.78 38.7915 29.7 38.6931 29.6262L30.4517 24.3178C30.4138 24.2994 30.3744 24.2842 30.3341 24.2721L27.8825 22.7129C27.6213 22.5468 27.2895 22.5389 27.0207 22.6926C25.8224 23.3146 24.4621 23.554 23.1234 23.3786C22.8111 23.3417 22.5614 23.1017 22.5123 22.791C22.4508 22.4657 22.6094 22.1385 22.9029 21.9854C23.5271 21.6603 24.1135 21.2676 24.6518 20.8144C24.7095 20.7657 24.7568 20.706 24.7909 20.6386C24.8173 20.6057 24.8467 20.5755 24.8788 20.5482C25.1229 20.3391 26.1297 19.7052 28.8713 20.2121L32.1737 21.6184C32.3458 21.6932 32.5384 21.7064 32.7189 21.6558L35.6642 20.8526L40.5942 28.2456L38.9737 29.8656ZM43.5954 29.7417L36.1255 18.5397L37.7023 17.3339L45.2113 28.8186L43.5954 29.7417ZM48.3333 27.035L46.6607 27.9904L39.0296 16.3189L48.3333 9.20449V27.035Z" fill="#1958e3"/>
</g>
<defs>
<clipPath id="clip0">
<rect width="50" height="50" fill="white"/>
</clipPath>
</defs>
</svg>
