<svg width="50" height="50" viewBox="0 0 50 50" fill="none" xmlns="http://www.w3.org/2000/svg">
<g clip-path="url(#clip0)">
<path d="M27.1827 47.123C26.7764 47.123 26.4469 46.7935 26.4469 46.3871V44.4305C26.4469 44.1503 26.2189 43.9223 25.9387 43.9223H23.9633C23.6831 43.9223 23.455 44.1503 23.455 44.4305V46.3871C23.455 46.7935 23.1256 47.123 22.7192 47.123C22.3129 47.123 21.9834 46.7935 21.9834 46.3871V44.4305C21.9834 43.3389 22.8716 42.4507 23.9633 42.4507H25.9387C27.0304 42.4507 27.9186 43.3389 27.9186 44.4305V46.3871C27.9186 46.7935 27.5892 47.123 27.1827 47.123Z" fill="#1958e3"/>
<path d="M32.0257 20.2253C31.784 19.8986 31.3232 19.8301 30.9965 20.0717C30.6698 20.3136 30.6012 20.7744 30.8429 21.101L34.4968 26.036C34.9033 26.5849 34.8739 27.4117 34.4299 27.9184L30.4932 32.4109H19.4088L15.4721 27.9184C15.0282 27.4117 14.9987 26.5849 15.4052 26.036L22.6596 16.2382V21.821C21.74 22.5278 21.2024 23.6088 21.2024 24.7886C21.2024 26.8556 22.884 28.5372 24.951 28.5372C27.018 28.5372 28.6996 26.8556 28.6996 24.7886C28.6996 23.6618 28.1982 22.6096 27.3406 21.9008V16.3707L28.9564 18.553C29.1982 18.8797 29.659 18.9483 29.9856 18.7065C30.3122 18.4647 30.3809 18.0038 30.1392 17.6772L26.983 13.4144C26.4861 12.7433 25.7455 12.3584 24.9511 12.3584C24.1567 12.3584 23.4161 12.7433 22.9193 13.4144L14.2225 25.1604C13.4069 26.262 13.4683 27.8646 14.3654 28.8884L17.6485 32.6349C16.8287 33.0171 16.2589 33.8486 16.2589 34.8112V38.3216C16.2589 39.3963 16.9689 40.3083 17.9445 40.6132L18.1452 46.4129C18.159 46.8104 18.4855 47.1233 18.8802 47.1233C18.8888 47.1233 18.8974 47.1232 18.9061 47.1229C19.3122 47.1088 19.63 46.7682 19.616 46.3621L19.4207 40.7219H30.5796L30.3843 46.3621C30.3703 46.7682 30.6882 47.1088 31.0943 47.1229C31.1029 47.1232 31.1115 47.1233 31.1202 47.1233C31.5148 47.1233 31.8414 46.8104 31.8551 46.4129L32.057 40.5795C32.9811 40.2455 33.6434 39.3596 33.6434 38.3216V34.8112C33.6434 33.8486 33.0735 33.0171 32.2537 32.6349L35.5368 28.8884C36.4339 27.8647 36.4953 26.262 35.6797 25.1604L32.0257 20.2253ZM24.951 13.83C25.2789 13.83 25.5805 13.9933 25.8001 14.2899L25.8689 14.3829V22.2706C25.8689 22.5181 25.9934 22.7491 26.2002 22.8852C26.8438 23.3087 27.2279 24.0202 27.2279 24.7884C27.2279 26.044 26.2065 27.0654 24.951 27.0654C23.6955 27.0654 22.6741 26.044 22.6741 24.7884C22.6741 23.9838 23.0859 23.2547 23.7759 22.8378C23.9964 22.7046 24.1312 22.4657 24.1312 22.2081V14.2543C24.348 13.9811 24.6371 13.83 24.951 13.83ZM32.1717 38.3214C32.1717 38.8334 31.7551 39.25 31.2432 39.25H18.6589C18.1469 39.25 17.7304 38.8334 17.7304 38.3214V34.811C17.7304 34.299 18.147 33.8825 18.6589 33.8825H31.2432C31.7552 33.8825 32.1717 34.299 32.1717 34.811V38.3214Z" fill="#1958e3"/>
<path d="M10.3078 20.4509C10.4044 18.1196 11.0528 15.8371 12.2004 13.8144C12.4009 13.4609 12.277 13.0119 11.9235 12.8113C11.57 12.6107 11.121 12.7347 10.9205 13.0882C9.64856 15.3297 8.93344 17.8606 8.83494 20.4437C7.5651 20.7666 6.62305 21.9193 6.62305 23.2882C6.62305 24.9064 7.93959 26.223 9.55781 26.223C11.176 26.223 12.4926 24.9064 12.4926 23.2882C12.4926 21.9291 11.5639 20.7832 10.3078 20.4509ZM9.55781 24.7513C8.75105 24.7513 8.0947 24.095 8.0947 23.2882C8.0947 22.4815 8.75105 21.8251 9.55781 21.8251C10.3646 21.8251 11.0209 22.4815 11.0209 23.2882C11.0209 24.095 10.3646 24.7513 9.55781 24.7513Z" fill="#1958e3"/>
<path d="M48.442 2.87744H46.0774C45.2183 2.87744 44.5194 3.57638 44.5194 4.43543V4.88193H27.7403V4.43543C27.7403 3.57638 27.0414 2.87744 26.1823 2.87744H23.8177C22.9586 2.87744 22.2597 3.57638 22.2597 4.43543V4.88193H5.48062V4.43543C5.48062 3.57638 4.78169 2.87744 3.92263 2.87744H1.55799C0.698936 2.87744 0 3.57638 0 4.43543V6.80007C0 7.65913 0.698936 8.35806 1.55799 8.35806H3.92263C4.78169 8.35806 5.48062 7.65913 5.48062 6.80007V6.35358H18.2543C16.2114 7.2919 14.3673 8.65494 12.853 10.3752C12.5845 10.6802 12.614 11.1452 12.9191 11.4137C13.0589 11.5367 13.2323 11.5973 13.4051 11.5973C13.6091 11.5973 13.8122 11.5129 13.9576 11.3477C16.1335 8.87598 19.0566 7.21439 22.2597 6.60994V6.80017C22.2597 7.65922 22.9586 8.35816 23.8177 8.35816H26.1823C27.0414 8.35816 27.7403 7.65922 27.7403 6.80017V6.60984C34.4203 7.86849 39.4112 13.629 39.6932 20.4508C38.4367 20.7828 37.5075 21.9289 37.5075 23.2883C37.5075 24.9066 38.824 26.2231 40.4422 26.2231C42.0605 26.2231 43.377 24.9066 43.377 23.2883C43.377 21.9196 42.435 20.7669 41.1653 20.4439C40.9301 14.2543 37.1707 8.85087 31.7461 6.35377H44.5194V6.80027C44.5194 7.65932 45.2183 8.35826 46.0774 8.35826H48.442C49.3011 8.35826 50 7.65932 50 6.80027V4.43543C50 3.57638 49.3011 2.87744 48.442 2.87744ZM4.00897 6.80007C4.00897 6.84766 3.97022 6.88641 3.92263 6.88641H1.55799C1.5104 6.88641 1.47165 6.84766 1.47165 6.80007V4.43543C1.47165 4.38784 1.5104 4.34909 1.55799 4.34909H3.92263C3.97022 4.34909 4.00897 4.38784 4.00897 4.43543V6.80007ZM41.9053 23.2881C41.9053 24.0949 41.249 24.7513 40.4422 24.7513C39.6355 24.7513 38.9791 24.0949 38.9791 23.2881C38.9791 22.4814 39.6355 21.825 40.4422 21.825C41.249 21.825 41.9053 22.4814 41.9053 23.2881ZM26.2687 6.80007C26.2687 6.84766 26.2299 6.88641 26.1823 6.88641H23.8177C23.7701 6.88641 23.7313 6.84766 23.7313 6.80007V4.43543C23.7313 4.38784 23.7701 4.34909 23.8177 4.34909H26.1823C26.2299 4.34909 26.2687 4.38784 26.2687 4.43543V6.80007ZM48.5284 6.80007C48.5284 6.84766 48.4896 6.88641 48.442 6.88641H46.0774C46.0298 6.88641 45.991 6.84766 45.991 6.80007V4.43543C45.991 4.38784 46.0298 4.34909 46.0774 4.34909H48.442C48.4896 4.34909 48.5284 4.38784 48.5284 4.43543V6.80007Z" fill="#1958e3"/>
</g>
<defs>
<clipPath id="clip0">
<rect width="50" height="50" fill="white"/>
</clipPath>
</defs>
</svg>
