<svg width="60" height="60" viewBox="0 0 60 60" fill="none" xmlns="http://www.w3.org/2000/svg">
<g clip-path="url(#clip0)">
<path d="M33.7495 60H26.2495C24.4995 60 22.4995 58.5 22.4995 55.5V50.25C22.4995 47.75 21.2495 45.5 19.2495 43.75C14.7495 40.25 12.4995 35.25 12.4995 29.75C12.7495 20.25 20.4995 12.75 29.7495 12.5C34.4995 12.5 38.9995 14.25 42.2495 17.5C45.4995 20.75 47.4995 25.25 47.4995 30C47.4995 35.25 45.2495 40.25 40.9995 43.5C38.7495 45.25 37.4995 48 37.4995 50.5V56.25C37.4995 58.25 35.7495 60 33.7495 60ZM29.9995 15C21.9995 15 15.2495 21.75 14.9995 29.75C14.9995 34.5 16.9995 39 20.7495 41.75C23.4995 44 24.9995 47 24.9995 50.25V55.5C24.9995 56 24.9995 57.5 26.2495 57.5H33.7495C34.4995 57.5 34.9995 57 34.9995 56.25V50.5C34.9995 47.25 36.7495 43.75 39.4995 41.5C42.9995 38.75 44.9995 34.5 44.9995 30C44.9995 26 43.4995 22.25 40.4995 19.25C37.7495 16.5 33.9995 15 29.9995 15Z" fill="#1958e3"/>
<path d="M36.25 52.5H23.75C23 52.5 22.5 52 22.5 51.25C22.5 50.5 23 50 23.75 50H36.25C37 50 37.5 50.5 37.5 51.25C37.5 52 37 52.5 36.25 52.5Z" fill="#1958e3"/>
<path d="M30.0005 7.5C29.2505 7.5 28.7505 7 28.7505 6.25V1.25C28.7505 0.5 29.2505 0 30.0005 0C30.7505 0 31.2505 0.5 31.2505 1.25V6.25C31.2505 7 30.7505 7.5 30.0005 7.5Z" fill="#1958e3"/>
<path d="M46.75 14.5C46.5 14.5 46 14.5 45.75 14.25C45.25 13.75 45.25 13 45.75 12.5L49.25 9C49.75 8.5 50.5 8.5 51 9C51.5 9.5 51.5 10.25 51 10.75L47.5 14.25C47.5 14.25 47 14.5 46.75 14.5Z" fill="#1958e3"/>
<path d="M58.75 31.25H53.75C53 31.25 52.5 30.75 52.5 30C52.5 29.25 53 28.75 53.75 28.75H58.75C59.5 28.75 60 29.25 60 30C60 30.75 59.5 31.25 58.75 31.25Z" fill="#1958e3"/>
<path d="M50.25 51.5C50 51.5 49.5 51.5 49.25 51.25L45.75 47.75C45.25 47.25 45.25 46.5 45.75 46C46.25 45.5 47 45.5 47.5 46L51 49.5C51.5 50 51.5 50.75 51 51.25C51 51.5 50.75 51.5 50.25 51.5Z" fill="#1958e3"/>
<path d="M9.75 51.5C9.5 51.5 9 51.5 8.75 51.25C8.25 50.75 8.25 50 8.75 49.5L12.25 46C12.75 45.5 13.5 45.5 14 46C14.5 46.5 14.5 47.25 14 47.75L10.5 51.25C10.25 51.5 10 51.5 9.75 51.5Z" fill="#1958e3"/>
<path d="M6.25 31.25H1.25C0.5 31.25 0 30.75 0 30C0 29.25 0.5 28.75 1.25 28.75H6.25C7 28.75 7.5 29.25 7.5 30C7.5 30.75 7 31.25 6.25 31.25Z" fill="#1958e3"/>
<path d="M13.25 14.5C13 14.5 12.5 14.5 12.25 14.25L8.75 10.5C8.25 10 8.25 9.25 8.75 8.75C9.25 8.25 10 8.25 10.5 8.75L14 12.25C14.5 12.75 14.5 13.5 14 14C13.75 14.25 13.5 14.5 13.25 14.5Z" fill="#1958e3"/>
<path d="M40.0005 31.25C39.2505 31.25 38.7505 30.75 38.7505 30C38.7505 25.25 34.7505 21.25 30.0005 21.25C29.2505 21.25 28.7505 20.75 28.7505 20C28.7505 19.25 29.2505 18.75 30.0005 18.75C36.2505 18.75 41.2505 23.75 41.2505 30C41.2505 30.75 40.7505 31.25 40.0005 31.25Z" fill="#1958e3"/>
</g>
<defs>
<clipPath id="clip0">
<rect width="60" height="60" fill="white"/>
</clipPath>
</defs>
</svg>
