<svg width="48" height="48" viewBox="0 0 48 48" fill="none" xmlns="http://www.w3.org/2000/svg">
<path d="M24 18.5312C23.3819 18.5312 22.7778 18.7145 22.2638 19.0579C21.7499 19.4013 21.3494 19.8893 21.1129 20.4604C20.8764 21.0314 20.8145 21.6597 20.935 22.2659C21.0556 22.8721 21.3533 23.4289 21.7903 23.866C22.2273 24.303 22.7842 24.6006 23.3903 24.7212C23.9965 24.8418 24.6249 24.7799 25.1959 24.5434C25.7669 24.3069 26.255 23.9063 26.5984 23.3924C26.9417 22.8785 27.125 22.2743 27.125 21.6563C27.125 20.8275 26.7958 20.0326 26.2097 19.4465C25.6237 18.8605 24.8288 18.5312 24 18.5312ZM24 23.2188C23.691 23.2188 23.3889 23.1271 23.1319 22.9554C22.875 22.7837 22.6747 22.5397 22.5564 22.2542C22.4382 21.9687 22.4072 21.6545 22.4675 21.3514C22.5278 21.0483 22.6766 20.7699 22.8952 20.5514C23.1137 20.3329 23.3921 20.1841 23.6952 20.1238C23.9983 20.0635 24.3124 20.0944 24.5979 20.2127C24.8835 20.331 25.1275 20.5312 25.2992 20.7882C25.4709 21.0451 25.5625 21.3472 25.5625 21.6563C25.5625 22.0707 25.3979 22.4681 25.1049 22.7611C24.8118 23.0541 24.4144 23.2188 24 23.2188Z" fill="#1958e3"/>
<path d="M30.4375 19.3359L29.9141 19.2031L30.1953 18.7422C30.2847 18.5929 30.3217 18.4181 30.3005 18.2455C30.2792 18.0728 30.201 17.9122 30.0781 17.7891L27.8672 15.5781C27.7431 15.4569 27.5826 15.3798 27.4104 15.3586C27.2382 15.3375 27.0638 15.3734 26.9141 15.4609L26.4531 15.7422L26.3203 15.2188C26.2784 15.0494 26.1811 14.8989 26.0437 14.7913C25.9064 14.6837 25.737 14.6251 25.5625 14.625H22.4375C22.263 14.6251 22.0936 14.6837 21.9563 14.7913C21.8189 14.8989 21.7216 15.0494 21.6797 15.2188L21.5469 15.7422L21.0859 15.4609C20.9362 15.3734 20.7618 15.3375 20.5896 15.3586C20.4174 15.3798 20.2569 15.4569 20.1328 15.5781L17.9219 17.7891C17.799 17.9122 17.7208 18.0728 17.6995 18.2455C17.6783 18.4181 17.7153 18.5929 17.8047 18.7422L18.0859 19.2031L17.5625 19.3359C17.3931 19.3778 17.2426 19.4752 17.135 19.6125C17.0274 19.7499 16.9689 19.9193 16.9688 20.0937V23.2187C16.9689 23.3932 17.0274 23.5626 17.135 23.7C17.2426 23.8373 17.3931 23.9347 17.5625 23.9766L18.0859 24.1094L17.8047 24.5703C17.7153 24.7196 17.6783 24.8944 17.6995 25.067C17.7208 25.2397 17.799 25.4003 17.9219 25.5234L20.1328 27.7344C20.2568 27.8558 20.4173 27.9331 20.5895 27.9543C20.7618 27.9754 20.9362 27.9393 21.0859 27.8516L21.5469 27.5703L21.6797 28.0938C21.7216 28.2631 21.8189 28.4136 21.9563 28.5212C22.0936 28.6288 22.263 28.6874 22.4375 28.6875H25.5625C25.737 28.6874 25.9064 28.6288 26.0437 28.5212C26.1811 28.4136 26.2784 28.2631 26.3203 28.0938L26.4531 27.5703L26.9141 27.8516C27.0638 27.9391 27.2382 27.975 27.4104 27.9539C27.5826 27.9327 27.7431 27.8556 27.8672 27.7344L30.0781 25.5234C30.201 25.4003 30.2792 25.2397 30.3005 25.067C30.3217 24.8944 30.2847 24.7196 30.1953 24.5703L29.9141 24.1094L30.4375 23.9766C30.6069 23.9347 30.7574 23.8373 30.865 23.7C30.9726 23.5626 31.0311 23.3932 31.0312 23.2187V20.0937C31.0311 19.9193 30.9726 19.7499 30.865 19.6125C30.7574 19.4752 30.6069 19.3778 30.4375 19.3359ZM29.4688 22.6094L28.5156 22.8438C28.3974 22.8741 28.2878 22.9315 28.1956 23.0115C28.1034 23.0915 28.0311 23.1919 27.9844 23.3047C27.937 23.4178 27.9173 23.5406 27.9268 23.6629C27.9363 23.7851 27.9748 23.9034 28.0391 24.0078L28.5391 24.8516L27.1953 26.1953L26.3516 25.6875C26.2458 25.6262 26.1274 25.5902 26.0055 25.582C25.8835 25.5739 25.7614 25.5939 25.6484 25.6406C25.5357 25.6873 25.4353 25.7597 25.3553 25.8519C25.2753 25.9441 25.2178 26.0536 25.1875 26.1719L24.9531 27.125H23.0469L22.8125 26.1719C22.7822 26.0536 22.7247 25.9441 22.6447 25.8519C22.5647 25.7597 22.4643 25.6873 22.3516 25.6406C22.2386 25.5939 22.1165 25.5739 21.9945 25.582C21.8726 25.5902 21.7542 25.6262 21.6484 25.6875L20.8047 26.1953L19.4609 24.8516L19.9609 24.0078C20.0252 23.9034 20.0637 23.7851 20.0732 23.6629C20.0827 23.5406 20.063 23.4178 20.0156 23.3047C19.9689 23.1919 19.8966 23.0915 19.8044 23.0115C19.7122 22.9315 19.6026 22.8741 19.4844 22.8438L18.5312 22.6094V20.7031L19.4844 20.4687C19.6026 20.4384 19.7122 20.381 19.8044 20.301C19.8966 20.221 19.9689 20.1206 20.0156 20.0078C20.063 19.8947 20.0827 19.7719 20.0732 19.6496C20.0637 19.5274 20.0252 19.4091 19.9609 19.3047L19.4609 18.4609L20.8047 17.1172L21.6484 17.6172C21.7529 17.6814 21.8711 17.7199 21.9934 17.7294C22.1157 17.7389 22.2384 17.7192 22.3516 17.6719C22.4643 17.6252 22.5647 17.5528 22.6447 17.4606C22.7247 17.3684 22.7822 17.2589 22.8125 17.1406L23.0469 16.1875H24.9531L25.1875 17.1406C25.2178 17.2589 25.2753 17.3684 25.3553 17.4606C25.4353 17.5528 25.5357 17.6252 25.6484 17.6719C25.7616 17.7192 25.8843 17.7389 26.0066 17.7294C26.1289 17.7199 26.2471 17.6814 26.3516 17.6172L27.1953 17.1172L28.5391 18.4609L28.0391 19.3047C27.9748 19.4091 27.9363 19.5274 27.9268 19.6496C27.9173 19.7719 27.937 19.8947 27.9844 20.0078C28.0311 20.1206 28.1034 20.221 28.1956 20.301C28.2878 20.381 28.3974 20.4384 28.5156 20.4687L29.4688 20.7031V22.6094Z" fill="#1958e3"/>
<path d="M40.4062 29.4688V24.7812C40.4062 24.1596 40.1593 23.5635 39.7198 23.124C39.2802 22.6844 38.6841 22.4375 38.0625 22.4375H32.5938V24H38.0625C38.2697 24 38.4684 24.0823 38.6149 24.2288C38.7614 24.3753 38.8438 24.574 38.8438 24.7812V29.4688H40.4062Z" fill="#1958e3"/>
<path d="M45.0938 31.0312H34.1562C33.5352 31.0331 32.9402 31.2806 32.501 31.7198C32.0619 32.1589 31.8144 32.754 31.8125 33.375V41.1875C31.8144 41.8085 32.0619 42.4036 32.501 42.8427C32.9402 43.2819 33.5352 43.5294 34.1562 43.5312H36.9609L35.8438 46.3672C35.7965 46.4858 35.7791 46.6141 35.7929 46.741C35.8068 46.8679 35.8515 46.9894 35.9232 47.095C35.9949 47.2006 36.0913 47.2871 36.2041 47.3468C36.317 47.4065 36.4427 47.4376 36.5703 47.4375H42.6797C42.8073 47.4376 42.933 47.4065 43.0459 47.3468C43.1587 47.2871 43.2551 47.2006 43.3268 47.095C43.3985 46.9894 43.4432 46.8679 43.4571 46.741C43.4709 46.6141 43.4535 46.4858 43.4062 46.3672L42.2891 43.5312H45.0938C45.7148 43.5294 46.3098 43.2819 46.749 42.8427C47.1881 42.4036 47.4356 41.8085 47.4375 41.1875V33.375C47.4356 32.754 47.1881 32.1589 46.749 31.7198C46.3098 31.2806 45.7148 31.0331 45.0938 31.0312ZM37.7188 45.875L38.6484 43.5312H40.6016L41.5312 45.875H37.7188ZM45.875 41.1875C45.875 41.3947 45.7927 41.5934 45.6462 41.7399C45.4997 41.8864 45.301 41.9688 45.0938 41.9688H34.1562C33.949 41.9688 33.7503 41.8864 33.6038 41.7399C33.4573 41.5934 33.375 41.3947 33.375 41.1875V40.4062H45.875V41.1875ZM45.875 38.8438H33.375V33.375C33.375 33.1678 33.4573 32.9691 33.6038 32.8226C33.7503 32.6761 33.949 32.5938 34.1562 32.5938H45.0938C45.301 32.5938 45.4997 32.6761 45.6462 32.8226C45.7927 32.9691 45.875 33.1678 45.875 33.375V38.8438Z" fill="#1958e3"/>
<path d="M13.8438 31.0312H2.90625C2.28465 31.0312 1.68851 31.2782 1.24897 31.7177C0.80943 32.1573 0.5625 32.7534 0.5625 33.375V41.1875C0.5625 41.8091 0.80943 42.4052 1.24897 42.8448C1.68851 43.2843 2.28465 43.5312 2.90625 43.5312H5.71406L4.59141 46.3687C4.54451 46.4872 4.52731 46.6154 4.54131 46.7421C4.55532 46.8688 4.60009 46.9901 4.67174 47.0955C4.74339 47.2009 4.83974 47.2871 4.95238 47.3468C5.06501 47.4064 5.19053 47.4375 5.31797 47.4375H11.432C11.5595 47.4375 11.685 47.4064 11.7976 47.3468C11.9103 47.2871 12.0066 47.2009 12.0783 47.0955C12.1499 46.9901 12.1947 46.8688 12.2087 46.7421C12.2227 46.6154 12.2055 46.4872 12.1586 46.3687L11.0359 43.5312H13.8438C14.4654 43.5312 15.0615 43.2843 15.501 42.8448C15.9406 42.4052 16.1875 41.8091 16.1875 41.1875V33.375C16.1875 32.7534 15.9406 32.1573 15.501 31.7177C15.0615 31.2782 14.4654 31.0312 13.8438 31.0312ZM2.90625 32.5938H13.8438C14.051 32.5938 14.2497 32.6761 14.3962 32.8226C14.5427 32.9691 14.625 33.1678 14.625 33.375V38.8438H2.125V33.375C2.125 33.1678 2.20731 32.9691 2.35382 32.8226C2.50034 32.6761 2.69905 32.5938 2.90625 32.5938ZM10.2828 45.875H6.46719L7.39453 43.5312H9.35547L10.2828 45.875ZM13.8438 41.9688H2.90625C2.69905 41.9688 2.50034 41.8864 2.35382 41.7399C2.20731 41.5934 2.125 41.3947 2.125 41.1875V40.4062H14.625V41.1875C14.625 41.3947 14.5427 41.5934 14.3962 41.7399C14.2497 41.8864 14.051 41.9688 13.8438 41.9688Z" fill="#1958e3"/>
<path d="M7.59375 34.9375H9.15625V36.5H7.59375V34.9375Z" fill="#1958e3"/>
<path d="M10.7188 34.9375H12.2812V36.5H10.7188V34.9375Z" fill="#1958e3"/>
<path d="M4.46875 34.9375H6.03125V36.5H4.46875V34.9375Z" fill="#1958e3"/>
<path d="M38.8438 34.9375H40.4062V36.5H38.8438V34.9375Z" fill="#1958e3"/>
<path d="M41.9688 34.9375H43.5312V36.5H41.9688V34.9375Z" fill="#1958e3"/>
<path d="M35.7188 34.9375H37.2812V36.5H35.7188V34.9375Z" fill="#1958e3"/>
<path d="M34.1562 8.3751C34.1562 7.54629 33.827 6.75144 33.241 6.16539C32.6549 5.57933 31.8601 5.25009 31.0312 5.25009C31.0242 4.6478 30.8382 4.06121 30.4969 3.56494C30.2635 3.1987 29.9565 2.88503 29.5954 2.64387C29.2343 2.40271 28.8269 2.23934 28.3992 2.16416C27.7712 2.06022 27.1265 2.15557 26.5555 2.43681C25.8674 1.64892 24.9677 1.07492 23.9632 0.782875C22.9588 0.490832 21.8916 0.493006 20.8883 0.789138C19.885 1.08527 18.9877 1.66293 18.3028 2.45362C17.618 3.2443 17.1742 4.21483 17.0242 5.25009H16.9688C16.1399 5.25009 15.3451 5.57933 14.759 6.16539C14.173 6.75144 13.8438 7.54629 13.8438 8.3751C13.8438 9.2039 14.173 9.99875 14.759 10.5848C15.3451 11.1709 16.1399 11.5001 16.9688 11.5001H31.0312C31.8601 11.5001 32.6549 11.1709 33.241 10.5848C33.827 9.99875 34.1562 9.2039 34.1562 8.3751ZM31.0312 9.9376H16.9688C16.5543 9.9376 16.1569 9.77298 15.8639 9.47995C15.5709 9.18692 15.4062 8.7895 15.4062 8.3751C15.4062 7.96069 15.5709 7.56327 15.8639 7.27024C16.1569 6.97722 16.5543 6.8126 16.9688 6.8126H17.75C17.9572 6.8126 18.1559 6.73029 18.3024 6.58377C18.4489 6.43726 18.5312 6.23855 18.5312 6.03134C18.5319 5.18839 18.8052 4.36827 19.3104 3.69345C19.8156 3.01864 20.5255 2.52534 21.3341 2.28724C22.1427 2.04913 23.0067 2.07899 23.797 2.37236C24.5872 2.66572 25.2614 3.20686 25.7188 3.91494C25.7796 4.00934 25.8601 4.08951 25.9547 4.14999C26.0493 4.21047 26.1559 4.24984 26.2671 4.26541C26.3783 4.28098 26.4916 4.27239 26.5992 4.24022C26.7068 4.20805 26.8062 4.15306 26.8906 4.079C27.061 3.92631 27.2633 3.81366 27.4829 3.74932C27.7024 3.68497 27.9335 3.67056 28.1594 3.70713C28.3716 3.74972 28.573 3.83514 28.7511 3.95819C28.9292 4.08123 29.0804 4.23931 29.1953 4.42275C29.338 4.61313 29.4294 4.83693 29.4609 5.07275C29.4923 5.30856 29.4628 5.5485 29.375 5.76963C29.3332 5.88711 29.3202 6.01289 29.337 6.13645C29.3537 6.26001 29.3998 6.37776 29.4714 6.47986C29.543 6.58196 29.638 6.66544 29.7484 6.72333C29.8589 6.78121 29.9816 6.81182 30.1063 6.8126H31.0312C31.4457 6.8126 31.8431 6.97722 32.1361 7.27024C32.4291 7.56327 32.5938 7.96069 32.5938 8.3751C32.5938 8.7895 32.4291 9.18692 32.1361 9.47995C31.8431 9.77298 31.4457 9.9376 31.0312 9.9376Z" fill="#1958e3"/>
<path d="M41.9688 10.7188V16.9688C41.9688 17.5904 41.7218 18.1865 41.2823 18.626C40.8427 19.0656 40.2466 19.3125 39.625 19.3125H32.5938V20.875H39.625C40.6606 20.8738 41.6535 20.4618 42.3858 19.7295C43.1181 18.9972 43.53 18.0044 43.5312 16.9688V10.7188C43.53 9.68313 43.1181 8.69028 42.3858 7.95798C41.6535 7.22569 40.6606 6.81374 39.625 6.8125H35.7188V8.375H39.625C40.2466 8.375 40.8427 8.62193 41.2823 9.06147C41.7218 9.50101 41.9688 10.0971 41.9688 10.7188Z" fill="#1958e3"/>
<path d="M7.59375 24.7812V29.4688H9.15625V24.7812C9.15625 24.574 9.23856 24.3753 9.38507 24.2288C9.53159 24.0823 9.7303 24 9.9375 24H15.4062V22.4375H9.9375C9.3159 22.4375 8.71976 22.6844 8.28022 23.124C7.84068 23.5635 7.59375 24.1596 7.59375 24.7812Z" fill="#1958e3"/>
<path d="M8.375 20.875H15.4062V19.3125H8.375C7.7534 19.3125 7.15726 19.0656 6.71772 18.626C6.27818 18.1865 6.03125 17.5904 6.03125 16.9688V10.7188C6.03125 10.0971 6.27818 9.50101 6.71772 9.06147C7.15726 8.62193 7.7534 8.375 8.375 8.375H12.2812V6.8125H8.375C7.33938 6.81374 6.34653 7.22569 5.61423 7.95798C4.88194 8.69028 4.46999 9.68313 4.46875 10.7188V16.9688C4.46999 18.0044 4.88194 18.9972 5.61423 19.7295C6.34653 20.4618 7.33938 20.8738 8.375 20.875Z" fill="#1958e3"/>
</svg>
