<svg width="28" height="18" viewBox="0 0 28 18" fill="none" xmlns="http://www.w3.org/2000/svg">
<path d="M4.39477 15.3L3.88527 16.1605L3.89192 16.1644L3.89863 16.1682L4.39477 15.3ZM2.03477 12.76L1.13819 13.2029L1.14141 13.2094L1.14472 13.2159L2.03477 12.76ZM2.03477 5L2.9292 5.44722L2.93134 5.44289L2.03477 5ZM4.37477 2.46L3.87862 1.59174L3.87373 1.59457L4.37477 2.46ZM11.5948 2.46L11.0937 3.32544L11.0986 3.32824L11.5948 2.46ZM13.9348 5L13.0339 5.43414L13.0371 5.4407L13.0403 5.44721L13.9348 5ZM13.9348 12.76L14.8292 13.2072L14.8313 13.2029L13.9348 12.76ZM11.5948 15.3L12.0958 16.1655L12.1043 16.1605L11.5948 15.3ZM11.0748 12.76L11.8523 13.3889V13.3889L11.0748 12.76ZM11.0748 5L10.2972 5.62889L10.3018 5.63449L11.0748 5ZM4.91477 4.98L5.68769 5.61449L4.91477 4.98ZM4.91477 12.76L4.13725 13.3889L4.91477 12.76ZM7.99477 15.18C6.76708 15.18 5.74361 14.919 4.8909 14.4318L3.89863 16.1682C5.09926 16.8543 6.47578 17.18 7.99477 17.18V15.18ZM4.90426 14.4395C4.06064 13.94 3.40261 13.237 2.92481 12.3041L1.14472 13.2159C1.78692 14.4697 2.70222 15.46 3.88527 16.1605L4.90426 14.4395ZM2.93134 12.3171C2.46551 11.3741 2.21477 10.2315 2.21477 8.86H0.214766C0.214766 10.4752 0.510683 11.9326 1.13819 13.2029L2.93134 12.3171ZM2.21477 8.86C2.21477 7.50295 2.46508 6.37544 2.92919 5.44721L1.14034 4.55279C0.511117 5.81123 0.214766 7.25705 0.214766 8.86H2.21477ZM2.93134 5.44289C3.39568 4.50289 4.04257 3.80783 4.8758 3.32543L3.87373 1.59457C2.6803 2.28551 1.76719 3.28378 1.13819 4.55711L2.93134 5.44289ZM4.8709 3.32824C5.7222 2.84179 6.75186 2.58 7.99477 2.58V0.58C6.46434 0.58 5.08066 0.904878 3.87863 1.59176L4.8709 3.32824ZM7.99477 2.58C9.23808 2.58 10.2586 2.84192 11.0937 3.32543L12.0958 1.59457C10.9043 0.904744 9.52478 0.58 7.99477 0.58V2.58ZM11.0986 3.32824C11.9425 3.81043 12.5848 4.50226 13.0339 5.43414L14.8356 4.56586C14.218 3.2844 13.3004 2.2829 12.0909 1.59176L11.0986 3.32824ZM13.0403 5.44721C13.5045 6.37544 13.7548 7.50295 13.7548 8.86H15.7548C15.7548 7.25705 15.4584 5.81123 14.8292 4.55279L13.0403 5.44721ZM13.7548 8.86C13.7548 10.2315 13.504 11.3741 13.0382 12.3171L14.8313 13.2029C15.4588 11.9326 15.7548 10.4752 15.7548 8.86H13.7548ZM13.0403 12.3128C12.5762 13.2411 11.9268 13.9413 11.0853 14.4395L12.1043 16.1605C13.2894 15.4587 14.2 14.4655 14.8292 13.2072L13.0403 12.3128ZM11.0937 14.4346C10.2586 14.9181 9.23808 15.18 7.99477 15.18V17.18C9.52478 17.18 10.9043 16.8553 12.0958 16.1654L11.0937 14.4346ZM7.99477 15.12C9.57169 15.12 10.9025 14.5631 11.8523 13.3889L10.2973 12.1311C9.78037 12.7702 9.05784 13.12 7.99477 13.12V15.12ZM11.8523 13.3889C12.7821 12.2392 13.1748 10.6817 13.1748 8.86H11.1748C11.1748 10.425 10.8341 11.4674 10.2973 12.1311L11.8523 13.3889ZM13.1748 8.86C13.1748 7.05072 12.7817 5.50328 11.8477 4.36551L10.3018 5.63449C10.8345 6.28339 11.1748 7.30928 11.1748 8.86H13.1748ZM11.8523 4.37113C10.9025 3.19685 9.57169 2.64 7.99477 2.64V4.64C9.05784 4.64 9.78037 4.98981 10.2973 5.62887L11.8523 4.37113ZM7.99477 2.64C6.42317 2.64 5.09348 3.18623 4.14184 4.34551L5.68769 5.61449C6.20272 4.9871 6.92636 4.64 7.99477 4.64V2.64ZM4.14184 4.34551C3.20685 5.48449 2.81477 7.03966 2.81477 8.86H4.81477C4.81477 7.29367 5.15601 6.26218 5.68769 5.61449L4.14184 4.34551ZM2.81477 8.86C2.81477 10.6817 3.2074 12.2392 4.13725 13.3889L5.69228 12.1311C5.15546 11.4674 4.81477 10.425 4.81477 8.86H2.81477ZM4.13725 13.3889C5.08704 14.5631 6.41784 15.12 7.99477 15.12V13.12C6.93169 13.12 6.20916 12.7702 5.69228 12.1311L4.13725 13.3889ZM26.8374 13.9H27.8374V12.9H26.8374V13.9ZM26.8374 16V17H27.8374V16H26.8374ZM17.2774 16H16.2774V17H17.2774V16ZM17.2774 14.1L16.5441 13.4201L16.2774 13.7077V14.1H17.2774ZM22.1174 8.88L22.8507 9.55993L22.8552 9.55501L22.1174 8.88ZM23.1974 4.14L22.5314 4.88594L22.5379 4.89173L22.5445 4.89741L23.1974 4.14ZM17.7174 5.12L16.8081 5.53599L17.3236 6.66289L18.3161 5.92097L17.7174 5.12ZM16.8574 3.24L16.1865 2.49846L15.6433 2.98989L15.9481 3.65599L16.8574 3.24ZM19.0174 2.04L19.3337 2.98877L19.3465 2.9843L19.0174 2.04ZM25.0574 2.64L24.4076 3.40012L24.4142 3.40573L24.4209 3.41122L25.0574 2.64ZM25.7774 7.76L24.883 7.31279L24.8797 7.31946L24.8764 7.32618L25.7774 7.76ZM24.0174 10.18L24.7458 10.8653L24.7514 10.8592L24.0174 10.18ZM20.5174 13.9L19.7891 13.2148L18.2035 14.9H20.5174V13.9ZM25.8374 13.9V16H27.8374V13.9H25.8374ZM26.8374 15H17.2774V17H26.8374V15ZM18.2774 16V14.1H16.2774V16H18.2774ZM18.0107 14.7799L22.8507 9.55991L21.3841 8.20009L16.5441 13.4201L18.0107 14.7799ZM22.8552 9.55501C23.4641 8.88947 23.946 8.24264 24.2672 7.61632L22.4876 6.70368C22.2755 7.11736 21.9174 7.6172 21.3796 8.20499L22.8552 9.55501ZM24.2672 7.61632C24.5952 6.97685 24.7774 6.30811 24.7774 5.62H22.7774C22.7774 5.94522 22.693 6.30315 22.4876 6.70368L24.2672 7.61632ZM24.7774 5.62C24.7774 4.76312 24.5159 3.95635 23.8504 3.38259L22.5445 4.89741C22.6523 4.99031 22.7774 5.17021 22.7774 5.62H24.7774ZM23.8634 3.39406C23.2435 2.84058 22.4291 2.64 21.5774 2.64V4.64C22.1391 4.64 22.4046 4.77275 22.5314 4.88594L23.8634 3.39406ZM21.5774 2.64C20.0491 2.64 18.5573 3.24374 17.1187 4.31903L18.3161 5.92097C19.5176 5.02293 20.5991 4.64 21.5774 4.64V2.64ZM18.6268 4.70401L17.7668 2.82401L15.9481 3.65599L16.8081 5.53599L18.6268 4.70401ZM17.5283 3.98153C17.9651 3.58636 18.5557 3.24799 19.3336 2.98868L18.7012 1.09132C17.7191 1.41868 16.8697 1.88031 16.1865 2.49846L17.5283 3.98153ZM19.3465 2.9843C20.1253 2.7129 20.9009 2.58 21.6774 2.58V0.58C20.6673 0.58 19.6695 0.753769 18.6883 1.0957L19.3465 2.9843ZM21.6774 2.58C22.9413 2.58 23.8122 2.8911 24.4076 3.40012L25.7072 1.87988C24.6493 0.975565 23.2669 0.58 21.6774 0.58V2.58ZM24.4209 3.41122C25.0083 3.89606 25.3174 4.54137 25.3174 5.46H27.3174C27.3174 4.00529 26.7866 2.77061 25.694 1.86878L24.4209 3.41122ZM25.3174 5.46C25.3174 6.11976 25.1728 6.73313 24.883 7.31279L26.6719 8.20721C27.102 7.34687 27.3174 6.42691 27.3174 5.46H25.3174ZM24.8764 7.32618C24.5892 7.92267 24.074 8.64654 23.2835 9.50081L24.7514 10.8592C25.6142 9.9268 26.2723 9.03733 26.6784 8.19382L24.8764 7.32618ZM23.2891 9.49476L19.7891 13.2148L21.2457 14.5852L24.7457 10.8652L23.2891 9.49476ZM20.5174 14.9H26.8374V12.9H20.5174V14.9Z" fill="#1958e3"/>
</svg>
