<svg width="28" height="18" viewBox="0 0 28 18" fill="none" xmlns="http://www.w3.org/2000/svg">
<path d="M4.39672 15.3L3.88723 16.1605L3.89387 16.1644L3.90058 16.1682L4.39672 15.3ZM2.03672 12.76L1.14014 13.2029L1.14336 13.2094L1.14668 13.2159L2.03672 12.76ZM2.03672 5L2.93116 5.44722L2.9333 5.44289L2.03672 5ZM4.37672 2.46L3.88057 1.59174L3.87568 1.59457L4.37672 2.46ZM11.5967 2.46L11.0957 3.32544L11.1006 3.32824L11.5967 2.46ZM13.9367 5L13.0359 5.43414L13.039 5.4407L13.0423 5.44721L13.9367 5ZM13.9367 12.76L14.8312 13.2072L14.8333 13.2029L13.9367 12.76ZM11.5967 15.3L12.0978 16.1655L12.1062 16.1605L11.5967 15.3ZM11.0767 12.76L11.8542 13.3889V13.3889L11.0767 12.76ZM11.0767 5L10.2992 5.62889L10.3038 5.63449L11.0767 5ZM4.91672 4.98L5.68965 5.61449L4.91672 4.98ZM4.91672 12.76L4.13921 13.3889L4.91672 12.76ZM7.99672 15.18C6.76904 15.18 5.74556 14.919 4.89286 14.4318L3.90058 16.1682C5.10121 16.8543 6.47773 17.18 7.99672 17.18V15.18ZM4.90621 14.4395C4.0626 13.94 3.40456 13.237 2.92676 12.3041L1.14668 13.2159C1.78887 14.4697 2.70417 15.46 3.88723 16.1605L4.90621 14.4395ZM2.9333 12.3171C2.46747 11.3741 2.21672 10.2315 2.21672 8.86H0.216719C0.216719 10.4752 0.512637 11.9326 1.14014 13.2029L2.9333 12.3171ZM2.21672 8.86C2.21672 7.50295 2.46703 6.37544 2.93115 5.44721L1.14229 4.55279C0.51307 5.81123 0.216719 7.25705 0.216719 8.86H2.21672ZM2.9333 5.44289C3.39763 4.50289 4.04452 3.80783 4.87776 3.32543L3.87568 1.59457C2.68225 2.28551 1.76914 3.28378 1.14014 4.55711L2.9333 5.44289ZM4.87286 3.32824C5.72415 2.84179 6.75381 2.58 7.99672 2.58V0.58C6.4663 0.58 5.08262 0.904878 3.88058 1.59176L4.87286 3.32824ZM7.99672 2.58C9.24004 2.58 10.2605 2.84192 11.0957 3.32543L12.0978 1.59457C10.9062 0.904744 9.52673 0.58 7.99672 0.58V2.58ZM11.1006 3.32824C11.9444 3.81043 12.5868 4.50226 13.0359 5.43414L14.8376 4.56586C14.22 3.2844 13.3024 2.2829 12.0929 1.59176L11.1006 3.32824ZM13.0423 5.44721C13.5064 6.37544 13.7567 7.50295 13.7567 8.86H15.7567C15.7567 7.25705 15.4604 5.81123 14.8311 4.55279L13.0423 5.44721ZM13.7567 8.86C13.7567 10.2315 13.506 11.3741 13.0401 12.3171L14.8333 13.2029C15.4608 11.9326 15.7567 10.4752 15.7567 8.86H13.7567ZM13.0423 12.3128C12.5781 13.2411 11.9287 13.9413 11.0872 14.4395L12.1062 16.1605C13.2914 15.4587 14.202 14.4655 14.8311 13.2072L13.0423 12.3128ZM11.0957 14.4346C10.2605 14.9181 9.24004 15.18 7.99672 15.18V17.18C9.52674 17.18 10.9062 16.8553 12.0978 16.1654L11.0957 14.4346ZM7.99672 15.12C9.57364 15.12 10.9044 14.5631 11.8542 13.3889L10.2992 12.1311C9.78232 12.7702 9.0598 13.12 7.99672 13.12V15.12ZM11.8542 13.3889C12.7841 12.2392 13.1767 10.6817 13.1767 8.86H11.1767C11.1767 10.425 10.836 11.4674 10.2992 12.1311L11.8542 13.3889ZM13.1767 8.86C13.1767 7.05072 12.7836 5.50328 11.8496 4.36551L10.3038 5.63449C10.8365 6.28339 11.1767 7.30928 11.1767 8.86H13.1767ZM11.8542 4.37113C10.9044 3.19685 9.57364 2.64 7.99672 2.64V4.64C9.0598 4.64 9.78232 4.98981 10.2992 5.62887L11.8542 4.37113ZM7.99672 2.64C6.42513 2.64 5.09544 3.18623 4.14379 4.34551L5.68965 5.61449C6.20467 4.9871 6.92831 4.64 7.99672 4.64V2.64ZM4.14379 4.34551C3.20881 5.48449 2.81672 7.03966 2.81672 8.86H4.81672C4.81672 7.29367 5.15797 6.26218 5.68965 5.61449L4.14379 4.34551ZM2.81672 8.86C2.81672 10.6817 3.20936 12.2392 4.13921 13.3889L5.69423 12.1311C5.15741 11.4674 4.81672 10.425 4.81672 8.86H2.81672ZM4.13921 13.3889C5.08899 14.5631 6.4198 15.12 7.99672 15.12V13.12C6.93364 13.12 6.21111 12.7702 5.69423 12.1311L4.13921 13.3889ZM24.0594 8.68L23.7063 7.7444L20.8075 8.83828L23.7989 9.64547L24.0594 8.68ZM25.9794 9.92L25.173 10.5114L25.1772 10.5171L25.1815 10.5228L25.9794 9.92ZM25.2794 15.08L24.6631 14.2925L24.6575 14.2969L25.2794 15.08ZM18.8194 15.72L18.5031 16.6687L18.5074 16.6701L18.8194 15.72ZM16.6394 14.5L15.7337 14.0761L15.4207 14.7447L15.9676 15.2407L16.6394 14.5ZM17.5194 12.62L18.1339 11.8311L17.1451 11.0608L16.6137 12.1961L17.5194 12.62ZM23.5194 13.56L22.8975 12.7769L22.8918 12.7814L22.8861 12.786L23.5194 13.56ZM23.5194 10.34L22.9119 11.1344L22.9194 11.1401L22.927 11.1457L23.5194 10.34ZM19.5394 9.82H18.5394V10.82H19.5394V9.82ZM19.5394 7.76V6.76H18.5394V7.76H19.5394ZM23.2394 4.16L22.5844 4.91569L22.5844 4.91569L23.2394 4.16ZM17.7194 5.12L16.81 5.53599L17.3334 6.68014L18.3299 5.91201L17.7194 5.12ZM16.8594 3.24L16.1972 2.49067L15.6416 2.98169L15.95 3.65599L16.8594 3.24ZM19.0194 2.04L19.34 2.98725L19.3485 2.9843L19.0194 2.04ZM25.0594 2.62L24.4168 3.38619L24.4234 3.39178L24.4302 3.39724L25.0594 2.62ZM26.3194 5.36L27.3192 5.37695L27.3194 5.36847V5.36H26.3194ZM25.6994 7.42L24.8731 6.85666L24.8703 6.86086L25.6994 7.42ZM23.7989 9.64547C24.4585 9.82347 24.8892 10.1244 25.173 10.5114L26.7858 9.32864C26.1896 8.51564 25.3403 7.98987 24.3199 7.71453L23.7989 9.64547ZM25.1815 10.5228C25.4823 10.9209 25.6594 11.4392 25.6594 12.14H27.6594C27.6594 11.0808 27.3832 10.1191 26.7772 9.31717L25.1815 10.5228ZM25.6594 12.14C25.6594 13.0943 25.3242 13.7751 24.6631 14.2925L25.8957 15.8675C27.0746 14.9449 27.6594 13.6657 27.6594 12.14H25.6594ZM24.6575 14.2969C23.9791 14.8356 22.996 15.16 21.5994 15.16V17.16C23.2961 17.16 24.7663 16.7644 25.9013 15.8631L24.6575 14.2969ZM21.5994 15.16C20.7431 15.16 19.9219 15.0295 19.1313 14.7699L18.5074 16.6701C19.5035 16.9972 20.5357 17.16 21.5994 17.16V15.16ZM19.1356 14.7713C18.3616 14.5133 17.7634 14.1694 17.3112 13.7593L15.9676 15.2407C16.662 15.8706 17.5171 16.34 18.5031 16.6687L19.1356 14.7713ZM17.5451 14.9239L18.4251 13.0439L16.6137 12.1961L15.7337 14.0761L17.5451 14.9239ZM16.9049 13.4089C18.3182 14.5098 19.856 15.1 21.4994 15.1V13.1C20.3695 13.1 19.2539 12.7035 18.1339 11.8311L16.9049 13.4089ZM21.4994 15.1C22.5082 15.1 23.4548 14.9049 24.1526 14.334L22.8861 12.786C22.7039 12.9351 22.3039 13.1 21.4994 13.1V15.1ZM24.1413 14.3431C24.8954 13.7442 25.1994 12.8694 25.1994 11.92H23.1994C23.1994 12.4372 23.05 12.6558 22.8975 12.7769L24.1413 14.3431ZM25.1994 11.92C25.1994 10.9801 24.8914 10.1076 24.1118 9.53435L22.927 11.1457C23.0541 11.2391 23.1994 11.4199 23.1994 11.92H25.1994ZM24.1268 9.54564C23.4172 9.00296 22.4534 8.82 21.4194 8.82V10.82C22.2787 10.82 22.7149 10.9837 22.9119 11.1344L24.1268 9.54564ZM21.4194 8.82H19.5394V10.82H21.4194V8.82ZM20.5394 9.82V7.76H18.5394V9.82H20.5394ZM19.5394 8.76H21.0794V6.76H19.5394V8.76ZM21.0794 8.76C22.0978 8.76 23.0447 8.57122 23.7549 8.03083C24.5168 7.45115 24.8394 6.59864 24.8394 5.66H22.8394C22.8394 6.12136 22.702 6.31884 22.5439 6.43917C22.3341 6.59878 21.9009 6.76 21.0794 6.76V8.76ZM24.8394 5.66C24.8394 4.79043 24.5637 3.98443 23.8943 3.40431L22.5844 4.91569C22.7151 5.02891 22.8394 5.2229 22.8394 5.66H24.8394ZM23.8943 3.40431C23.256 2.85113 22.4329 2.64 21.5594 2.64V4.64C22.1258 4.64 22.4227 4.77553 22.5844 4.91569L23.8943 3.40431ZM21.5594 2.64C20.0061 2.64 18.5172 3.24242 17.1089 4.32799L18.3299 5.91201C19.4816 5.02425 20.5527 4.64 21.5594 4.64V2.64ZM18.6287 4.70401L17.7687 2.82401L15.95 3.65599L16.81 5.53599L18.6287 4.70401ZM17.5216 3.98933C17.9778 3.58612 18.575 3.24612 19.34 2.98722L18.6988 1.09278C17.7304 1.42055 16.8876 1.88055 16.1972 2.49067L17.5216 3.98933ZM19.3485 2.9843C20.124 2.71402 20.9129 2.58 21.7194 2.58V0.58C20.6859 0.58 19.6747 0.752646 18.6903 1.0957L19.3485 2.9843ZM21.7194 2.58C22.9555 2.58 23.818 2.88403 24.4168 3.38619L25.702 1.85381C24.6474 0.969304 23.2833 0.58 21.7194 0.58V2.58ZM24.4302 3.39724C25.0197 3.87445 25.3194 4.49392 25.3194 5.36H27.3194C27.3194 3.93274 26.7791 2.72555 25.6886 1.84275L24.4302 3.39724ZM25.3195 5.34305C25.3091 5.95643 25.1515 6.44846 24.8731 6.85666L26.5256 7.98334C27.0473 7.21821 27.303 6.3369 27.3192 5.37695L25.3195 5.34305ZM24.8703 6.86086C24.6102 7.2465 24.2379 7.54379 23.7063 7.7444L24.4124 9.6156C25.2942 9.28288 26.0152 8.74017 26.5284 7.97914L24.8703 6.86086Z" fill="#1958e3"/>
</svg>
