<svg width="29" height="18" viewBox="0 0 29 18" fill="none" xmlns="http://www.w3.org/2000/svg">
<path d="M4.39477 15.3L3.88527 16.1605L3.89192 16.1644L3.89863 16.1682L4.39477 15.3ZM2.03477 12.76L1.13819 13.2029L1.14141 13.2094L1.14472 13.2159L2.03477 12.76ZM2.03477 5L2.9292 5.44722L2.93134 5.44289L2.03477 5ZM4.37477 2.46L3.87862 1.59174L3.87373 1.59457L4.37477 2.46ZM11.5948 2.46L11.0937 3.32544L11.0986 3.32824L11.5948 2.46ZM13.9348 5L13.0339 5.43414L13.0371 5.4407L13.0403 5.44721L13.9348 5ZM13.9348 12.76L14.8292 13.2072L14.8313 13.2029L13.9348 12.76ZM11.5948 15.3L12.0958 16.1655L12.1043 16.1605L11.5948 15.3ZM11.0748 12.76L11.8523 13.3889V13.3889L11.0748 12.76ZM11.0748 5L10.2972 5.62889L10.3018 5.63449L11.0748 5ZM4.91477 4.98L5.68769 5.61449L4.91477 4.98ZM4.91477 12.76L4.13725 13.3889L4.91477 12.76ZM7.99477 15.18C6.76708 15.18 5.74361 14.919 4.8909 14.4318L3.89863 16.1682C5.09926 16.8543 6.47578 17.18 7.99477 17.18V15.18ZM4.90426 14.4395C4.06064 13.94 3.40261 13.237 2.92481 12.3041L1.14472 13.2159C1.78692 14.4697 2.70222 15.46 3.88527 16.1605L4.90426 14.4395ZM2.93134 12.3171C2.46551 11.3741 2.21477 10.2315 2.21477 8.86H0.214766C0.214766 10.4752 0.510683 11.9326 1.13819 13.2029L2.93134 12.3171ZM2.21477 8.86C2.21477 7.50295 2.46508 6.37544 2.92919 5.44721L1.14034 4.55279C0.511117 5.81123 0.214766 7.25705 0.214766 8.86H2.21477ZM2.93134 5.44289C3.39568 4.50289 4.04257 3.80783 4.8758 3.32543L3.87373 1.59457C2.6803 2.28551 1.76719 3.28378 1.13819 4.55711L2.93134 5.44289ZM4.8709 3.32824C5.7222 2.84179 6.75186 2.58 7.99477 2.58V0.58C6.46434 0.58 5.08066 0.904878 3.87863 1.59176L4.8709 3.32824ZM7.99477 2.58C9.23808 2.58 10.2586 2.84192 11.0937 3.32543L12.0958 1.59457C10.9043 0.904744 9.52478 0.58 7.99477 0.58V2.58ZM11.0986 3.32824C11.9425 3.81043 12.5848 4.50226 13.0339 5.43414L14.8356 4.56586C14.218 3.2844 13.3004 2.2829 12.0909 1.59176L11.0986 3.32824ZM13.0403 5.44721C13.5045 6.37544 13.7548 7.50295 13.7548 8.86H15.7548C15.7548 7.25705 15.4584 5.81123 14.8292 4.55279L13.0403 5.44721ZM13.7548 8.86C13.7548 10.2315 13.504 11.3741 13.0382 12.3171L14.8313 13.2029C15.4588 11.9326 15.7548 10.4752 15.7548 8.86H13.7548ZM13.0403 12.3128C12.5762 13.2411 11.9268 13.9413 11.0853 14.4395L12.1043 16.1605C13.2894 15.4587 14.2 14.4655 14.8292 13.2072L13.0403 12.3128ZM11.0937 14.4346C10.2586 14.9181 9.23808 15.18 7.99477 15.18V17.18C9.52478 17.18 10.9043 16.8553 12.0958 16.1654L11.0937 14.4346ZM7.99477 15.12C9.57169 15.12 10.9025 14.5631 11.8523 13.3889L10.2973 12.1311C9.78037 12.7702 9.05784 13.12 7.99477 13.12V15.12ZM11.8523 13.3889C12.7821 12.2392 13.1748 10.6817 13.1748 8.86H11.1748C11.1748 10.425 10.8341 11.4674 10.2973 12.1311L11.8523 13.3889ZM13.1748 8.86C13.1748 7.05072 12.7817 5.50328 11.8477 4.36551L10.3018 5.63449C10.8345 6.28339 11.1748 7.30928 11.1748 8.86H13.1748ZM11.8523 4.37113C10.9025 3.19685 9.57169 2.64 7.99477 2.64V4.64C9.05784 4.64 9.78037 4.98981 10.2973 5.62887L11.8523 4.37113ZM7.99477 2.64C6.42317 2.64 5.09348 3.18623 4.14184 4.34551L5.68769 5.61449C6.20272 4.9871 6.92636 4.64 7.99477 4.64V2.64ZM4.14184 4.34551C3.20685 5.48449 2.81477 7.03966 2.81477 8.86H4.81477C4.81477 7.29367 5.15601 6.26218 5.68769 5.61449L4.14184 4.34551ZM2.81477 8.86C2.81477 10.6817 3.2074 12.2392 4.13725 13.3889L5.69228 12.1311C5.15546 11.4674 4.81477 10.425 4.81477 8.86H2.81477ZM4.13725 13.3889C5.08704 14.5631 6.41784 15.12 7.99477 15.12V13.12C6.93169 13.12 6.20916 12.7702 5.69228 12.1311L4.13725 13.3889ZM24.9774 7.48L24.4831 8.34929L24.4896 8.35298L24.4962 8.35658L24.9774 7.48ZM26.5574 9.08L25.6769 9.55412L25.6808 9.56126L26.5574 9.08ZM26.4774 13.92L27.3335 14.4369L27.3377 14.4298L26.4774 13.92ZM24.6374 15.58L25.0726 16.4804L25.0846 16.4744L24.6374 15.58ZM19.2174 15.72L18.8838 16.6628L18.8968 16.6672L19.2174 15.72ZM17.0774 14.5L16.1681 14.084L15.8633 14.7501L16.4065 15.2415L17.0774 14.5ZM17.9374 12.62L18.544 11.8249L17.5488 11.0657L17.0281 12.204L17.9374 12.62ZM23.9374 13.44L24.6234 14.1676L24.624 14.167L23.9374 13.44ZM23.9174 9.64L23.2103 10.3471L23.2201 10.3569L23.2302 10.3665L23.9174 9.64ZM20.3974 9.24L20.7731 10.1667L20.7838 10.1624L20.7943 10.1579L20.3974 9.24ZM19.0974 10.14V11.14H19.532L19.8285 10.8223L19.0974 10.14ZM17.5374 10.14H16.5374V11.14H17.5374V10.14ZM17.5374 1.76V0.76H16.5374V1.76H17.5374ZM26.4574 1.76H27.4574V0.76H26.4574V1.76ZM26.4574 3.76V4.76H27.4574V3.76H26.4574ZM20.0574 3.76V2.76H19.0574V3.76H20.0574ZM20.0574 7.64H19.0574V9.53741L20.6227 8.46493L20.0574 7.64ZM22.6174 7.9C23.3624 7.9 23.9741 8.05984 24.4831 8.34929L25.4717 6.61071C24.6208 6.12682 23.6591 5.9 22.6174 5.9V7.9ZM24.4962 8.35658C25.0044 8.63559 25.3936 9.0279 25.677 9.5541L27.4379 8.6059C26.9746 7.74543 26.3105 7.07107 25.4587 6.60342L24.4962 8.35658ZM25.6808 9.56126C25.9617 10.0727 26.1174 10.6892 26.1174 11.44H28.1174C28.1174 10.4042 27.8999 9.44725 27.434 8.59874L25.6808 9.56126ZM26.1174 11.44C26.1174 12.2151 25.9421 12.8618 25.6171 13.4102L27.3377 14.4298C27.8661 13.5382 28.1174 12.5315 28.1174 11.44H26.1174ZM25.6214 13.4031C25.3007 13.9343 24.8357 14.3629 24.1902 14.6856L25.0846 16.4744C26.0392 15.9971 26.8008 15.3191 27.3335 14.4369L25.6214 13.4031ZM24.2023 14.6797C23.5609 14.9897 22.7877 15.16 21.8574 15.16V17.16C23.0338 17.16 24.114 16.9437 25.0726 16.4803L24.2023 14.6797ZM21.8574 15.16C21.0758 15.16 20.3039 15.032 19.538 14.7728L18.8968 16.6672C19.8642 16.9946 20.8524 17.16 21.8574 17.16V15.16ZM19.551 14.7773C18.7826 14.5054 18.1915 14.1594 17.7483 13.7585L16.4065 15.2415C17.0834 15.8539 17.9189 16.3213 18.8838 16.6627L19.551 14.7773ZM17.9868 14.916L18.8468 13.036L17.0281 12.204L16.1681 14.084L17.9868 14.916ZM17.3309 13.4151C18.7612 14.5062 20.2889 15.1 21.8974 15.1V13.1C20.8126 13.1 19.7003 12.7071 18.544 11.8249L17.3309 13.4151ZM21.8974 15.1C22.9448 15.1 23.9089 14.8413 24.6234 14.1676L23.2514 12.7124C23.0326 12.9187 22.6367 13.1 21.8974 13.1V15.1ZM24.624 14.167C25.3521 13.4794 25.6574 12.5479 25.6574 11.52H23.6574C23.6574 12.1454 23.4828 12.4939 23.2508 12.713L24.624 14.167ZM25.6574 11.52C25.6574 10.506 25.3297 9.59943 24.6046 8.91353L23.2302 10.3665C23.4918 10.6139 23.6574 10.9606 23.6574 11.52H25.6574ZM24.6245 8.93289C23.9206 8.22899 22.9997 7.92 21.9774 7.92V9.92C22.5818 9.92 22.9542 10.091 23.2103 10.3471L24.6245 8.93289ZM21.9774 7.92C21.2867 7.92 20.6244 8.05235 20.0005 8.32214L20.7943 10.1579C21.1571 10.001 21.5481 9.92 21.9774 9.92V7.92ZM20.0217 8.31326C19.3898 8.56946 18.8361 8.95438 18.3664 9.45768L19.8285 10.8223C20.1054 10.5256 20.4184 10.3105 20.7731 10.1667L20.0217 8.31326ZM19.0974 9.14H17.5374V11.14H19.0974V9.14ZM18.5374 10.14V1.76H16.5374V10.14H18.5374ZM17.5374 2.76H26.4574V0.76H17.5374V2.76ZM25.4574 1.76V3.76H27.4574V1.76H25.4574ZM26.4574 2.76H20.0574V4.76H26.4574V2.76ZM19.0574 3.76V7.64H21.0574V3.76H19.0574ZM20.6227 8.46493C21.1551 8.10014 21.8052 7.9 22.6174 7.9V5.9C21.4563 5.9 20.3998 6.19319 19.4922 6.81507L20.6227 8.46493Z" fill="#1958e3"/>
</svg>
