<svg width="29" height="18" viewBox="0 0 29 18" fill="none" xmlns="http://www.w3.org/2000/svg">
<path d="M4.39672 15.3L3.88723 16.1605L3.89387 16.1644L3.90058 16.1682L4.39672 15.3ZM2.03672 12.76L1.14014 13.2029L1.14336 13.2094L1.14668 13.2159L2.03672 12.76ZM2.03672 5L2.93116 5.44722L2.9333 5.44289L2.03672 5ZM4.37672 2.46L3.88057 1.59174L3.87568 1.59457L4.37672 2.46ZM11.5967 2.46L11.0957 3.32544L11.1006 3.32824L11.5967 2.46ZM13.9367 5L13.0359 5.43414L13.039 5.4407L13.0423 5.44721L13.9367 5ZM13.9367 12.76L14.8312 13.2072L14.8333 13.2029L13.9367 12.76ZM11.5967 15.3L12.0978 16.1655L12.1062 16.1605L11.5967 15.3ZM11.0767 12.76L11.8542 13.3889V13.3889L11.0767 12.76ZM11.0767 5L10.2992 5.62889L10.3038 5.63449L11.0767 5ZM4.91672 4.98L5.68965 5.61449L4.91672 4.98ZM4.91672 12.76L4.13921 13.3889L4.91672 12.76ZM7.99672 15.18C6.76904 15.18 5.74556 14.919 4.89286 14.4318L3.90058 16.1682C5.10121 16.8543 6.47773 17.18 7.99672 17.18V15.18ZM4.90621 14.4395C4.0626 13.94 3.40456 13.237 2.92676 12.3041L1.14668 13.2159C1.78887 14.4697 2.70417 15.46 3.88723 16.1605L4.90621 14.4395ZM2.9333 12.3171C2.46747 11.3741 2.21672 10.2315 2.21672 8.86H0.216719C0.216719 10.4752 0.512637 11.9326 1.14014 13.2029L2.9333 12.3171ZM2.21672 8.86C2.21672 7.50295 2.46703 6.37544 2.93115 5.44721L1.14229 4.55279C0.51307 5.81123 0.216719 7.25705 0.216719 8.86H2.21672ZM2.9333 5.44289C3.39763 4.50289 4.04452 3.80783 4.87776 3.32543L3.87568 1.59457C2.68225 2.28551 1.76914 3.28378 1.14014 4.55711L2.9333 5.44289ZM4.87286 3.32824C5.72415 2.84179 6.75381 2.58 7.99672 2.58V0.58C6.4663 0.58 5.08262 0.904878 3.88058 1.59176L4.87286 3.32824ZM7.99672 2.58C9.24004 2.58 10.2605 2.84192 11.0957 3.32543L12.0978 1.59457C10.9062 0.904744 9.52673 0.58 7.99672 0.58V2.58ZM11.1006 3.32824C11.9444 3.81043 12.5868 4.50226 13.0359 5.43414L14.8376 4.56586C14.22 3.2844 13.3024 2.2829 12.0929 1.59176L11.1006 3.32824ZM13.0423 5.44721C13.5064 6.37544 13.7567 7.50295 13.7567 8.86H15.7567C15.7567 7.25705 15.4604 5.81123 14.8311 4.55279L13.0423 5.44721ZM13.7567 8.86C13.7567 10.2315 13.506 11.3741 13.0401 12.3171L14.8333 13.2029C15.4608 11.9326 15.7567 10.4752 15.7567 8.86H13.7567ZM13.0423 12.3128C12.5781 13.2411 11.9287 13.9413 11.0872 14.4395L12.1062 16.1605C13.2914 15.4587 14.202 14.4655 14.8311 13.2072L13.0423 12.3128ZM11.0957 14.4346C10.2605 14.9181 9.24004 15.18 7.99672 15.18V17.18C9.52674 17.18 10.9062 16.8553 12.0978 16.1654L11.0957 14.4346ZM7.99672 15.12C9.57364 15.12 10.9044 14.5631 11.8542 13.3889L10.2992 12.1311C9.78232 12.7702 9.0598 13.12 7.99672 13.12V15.12ZM11.8542 13.3889C12.7841 12.2392 13.1767 10.6817 13.1767 8.86H11.1767C11.1767 10.425 10.836 11.4674 10.2992 12.1311L11.8542 13.3889ZM13.1767 8.86C13.1767 7.05072 12.7836 5.50328 11.8496 4.36551L10.3038 5.63449C10.8365 6.28339 11.1767 7.30928 11.1767 8.86H13.1767ZM11.8542 4.37113C10.9044 3.19685 9.57364 2.64 7.99672 2.64V4.64C9.0598 4.64 9.78232 4.98981 10.2992 5.62887L11.8542 4.37113ZM7.99672 2.64C6.42513 2.64 5.09544 3.18623 4.14379 4.34551L5.68965 5.61449C6.20467 4.9871 6.92831 4.64 7.99672 4.64V2.64ZM4.14379 4.34551C3.20881 5.48449 2.81672 7.03966 2.81672 8.86H4.81672C4.81672 7.29367 5.15797 6.26218 5.68965 5.61449L4.14379 4.34551ZM2.81672 8.86C2.81672 10.6817 3.20936 12.2392 4.13921 13.3889L5.69423 12.1311C5.15741 11.4674 4.81672 10.425 4.81672 8.86H2.81672ZM4.13921 13.3889C5.08899 14.5631 6.4198 15.12 7.99672 15.12V13.12C6.93364 13.12 6.21111 12.7702 5.69423 12.1311L4.13921 13.3889ZM24.9794 7.44L24.47 8.30061L24.4777 8.30503L24.9794 7.44ZM26.5394 9.06L25.6589 9.5341L26.5394 9.06ZM26.4794 13.88L25.612 13.3821L25.6052 13.3944L26.4794 13.88ZM24.7794 15.58L25.265 16.4542L25.2704 16.4512L24.7794 15.58ZM18.1594 14.36L17.376 14.9816L17.3793 14.9857L18.1594 14.36ZM17.3794 5.08L16.4546 4.69923L16.4509 4.70861L17.3794 5.08ZM19.3794 2.48L18.816 1.65375L18.8102 1.65781L19.3794 2.48ZM24.9794 2.02L24.6351 2.95888L24.6445 2.9623L24.6539 2.96554L24.9794 2.02ZM27.0994 3.24L28.0051 3.66394L28.3214 2.98824L27.7637 2.49259L27.0994 3.24ZM26.2194 5.12L25.6008 5.90574L26.5909 6.68515L27.1251 5.54394L26.2194 5.12ZM20.1594 4.98L21.001 5.52012L20.1594 4.98ZM19.2594 8.82L18.2595 8.804L20.1498 9.27511L19.2594 8.82ZM20.6594 7.4L21.1434 8.27503L21.1505 8.27113L21.1575 8.26711L20.6594 7.4ZM23.9594 13.42L23.2324 12.7334L23.2273 12.7388L23.2222 12.7443L23.9594 13.42ZM23.9594 9.64L23.2222 10.3157L23.232 10.3264L23.2421 10.3368L23.9594 9.64ZM20.3594 9.64L19.6424 8.94292V8.94292L20.3594 9.64ZM20.3594 13.42L19.6329 14.1072L19.6424 14.1173L19.6523 14.1271L20.3594 13.42ZM22.7394 7.86C23.4198 7.86 23.987 8.01467 24.4701 8.30058L25.4887 6.57942C24.6651 6.09199 23.739 5.86 22.7394 5.86V7.86ZM24.4777 8.30503C24.9807 8.59681 25.3712 8.99986 25.6589 9.5341L27.4198 8.5859C26.9608 7.73348 26.3114 7.05652 25.4811 6.57497L24.4777 8.30503ZM25.6589 9.5341C25.9438 10.0631 26.0994 10.6896 26.0994 11.44H28.0994C28.0994 10.4037 27.8817 9.44356 27.4198 8.5859L25.6589 9.5341ZM26.0994 11.44C26.0994 12.1885 25.9306 12.8274 25.6121 13.3821L27.3466 14.3779C27.8548 13.4926 28.0994 12.5048 28.0994 11.44H26.0994ZM25.6052 13.3944C25.297 13.9492 24.8646 14.3841 24.2884 14.7088L25.2704 16.4512C26.1608 15.9493 26.8618 15.2508 27.3535 14.3656L25.6052 13.3944ZM24.2937 14.7058C23.7391 15.014 23.0897 15.18 22.3194 15.18V17.18C23.3891 17.18 24.3797 16.946 25.265 16.4542L24.2937 14.7058ZM22.3194 15.18C20.7691 15.18 19.6918 14.6722 18.9394 13.7343L17.3793 14.9857C18.5736 16.4745 20.2696 17.18 22.3194 17.18V15.18ZM18.9427 13.7384C18.1597 12.7516 17.6994 11.264 17.6994 9.14H15.6994C15.6994 11.5227 16.2124 13.5151 17.376 14.9816L18.9427 13.7384ZM17.6994 9.14C17.6994 7.6588 17.9132 6.4379 18.3079 5.45139L16.4509 4.70861C15.9388 5.98877 15.6994 7.47453 15.6994 9.14H17.6994ZM18.3041 5.46075C18.7095 4.47611 19.265 3.77547 19.9486 3.30219L18.8102 1.65781C17.7605 2.38453 16.9826 3.41722 16.4547 4.69925L18.3041 5.46075ZM19.9427 3.30623C20.6361 2.83345 21.474 2.58 22.4994 2.58V0.58C21.1248 0.58 19.8826 0.926546 18.816 1.65377L19.9427 3.30623ZM22.4994 2.58C23.2354 2.58 23.9456 2.70604 24.6351 2.95888L25.3236 1.08112C24.4132 0.747296 23.47 0.58 22.4994 0.58V2.58ZM24.6539 2.96554C25.3513 3.20564 25.9407 3.54799 26.435 3.98741L27.7637 2.49259C27.0581 1.86534 26.2341 1.39436 25.3049 1.07446L24.6539 2.96554ZM26.1937 2.81606L25.3137 4.69606L27.1251 5.54394L28.0051 3.66394L26.1937 2.81606ZM26.8379 4.33426C25.4736 3.26024 24.0548 2.64 22.5994 2.64V4.64C23.464 4.64 24.4585 5.00643 25.6008 5.90574L26.8379 4.33426ZM22.5994 2.64C21.2023 2.64 20.0733 3.26266 19.3178 4.43988L21.001 5.52012C21.3921 4.91068 21.8898 4.64 22.5994 4.64V2.64ZM19.3178 4.43988C18.602 5.55518 18.2876 7.04835 18.2595 8.804L20.2592 8.836C20.2845 7.25831 20.5701 6.19149 21.001 5.52012L19.3178 4.43988ZM20.1498 9.27511C20.36 8.8638 20.6795 8.53168 21.1434 8.27503L20.1753 6.52497C19.3859 6.96165 18.772 7.5762 18.3689 8.36489L20.1498 9.27511ZM21.1575 8.26711C21.6247 7.99873 22.1448 7.86 22.7394 7.86V5.86C21.8139 5.86 20.9474 6.08127 20.1613 6.53289L21.1575 8.26711ZM22.1994 15.14C23.1739 15.14 24.0422 14.8095 24.6965 14.0957L23.2222 12.7443C22.9966 12.9904 22.6916 13.14 22.1994 13.14V15.14ZM24.6864 14.1066C25.3478 13.4064 25.6394 12.51 25.6394 11.52H23.6394C23.6394 12.1033 23.4777 12.4736 23.2324 12.7334L24.6864 14.1066ZM25.6394 11.52C25.6394 10.531 25.348 9.63426 24.6767 8.94321L23.2421 10.3368C23.4775 10.5791 23.6394 10.9357 23.6394 11.52H25.6394ZM24.6965 8.96427C24.0386 8.24649 23.1611 7.92 22.1794 7.92V9.92C22.691 9.92 23.0002 10.0735 23.2222 10.3157L24.6965 8.96427ZM22.1794 7.92C21.1968 7.92 20.3199 8.24601 19.6424 8.94292L21.0764 10.3371C21.3322 10.074 21.6686 9.92 22.1794 9.92V7.92ZM19.6424 8.94292C18.966 9.63864 18.6594 10.5299 18.6594 11.52H20.6594C20.6594 10.9634 20.8194 10.6014 21.0764 10.3371L19.6424 8.94292ZM18.6594 11.52C18.6594 12.5107 18.966 13.4021 19.6329 14.1072L21.0858 12.7328C20.8195 12.4512 20.6594 12.076 20.6594 11.52H18.6594ZM19.6523 14.1271C20.3394 14.8143 21.2166 15.14 22.1994 15.14V13.14C21.6888 13.14 21.3393 12.9857 21.0665 12.7129L19.6523 14.1271Z" fill="#1958e3"/>
</svg>
