<svg width="27" height="24" viewBox="0 0 27 24" fill="none" xmlns="http://www.w3.org/2000/svg">
<path fill-rule="evenodd" clip-rule="evenodd" d="M2.25458 12.0267C2.25458 11.4834 2.74886 11.043 3.35858 11.043H23.2306C23.8403 11.043 24.3346 11.4834 24.3346 12.0267C24.3346 12.57 23.8403 13.0105 23.2306 13.0105H3.35858C2.74886 13.0105 2.25458 12.57 2.25458 12.0267Z" fill="#FDFDFD"/>
<path fill-rule="evenodd" clip-rule="evenodd" d="M2.25458 6.12438C2.25458 5.58107 2.74886 5.14062 3.35858 5.14062H23.2306C23.8403 5.14062 24.3346 5.58107 24.3346 6.12438C24.3346 6.66769 23.8403 7.10813 23.2306 7.10813H3.35858C2.74886 7.10813 2.25458 6.66769 2.25458 6.12438Z" fill="#FDFDFD"/>
<path fill-rule="evenodd" clip-rule="evenodd" d="M2.25458 17.931C2.25458 17.3877 2.74886 16.9473 3.35858 16.9473H23.2306C23.8403 16.9473 24.3346 17.3877 24.3346 17.931C24.3346 18.4743 23.8403 18.9148 23.2306 18.9148H3.35858C2.74886 18.9148 2.25458 18.4743 2.25458 17.931Z" fill="#FDFDFD"/>
</svg>
