<svg width="27" height="24" viewBox="0 0 27 24" fill="none" xmlns="http://www.w3.org/2000/svg">
<path fill-rule="evenodd" clip-rule="evenodd" d="M2.25458 12.0277C2.25458 11.4844 2.74886 11.0439 3.35858 11.0439H23.2306C23.8403 11.0439 24.3346 11.4844 24.3346 12.0277C24.3346 12.571 23.8403 13.0115 23.2306 13.0115H3.35858C2.74886 13.0115 2.25458 12.571 2.25458 12.0277Z" fill="black"/>
<path fill-rule="evenodd" clip-rule="evenodd" d="M2.25458 6.12535C2.25458 5.58204 2.74886 5.1416 3.35858 5.1416H23.2306C23.8403 5.1416 24.3346 5.58204 24.3346 6.12535C24.3346 6.66867 23.8403 7.10911 23.2306 7.10911H3.35858C2.74886 7.10911 2.25458 6.66867 2.25458 6.12535Z" fill="black"/>
<path fill-rule="evenodd" clip-rule="evenodd" d="M2.25458 17.93C2.25458 17.3867 2.74886 16.9463 3.35858 16.9463H23.2306C23.8403 16.9463 24.3346 17.3867 24.3346 17.93C24.3346 18.4734 23.8403 18.9138 23.2306 18.9138H3.35858C2.74886 18.9138 2.25458 18.4734 2.25458 17.93Z" fill="black"/>
</svg>
