<svg width="40" height="40" viewBox="0 0 40 40" fill="none" xmlns="http://www.w3.org/2000/svg">
<path d="M37.5352 3.13477H2.46477C1.10563 3.13477 0 4.24039 0 5.59945V29.3973C0 30.7564 1.10563 31.862 2.46477 31.862H14.3262L13.8464 35.7002H11.8586C11.5349 35.7002 11.2727 35.9626 11.2727 36.2862C11.2727 36.6098 11.5349 36.8721 11.8586 36.8721H28.1414C28.4651 36.8721 28.7273 36.6098 28.7273 36.2862C28.7273 35.9626 28.4651 35.7002 28.1414 35.7002H26.1537L25.6738 31.862H37.5352C38.8943 31.862 40 30.7564 40 29.3973V5.59945C40 4.24039 38.8944 3.13477 37.5352 3.13477ZM15.0274 35.7002L15.5073 31.862H17.6637L17.8753 32.7081C18.1195 33.6849 18.9933 34.367 20.0001 34.367C21.0069 34.367 21.8806 33.6849 22.1248 32.7081L22.3364 31.862H24.4929L24.9726 35.7002H15.0274ZM18.8716 31.862H21.1283L20.9878 32.4239C20.8743 32.878 20.4681 33.1952 19.9999 33.1952C19.5317 33.1952 19.1256 32.878 19.012 32.4239L18.8716 31.862ZM38.8281 29.3973C38.8281 30.1102 38.2481 30.6902 37.5352 30.6902H2.46477C1.75187 30.6902 1.17188 30.1102 1.17188 29.3973V5.59945C1.17188 4.88656 1.75187 4.30664 2.46477 4.30664H37.5352C38.2481 4.30664 38.8281 4.88656 38.8281 5.59945V29.3973Z" fill="#00103C"/>
<path d="M33.1464 5.64453H3.08594C2.76227 5.64453 2.5 5.9068 2.5 6.23047V28.7758C2.5 29.0995 2.76227 29.3617 3.08594 29.3617H4.33852C4.66219 29.3617 4.92445 29.0995 4.92445 28.7758C4.92453 28.4522 4.66219 28.1898 4.33859 28.1898H3.67195V6.81641H33.1464C33.4701 6.81641 33.7323 6.55406 33.7323 6.23047C33.7323 5.9068 33.4701 5.64453 33.1464 5.64453Z" fill="#00103C"/>
<path d="M36.8964 5.64453H35.6438C35.3202 5.64453 35.0579 5.9068 35.0579 6.23047C35.0579 6.55406 35.3202 6.81641 35.6438 6.81641H36.3105V28.1898H6.83594C6.51227 28.1898 6.25 28.4522 6.25 28.7758C6.25 29.0995 6.51227 29.3617 6.83594 29.3617H36.8963C37.22 29.3617 37.4823 29.0995 37.4823 28.7758V6.23047C37.4824 5.9068 37.22 5.64453 36.8964 5.64453Z" fill="#00103C"/>
<path d="M27.9941 12.1245C27.8888 11.9898 27.73 11.908 27.5593 11.9002L13.7816 11.2739C13.7709 11.2734 13.7603 11.2732 13.7495 11.2734C13.6679 11.0056 13.4956 10.7734 13.2623 10.6178L11.575 9.49297C11.3058 9.31352 10.942 9.38625 10.7625 9.65555C10.5831 9.92484 10.6558 10.2886 10.925 10.468L12.6122 11.5927C12.6202 11.598 12.626 11.6061 12.6287 11.6153L14.7778 19.1373C14.8449 19.3718 14.9552 19.5826 15.0968 19.7646L14.3105 21.3373C14.1212 21.7158 14.141 22.1566 14.3635 22.5166C14.4442 22.6472 14.5466 22.7584 14.6642 22.8474C14.5102 23.1161 14.4217 23.4269 14.4217 23.7581C14.4217 24.7719 15.2465 25.5966 16.2602 25.5966C17.2738 25.5966 18.0986 24.7718 18.0986 23.7581C18.0986 23.523 18.0538 23.2984 17.973 23.0916H23.3149C23.2342 23.2984 23.1893 23.523 23.1893 23.7581C23.1893 24.7719 24.0141 25.5966 25.0278 25.5966C26.0414 25.5966 26.8662 24.7718 26.8662 23.7581C26.8662 23.4641 26.7964 23.1862 26.6732 22.9395C26.7914 22.8323 26.8662 22.6779 26.8662 22.5056C26.8662 22.182 26.6039 21.9197 26.2803 21.9197H15.3945C15.3861 21.9197 15.372 21.9197 15.3602 21.9005C15.3484 21.8815 15.3547 21.8689 15.3584 21.8613L16.0828 20.4127C16.2302 20.4505 16.3838 20.471 16.541 20.471C16.6135 20.471 16.6866 20.4667 16.7602 20.4581L24.9935 19.4895C26.0568 19.3644 26.9124 18.575 27.1224 17.525L28.1072 12.6005C28.1407 12.4329 28.0994 12.2591 27.9941 12.1245ZM25.0276 23.0917C25.3952 23.0917 25.6942 23.3908 25.6942 23.7583C25.6942 24.1259 25.3952 24.4248 25.0276 24.4248C24.66 24.4248 24.361 24.1259 24.361 23.7583C24.361 23.3907 24.66 23.0917 25.0276 23.0917ZM16.26 23.0917C16.6276 23.0917 16.9266 23.3907 16.9266 23.7583C16.9266 24.1259 16.6276 24.4248 16.26 24.4248C15.8924 24.4248 15.5934 24.1259 15.5934 23.7583C15.5934 23.3907 15.8924 23.0917 16.26 23.0917ZM14.8231 15.0309L14.0888 12.461L16.4314 12.5675L16.8376 15.0309H14.8231ZM16.6233 19.2943C16.2966 19.3327 15.9946 19.1312 15.9045 18.8154L15.158 16.2028H17.0308L17.5231 19.1884L16.6233 19.2943ZM20.0579 18.8902L18.6882 19.0514L18.2186 16.2029H20.0579V18.8902ZM20.0579 15.0309H18.0253L17.6281 12.622L20.0579 12.7324V15.0309ZM23.0253 18.5411L21.2298 18.7523V16.2028H23.2369L23.0253 18.5411ZM23.343 15.0309H21.2298V12.7856L23.5367 12.8905L23.343 15.0309ZM25.9732 17.2953C25.863 17.8459 25.4142 18.2601 24.8565 18.3257L24.2146 18.4012L24.4135 16.2029H26.1916L25.9732 17.2953ZM26.426 15.0309H24.5197L24.7086 12.9437L26.8242 13.0399L26.426 15.0309Z" fill="#00103C"/>
</svg>
