<svg width="40" height="40" viewBox="0 0 40 40" fill="none" xmlns="http://www.w3.org/2000/svg">
<path d="M10.3906 6.48438C9.95937 6.48438 9.60938 6.83437 9.60938 7.26562C9.60938 7.69687 9.95937 8.04688 10.3906 8.04688C10.8219 8.04688 11.1719 7.69687 11.1719 7.26562C11.1719 6.83437 10.8219 6.48438 10.3906 6.48438Z" fill="#00103C"/>
<path d="M20 0C9.22031 0 0 9.2032 0 20C0 30.7821 9.2043 40 20 40C30.7797 40 40 30.7968 40 20C40 9.21789 30.7957 0 20 0ZM20 38.4375C10.0059 38.4375 1.5625 29.9941 1.5625 20C1.5625 10.0059 10.0059 1.5625 20 1.5625C29.9941 1.5625 38.4375 10.0059 38.4375 20C38.4375 29.9941 29.9941 38.4375 20 38.4375Z" fill="#00103C"/>
<path d="M20 3.35938C17.4949 3.35938 14.8449 3.9375 12.7295 4.94555C12.3401 5.13117 12.1747 5.59742 12.3603 5.98688C12.5459 6.37633 13.012 6.54188 13.4016 6.35609C15.3144 5.44461 17.7195 4.92188 20 4.92188C28.1732 4.92188 35.0781 11.8268 35.0781 20C35.0781 28.1732 28.1732 35.0781 20 35.0781C11.8268 35.0781 4.92188 28.1732 4.92188 20C4.92188 16.2667 6.29148 12.5871 8.67961 9.90461C8.96656 9.58234 8.93789 9.08852 8.61562 8.80164C8.29328 8.51461 7.79961 8.54359 7.51266 8.86563C4.87313 11.8305 3.35938 15.8888 3.35938 20C3.35938 29.0413 10.9455 36.6406 20 36.6406C29.0413 36.6406 36.6406 29.0545 36.6406 20C36.6406 10.9588 29.0545 3.35938 20 3.35938Z" fill="#00103C"/>
<path d="M29.375 16.0938H23.9062V10.625C23.9062 10.1936 23.5564 9.84375 23.125 9.84375H16.875C16.4436 9.84375 16.0938 10.1936 16.0938 10.625V16.0938H10.625C10.1936 16.0938 9.84375 16.4436 9.84375 16.875V23.125C9.84375 23.5564 10.1936 23.9062 10.625 23.9062H16.0938V29.375C16.0938 29.8064 16.4436 30.1562 16.875 30.1562H23.125C23.5564 30.1562 23.9062 29.8064 23.9062 29.375V23.9062H29.375C29.8064 23.9062 30.1562 23.5564 30.1562 23.125V16.875C30.1562 16.4436 29.8064 16.0938 29.375 16.0938ZM28.5938 22.3438H23.125C22.6936 22.3438 22.3438 22.6936 22.3438 23.125V28.5938H17.6562V23.125C17.6562 22.6936 17.3064 22.3438 16.875 22.3438H11.4062V17.6562H16.875C17.3064 17.6562 17.6562 17.3064 17.6562 16.875V11.4062H22.3438V16.875C22.3438 17.3064 22.6936 17.6562 23.125 17.6562H28.5938V22.3438Z" fill="#00103C"/>
</svg>
