<svg width="40" height="40" viewBox="0 0 40 40" fill="none" xmlns="http://www.w3.org/2000/svg">
<g clip-path="url(#clip0)">
<path d="M38 20H37.3334V4H38C39.1045 4 40 3.10453 40 2C40 0.895469 39.1046 0 38 0H2C0.895391 0 0 0.895391 0 2C0 3.10461 0.895391 4 2 4H2.66664V20H2C0.895391 20 0 20.8955 0 22C0 23.1045 0.895391 24 2 24H38C39.1045 24 40 23.1045 40 22C40 20.8955 39.1046 20 38 20ZM2 2.66664C1.63203 2.66617 1.33383 2.36797 1.33336 2C1.33383 1.63203 1.63203 1.33383 2 1.33336H38C38.3682 1.33336 38.6666 1.6318 38.6666 2C38.6666 2.3682 38.3682 2.66664 38 2.66664H2ZM36 4V20H4V4H36ZM38 22.6666H2C1.6318 22.6666 1.33336 22.3682 1.33336 22C1.33336 21.6318 1.6318 21.3334 2 21.3334H38C38.368 21.3338 38.6662 21.632 38.6666 22C38.6662 22.368 38.368 22.6662 38 22.6666Z" fill="#00103C"/>
<path d="M11.331 15.2879C11.6992 15.2879 11.9976 14.9893 11.9976 14.6212V11.3575L13.9976 12.2073V16.1856L13.9991 16.1929C13.9999 16.2775 14.0168 16.3613 14.0489 16.4396C14.0948 16.5114 14.1418 16.5825 14.1901 16.6528C14.2516 16.7157 14.325 16.7657 14.406 16.8001L17.721 18.2077C19.1781 18.8211 20.8212 18.8205 22.2779 18.2061L25.5893 16.8C25.6703 16.7657 25.7437 16.7156 25.8052 16.6527C25.8535 16.5825 25.9005 16.5114 25.9463 16.4395C25.9785 16.3611 25.9954 16.2774 25.9962 16.1928L25.9976 16.1855V12.2072L28.6379 11.0852C29.0606 10.8888 29.331 10.465 29.331 9.99895C29.331 9.53285 29.0606 9.1091 28.6379 8.9127L20.4113 5.41699C20.147 5.30371 19.8478 5.30371 19.5835 5.41699L11.3573 8.9127C10.9292 9.10285 10.6563 9.53059 10.6642 9.99895V14.6211C10.6643 14.9893 10.9627 15.2879 11.331 15.2879ZM24.6642 15.7445L21.7606 16.9773C20.6345 17.4518 19.3646 17.4524 18.2381 16.9789L15.3308 15.7445V12.7739L19.5838 14.5811C19.8481 14.6944 20.1473 14.6944 20.4116 14.5811L24.6642 12.7739V15.7445H24.6642ZM19.9976 6.6898L27.7847 9.9991L25.0745 11.1508L25.0687 11.1533L19.9976 13.3083L14.9265 11.1533L14.9206 11.1508L12.2105 9.9991L19.9976 6.6898Z" fill="#00103C"/>
<path d="M38.6666 36.0004H37.3333V35.1433C37.3162 33.4554 36.3476 31.9218 34.8309 31.1811C35.8927 30.2746 36.2772 28.8024 35.7941 27.4925C35.311 26.1826 34.0627 25.3125 32.6666 25.3125C31.2704 25.3125 30.0221 26.1826 29.5391 27.4925C29.056 28.8024 29.4404 30.2746 30.5023 31.1811C28.9855 31.9219 28.017 33.4554 27.9998 35.1433V36.0004H24.6665V35.1433C24.6494 33.4554 23.6808 31.9218 22.1641 31.1811C23.2259 30.2746 23.6104 28.8024 23.1273 27.4925C22.6442 26.1826 21.3959 25.3125 19.9998 25.3125C18.6036 25.3125 17.3553 26.1826 16.8723 27.4925C16.3892 28.8024 16.7736 30.2746 17.8355 31.1811C16.3188 31.9219 15.3502 33.4554 15.333 35.1433V36.0004H12V35.1433C11.9829 33.4554 11.0143 31.9218 9.49758 31.1811C10.5595 30.2746 10.9439 28.8024 10.4608 27.4925C9.97773 26.1826 8.72945 25.3125 7.33328 25.3125C5.93711 25.3125 4.68883 26.1826 4.20578 27.4925C3.72273 28.8024 4.10711 30.2746 5.16898 31.1811C3.65227 31.9219 2.68367 33.4554 2.66656 35.1433V36.0004H1.33336C0.597266 36.0011 0.000703125 36.5977 0 37.3337V38.6671C0.000703125 39.4032 0.597266 39.9997 1.33336 40.0005H38.6667C39.4028 39.9998 39.9993 39.4032 40.0001 38.6671V37.3337C39.9993 36.5977 39.4027 36.0011 38.6666 36.0004ZM32.6666 26.667C33.7712 26.667 34.6666 27.5624 34.6666 28.667C34.6666 29.7716 33.7712 30.667 32.6666 30.667C31.5626 30.6659 30.6678 29.7711 30.6666 28.667C30.6666 27.5625 31.5621 26.667 32.6666 26.667ZM29.3334 35.1433C29.4372 33.3784 30.8988 32.0003 32.6667 32.0003C34.4347 32.0003 35.8962 33.3784 36.0001 35.1433V36.0004H29.3334V35.1433H29.3334ZM20 26.667C21.1045 26.667 22 27.5624 22 28.667C22 29.7716 21.1045 30.667 20 30.667C18.8959 30.6659 18.0012 29.7711 18 28.667C18 27.5625 18.8955 26.667 20 26.667ZM16.6666 35.1433C16.7705 33.3784 18.232 32.0003 20 32.0003C21.768 32.0003 23.2295 33.3784 23.3334 35.1433V36.0004H16.6667V35.1433H16.6666ZM7.33336 26.667C8.43789 26.667 9.33336 27.5624 9.33336 28.667C9.33336 29.7716 8.43797 30.667 7.33336 30.667C6.2293 30.6659 5.33453 29.7711 5.33336 28.667C5.33336 27.5625 6.22875 26.667 7.33336 26.667ZM4 35.1433C4.05609 33.3565 5.54633 31.9514 7.33336 32.0004C9.12031 31.9514 10.6105 33.3565 10.6667 35.1433V36.0004H4V35.1433ZM1.33336 38.667V37.3337H38.6667L38.6677 38.667H1.33336Z" fill="#00103C"/>
</g>
<defs>
<clipPath id="clip0">
<rect width="40" height="40" fill="white"/>
</clipPath>
</defs>
</svg>
