<svg width="40" height="40" viewBox="0 0 40 40" fill="none" xmlns="http://www.w3.org/2000/svg">
<g clip-path="url(#clip0)">
<path d="M20.9824 19.0079C20.6769 18.7024 20.1824 18.7024 19.877 19.0079C19.5723 19.3126 19.5723 19.8071 19.877 20.1126C20.1824 20.4173 20.6769 20.4173 20.9824 20.1126C21.2871 19.8071 21.2871 19.3126 20.9824 19.0079Z" fill="#00103C"/>
<path d="M30.9242 9.07018C29.3976 7.5437 26.9264 7.54362 25.3997 9.07018C23.8772 10.5928 23.8771 13.0709 25.4 14.5947C26.9231 16.1169 29.4012 16.1175 30.9242 14.5945C32.4506 13.0681 32.4509 10.5968 30.9242 9.07018ZM29.8193 13.4896C28.9058 14.4032 27.4188 14.4032 26.5048 13.4898C25.5911 12.5756 25.5911 11.0885 26.5047 10.175C27.4205 9.25917 28.9033 9.25901 29.8193 10.175C30.7352 11.0908 30.7354 12.5737 29.8193 13.4896Z" fill="#00103C"/>
<path d="M39.7696 0.228835C39.6162 0.0754763 39.4068 -0.00764858 39.1892 0.00055453C39.0125 0.00688264 34.8067 0.175945 29.8071 1.94305C25.8008 3.35758 22.4615 5.38281 19.8819 7.96249C19.3039 8.54054 18.7414 9.15351 18.2032 9.7903C15.6526 8.2889 13.6087 8.75968 12.3166 9.45116C9.34148 11.0433 7.5 15.3665 7.5 18.4586C7.50023 18.7746 7.69062 19.0595 7.9825 19.1804C8.07914 19.2204 8.1807 19.2399 8.28133 19.2399C8.48469 19.2399 8.68445 19.1604 8.8339 19.0111C10.4029 17.4421 12.3381 17.5402 12.9703 17.6233L13.2439 17.8969C12.7055 19.1782 12.2717 20.4522 11.9536 21.6914C11.8387 22.1398 11.8775 22.6143 12.0482 23.0484C11.296 23.395 10.5703 23.904 9.93843 24.5359C7.92742 26.547 7.51906 31.4481 7.50266 31.6557C7.48469 31.8836 7.56734 32.108 7.72898 32.2696C7.87609 32.4167 8.07508 32.4985 8.28133 32.4985C8.3018 32.4985 8.32234 32.4977 8.34289 32.496C8.55054 32.4797 13.4518 32.0714 15.4628 30.0603C16.0944 29.4287 16.6033 28.7031 16.95 27.951C17.4095 28.1318 17.8825 28.154 18.3078 28.045C19.5464 27.727 20.8203 27.2934 22.1017 26.7549L22.3753 27.0285C22.4583 27.6607 22.5565 29.596 20.9876 31.1648C20.7642 31.3882 20.6973 31.7242 20.8183 32.0161C20.9391 32.3081 21.224 32.4984 21.54 32.4984C24.6322 32.4984 28.9552 30.6569 30.5474 27.6818C31.2389 26.3899 31.7096 24.346 30.2082 21.7953C30.8447 21.2573 31.4578 20.6948 32.036 20.1165C34.6157 17.5368 36.6409 14.1976 38.0554 10.1916C39.8226 5.19179 39.9916 0.985865 39.9979 0.809303C40.0057 0.592507 39.923 0.382273 39.7696 0.228835ZM9.24672 16.7783C9.73203 14.4296 11.1416 11.8523 13.0541 10.8287C14.3322 10.1448 15.7291 10.2119 17.2144 11.0249C15.949 12.6891 14.849 14.4821 13.932 16.3754C13.9204 16.3683 13.7798 16.1915 13.5185 16.1326C13.4111 16.1083 11.344 15.6636 9.24672 16.7783ZM14.358 28.9554C13.2837 30.0296 10.7638 30.5962 9.17109 30.8275C9.4025 29.2347 9.96914 26.7149 11.0433 25.6407C11.6448 25.0392 12.3423 24.5831 13.0434 24.3262L15.6725 26.9553C15.4156 27.6564 14.9596 28.3539 14.358 28.9554ZM17.9197 26.5314C17.6936 26.5893 17.4317 26.5043 17.237 26.31C16.2263 25.2993 15.8309 24.9039 15.7069 24.7799C15.4794 24.5524 14.9215 23.9945 13.6892 22.7621C13.4944 22.5669 13.4094 22.3051 13.4671 22.0794C13.7173 21.1049 14.0446 20.105 14.4426 19.0956L20.9031 25.5561C19.8935 25.9542 18.8938 26.2814 17.9197 26.5314ZM29.17 26.9446C28.1464 28.857 25.5692 30.2667 23.2206 30.7519C23.9694 29.3428 24.1345 27.5489 23.8609 26.4612C23.7974 26.2086 23.6325 26.0815 23.6233 26.0666C25.5165 25.1496 27.3094 24.0496 28.9738 22.7842C29.7868 24.2696 29.8538 25.6668 29.17 26.9446ZM30.9314 19.0117C30.2274 19.7156 29.4693 20.3957 28.6782 21.0329C26.7765 22.5642 24.6834 23.8612 22.4503 24.8937L15.105 17.5486C16.1375 15.3153 17.4345 13.2222 18.9656 11.3207C19.6034 10.529 20.2834 9.77093 20.9871 9.06733C23.3015 6.75281 26.2886 4.91078 29.8676 3.58484L36.4139 10.1311C35.0881 13.7101 33.246 16.6971 30.9314 19.0117ZM36.976 8.48335L31.5153 3.02274C34.4904 2.09868 37.0786 1.75266 38.3705 1.62829C38.246 2.92039 37.8999 5.50859 36.976 8.48335Z" fill="#00103C"/>
<path d="M18.7774 32.2673C18.4721 31.9622 17.9774 31.9624 17.6724 32.2675L15.4631 34.4776C15.1581 34.7828 15.1582 35.2775 15.4632 35.5825C15.7685 35.8874 16.2632 35.8874 16.5682 35.5823L18.7775 33.3721C19.0825 33.067 19.0824 32.5723 18.7774 32.2673Z" fill="#00103C"/>
<path d="M7.72361 21.2221C7.41861 20.9169 6.924 20.9169 6.61877 21.2219L4.40861 23.4313C4.10346 23.7363 4.10338 24.2309 4.40838 24.5361C4.7133 24.8411 5.20791 24.8414 5.51322 24.5363L7.72338 22.3269C8.02854 22.0219 8.02861 21.5272 7.72361 21.2221Z" fill="#00103C"/>
<path d="M13.2275 33.3753C12.9225 33.0702 12.4278 33.0702 12.1226 33.3752L6.83044 38.6666C6.52528 38.9717 6.52528 39.4664 6.83036 39.7714C7.13528 40.0765 7.63005 40.0767 7.9352 39.7715L13.2274 34.4801C13.5325 34.1751 13.5325 33.6804 13.2275 33.3753Z" fill="#00103C"/>
<path d="M7.01652 33.3753C6.71152 33.0702 6.21676 33.0702 5.91168 33.3752L0.619502 38.6666C0.314346 38.9717 0.314346 39.4664 0.619423 39.7714C0.924345 40.0765 1.41911 40.0767 1.72426 39.7715L7.01644 34.4801C7.3216 34.1751 7.3216 33.6804 7.01652 33.3753Z" fill="#00103C"/>
<path d="M6.62504 26.7497C6.32004 26.4447 5.82527 26.4447 5.5202 26.7498L0.228798 32.042C-0.0762791 32.3471 -0.0762791 32.8417 0.228877 33.1469C0.533954 33.452 1.02864 33.452 1.33372 33.1468L6.62511 27.8547C6.93019 27.5495 6.93019 27.0549 6.62504 26.7497Z" fill="#00103C"/>
<path d="M24.3134 15.6946C24.0083 15.3896 23.5137 15.3896 23.2085 15.6946L22.1038 16.7993C21.7987 17.1044 21.7987 17.5991 22.1038 17.9042C22.409 18.2093 22.9036 18.2093 23.2087 17.9042L24.3134 16.7995C24.6185 16.4945 24.6185 15.9998 24.3134 15.6946Z" fill="#00103C"/>
</g>
<defs>
<clipPath id="clip0">
<rect width="40" height="40" fill="white"/>
</clipPath>
</defs>
</svg>
