<svg width="40" height="40" viewBox="0 0 40 40" fill="none" xmlns="http://www.w3.org/2000/svg">
<path d="M7.5 9.375H8.125C8.29076 9.375 8.44973 9.30915 8.56694 9.19194C8.68415 9.07473 8.75 8.91576 8.75 8.75V6.875C8.75 6.70924 8.68415 6.55027 8.56694 6.43306C8.44973 6.31585 8.29076 6.25 8.125 6.25H6.25V5.625H8.125C8.29076 5.625 8.44973 5.55915 8.56694 5.44194C8.68415 5.32473 8.75 5.16576 8.75 5C8.75 4.83424 8.68415 4.67527 8.56694 4.55806C8.44973 4.44085 8.29076 4.375 8.125 4.375H7.5C7.5 4.20924 7.43415 4.05027 7.31694 3.93306C7.19973 3.81585 7.04076 3.75 6.875 3.75C6.70924 3.75 6.55027 3.81585 6.43306 3.93306C6.31585 4.05027 6.25 4.20924 6.25 4.375H5.625C5.45924 4.375 5.30027 4.44085 5.18306 4.55806C5.06585 4.67527 5 4.83424 5 5V6.875C5 7.04076 5.06585 7.19973 5.18306 7.31694C5.30027 7.43415 5.45924 7.5 5.625 7.5H7.5V8.125H5.625C5.45924 8.125 5.30027 8.19085 5.18306 8.30806C5.06585 8.42527 5 8.58424 5 8.75C5 8.91576 5.06585 9.07473 5.18306 9.19194C5.30027 9.30915 5.45924 9.375 5.625 9.375H6.25C6.25 9.54076 6.31585 9.69973 6.43306 9.81694C6.55027 9.93415 6.70924 10 6.875 10C7.04076 10 7.19973 9.93415 7.31694 9.81694C7.43415 9.69973 7.5 9.54076 7.5 9.375Z" fill="#FDFDFD"/>
<path d="M8.125 31.875C8.29076 31.875 8.44973 31.8092 8.56694 31.6919C8.68415 31.5747 8.75 31.4158 8.75 31.25C8.75 31.0842 8.68415 30.9253 8.56694 30.8081C8.44973 30.6908 8.29076 30.625 8.125 30.625H7.5C7.5 30.4592 7.43415 30.3003 7.31694 30.1831C7.19973 30.0658 7.04076 30 6.875 30C6.70924 30 6.55027 30.0658 6.43306 30.1831C6.31585 30.3003 6.25 30.4592 6.25 30.625H5.625C5.45924 30.625 5.30027 30.6908 5.18306 30.8081C5.06585 30.9253 5 31.0842 5 31.25V33.125C5 33.2908 5.06585 33.4497 5.18306 33.5669C5.30027 33.6842 5.45924 33.75 5.625 33.75H7.5V34.375H5.625C5.45924 34.375 5.30027 34.4408 5.18306 34.5581C5.06585 34.6753 5 34.8342 5 35C5 35.1658 5.06585 35.3247 5.18306 35.4419C5.30027 35.5592 5.45924 35.625 5.625 35.625H6.25C6.25 35.7908 6.31585 35.9497 6.43306 36.0669C6.55027 36.1842 6.70924 36.25 6.875 36.25C7.04076 36.25 7.19973 36.1842 7.31694 36.0669C7.43415 35.9497 7.5 35.7908 7.5 35.625H8.125C8.29076 35.625 8.44973 35.5592 8.56694 35.4419C8.68415 35.3247 8.75 35.1658 8.75 35V33.125C8.75 32.9592 8.68415 32.8003 8.56694 32.6831C8.44973 32.5658 8.29076 32.5 8.125 32.5H6.25V31.875H8.125Z" fill="#FDFDFD"/>
<path d="M31.875 8.125C31.7092 8.125 31.5503 8.19085 31.4331 8.30806C31.3158 8.42527 31.25 8.58424 31.25 8.75C31.25 8.91576 31.3158 9.07473 31.4331 9.19194C31.5503 9.30915 31.7092 9.375 31.875 9.375H32.5C32.5 9.54076 32.5658 9.69973 32.6831 9.81694C32.8003 9.93415 32.9592 10 33.125 10C33.2908 10 33.4497 9.93415 33.5669 9.81694C33.6842 9.69973 33.75 9.54076 33.75 9.375H34.375C34.5408 9.375 34.6997 9.30915 34.8169 9.19194C34.9342 9.07473 35 8.91576 35 8.75V6.875C35 6.70924 34.9342 6.55027 34.8169 6.43306C34.6997 6.31585 34.5408 6.25 34.375 6.25H32.5V5.625H34.375C34.5408 5.625 34.6997 5.55915 34.8169 5.44194C34.9342 5.32473 35 5.16576 35 5C35 4.83424 34.9342 4.67527 34.8169 4.55806C34.6997 4.44085 34.5408 4.375 34.375 4.375H33.75C33.75 4.20924 33.6842 4.05027 33.5669 3.93306C33.4497 3.81585 33.2908 3.75 33.125 3.75C32.9592 3.75 32.8003 3.81585 32.6831 3.93306C32.5658 4.05027 32.5 4.20924 32.5 4.375H31.875C31.7092 4.375 31.5503 4.44085 31.4331 4.55806C31.3158 4.67527 31.25 4.83424 31.25 5V6.875C31.25 7.04076 31.3158 7.19973 31.4331 7.31694C31.5503 7.43415 31.7092 7.5 31.875 7.5H33.75V8.125H31.875Z" fill="#FDFDFD"/>
<path d="M34.375 31.875C34.5408 31.875 34.6997 31.8092 34.8169 31.6919C34.9342 31.5747 35 31.4158 35 31.25C35 31.0842 34.9342 30.9253 34.8169 30.8081C34.6997 30.6908 34.5408 30.625 34.375 30.625H33.75C33.75 30.4592 33.6842 30.3003 33.5669 30.1831C33.4497 30.0658 33.2908 30 33.125 30C32.9592 30 32.8003 30.0658 32.6831 30.1831C32.5658 30.3003 32.5 30.4592 32.5 30.625H31.875C31.7092 30.625 31.5503 30.6908 31.4331 30.8081C31.3158 30.9253 31.25 31.0842 31.25 31.25V33.125C31.25 33.2908 31.3158 33.4497 31.4331 33.5669C31.5503 33.6842 31.7092 33.75 31.875 33.75H33.75V34.375H31.875C31.7092 34.375 31.5503 34.4408 31.4331 34.5581C31.3158 34.6753 31.25 34.8342 31.25 35C31.25 35.1658 31.3158 35.3247 31.4331 35.4419C31.5503 35.5592 31.7092 35.625 31.875 35.625H32.5C32.5 35.7908 32.5658 35.9497 32.6831 36.0669C32.8003 36.1842 32.9592 36.25 33.125 36.25C33.2908 36.25 33.4497 36.1842 33.5669 36.0669C33.6842 35.9497 33.75 35.7908 33.75 35.625H34.375C34.5408 35.625 34.6997 35.5592 34.8169 35.4419C34.9342 35.3247 35 35.1658 35 35V33.125C35 32.9592 34.9342 32.8003 34.8169 32.6831C34.6997 32.5658 34.5408 32.5 34.375 32.5H32.5V31.875H34.375Z" fill="#FDFDFD"/>
<path d="M35.2422 27.2445C36.3173 24.9808 36.875 22.5061 36.875 20C36.875 17.4939 36.3173 15.0193 35.2422 12.7555C36.2327 12.3989 37.1171 11.7978 37.8133 11.0082C38.5094 10.2185 38.9949 9.26575 39.2245 8.23836C39.4542 7.21098 39.4206 6.14223 39.1269 5.13129C38.8332 4.12035 38.2888 3.19998 37.5444 2.45558C36.8 1.71118 35.8797 1.16688 34.8687 0.873169C33.8578 0.579462 32.7891 0.545871 31.7617 0.775513C30.7343 1.00516 29.7815 1.49059 28.9919 2.18677C28.2022 2.88296 27.6012 3.76733 27.2445 4.75783C24.9808 3.68277 22.5061 3.12501 20 3.12501C17.4939 3.12501 15.0193 3.68277 12.7555 4.75783C12.3989 3.76733 11.7978 2.88296 11.0082 2.18677C10.2185 1.49059 9.26575 1.00516 8.23836 0.775513C7.21098 0.545871 6.14223 0.579462 5.13129 0.873169C4.12035 1.16688 3.19998 1.71118 2.45558 2.45558C1.71118 3.19998 1.16688 4.12035 0.873169 5.13129C0.579462 6.14223 0.545871 7.21098 0.775513 8.23836C1.00516 9.26575 1.49059 10.2185 2.18677 11.0082C2.88296 11.7978 3.76733 12.3989 4.75783 12.7555C3.68277 15.0193 3.12501 17.4939 3.12501 20C3.12501 22.5061 3.68277 24.9808 4.75783 27.2445C3.76733 27.6012 2.88296 28.2022 2.18677 28.9919C1.49059 29.7815 1.00516 30.7343 0.775513 31.7617C0.545871 32.7891 0.579462 33.8578 0.873169 34.8687C1.16688 35.8797 1.71118 36.8 2.45558 37.5444C3.19998 38.2888 4.12035 38.8332 5.13129 39.1269C6.14223 39.4206 7.21098 39.4542 8.23836 39.2245C9.26575 38.9949 10.2185 38.5094 11.0082 37.8133C11.7978 37.1171 12.3989 36.2327 12.7555 35.2422C15.0193 36.3173 17.4939 36.875 20 36.875C22.5061 36.875 24.9808 36.3173 27.2445 35.2422C27.6012 36.2327 28.2022 37.1171 28.9919 37.8133C29.7815 38.5094 30.7343 38.9949 31.7617 39.2245C32.7891 39.4542 33.8578 39.4206 34.8687 39.1269C35.8797 38.8332 36.8 38.2888 37.5444 37.5444C38.2888 36.8 38.8332 35.8797 39.1269 34.8687C39.4206 33.8578 39.4542 32.7891 39.2245 31.7617C38.9949 30.7343 38.5094 29.7815 37.8133 28.9919C37.1171 28.2022 36.2327 27.6012 35.2422 27.2445ZM33.125 1.87501C34.1139 1.87501 35.0806 2.16826 35.9029 2.71767C36.7251 3.26707 37.366 4.04797 37.7444 4.9616C38.1229 5.87523 38.2219 6.88056 38.0289 7.85047C37.836 8.82037 37.3598 9.71129 36.6605 10.4105C35.9613 11.1098 35.0704 11.586 34.1005 11.7789C33.1306 11.9719 32.1252 11.8729 31.2116 11.4944C30.298 11.116 29.5171 10.4751 28.9677 9.65287C28.4183 8.83062 28.125 7.86392 28.125 6.87501C28.1265 5.54939 28.6538 4.27848 29.5911 3.34112C30.5285 2.40377 31.7994 1.8765 33.125 1.87501ZM1.87501 6.87501C1.87501 5.88611 2.16826 4.91941 2.71767 4.09716C3.26707 3.27492 4.04797 2.63405 4.9616 2.25562C5.87523 1.87718 6.88056 1.77816 7.85047 1.97109C8.82037 2.16401 9.71129 2.64022 10.4105 3.33948C11.1098 4.03874 11.586 4.92966 11.7789 5.89956C11.9719 6.86947 11.8729 7.8748 11.4944 8.78843C11.116 9.70206 10.4751 10.483 9.65287 11.0324C8.83062 11.5818 7.86392 11.875 6.87501 11.875C5.54939 11.8735 4.27848 11.3463 3.34112 10.4089C2.40377 9.47155 1.8765 8.20064 1.87501 6.87501ZM6.87501 38.125C5.88611 38.125 4.91941 37.8318 4.09716 37.2824C3.27492 36.733 2.63405 35.9521 2.25562 35.0384C1.87718 34.1248 1.77816 33.1195 1.97109 32.1496C2.16401 31.1797 2.64022 30.2887 3.33948 29.5895C4.03874 28.8902 4.92966 28.414 5.89956 28.2211C6.86947 28.0282 7.8748 28.1272 8.78843 28.5056C9.70206 28.8841 10.483 29.5249 11.0324 30.3472C11.5818 31.1694 11.875 32.1361 11.875 33.125C11.8735 34.4506 11.3463 35.7215 10.4089 36.6589C9.47155 37.5963 8.20064 38.1235 6.87501 38.125ZM26.9383 34.0031C24.781 35.07 22.4067 35.625 20 35.625C17.5933 35.625 15.219 35.07 13.0617 34.0031C13.1995 33.0433 13.1117 32.0646 12.8053 31.1447C12.499 30.2247 11.9825 29.3888 11.2969 28.7031C10.6113 28.0175 9.77533 27.501 8.85536 27.1947C7.93538 26.8884 6.95669 26.8006 5.99689 26.9383C4.93002 24.781 4.37502 22.4067 4.37502 20C4.37502 17.5933 4.93002 15.219 5.99689 13.0617C6.95669 13.1995 7.93538 13.1117 8.85536 12.8053C9.77533 12.499 10.6113 11.9825 11.2969 11.2969C11.9825 10.6113 12.499 9.77533 12.8053 8.85536C13.1117 7.93538 13.1995 6.95669 13.0617 5.99689C15.219 4.93002 17.5933 4.37502 20 4.37502C22.4067 4.37502 24.781 4.93002 26.9383 5.99689C26.8006 6.95669 26.8884 7.93538 27.1947 8.85536C27.501 9.77533 28.0175 10.6113 28.7031 11.2969C29.3888 11.9825 30.2247 12.499 31.1447 12.8053C32.0646 13.1117 33.0433 13.1995 34.0031 13.0617C35.07 15.219 35.625 17.5933 35.625 20C35.625 22.4067 35.07 24.781 34.0031 26.9383C33.0433 26.8006 32.0646 26.8884 31.1447 27.1947C30.2247 27.501 29.3888 28.0175 28.7031 28.7031C28.0175 29.3888 27.501 30.2247 27.1947 31.1447C26.8884 32.0646 26.8006 33.0433 26.9383 34.0031ZM33.125 38.125C32.1361 38.125 31.1694 37.8318 30.3472 37.2824C29.5249 36.733 28.8841 35.9521 28.5056 35.0384C28.1272 34.1248 28.0282 33.1195 28.2211 32.1496C28.414 31.1797 28.8902 30.2887 29.5895 29.5895C30.2887 28.8902 31.1797 28.414 32.1496 28.2211C33.1195 28.0282 34.1248 28.1272 35.0384 28.5056C35.9521 28.8841 36.733 29.5249 37.2824 30.3472C37.8318 31.1694 38.125 32.1361 38.125 33.125C38.1235 34.4506 37.5963 35.7215 36.6589 36.6589C35.7215 37.5963 34.4506 38.1235 33.125 38.125Z" fill="#FDFDFD"/>
<path d="M20 18.125C19.6292 18.125 19.2667 18.235 18.9583 18.441C18.65 18.647 18.4096 18.9399 18.2677 19.2825C18.1258 19.6251 18.0887 20.0021 18.161 20.3658C18.2334 20.7295 18.412 21.0636 18.6742 21.3258C18.9364 21.5881 19.2705 21.7666 19.6342 21.839C19.9979 21.9113 20.3749 21.8742 20.7175 21.7323C21.0602 21.5904 21.353 21.35 21.559 21.0417C21.7651 20.7334 21.875 20.3708 21.875 20C21.8744 19.5029 21.6767 19.0263 21.3252 18.6748C20.9737 18.3233 20.4971 18.1256 20 18.125ZM20 20.625C19.8764 20.625 19.7556 20.5883 19.6528 20.5197C19.55 20.451 19.4699 20.3534 19.4226 20.2392C19.3753 20.125 19.3629 19.9993 19.387 19.8781C19.4111 19.7568 19.4707 19.6455 19.5581 19.5581C19.6455 19.4707 19.7568 19.4111 19.8781 19.387C19.9993 19.3629 20.125 19.3753 20.2392 19.4226C20.3534 19.4699 20.451 19.55 20.5197 19.6528C20.5884 19.7556 20.625 19.8764 20.625 20C20.6248 20.1657 20.5589 20.3246 20.4418 20.4417C20.3246 20.5589 20.1657 20.6248 20 20.625Z" fill="#FDFDFD"/>
<path d="M20 15.625C19.1347 15.625 18.2888 15.8816 17.5694 16.3623C16.8499 16.8431 16.2892 17.5263 15.958 18.3258C15.6269 19.1252 15.5403 20.0048 15.7091 20.8535C15.8779 21.7022 16.2946 22.4817 16.9064 23.0936C17.5183 23.7054 18.2978 24.1221 19.1465 24.2909C19.9951 24.4597 20.8748 24.3731 21.6742 24.042C22.4737 23.7108 23.1569 23.1501 23.6377 22.4306C24.1184 21.7112 24.375 20.8653 24.375 20C24.3737 18.8401 23.9123 17.728 23.0921 16.9078C22.272 16.0877 21.1599 15.6263 20 15.625ZM20 23.125C19.3819 23.125 18.7777 22.9417 18.2638 22.5983C17.7499 22.255 17.3494 21.7669 17.1129 21.1959C16.8764 20.6249 16.8145 19.9965 16.935 19.3903C17.0556 18.7841 17.3533 18.2273 17.7903 17.7903C18.2273 17.3533 18.7841 17.0556 19.3903 16.935C19.9965 16.8145 20.6249 16.8764 21.1959 17.1129C21.7669 17.3494 22.255 17.7499 22.5983 18.2638C22.9417 18.7777 23.125 19.3819 23.125 20C23.1241 20.8285 22.7945 21.6228 22.2087 22.2087C21.6228 22.7945 20.8285 23.1241 20 23.125Z" fill="#FDFDFD"/>
<path d="M27.513 24.8614L26.0031 23.3516C26.2648 22.8852 26.4705 22.3896 26.6159 21.875H28.75C28.9158 21.875 29.0747 21.8092 29.1919 21.6919C29.3092 21.5747 29.375 21.4158 29.375 21.25V18.75C29.375 18.5842 29.3092 18.4253 29.1919 18.3081C29.0747 18.1908 28.9158 18.125 28.75 18.125H26.6159C26.4705 17.6104 26.2648 17.1148 26.0031 16.6484L27.513 15.1384C27.5711 15.0804 27.6171 15.0115 27.6485 14.9357C27.6799 14.8598 27.6961 14.7786 27.6961 14.6965C27.6961 14.6144 27.6799 14.5331 27.6485 14.4573C27.6171 14.3815 27.5711 14.3126 27.513 14.2545L25.7453 12.487C25.6873 12.4289 25.6184 12.3829 25.5425 12.3515C25.4667 12.3201 25.3854 12.3039 25.3034 12.3039C25.2213 12.3039 25.14 12.3201 25.0642 12.3515C24.9883 12.3829 24.9194 12.4289 24.8614 12.487L23.3516 13.9969C22.8852 13.7352 22.3896 13.5295 21.875 13.3841V11.25C21.875 11.0842 21.8092 10.9253 21.6919 10.8081C21.5747 10.6908 21.4158 10.625 21.25 10.625H18.75C18.5842 10.625 18.4253 10.6908 18.3081 10.8081C18.1908 10.9253 18.125 11.0842 18.125 11.25V13.3841C17.6104 13.5295 17.1148 13.7352 16.6484 13.9969L15.1384 12.487C15.0804 12.4289 15.0115 12.3829 14.9357 12.3515C14.8598 12.3201 14.7786 12.3039 14.6965 12.3039C14.6144 12.3039 14.5331 12.3201 14.4573 12.3515C14.3815 12.3829 14.3126 12.4289 14.2545 12.487L12.487 14.2547C12.4289 14.3127 12.3829 14.3816 12.3515 14.4575C12.3201 14.5333 12.3039 14.6146 12.3039 14.6966C12.3039 14.7787 12.3201 14.86 12.3515 14.9358C12.3829 15.0117 12.4289 15.0806 12.487 15.1386L13.9969 16.6484C13.7352 17.1148 13.5295 17.6104 13.3841 18.125H11.25C11.0842 18.125 10.9253 18.1908 10.8081 18.3081C10.6908 18.4253 10.625 18.5842 10.625 18.75V21.25C10.625 21.4158 10.6908 21.5747 10.8081 21.6919C10.9253 21.8092 11.0842 21.875 11.25 21.875H13.3841C13.5295 22.3896 13.7352 22.8852 13.9969 23.3516L12.487 24.8616C12.4289 24.9196 12.3829 24.9885 12.3515 25.0643C12.3201 25.1402 12.3039 25.2214 12.3039 25.3035C12.3039 25.3856 12.3201 25.4669 12.3515 25.5427C12.3829 25.6185 12.4289 25.6874 12.487 25.7455L14.2547 27.5132C14.3127 27.5712 14.3816 27.6173 14.4575 27.6487C14.5333 27.6801 14.6146 27.6963 14.6966 27.6963C14.7787 27.6963 14.86 27.6801 14.9358 27.6487C15.0117 27.6173 15.0806 27.5712 15.1386 27.5132L16.6484 26.0031C17.1148 26.2648 17.6104 26.4705 18.125 26.6159V28.75C18.125 28.9158 18.1908 29.0747 18.3081 29.1919C18.4253 29.3092 18.5842 29.375 18.75 29.375H21.25C21.4158 29.375 21.5747 29.3092 21.6919 29.1919C21.8092 29.0747 21.875 28.9158 21.875 28.75V26.6159C22.3896 26.4705 22.8852 26.2648 23.3516 26.0031L24.8616 27.513C24.9196 27.5711 24.9885 27.6171 25.0643 27.6485C25.1402 27.6799 25.2214 27.6961 25.3035 27.6961C25.3856 27.6961 25.4669 27.6799 25.5427 27.6485C25.6185 27.6171 25.6874 27.5711 25.7455 27.513L27.5132 25.7453C27.5712 25.6873 27.6173 25.6184 27.6487 25.5425C27.6801 25.4667 27.6962 25.3854 27.6962 25.3033C27.6962 25.2212 27.68 25.14 27.6486 25.0642C27.6171 24.9883 27.5711 24.9194 27.513 24.8614ZM25.3034 26.1875L23.8878 24.772C23.7859 24.6701 23.6518 24.6065 23.5084 24.5921C23.3649 24.5777 23.2209 24.6133 23.1007 24.6929C22.5015 25.0912 21.8308 25.3695 21.1256 25.5126C20.9844 25.5413 20.8573 25.6179 20.7661 25.7295C20.6749 25.8411 20.625 25.9808 20.625 26.125V28.125H19.375V26.125C19.375 25.9808 19.3251 25.8411 19.2339 25.7295C19.1427 25.6179 19.0156 25.5413 18.8744 25.5126C18.1692 25.3695 17.4985 25.0912 16.8993 24.6929C16.7791 24.6133 16.6351 24.5777 16.4916 24.5921C16.3482 24.6065 16.2141 24.6701 16.1122 24.772L14.6966 26.1875L13.8125 25.3034L15.228 23.8878C15.3299 23.7859 15.3935 23.6518 15.4079 23.5084C15.4223 23.3649 15.3867 23.2209 15.3071 23.1007C14.9088 22.5015 14.6305 21.8308 14.4874 21.1256C14.4587 20.9844 14.3821 20.8573 14.2705 20.7661C14.1589 20.6749 14.0192 20.625 13.875 20.625H11.875V19.375H13.875C14.0192 19.375 14.1589 19.3251 14.2705 19.2339C14.3821 19.1427 14.4587 19.0156 14.4874 18.8744C14.6305 18.1692 14.9088 17.4985 15.3071 16.8993C15.3867 16.7791 15.4223 16.6351 15.4079 16.4916C15.3935 16.3482 15.3299 16.2141 15.228 16.1122L13.8125 14.6966L14.6966 13.8125L16.1122 15.228C16.2141 15.3299 16.3482 15.3935 16.4916 15.4079C16.6351 15.4223 16.7791 15.3867 16.8993 15.3071C17.4985 14.9088 18.1692 14.6305 18.8744 14.4874C19.0156 14.4587 19.1427 14.3821 19.2339 14.2705C19.3251 14.1589 19.375 14.0192 19.375 13.875V11.875H20.625V13.875C20.625 14.0192 20.6749 14.1589 20.7661 14.2705C20.8573 14.3821 20.9844 14.4587 21.1256 14.4874C21.8308 14.6305 22.5015 14.9088 23.1007 15.3071C23.2209 15.3867 23.3649 15.4223 23.5084 15.4079C23.6518 15.3935 23.7859 15.3299 23.8878 15.228L25.3034 13.8125L26.1875 14.6966L24.772 16.1122C24.6701 16.2141 24.6065 16.3482 24.5921 16.4916C24.5777 16.6351 24.6133 16.7791 24.6929 16.8993C25.0912 17.4985 25.3695 18.1692 25.5126 18.8744C25.5413 19.0156 25.6179 19.1427 25.7295 19.2339C25.8411 19.3251 25.9808 19.375 26.125 19.375H28.125V20.625H26.125C25.9808 20.625 25.8411 20.6749 25.7295 20.7661C25.6179 20.8573 25.5413 20.9844 25.5126 21.1256C25.3695 21.8308 25.0912 22.5015 24.6929 23.1007C24.6133 23.2209 24.5777 23.3649 24.5921 23.5084C24.6065 23.6518 24.6701 23.7859 24.772 23.8878L26.1875 25.3034L25.3034 26.1875Z" fill="#FDFDFD"/>
</svg>
