<svg width="18" height="16" viewBox="0 0 18 16" fill="none" xmlns="http://www.w3.org/2000/svg">
<path d="M11.0171 0.706799C10.7175 0.421424 10.2424 0.432674 9.957 0.732674C9.67125 1.03267 9.68325 1.50742 9.98287 1.79317L15.7361 7.2498H0.75C0.336 7.2498 0 7.5858 0 7.9998C0 8.4138 0.336 8.7498 0.75 8.7498H15.7121L9.98287 14.2068C9.68287 14.4925 9.67125 14.9673 9.957 15.2673C10.1044 15.4218 10.302 15.4998 10.5 15.4998C10.686 15.4998 10.872 15.4312 11.0171 15.2928L17.5605 9.0603C17.844 8.77717 18 8.40067 18 7.9998C18 7.59892 17.844 7.22242 17.5474 6.92655L11.0171 0.706799Z" fill="white"/>
</svg>
