<svg width="32" height="32" viewBox="0 0 32 32" fill="none" xmlns="http://www.w3.org/2000/svg">
<circle opacity="0.2" cx="16" cy="16" r="16" fill="#FDFDFD"/>
<g clip-path="url(#clip0)">
<path d="M24 14.7097H23.4201L22.5558 15.1644C22.4585 15.1108 22.3574 15.0653 22.2482 15.0379L21.161 14.7659V14.6423C21.642 14.3066 21.9355 13.752 21.9355 13.1613V12.7102C21.9355 11.7077 21.1499 10.8687 20.1845 10.8395C20.1355 10.8382 20.0872 10.84 20.0387 10.8424L20.3206 10.1825L18.954 8.81628L18.1484 9.3406C17.8424 9.16822 17.5186 9.03402 17.1825 8.93989L16.9835 8H15.0168L14.8178 8.94015C14.4816 9.03427 14.1576 9.16847 13.8518 9.34085L13.0462 8.81653L11.6808 10.182L11.9579 10.8424C11.9473 10.8419 11.9372 10.84 11.9267 10.8397C11.4325 10.8254 10.967 11.0057 10.6134 11.3489C10.2593 11.6919 10.0645 12.1522 10.0645 12.6452V13.1613C10.0645 13.752 10.3577 14.3063 10.8387 14.642V14.7659L10.1295 14.9432L8.84413 14.1935H8V19.541L10.5388 20.3871H11.0333L11.095 20.1709L11.8732 20.638C11.886 21.0611 12.2253 21.4016 12.6481 21.4165C12.6629 21.8374 13.0013 22.1758 13.4223 22.1906C13.4371 22.6116 13.7755 22.95 14.1964 22.9648C14.2118 23.3957 14.5646 23.7419 14.999 23.7419C15.1603 23.7419 15.3184 23.6917 15.4514 23.6021L15.6799 23.8039C15.8232 23.9301 16.0077 24 16.1992 24H16.247C16.6764 24 17.0258 23.6528 17.0312 23.2248C17.456 23.2194 17.8 22.8754 17.8054 22.4506C18.2305 22.4452 18.5747 22.1007 18.5796 21.6757C19.0086 21.6656 19.3548 21.3151 19.3548 20.8838C19.3548 20.8579 19.3536 20.8323 19.3509 20.8065L24 18.4821V14.7097ZM21.4194 12.7102V13.1613C21.4194 13.6193 21.1719 14.0473 20.7734 14.278L20.6444 14.3526L20.6454 15.1692L21.9347 15.4913L19.0968 16.985V16.2898C19.0968 15.9429 18.9567 15.6253 18.7272 15.3905L19.6129 15.1692V14.3519L19.4841 14.2775C19.0859 14.0473 18.8387 13.6193 18.8387 13.1613V12.6452C18.8387 12.2932 18.9778 11.9641 19.2307 11.719C19.4834 11.474 19.8185 11.342 20.169 11.3556C20.8584 11.3763 21.4194 11.984 21.4194 12.7102ZM16.3891 16.7821L15.2209 16.4088C14.6885 16.2382 14.1123 16.2127 13.5673 16.3334L13.4194 16.3662V16.2898C13.4194 15.934 13.6607 15.625 14.0057 15.5386L15.4839 15.1692V14.3519L15.3551 14.2775C14.9569 14.0473 14.7097 13.6193 14.7097 13.1613V12.6452C14.7097 12.2932 14.8488 11.9641 15.1017 11.719C15.3543 11.474 15.6917 11.342 16.0399 11.3556C16.7293 11.3763 17.2903 11.984 17.2903 12.7102V13.1613C17.2903 13.6193 17.0428 14.0473 16.6444 14.278L16.5154 14.3526L16.5164 15.1692L17.9943 15.5386C18.3393 15.625 18.5806 15.934 18.5806 16.2898V17.2568L18.5169 17.2903H18.3587L16.7722 16.8369C16.6472 16.8015 16.5184 16.787 16.3891 16.7821ZM13.4772 11.8624C13.9618 10.9234 14.9372 10.3226 16 10.3226C17.0527 10.3226 18.0239 10.9153 18.5122 11.8416C18.3894 12.088 18.3226 12.3608 18.3226 12.6452V13.1613C18.3226 13.752 18.6158 14.3063 19.0968 14.642V14.7659L18.0645 15.0243L17.032 14.7659V14.6423C17.513 14.3066 17.8065 13.752 17.8065 13.1613V12.7102C17.8065 11.7077 17.0209 10.8687 16.0554 10.8395C15.5615 10.825 15.0958 11.0054 14.7422 11.3487C14.3884 11.6919 14.1935 12.1522 14.1935 12.6452V13.1613C14.1935 13.752 14.4868 14.3063 14.9677 14.642V14.7659L13.9355 15.0243L12.903 14.7659V14.6423C13.3839 14.3066 13.6774 13.752 13.6774 13.1613V12.7102C13.6774 12.4065 13.6043 12.1182 13.4772 11.8624ZM12.2903 10.3017L13.1148 9.47719L13.8405 9.94947L13.9793 9.86429C14.3272 9.65108 14.7033 9.49496 15.0968 9.40083L15.2555 9.36278L15.4351 8.51613H16.5651L16.7442 9.36253L16.903 9.40045C17.2965 9.49471 17.6725 9.65083 18.0204 9.86404L18.1593 9.94922L18.885 9.47694L19.7084 10.3007L19.4157 10.986C19.2165 11.0717 19.0318 11.1923 18.871 11.3482C18.8604 11.3585 18.8513 11.3696 18.841 11.3802C18.233 10.4137 17.1581 9.80645 16 9.80645C14.8335 9.80645 13.7557 10.4194 13.1492 11.3957C12.9869 11.2258 12.7939 11.0882 12.5799 10.9921L12.2903 10.3017ZM11.3548 15.1692V14.3519L11.2261 14.2775C10.8279 14.0473 10.5806 13.6193 10.5806 13.1613V12.6452C10.5806 12.2932 10.7198 11.9641 10.9727 11.719C11.2253 11.474 11.5612 11.342 11.9109 11.3556C12.6003 11.3763 13.1613 11.984 13.1613 12.7102V13.1613C13.1613 13.6193 12.9138 14.0473 12.5154 14.278L12.3863 14.3526L12.3873 15.1692L13.2728 15.3905C13.0433 15.6253 12.9032 15.9429 12.9032 16.2898V16.481L12.0983 16.6599L12.1192 16.5868L12.129 16.1099L10.768 15.3159L11.3548 15.1692ZM8.51613 14.7097H8.70426L10.5602 15.7922L9.62374 19.5381L8.51613 19.1687V14.7097ZM10.6225 19.871L10.1145 19.7017L11.0243 16.063L11.6129 16.4062V16.48L10.6442 19.871H10.6225ZM12.3871 20.6139C12.3871 20.5378 12.4178 20.4632 12.4718 20.4093L12.9254 19.9556C12.9793 19.9017 13.0539 19.871 13.13 19.871C13.2896 19.871 13.4194 20.0008 13.4194 20.1603C13.4194 20.2364 13.3886 20.311 13.3347 20.3649L12.881 20.8185C12.8271 20.8725 12.7525 20.9032 12.6764 20.9032C12.5169 20.9032 12.3871 20.7734 12.3871 20.6139ZM13.1613 21.3881C13.1613 21.312 13.192 21.2374 13.246 21.1835L13.6996 20.7298C13.7535 20.6759 13.8281 20.6452 13.9042 20.6452C14.0638 20.6452 14.1935 20.7749 14.1935 20.9345C14.1935 21.0106 14.1628 21.0852 14.1089 21.1391L13.6552 21.5927C13.6013 21.6467 13.5267 21.6774 13.4506 21.6774C13.2911 21.6774 13.1613 21.5476 13.1613 21.3881ZM13.9355 22.1623C13.9355 22.0862 13.9662 22.0116 14.0202 21.9577L14.4738 21.504C14.5277 21.4501 14.6023 21.4194 14.6784 21.4194C14.838 21.4194 14.9677 21.5491 14.9677 21.7087C14.9677 21.7848 14.937 21.8594 14.8831 21.9133L14.4294 22.3669C14.3755 22.4209 14.3009 22.4516 14.2248 22.4516C14.0653 22.4516 13.9355 22.3218 13.9355 22.1623ZM14.999 23.2258C14.8395 23.2258 14.7097 23.096 14.7097 22.9365C14.7097 22.8604 14.7404 22.7858 14.7944 22.7319L15.248 22.2782C15.3019 22.2243 15.3765 22.1935 15.4526 22.1935C15.6121 22.1935 15.7419 22.3233 15.7419 22.4829C15.7419 22.559 15.7112 22.6336 15.6573 22.6875L15.2036 23.1411C15.1497 23.1951 15.0751 23.2258 14.999 23.2258ZM16.247 23.4839H16.1992C16.1334 23.4839 16.0704 23.4599 16.0214 23.4165L15.8284 23.2462L16.0222 23.0524C16.0914 22.9832 16.145 22.901 16.1847 22.8126L16.4194 23.0079C16.4807 23.0591 16.5161 23.1344 16.5161 23.2147C16.5161 23.3632 16.3954 23.4839 16.247 23.4839ZM18.5612 21.1613H18.5166C18.4519 21.1613 18.3886 21.1384 18.3391 21.0968L16.9396 19.9306L16.609 20.3272L17.968 21.4596C18.0291 21.5107 18.0645 21.5861 18.0645 21.6663C18.0645 21.8148 17.9438 21.9355 17.7954 21.9355H17.739C17.6764 21.9355 17.6152 21.9133 17.5669 21.873L16.1652 20.705L15.8346 21.1017L17.1935 22.2341C17.2549 22.2849 17.2903 22.3603 17.2903 22.4405C17.2903 22.589 17.1696 22.7097 17.0212 22.7097C16.9221 22.7097 16.8256 22.6745 16.7496 22.6114L16.1736 22.1313C16.0467 21.872 15.786 21.6912 15.4807 21.6803C15.4659 21.2593 15.1275 20.921 14.7065 20.9061C14.6917 20.4851 14.3533 20.1468 13.9323 20.1319C13.9172 19.7011 13.5644 19.3548 13.13 19.3548C12.918 19.3548 12.7104 19.4408 12.5605 19.5907L12.1069 20.0444C12.0798 20.0714 12.0573 20.1022 12.0345 20.1327L11.2418 19.657L11.9367 17.2248L13.6789 16.8374C14.136 16.7353 14.6178 16.7574 15.0635 16.9001L15.4437 17.0217L14.1549 17.6661C13.8604 17.8136 13.6774 18.1099 13.6774 18.4393V18.4903C13.6774 18.967 14.0653 19.3548 14.542 19.3548C14.6986 19.3548 14.8527 19.3122 14.9866 19.2315L15.9476 18.6552C16.1406 18.5396 16.3997 18.5649 16.5664 18.7148L18.7468 20.6772C18.8052 20.7301 18.8387 20.8052 18.8387 20.8838C18.8387 21.0369 18.7143 21.1613 18.5612 21.1613ZM23.4839 18.1631L19.1362 20.3371C19.1221 20.3221 19.1074 20.3078 19.0919 20.294L16.9118 18.3317C16.7208 18.1593 16.4738 18.0645 16.2165 18.0645C16.0284 18.0645 15.8436 18.1157 15.6818 18.2127L14.7205 18.7892C14.6666 18.8217 14.605 18.8387 14.542 18.8387C14.3497 18.8387 14.1935 18.6826 14.1935 18.4903V18.4393C14.1935 18.3063 14.2674 18.1871 14.3861 18.1278L15.8256 17.408C16.0719 17.2847 16.3644 17.2571 16.6299 17.3334L18.2516 17.7966L18.6444 17.8065L23.4839 15.2593V18.1631Z" fill="#FDFDFD"/>
</g>
<defs>
<clipPath id="clip0">
<rect width="16" height="16" fill="white" transform="translate(8 8)"/>
</clipPath>
</defs>
</svg>
