<svg width="32" height="32" viewBox="0 0 32 32" fill="none" xmlns="http://www.w3.org/2000/svg">
<circle opacity="0.2" cx="16" cy="16" r="16" fill="#FDFDFD"/>
<path d="M22.125 11.7812V9.875H20.2188C20.2188 8.84113 19.3776 8 18.3438 8C17.3099 8 16.4688 8.84113 16.4688 9.875H15.0625C11.1756 9.875 8 13.051 8 16.9375C8 20.8244 11.176 24 15.0625 24C18.9494 24 22.125 20.824 22.125 16.9375V15.5312C23.1589 15.5312 24 14.6901 24 13.6562C24 12.6224 23.1589 11.7812 22.125 11.7812ZM14.5938 10.8303V12.996C15.1589 12.8073 15.2727 12.7188 15.5312 12.7188C16.0482 12.7188 16.4688 13.1393 16.4688 13.6562C16.4688 14.1732 16.0482 14.5938 15.5312 14.5938C15.2723 14.5938 15.1573 14.5047 14.5938 14.3165V16.4688H13.6562C13.6562 15.4349 12.8151 14.5938 11.7812 14.5938C10.7474 14.5938 9.90625 15.4349 9.90625 16.4688H8.95528C9.18372 13.4643 11.5893 11.0587 14.5938 10.8303ZM8.95528 17.4062H11.1211C10.9321 16.8405 10.8438 16.7273 10.8438 16.4688C10.8438 15.9518 11.2643 15.5312 11.7812 15.5312C12.2982 15.5312 12.7188 15.9518 12.7188 16.4688C12.7188 16.7273 12.6302 16.8408 12.4414 17.4062H14.5938V18.3438C13.5599 18.3438 12.7188 19.1849 12.7188 20.2188C12.7188 21.2526 13.5599 22.0938 14.5938 22.0938V23.0447C11.5893 22.8163 9.18372 20.4107 8.95528 17.4062ZM15.5312 23.0447V20.879C14.9661 21.0677 14.8523 21.1562 14.5938 21.1562C14.0768 21.1562 13.6562 20.7357 13.6562 20.2188C13.6562 19.7018 14.0768 19.2812 14.5938 19.2812C14.8527 19.2812 14.9677 19.3703 15.5312 19.5585V17.4062H16.4688C16.4688 18.4401 17.3099 19.2812 18.3438 19.2812C19.3776 19.2812 20.2188 18.4398 20.2188 17.4059L21.1697 17.4062C20.9413 20.4107 18.5357 22.8163 15.5312 23.0447ZM22.125 14.5938C21.9124 14.5938 21.7514 14.4971 21.1875 14.3036V16.4688H19.0039C19.1928 17.0345 19.2812 17.1477 19.2812 17.4062C19.2812 17.9232 18.8607 18.3438 18.3438 18.3438C17.8268 18.3438 17.4062 17.9232 17.4062 17.4062C17.4062 17.1477 17.4948 17.0342 17.6836 16.4688H15.5312V15.5312C16.5651 15.5312 17.4062 14.6901 17.4062 13.6562C17.4062 12.6224 16.5651 11.7812 15.5312 11.7812V10.8125H17.6964C17.5051 10.2549 17.4062 10.0874 17.4062 9.875C17.4062 9.35806 17.8268 8.9375 18.3438 8.9375C18.8607 8.9375 19.2812 9.35806 19.2812 9.875C19.2812 10.0876 19.1844 10.2489 18.9911 10.8125H21.1875V13.0089C21.7451 12.8176 21.9126 12.7188 22.125 12.7188C22.6419 12.7188 23.0625 13.1393 23.0625 13.6562C23.0625 14.1732 22.6419 14.5938 22.125 14.5938Z" fill="#FDFDFD"/>
</svg>
