<svg width="28" height="18" viewBox="0 0 28 18" fill="none" xmlns="http://www.w3.org/2000/svg">
<path d="M4.26 15.3L3.75051 16.1605L3.75715 16.1644L3.76386 16.1682L4.26 15.3ZM1.9 12.76L1.00342 13.2029L1.00664 13.2094L1.00996 13.2159L1.9 12.76ZM1.9 5L2.79444 5.44722L2.79658 5.44289L1.9 5ZM4.24 2.46L3.74385 1.59174L3.73896 1.59457L4.24 2.46ZM11.46 2.46L10.959 3.32544L10.9639 3.32824L11.46 2.46ZM13.8 5L12.8992 5.43414L12.9023 5.4407L12.9056 5.44721L13.8 5ZM13.8 12.76L14.6944 13.2072L14.6966 13.2029L13.8 12.76ZM11.46 15.3L11.9611 16.1655L11.9695 16.1605L11.46 15.3ZM10.94 12.76L11.7175 13.3889V13.3889L10.94 12.76ZM10.94 5L10.1625 5.62889L10.1671 5.63449L10.94 5ZM4.78 4.98L5.55293 5.61449L4.78 4.98ZM4.78 12.76L4.00249 13.3889L4.78 12.76ZM7.86 15.18C6.63232 15.18 5.60884 14.919 4.75614 14.4318L3.76386 16.1682C4.96449 16.8543 6.34102 17.18 7.86 17.18V15.18ZM4.76949 14.4395C3.92588 13.94 3.26784 13.237 2.79004 12.3041L1.00996 13.2159C1.65216 14.4697 2.56746 15.46 3.75051 16.1605L4.76949 14.4395ZM2.79658 12.3171C2.33075 11.3741 2.08 10.2315 2.08 8.86H0.08C0.08 10.4752 0.375918 11.9326 1.00342 13.2029L2.79658 12.3171ZM2.08 8.86C2.08 7.50295 2.33032 6.37544 2.79443 5.44721L1.00557 4.55279C0.376351 5.81123 0.08 7.25705 0.08 8.86H2.08ZM2.79658 5.44289C3.26091 4.50289 3.9078 3.80783 4.74104 3.32543L3.73896 1.59457C2.54553 2.28551 1.63242 3.28378 1.00342 4.55711L2.79658 5.44289ZM4.73614 3.32824C5.58744 2.84179 6.61709 2.58 7.86 2.58V0.58C6.32958 0.58 4.9459 0.904878 3.74386 1.59176L4.73614 3.32824ZM7.86 2.58C9.10332 2.58 10.1238 2.84192 10.959 3.32543L11.961 1.59457C10.7695 0.904744 9.39002 0.58 7.86 0.58V2.58ZM10.9639 3.32824C11.8077 3.81043 12.4501 4.50226 12.8992 5.43414L14.7008 4.56586C14.0833 3.2844 13.1656 2.2829 11.9561 1.59176L10.9639 3.32824ZM12.9056 5.44721C13.3697 6.37544 13.62 7.50295 13.62 8.86H15.62C15.62 7.25705 15.3236 5.81123 14.6944 4.55279L12.9056 5.44721ZM13.62 8.86C13.62 10.2315 13.3693 11.3741 12.9034 12.3171L14.6966 13.2029C15.3241 11.9326 15.62 10.4752 15.62 8.86H13.62ZM12.9056 12.3128C12.4414 13.2411 11.792 13.9413 10.9505 14.4395L11.9695 16.1605C13.1547 15.4587 14.0653 14.4655 14.6944 13.2072L12.9056 12.3128ZM10.959 14.4346C10.1238 14.9181 9.10332 15.18 7.86 15.18V17.18C9.39002 17.18 10.7695 16.8553 11.961 16.1654L10.959 14.4346ZM7.86 15.12C9.43692 15.12 10.7677 14.5631 11.7175 13.3889L10.1625 12.1311C9.64561 12.7702 8.92308 13.12 7.86 13.12V15.12ZM11.7175 13.3889C12.6474 12.2392 13.04 10.6817 13.04 8.86H11.04C11.04 10.425 10.6993 11.4674 10.1625 12.1311L11.7175 13.3889ZM13.04 8.86C13.04 7.05072 12.6469 5.50328 11.7129 4.36551L10.1671 5.63449C10.6997 6.28339 11.04 7.30928 11.04 8.86H13.04ZM11.7175 4.37113C10.7677 3.19685 9.43692 2.64 7.86 2.64V4.64C8.92308 4.64 9.64561 4.98981 10.1625 5.62887L11.7175 4.37113ZM7.86 2.64C6.28841 2.64 4.95872 3.18623 4.00707 4.34551L5.55293 5.61449C6.06795 4.9871 6.79159 4.64 7.86 4.64V2.64ZM4.00707 4.34551C3.07209 5.48449 2.68 7.03966 2.68 8.86H4.68C4.68 7.29367 5.02125 6.26218 5.55293 5.61449L4.00707 4.34551ZM2.68 8.86C2.68 10.6817 3.07264 12.2392 4.00249 13.3889L5.55751 12.1311C5.0207 11.4674 4.68 10.425 4.68 8.86H2.68ZM4.00249 13.3889C4.95227 14.5631 6.28308 15.12 7.86 15.12V13.12C6.79692 13.12 6.07439 12.7702 5.55751 12.1311L4.00249 13.3889ZM26.7027 13.9H27.7027V12.9H26.7027V13.9ZM26.7027 16V17H27.7027V16H26.7027ZM17.1427 16H16.1427V17H17.1427V16ZM17.1427 14.1L16.4094 13.4201L16.1427 13.7077V14.1H17.1427ZM21.9827 8.88L22.716 9.55993L22.7205 9.55501L21.9827 8.88ZM23.0627 4.14L22.3966 4.88594L22.4031 4.89173L22.4097 4.89741L23.0627 4.14ZM17.5827 5.12L16.6733 5.53599L17.1888 6.66289L18.1814 5.92097L17.5827 5.12ZM16.7227 3.24L16.0517 2.49846L15.5086 2.98989L15.8133 3.65599L16.7227 3.24ZM18.8827 2.04L19.1989 2.98877L19.2117 2.9843L18.8827 2.04ZM24.9227 2.64L24.2729 3.40012L24.2794 3.40573L24.2861 3.41122L24.9227 2.64ZM25.6427 7.76L24.7482 7.31279L24.7449 7.31946L24.7417 7.32618L25.6427 7.76ZM23.8827 10.18L24.611 10.8653L24.6166 10.8592L23.8827 10.18ZM20.3827 13.9L19.6543 13.2148L18.0688 14.9H20.3827V13.9ZM25.7027 13.9V16H27.7027V13.9H25.7027ZM26.7027 15H17.1427V17H26.7027V15ZM18.1427 16V14.1H16.1427V16H18.1427ZM17.8759 14.7799L22.716 9.55991L21.2494 8.20009L16.4094 13.4201L17.8759 14.7799ZM22.7205 9.55501C23.3294 8.88947 23.8113 8.24264 24.1325 7.61632L22.3528 6.70368C22.1407 7.11736 21.7826 7.6172 21.2449 8.20499L22.7205 9.55501ZM24.1325 7.61632C24.4604 6.97685 24.6427 6.30811 24.6427 5.62H22.6427C22.6427 5.94522 22.5582 6.30315 22.3528 6.70368L24.1325 7.61632ZM24.6427 5.62C24.6427 4.76312 24.3812 3.95635 23.7156 3.38259L22.4097 4.89741C22.5175 4.99031 22.6427 5.17021 22.6427 5.62H24.6427ZM23.7287 3.39406C23.1088 2.84058 22.2943 2.64 21.4427 2.64V4.64C22.0043 4.64 22.2699 4.77275 22.3966 4.88594L23.7287 3.39406ZM21.4427 2.64C19.9143 2.64 18.4225 3.24374 16.984 4.31903L18.1814 5.92097C19.3828 5.02293 20.4643 4.64 21.4427 4.64V2.64ZM18.492 4.70401L17.632 2.82401L15.8133 3.65599L16.6733 5.53599L18.492 4.70401ZM17.3936 3.98153C17.8303 3.58636 18.421 3.24799 19.1989 2.98868L18.5664 1.09132C17.5843 1.41868 16.735 1.88031 16.0517 2.49846L17.3936 3.98153ZM19.2117 2.9843C19.9905 2.7129 20.7661 2.58 21.5427 2.58V0.58C20.5325 0.58 19.5348 0.753769 18.5536 1.0957L19.2117 2.9843ZM21.5427 2.58C22.8065 2.58 23.6774 2.8911 24.2729 3.40012L25.5724 1.87988C24.5146 0.975565 23.1321 0.58 21.5427 0.58V2.58ZM24.2861 3.41122C24.8735 3.89606 25.1827 4.54137 25.1827 5.46H27.1827C27.1827 4.00529 26.6518 2.77061 25.5592 1.86878L24.2861 3.41122ZM25.1827 5.46C25.1827 6.11976 25.0381 6.73313 24.7482 7.31279L26.5371 8.20721C26.9673 7.34687 27.1827 6.42691 27.1827 5.46H25.1827ZM24.7417 7.32618C24.4545 7.92267 23.9392 8.64654 23.1487 9.50081L24.6166 10.8592C25.4794 9.9268 26.1375 9.03733 26.5437 8.19382L24.7417 7.32618ZM23.1543 9.49476L19.6543 13.2148L21.111 14.5852L24.611 10.8652L23.1543 9.49476ZM20.3827 14.9H26.7027V12.9H20.3827V14.9Z" fill="#FDFDFD"/>
</svg>
