<svg width="33" height="32" viewBox="0 0 33 32" fill="none" xmlns="http://www.w3.org/2000/svg">
<ellipse opacity="0.2" cx="16.1916" cy="16" rx="16.1222" ry="16" fill="#FE8C00"/>
<g clip-path="url(#clip0)">
<path d="M22.3633 11.7812V9.875H20.4425C20.4425 8.84113 19.5949 8 18.5531 8C17.5114 8 16.6638 8.84113 16.6638 9.875H15.2468C11.3303 9.875 8.13037 13.051 8.13037 16.9375C8.13037 20.8244 11.3306 24 15.2468 24C19.1634 24 22.3633 20.824 22.3633 16.9375V15.5312C23.405 15.5312 24.2526 14.6901 24.2526 13.6562C24.2526 12.6224 23.405 11.7812 22.3633 11.7812ZM14.7745 10.8303V12.996C15.344 12.8073 15.4586 12.7188 15.7192 12.7188C16.24 12.7188 16.6638 13.1393 16.6638 13.6562C16.6638 14.1732 16.24 14.5938 15.7192 14.5938C15.4582 14.5938 15.3423 14.5047 14.7745 14.3165V16.4688H13.8298C13.8298 15.4349 12.9823 14.5938 11.9405 14.5938C10.8987 14.5938 10.0512 15.4349 10.0512 16.4688H9.09295C9.32313 13.4643 11.7471 11.0587 14.7745 10.8303ZM9.09295 17.4062H11.2753C11.0849 16.8405 10.9958 16.7273 10.9958 16.4688C10.9958 15.9518 11.4196 15.5312 11.9405 15.5312C12.4614 15.5312 12.8852 15.9518 12.8852 16.4688C12.8852 16.7273 12.796 16.8408 12.6057 17.4062H14.7745V18.3438C13.7327 18.3438 12.8852 19.1849 12.8852 20.2188C12.8852 21.2526 13.7327 22.0938 14.7745 22.0938V23.0447C11.7471 22.8163 9.32313 20.4107 9.09295 17.4062ZM15.7192 23.0447V20.879C15.1496 21.0677 15.0351 21.1562 14.7745 21.1562C14.2536 21.1562 13.8298 20.7357 13.8298 20.2188C13.8298 19.7018 14.2536 19.2812 14.7745 19.2812C15.0354 19.2812 15.1513 19.3703 15.7192 19.5585V17.4062H16.6638C16.6638 18.4401 17.5114 19.2812 18.5531 19.2812C19.5949 19.2812 20.4425 18.4398 20.4425 17.4059L21.4007 17.4062C21.1705 20.4107 18.7465 22.8163 15.7192 23.0447ZM22.3633 14.5938C22.1491 14.5938 21.9868 14.4971 21.4186 14.3036V16.4688H19.2183C19.4087 17.0345 19.4978 17.1477 19.4978 17.4062C19.4978 17.9232 19.074 18.3438 18.5531 18.3438C18.0323 18.3438 17.6085 17.9232 17.6085 17.4062C17.6085 17.1477 17.6977 17.0342 17.8879 16.4688H15.7192V15.5312C16.7609 15.5312 17.6085 14.6901 17.6085 13.6562C17.6085 12.6224 16.7609 11.7812 15.7192 11.7812V10.8125H17.9008C17.7081 10.2549 17.6085 10.0874 17.6085 9.875C17.6085 9.35806 18.0323 8.9375 18.5531 8.9375C19.074 8.9375 19.4978 9.35806 19.4978 9.875C19.4978 10.0876 19.4002 10.2489 19.2054 10.8125H21.4186V13.0089C21.9804 12.8176 22.1492 12.7188 22.3633 12.7188C22.8842 12.7188 23.3079 13.1393 23.3079 13.6562C23.3079 14.1732 22.8842 14.5938 22.3633 14.5938Z" fill="#FE8C00"/>
</g>
<defs>
<clipPath id="clip0">
<rect width="16.1222" height="16" fill="white" transform="translate(8.13037 8)"/>
</clipPath>
</defs>
</svg>
