<svg width="32" height="32" viewBox="0 0 32 32" fill="none" xmlns="http://www.w3.org/2000/svg">
<circle opacity="0.2" cx="16" cy="16" r="16" fill="#FDFDFD"/>
<path d="M23.7499 16C23.7499 15.95 23.7349 15.9012 23.7069 15.8598C23.6789 15.8184 23.6391 15.7864 23.5927 15.7678L18.8605 13.875L23.5927 11.9822C23.6391 11.9637 23.6789 11.9316 23.707 11.8902C23.735 11.8488 23.75 11.8 23.75 11.75C23.75 11.7 23.735 11.6512 23.707 11.6098C23.6789 11.5684 23.6391 11.5363 23.5927 11.5178L16.0927 8.51781C16.0331 8.49406 15.9667 8.49406 15.9071 8.51781L8.40708 11.5178C8.36065 11.5363 8.32084 11.5684 8.29279 11.6098C8.26475 11.6512 8.24976 11.7 8.24976 11.75C8.24976 11.8 8.26475 11.8488 8.29279 11.8902C8.32084 11.9316 8.36065 11.9637 8.40708 11.9822L13.1393 13.875L8.40708 15.7678C8.36065 15.7863 8.32084 15.8184 8.29279 15.8598C8.26475 15.9012 8.24976 15.95 8.24976 16C8.24976 16.05 8.26475 16.0988 8.29279 16.1402C8.32084 16.1816 8.36065 16.2137 8.40708 16.2322L13.1393 18.125L8.40708 20.0178C8.36065 20.0363 8.32084 20.0684 8.29279 20.1098C8.26475 20.1512 8.24976 20.2 8.24976 20.25C8.24976 20.3 8.26475 20.3488 8.29279 20.3902C8.32084 20.4316 8.36065 20.4637 8.40708 20.4822L15.9071 23.4822C15.9667 23.5059 16.0331 23.5059 16.0927 23.4822L23.5927 20.4822C23.6391 20.4637 23.6789 20.4316 23.707 20.3902C23.735 20.3488 23.75 20.3 23.75 20.25C23.75 20.2 23.735 20.1512 23.707 20.1098C23.6789 20.0684 23.6391 20.0363 23.5927 20.0178L18.8605 18.125L23.5927 16.2322C23.6391 16.2136 23.6789 16.1816 23.7069 16.1402C23.7349 16.0988 23.7499 16.05 23.7499 16ZM9.17302 11.75L15.9999 9.01937L22.8268 11.75L15.9999 14.4806L9.17302 11.75ZM22.8268 20.25L15.9999 22.9806L9.17302 20.25L13.8124 18.3944L15.9071 19.2322C15.9667 19.2559 16.0331 19.2559 16.0927 19.2322L18.1874 18.3944L22.8268 20.25ZM15.9999 18.7306L9.17302 16L13.8124 14.1444L15.9071 14.9822C15.9667 15.0059 16.0331 15.0059 16.0927 14.9822L18.1874 14.1444L22.8268 16L15.9999 18.7306Z" fill="#FDFDFD"/>
</svg>
