<svg width="33" height="32" viewBox="0 0 33 32" fill="none" xmlns="http://www.w3.org/2000/svg">
<ellipse opacity="0.2" cx="16.6154" cy="16" rx="16.1222" ry="16" fill="#FE585B"/>
<g clip-path="url(#clip0)">
<path d="M24.6764 14.7097H24.0921L23.2212 15.1644C23.1232 15.1108 23.0212 15.0653 22.9113 15.0379L21.8158 14.7659V14.6423C22.3004 14.3066 22.5961 13.752 22.5961 13.1613V12.7102C22.5961 11.7077 21.8046 10.8687 20.8318 10.8395C20.7824 10.8382 20.7337 10.84 20.6848 10.8424L20.9689 10.1825L19.5919 8.81628L18.7802 9.3406C18.4717 9.16822 18.1456 9.03402 17.8068 8.93989L17.6063 8H15.6246L15.4241 8.94015C15.0853 9.03427 14.7589 9.16847 14.4507 9.34085L13.639 8.81653L12.2631 10.182L12.5423 10.8424C12.5317 10.8419 12.5215 10.84 12.5109 10.8397C12.0129 10.8254 11.5438 11.0057 11.1876 11.3489C10.8308 11.6919 10.6345 12.1522 10.6345 12.6452V13.1613C10.6345 13.752 10.9299 14.3063 11.4146 14.642V14.7659L10.7 14.9432L9.40478 14.1935H8.5542V19.541L11.1124 20.3871H11.6106L11.6729 20.1709L12.457 20.638C12.4698 21.0611 12.8118 21.4016 13.2378 21.4165C13.2527 21.8374 13.5937 22.1758 14.0179 22.1906C14.0329 22.6116 14.3738 22.95 14.798 22.9648C14.8135 23.3957 15.169 23.7419 15.6067 23.7419C15.7692 23.7419 15.9285 23.6917 16.0625 23.6021L16.2928 23.8039C16.4372 23.9301 16.6231 24 16.8161 24H16.8642C17.2969 24 17.649 23.6528 17.6544 23.2248C18.0825 23.2194 18.4291 22.8754 18.4345 22.4506C18.8628 22.4452 19.2097 22.1007 19.2147 21.6757C19.6469 21.6656 19.9958 21.3151 19.9958 20.8838C19.9958 20.8579 19.9945 20.8323 19.9918 20.8065L24.6764 18.4821V14.7097ZM22.0761 12.7102V13.1613C22.0761 13.6193 21.8267 14.0473 21.4252 14.278L21.2952 14.3526L21.2962 15.1692L22.5954 15.4913L19.7357 16.985V16.2898C19.7357 15.9429 19.5945 15.6253 19.3633 15.3905L20.2558 15.1692V14.3519L20.126 14.2775C19.7248 14.0473 19.4757 13.6193 19.4757 13.1613V12.6452C19.4757 12.2932 19.6159 11.9641 19.8707 11.719C20.1253 11.474 20.463 11.342 20.8161 11.3556C21.5108 11.3763 22.0761 11.984 22.0761 12.7102ZM17.0074 16.7821L15.8303 16.4088C15.2938 16.2382 14.7132 16.2127 14.164 16.3334L14.015 16.3662V16.2898C14.015 15.934 14.2581 15.625 14.6057 15.5386L16.0952 15.1692V14.3519L15.9655 14.2775C15.5642 14.0473 15.3151 13.6193 15.3151 13.1613V12.6452C15.3151 12.2932 15.4553 11.9641 15.7101 11.719C15.9647 11.474 16.3046 11.342 16.6556 11.3556C17.3502 11.3763 17.9155 11.984 17.9155 12.7102V13.1613C17.9155 13.6193 17.6661 14.0473 17.2646 14.278L17.1346 14.3526L17.1356 15.1692L18.6249 15.5386C18.9725 15.625 19.2157 15.934 19.2157 16.2898V17.2568L19.1514 17.2903H18.9921L17.3934 16.8369C17.2674 16.8015 17.1377 16.787 17.0074 16.7821ZM14.0732 11.8624C14.5616 10.9234 15.5444 10.3226 16.6153 10.3226C17.676 10.3226 18.6547 10.9153 19.1467 11.8416C19.0229 12.088 18.9556 12.3608 18.9556 12.6452V13.1613C18.9556 13.752 19.2511 14.3063 19.7357 14.642V14.7659L18.6956 15.0243L17.6552 14.7659V14.6423C18.1398 14.3066 18.4356 13.752 18.4356 13.1613V12.7102C18.4356 11.7077 17.644 10.8687 16.6712 10.8395C16.1735 10.825 15.7042 11.0054 15.3479 11.3487C14.9914 11.6919 14.7951 12.1522 14.7951 12.6452V13.1613C14.7951 13.752 15.0905 14.3063 15.5752 14.642V14.7659L14.535 15.0243L13.4946 14.7659V14.6423C13.9793 14.3066 14.275 13.752 14.275 13.1613V12.7102C14.275 12.4065 14.2013 12.1182 14.0732 11.8624ZM12.8773 10.3017L13.7081 9.47719L14.4393 9.94947L14.5792 9.86429C14.9298 9.65108 15.3087 9.49496 15.7052 9.40083L15.8652 9.36278L16.0461 8.51613H17.1848L17.3652 9.36253L17.5252 9.40045C17.9217 9.49471 18.3006 9.65083 18.6512 9.86404L18.7911 9.94922L19.5223 9.47694L20.3521 10.3007L20.0571 10.986C19.8564 11.0717 19.6702 11.1923 19.5082 11.3482C19.4975 11.3585 19.4884 11.3696 19.478 11.3802C18.8654 10.4137 17.7823 9.80645 16.6153 9.80645C15.4399 9.80645 14.3538 10.4194 13.7427 11.3957C13.5792 11.2258 13.3847 11.0882 13.1691 10.9921L12.8773 10.3017ZM11.9347 15.1692V14.3519L11.8049 14.2775C11.4037 14.0473 11.1546 13.6193 11.1546 13.1613V12.6452C11.1546 12.2932 11.2947 11.9641 11.5496 11.719C11.8041 11.474 12.1426 11.342 12.495 11.3556C13.1896 11.3763 13.7549 11.984 13.7549 12.7102V13.1613C13.7549 13.6193 13.5055 14.0473 13.1041 14.278L12.974 14.3526L12.9751 15.1692L13.8673 15.3905C13.6361 15.6253 13.4949 15.9429 13.4949 16.2898V16.481L12.6838 16.6599L12.7049 16.5868L12.7148 16.1099L11.3434 15.3159L11.9347 15.1692ZM9.07427 14.7097H9.26384L11.134 15.7922L10.1903 19.5381L9.07427 19.1687V14.7097ZM11.1967 19.871L10.6849 19.7017L11.6016 16.063L12.1947 16.4062V16.48L11.2186 19.871H11.1967ZM12.9748 20.6139C12.9748 20.5378 13.0058 20.4632 13.0601 20.4093L13.5172 19.9556C13.5716 19.9017 13.6467 19.871 13.7234 19.871C13.8842 19.871 14.015 20.0008 14.015 20.1603C14.015 20.2364 13.984 20.311 13.9296 20.3649L13.4725 20.8185C13.4182 20.8725 13.343 20.9032 13.2663 20.9032C13.1056 20.9032 12.9748 20.7734 12.9748 20.6139ZM13.7549 21.3881C13.7549 21.312 13.7859 21.2374 13.8402 21.1835L14.2973 20.7298C14.3517 20.6759 14.4268 20.6452 14.5035 20.6452C14.6643 20.6452 14.7951 20.7749 14.7951 20.9345C14.7951 21.0106 14.7641 21.0852 14.7097 21.1391L14.2526 21.5927C14.1983 21.6467 14.1231 21.6774 14.0464 21.6774C13.8857 21.6774 13.7549 21.5476 13.7549 21.3881ZM14.535 22.1623C14.535 22.0862 14.566 22.0116 14.6203 21.9577L15.0774 21.504C15.1318 21.4501 15.207 21.4194 15.2836 21.4194C15.4444 21.4194 15.5752 21.5491 15.5752 21.7087C15.5752 21.7848 15.5442 21.8594 15.4898 21.9133L15.0327 22.3669C14.9784 22.4209 14.9032 22.4516 14.8265 22.4516C14.6658 22.4516 14.535 22.3218 14.535 22.1623ZM15.6067 23.2258C15.4459 23.2258 15.3151 23.096 15.3151 22.9365C15.3151 22.8604 15.3461 22.7858 15.4005 22.7319L15.8575 22.2782C15.9119 22.2243 15.9871 22.1935 16.0637 22.1935C16.2245 22.1935 16.3553 22.3233 16.3553 22.4829C16.3553 22.559 16.3243 22.6336 16.27 22.6875L15.8129 23.1411C15.7585 23.1951 15.6833 23.2258 15.6067 23.2258ZM16.8642 23.4839H16.8161C16.7498 23.4839 16.6863 23.4599 16.6369 23.4165L16.4424 23.2462L16.6377 23.0524C16.7074 22.9832 16.7615 22.901 16.8014 22.8126L17.0379 23.0079C17.0997 23.0591 17.1354 23.1344 17.1354 23.2147C17.1354 23.3632 17.0137 23.4839 16.8642 23.4839ZM19.1961 21.1613H19.1512C19.0859 21.1613 19.0222 21.1384 18.9723 21.0968L17.5621 19.9306L17.229 20.3272L18.5983 21.4596C18.6599 21.5107 18.6956 21.5861 18.6956 21.6663C18.6956 21.8148 18.574 21.9355 18.4244 21.9355H18.3676C18.3045 21.9355 18.2428 21.9133 18.1942 21.873L16.7818 20.705L16.4486 21.1017L17.818 22.2341C17.8798 22.2849 17.9155 22.3603 17.9155 22.4405C17.9155 22.589 17.7939 22.7097 17.6443 22.7097C17.5445 22.7097 17.4472 22.6745 17.3707 22.6114L16.7903 22.1313C16.6624 21.872 16.3997 21.6912 16.0921 21.6803C16.0771 21.2593 15.7362 20.921 15.312 20.9061C15.297 20.4851 14.9561 20.1468 14.5318 20.1319C14.5166 19.7011 14.1611 19.3548 13.7234 19.3548C13.5097 19.3548 13.3006 19.4408 13.1495 19.5907L12.6924 20.0444C12.6651 20.0714 12.6425 20.1022 12.6195 20.1327L11.8208 19.657L12.521 17.2248L14.2765 16.8374C14.737 16.7353 15.2226 16.7574 15.6717 16.9001L16.0547 17.0217L14.7561 17.6661C14.4593 17.8136 14.275 18.1099 14.275 18.4393V18.4903C14.275 18.967 14.6658 19.3548 15.1461 19.3548C15.304 19.3548 15.4592 19.3122 15.5942 19.2315L16.5625 18.6552C16.757 18.5396 17.0181 18.5649 17.186 18.7148L19.3831 20.6772C19.4419 20.7301 19.4757 20.8052 19.4757 20.8838C19.4757 21.0369 19.3504 21.1613 19.1961 21.1613ZM24.1564 18.1631L19.7755 20.3371C19.7613 20.3221 19.7464 20.3078 19.7308 20.294L17.5341 18.3317C17.3416 18.1593 17.0927 18.0645 16.8334 18.0645C16.6439 18.0645 16.4577 18.1157 16.2947 18.2127L15.3261 18.7892C15.2717 18.8217 15.2096 18.8387 15.1461 18.8387C14.9524 18.8387 14.7951 18.6826 14.7951 18.4903V18.4393C14.7951 18.3063 14.8695 18.1871 14.9891 18.1278L16.4396 17.408C16.6878 17.2847 16.9825 17.2571 17.25 17.3334L18.8841 17.7966L19.2799 17.8065L24.1564 15.2593V18.1631Z" fill="#FE585B"/>
</g>
<defs>
<clipPath id="clip0">
<rect width="16.1222" height="16" fill="white" transform="translate(8.5542 8)"/>
</clipPath>
</defs>
</svg>
