<svg width="33" height="32" viewBox="0 0 33 32" fill="none" xmlns="http://www.w3.org/2000/svg">
<ellipse opacity="0.2" cx="16.3849" cy="16" rx="16.1222" ry="16" fill="#A931FF"/>
<g clip-path="url(#clip0)">
<path d="M24.1932 16C24.1932 15.95 24.1781 15.9012 24.1499 15.8598C24.1217 15.8184 24.0816 15.7864 24.0349 15.7678L19.2665 13.875L24.0349 11.9822C24.0816 11.9637 24.1218 11.9316 24.15 11.8902C24.1783 11.8488 24.1934 11.8 24.1934 11.75C24.1934 11.7 24.1783 11.6512 24.15 11.6098C24.1218 11.5684 24.0816 11.5363 24.0349 11.5178L16.4776 8.51781C16.4175 8.49406 16.3506 8.49406 16.2905 8.51781L8.73323 11.5178C8.68644 11.5363 8.64633 11.5684 8.61807 11.6098C8.58981 11.6512 8.57471 11.7 8.57471 11.75C8.57471 11.8 8.58981 11.8488 8.61807 11.8902C8.64633 11.9316 8.68644 11.9637 8.73323 11.9822L13.5016 13.875L8.73323 15.7678C8.68644 15.7863 8.64633 15.8184 8.61807 15.8598C8.58981 15.9012 8.57471 15.95 8.57471 16C8.57471 16.05 8.58981 16.0988 8.61807 16.1402C8.64633 16.1816 8.68644 16.2137 8.73323 16.2322L13.5016 18.125L8.73323 20.0178C8.68644 20.0363 8.64633 20.0684 8.61807 20.1098C8.58981 20.1512 8.57471 20.2 8.57471 20.25C8.57471 20.3 8.58981 20.3488 8.61807 20.3902C8.64633 20.4316 8.68644 20.4637 8.73323 20.4822L16.2905 23.4822C16.3506 23.5059 16.4175 23.5059 16.4776 23.4822L24.0349 20.4822C24.0816 20.4637 24.1218 20.4316 24.15 20.3902C24.1783 20.3488 24.1934 20.3 24.1934 20.25C24.1934 20.2 24.1783 20.1512 24.15 20.1098C24.1218 20.0684 24.0816 20.0363 24.0349 20.0178L19.2665 18.125L24.0349 16.2322C24.0816 16.2136 24.1217 16.1816 24.1499 16.1402C24.1781 16.0988 24.1932 16.05 24.1932 16ZM9.50502 11.75L16.384 9.01937L23.2631 11.75L16.384 14.4806L9.50502 11.75ZM23.2631 20.25L16.384 22.9806L9.50502 20.25L14.1798 18.3944L16.2905 19.2322C16.3506 19.2559 16.4175 19.2559 16.4776 19.2322L18.5883 18.3944L23.2631 20.25ZM16.384 18.7306L9.50502 16L14.1798 14.1444L16.2905 14.9822C16.3506 15.0059 16.4175 15.0059 16.4776 14.9822L18.5883 14.1444L23.2631 16L16.384 18.7306Z" fill="#A931FF"/>
</g>
<defs>
<clipPath id="clip0">
<rect width="16.1222" height="16" fill="white" transform="translate(8.32373 8)"/>
</clipPath>
</defs>
</svg>
