<svg width="36" height="36" viewBox="0 0 36 36" fill="none" xmlns="http://www.w3.org/2000/svg">
<circle cx="18" cy="18" r="18" fill="#333533" fill-opacity="0.2"/>
<g clip-path="url(#clip0)">
<path d="M25.9252 25.4046V25.4039H25.9291V19.6276C25.9291 16.8018 25.3208 14.625 22.0172 14.625C20.4291 14.625 19.3633 15.4965 18.9282 16.3227H18.8823V14.8888H15.75V25.4039H19.0116V20.1972C19.0116 18.8263 19.2714 17.5007 20.9692 17.5007C22.6419 17.5007 22.6669 19.0652 22.6669 20.2852V25.4046H25.9252Z" fill="#333533" fill-opacity="0.6"/>
<path d="M10.3835 15.3599H13.649V25.875H10.3835V15.3599Z" fill="#333533" fill-opacity="0.6"/>
<path d="M12.0163 10.125C10.9722 10.125 10.125 10.9722 10.125 12.0163C10.125 13.0604 10.9722 13.9253 12.0163 13.9253C13.0604 13.9253 13.9076 13.0604 13.9076 12.0163C13.907 10.9722 13.0598 10.125 12.0163 10.125V10.125Z" fill="#333533" fill-opacity="0.6"/>
</g>
<defs>
<clipPath id="clip0">
<path d="M10.125 10.125H21.875C24.0841 10.125 25.875 11.9159 25.875 14.125V21.875C25.875 24.0841 24.0841 25.875 21.875 25.875H10.125V10.125Z" fill="white"/>
</clipPath>
</defs>
</svg>
