<svg width="36" height="36" viewBox="0 0 36 36" fill="none" xmlns="http://www.w3.org/2000/svg">
<circle cx="18" cy="18" r="18" fill="#333533" fill-opacity="0.2"/>
<g clip-path="url(#clip0)">
<path d="M25.875 13.1165C25.2893 13.3734 24.6652 13.5437 24.0145 13.6264C24.6839 13.2268 25.1948 12.5987 25.435 11.8417C24.8109 12.2138 24.1218 12.4767 23.3875 12.6233C22.7949 11.9924 21.9503 11.6016 21.0289 11.6016C19.2413 11.6016 17.8021 13.0525 17.8021 14.8313C17.8021 15.0872 17.8238 15.3333 17.877 15.5676C15.1926 15.4367 12.8173 14.1501 11.2216 12.1902C10.943 12.6735 10.7796 13.2268 10.7796 13.8223C10.7796 14.9406 11.3555 15.9318 12.2138 16.5057C11.6951 16.4959 11.1862 16.3453 10.755 16.108C10.755 16.1179 10.755 16.1307 10.755 16.1435C10.755 17.7126 11.8742 19.0159 13.3419 19.3161C13.0791 19.388 12.7927 19.4224 12.4954 19.4224C12.2887 19.4224 12.08 19.4106 11.8841 19.3673C12.3024 20.646 13.4896 21.5861 14.9012 21.6166C13.8026 22.476 12.4078 22.9937 10.8977 22.9937C10.6329 22.9937 10.379 22.9819 10.125 22.9494C11.5553 23.8718 13.2504 24.3984 15.0784 24.3984C21.0201 24.3984 24.2685 19.4766 24.2685 15.2103C24.2685 15.0675 24.2636 14.9297 24.2567 14.7929C24.8975 14.3381 25.436 13.7701 25.875 13.1165Z" fill="#333533" fill-opacity="0.6"/>
</g>
<defs>
<clipPath id="clip0">
<path d="M10.125 10.125H21.875C24.0841 10.125 25.875 11.9159 25.875 14.125V21.875C25.875 24.0841 24.0841 25.875 21.875 25.875H10.125V10.125Z" fill="white"/>
</clipPath>
</defs>
</svg>
