<svg width="433" height="340" viewBox="0 0 433 340" fill="none" xmlns="http://www.w3.org/2000/svg">
<path d="M286.55 203.909L260.494 208.327L258.78 255.232L251.923 285.143L262.894 289.901L273.522 260.331L277.293 234.159L280.036 260.331L280.379 293.3L297.178 292.28L293.161 227.718C292.645 219.413 290.393 211.306 286.55 203.909V203.909Z" fill="#95A5C6"/>
<path d="M282.611 295.849C282.611 295.849 280.211 293.13 280.211 294.15C280.211 295.169 278.84 305.026 278.84 305.026C278.84 305.026 288.097 307.745 288.097 309.445C288.097 311.144 301.467 313.863 301.125 310.464C300.782 307.066 289.125 294.15 289.125 294.15C289.125 294.15 284.325 293.47 282.611 295.849Z" fill="#2F2E41"/>
<path d="M255.256 288.413C255.256 288.413 254.525 284.873 254.017 285.76C253.509 286.646 247.403 294.543 247.403 294.543C247.403 294.543 254.095 301.442 253.247 302.92C252.4 304.397 262.668 313.312 264.065 310.19C265.461 307.067 261.766 290.127 261.766 290.127C261.766 290.127 257.932 287.184 255.256 288.413Z" fill="#2F2E41"/>
<path d="M254.729 166.44L273.71 168.239L280.037 151.146L261.866 146.807L254.729 166.44Z" fill="#2F2E41"/>
<path d="M270.268 162.952C275.569 162.952 279.867 158.691 279.867 153.435C279.867 148.179 275.569 143.918 270.268 143.918C264.966 143.918 260.668 148.179 260.668 153.435C260.668 158.691 264.966 162.952 270.268 162.952Z" fill="#C4C4C4"/>
<path d="M264.779 159.213C264.779 159.213 264.779 165.671 259.637 168.39C254.494 171.11 271.979 174.169 271.979 174.169L273.693 168.39C273.693 168.39 268.551 166.011 273.007 160.573L264.779 159.213Z" fill="#C4C4C4"/>
<path d="M273.01 166.691C273.01 166.691 266.731 170.546 261.471 167.089L259.296 166.691L252.782 168.05L249.697 179.606L261.353 208.497C261.353 208.497 281.581 211.896 285.695 204.418L283.295 173.828L276.781 166.011L273.01 166.691Z" fill="#0F2256"/>
<path d="M276.095 167.031L287.408 151.396L286.38 149.696L271.638 142.218V137.46L294.608 143.578L296.162 146.02L282.609 175.188L276.095 167.031Z" fill="#0F2256"/>
<path d="M253.466 168.39L252.781 168.05L235.639 167.37L248.667 156.154L244.553 151.055L225.011 165.67V169.069L252.781 180.626L253.466 168.39Z" fill="#0F2256"/>
<path d="M244.383 152.585L246.783 151.226C246.783 151.226 251.925 144.428 253.982 147.147C256.039 149.866 249.183 154.964 249.183 154.964L245.411 156.324L244.383 152.585Z" fill="#C4C4C4"/>
<path d="M272.666 138.48L268.895 136.44C268.895 136.44 257.581 137.46 258.952 139.839C260.324 142.219 268.209 140.179 268.209 140.179L272.666 141.539V138.48Z" fill="#C4C4C4"/>
<path d="M262.898 144.249C262.898 144.249 258.492 145.706 258.268 151.456C258.245 152.376 258.348 153.295 258.574 154.187C258.822 155.23 258.981 157.473 257.058 160.404C255.771 162.34 254.595 164.346 253.535 166.412L253.521 166.44L258.361 167.04L259.39 159.087C259.889 155.231 260.958 151.469 262.562 147.922L262.596 147.848C262.596 147.848 264.713 151.746 268.948 151.746L267.435 150.247C267.435 150.247 274.09 152.946 276.509 152.946C276.509 152.946 278.324 154.145 276.509 155.944C274.695 157.744 271.065 161.942 273.182 165.24C275.3 168.539 273.485 169.438 273.485 169.438L276.812 167.639L278.324 166.74V167.939L286.189 167.04C286.189 167.04 288.306 166.74 283.769 161.642C283.769 161.642 282.571 159.662 283.095 157.955C283.526 156.657 283.639 155.277 283.425 153.927C282.409 148.305 278.421 137.129 262.898 144.249Z" fill="#2F2E41"/>
<path d="M259.292 140.416C259.311 140.424 259.33 140.432 259.348 140.442L254.985 146.215L254.495 145.749L258.975 139.821C258.915 139.951 258.849 140.083 258.783 140.209L259.292 140.416Z" fill="#0F2256"/>
<path d="M119.502 143.665C116.124 135.698 107.523 134.193 107.523 134.193C107.523 134.193 99.2423 131.985 92.3265 142.5C85.8805 152.301 77.5679 161.484 88.1099 165.396L90.8946 159.551L91.2286 166.278C92.7616 166.597 94.3109 166.832 95.8695 166.982C107.563 168.169 118.585 170.143 118.789 165.92C119.061 160.305 122.753 151.331 119.502 143.665Z" fill="#2F2E41"/>
<path d="M83.8287 207.469L83.0763 226.645C83.0763 226.645 75.1759 242.06 81.5714 241.685C87.967 241.309 87.2145 226.645 87.2145 226.645L89.4718 208.597L83.8287 207.469Z" fill="#C4C4C4"/>
<path d="M127.094 204.085L129.351 223.261C129.351 223.261 136.123 233.412 130.856 236.796C125.589 240.18 125.589 224.765 125.589 224.765L119.946 205.213L127.094 204.085Z" fill="#C4C4C4"/>
<path d="M119.193 239.804L112.421 266.123C112.421 266.123 109.411 276.651 105.273 281.915L103.768 284.923L97.749 284.171L101.887 267.251L104.521 236.044L119.193 239.804Z" fill="#C4C4C4"/>
<path opacity="0.1" d="M119.193 239.804L112.421 266.123C112.421 266.123 109.411 276.651 105.273 281.915L103.768 284.923L97.749 284.171L101.887 267.251L104.521 236.044L119.193 239.804Z" fill="black"/>
<path d="M96.2611 279.974L106.55 282.354L102.309 292.345C102.309 292.345 104.033 298.325 102.391 301.492C100.749 304.66 100.986 310.406 100.986 310.406L98.7565 310.055C98.7565 310.055 93.3428 320.241 86.9462 317.331C80.5496 314.421 87.3532 307.499 87.3532 307.499C87.3532 307.499 92.8839 296.57 93.5863 292.113C94.2887 287.656 96.2611 279.974 96.2611 279.974Z" fill="#2F2E41"/>
<path opacity="0.1" d="M96.2611 279.974L106.55 282.354L102.309 292.345C102.309 292.345 104.033 298.325 102.391 301.492C100.749 304.66 100.986 310.406 100.986 310.406L98.7565 310.055C98.7565 310.055 93.3428 320.241 86.9462 317.331C80.5496 314.421 87.3532 307.499 87.3532 307.499C87.3532 307.499 92.8839 296.57 93.5863 292.113C94.2887 287.656 96.2611 279.974 96.2611 279.974Z" fill="#2F2E41"/>
<path d="M87.5908 234.165L93.2339 262.364C93.2339 262.364 91.3529 276.276 93.6101 284.923L95.8674 293.195H103.392V262.74C103.392 262.74 103.768 237.924 102.639 236.045C101.51 234.165 87.5908 234.165 87.5908 234.165Z" fill="#C4C4C4"/>
<path d="M104.898 290.187L94.3643 290.939L96.9977 301.467C96.9977 301.467 94.3643 307.107 95.4929 310.491C96.6215 313.875 95.4929 319.514 95.4929 319.514H97.7501C97.7501 319.514 101.512 330.418 108.284 328.538C115.056 326.658 109.413 318.762 109.413 318.762C109.413 318.762 105.65 307.107 105.65 302.595C105.65 298.083 104.898 290.187 104.898 290.187Z" fill="#2F2E41"/>
<path d="M107.53 160.094C113.14 160.094 117.687 155.549 117.687 149.942C117.687 144.336 113.14 139.791 107.53 139.791C101.92 139.791 97.3721 144.336 97.3721 149.942C97.3721 155.549 101.92 160.094 107.53 160.094Z" fill="#C4C4C4"/>
<path d="M100.572 153.89C100.572 153.89 101.324 166.674 99.0669 167.426C96.8097 168.178 110.729 167.426 110.729 167.426C110.729 167.426 108.848 159.53 110.729 157.274C112.61 155.018 100.572 153.89 100.572 153.89Z" fill="#C4C4C4"/>
<path d="M110.917 165.358C110.917 165.358 101.135 164.606 99.2544 165.358C97.3733 166.11 92.1064 169.87 92.1064 169.87L94.7399 193.558L116.184 198.069L119.57 193.182L122.955 186.038L121.451 177.014L121.074 171.75L110.917 165.358Z" fill="#65779A"/>
<path d="M90.2246 171.374C90.2246 171.374 85.3339 172.502 84.9577 176.262C84.5815 180.022 84.5815 189.422 84.9577 190.926C85.3339 192.43 84.9577 193.182 84.5815 193.558C84.2053 193.934 83.4529 193.182 84.2053 194.31C84.9577 195.438 84.9577 195.438 84.5815 196.565C84.2053 197.693 83.0767 196.189 83.8291 198.069C84.5815 199.949 84.9577 200.325 84.5815 200.701C84.2053 201.077 83.0767 209.725 83.0767 209.725L89.4722 210.853L95.8677 188.67L90.2246 171.374Z" fill="#65779A"/>
<path d="M119.569 171.374C120.283 171.414 120.974 171.644 121.57 172.041C122.165 172.437 122.643 172.986 122.955 173.63C124.083 175.886 127.093 190.55 126.717 191.678C126.341 192.806 125.588 191.302 126.341 193.558C127.093 195.813 126.341 195.438 126.717 196.941C127.093 198.445 125.212 196.941 126.717 198.445C128.222 199.949 128.974 200.325 128.222 201.077C127.469 201.829 126.341 200.325 127.469 201.829C128.598 203.333 128.598 205.589 128.598 205.589L119.569 207.469L116.936 186.414L119.569 171.374Z" fill="#65779A"/>
<path d="M89.0461 170.776L90.8943 169.852C91.0811 169.759 91.2846 169.704 91.4931 169.689C91.7015 169.675 91.9107 169.702 92.1087 169.769C92.3066 169.836 92.4893 169.941 92.6462 170.079C92.8031 170.217 92.9312 170.385 93.023 170.572L101.51 187.918L110.915 193.933L117.687 190.925C117.687 190.925 122.578 183.406 121.073 179.646C120.052 177.096 118.857 173.174 118.193 170.913C118.154 170.78 118.157 170.638 118.202 170.506C118.247 170.375 118.331 170.261 118.442 170.179C118.554 170.097 118.689 170.051 118.828 170.048C118.966 170.045 119.103 170.085 119.218 170.162L120.5 171.017C120.911 171.29 121.197 171.714 121.297 172.197L124.082 185.662L120.32 193.557V201.077L122.954 241.684C122.954 241.684 113.172 240.18 103.391 238.3C93.6096 236.42 81.1948 234.916 81.1948 234.916C81.1948 234.916 87.5903 201.829 92.8572 196.189C92.8572 196.189 92.8572 192.053 93.6096 191.677C94.362 191.301 95.1145 188.67 95.1145 188.67L88.3 172.814C88.1407 172.444 88.1292 172.026 88.2679 171.647C88.4066 171.268 88.685 170.956 89.0461 170.776Z" fill="#2F2E41"/>
<path d="M117.592 140.77L108.973 136.258L97.0705 138.104L94.6079 148.974L100.738 148.739L102.451 144.745V148.673L105.279 148.564L106.921 142.206L107.947 148.974L118.003 148.769L117.592 140.77Z" fill="#2F2E41"/>
<path d="M337.188 184.124C337.379 183.95 337.613 183.831 337.865 183.779C338.118 183.727 338.38 183.743 338.624 183.828C338.867 183.912 339.084 184.06 339.251 184.257C339.418 184.454 339.529 184.693 339.572 184.947L340.096 187.996C340.096 187.996 342.463 200.191 340.436 207.937C338.409 215.684 336.971 225.888 331.493 226.975C326.806 227.905 308.984 226.432 303.938 225.987C303.575 225.955 303.237 225.786 302.994 225.514C302.751 225.241 302.62 224.886 302.628 224.521L302.723 220.071C302.73 219.721 302.865 219.385 303.101 219.126C303.338 218.868 303.66 218.705 304.008 218.668L324.413 216.487C324.732 216.453 325.03 216.314 325.26 216.091C325.491 215.867 325.64 215.573 325.685 215.255C326.17 211.775 327.739 200.987 329.298 195.315C330.558 190.731 334.696 186.404 337.188 184.124Z" fill="#0F2256"/>
<path d="M323.929 314.185V323.516L329.165 324.682L332.657 322.933L332.269 315.545L323.929 314.185Z" fill="#C4C4C4"/>
<path d="M354.863 314.185V323.516L360.1 324.682L363.591 322.933L363.203 315.545L354.863 314.185Z" fill="#C4C4C4"/>
<path d="M334.402 238.367C334.402 238.367 327.42 252.558 327.614 263.639C327.731 270.328 327.407 277.017 326.644 283.663L323.153 316.906L334.402 317.489L339.638 281.719L349.723 254.113L353.602 286.968L354.571 320.017H364.268C364.268 320.017 368.729 288.717 366.208 281.719C366.208 281.719 372.026 242.449 367.371 240.505C362.717 238.561 334.402 238.367 334.402 238.367Z" fill="#95A5C6"/>
<path d="M327.418 320.989C327.418 320.989 325.479 313.796 322.764 317.489C320.049 321.183 312.291 327.404 312.291 327.404C312.291 327.404 300.655 333.625 311.322 335.18C321.988 336.735 323.152 333.236 323.152 333.236C323.152 333.236 324.897 332.264 326.449 332.847C328 333.431 334.788 333.236 335.176 330.903C335.564 328.57 333.043 315.74 332.267 318.073C331.491 320.405 327.418 320.989 327.418 320.989Z" fill="#2F2E41"/>
<path d="M363.104 320.794C363.104 320.794 363.104 318.656 359.419 318.461C355.734 318.267 355.152 320.794 355.152 320.794C355.152 320.794 354.183 321.766 353.989 324.682C353.795 327.598 353.989 335.18 353.989 335.18C353.989 335.18 352.243 341.012 360.195 339.846C368.146 338.679 365.237 332.653 365.237 332.653L363.104 320.794Z" fill="#2F2E41"/>
<path d="M348.947 165.854L347.977 176.741L346.231 180.823L350.886 187.433L362.328 176.741C362.328 176.741 360.195 170.909 361.553 167.604L348.947 165.854Z" fill="#C4C4C4"/>
<path d="M374.934 184.517L374.845 185.476L371.443 221.843C371.443 221.843 371.309 223.534 371.061 225.789C370.642 229.603 369.898 235.029 368.922 236.618C367.371 239.145 368.534 241.283 368.534 241.283C359.613 246.532 333.237 238.95 333.237 238.95L339.249 214.844C339.249 214.844 333.819 189.766 334.401 187.433C334.983 185.1 347.201 176.741 347.201 176.741L347.562 177.713C352.769 184.712 358.061 178.685 359.613 177.324L362.716 174.603L374.934 184.517Z" fill="#0F2256"/>
<path d="M355.543 171.103C361.005 171.103 365.434 166.664 365.434 161.188C365.434 155.712 361.005 151.273 355.543 151.273C350.08 151.273 345.652 155.712 345.652 161.188C345.652 166.664 350.08 171.103 355.543 171.103Z" fill="#C4C4C4"/>
<path opacity="0.2" d="M374.459 185.864L371.057 222.231C371.057 222.231 370.924 223.923 370.675 226.178C363.455 227.908 343.518 229.23 343.518 229.23L342.548 222.231L364.657 216.205C364.657 216.205 361.942 201.041 365.045 194.82C365.805 193.307 366.485 191.754 367.081 190.169C367.625 188.707 368.657 187.479 370.002 186.694C371.348 185.91 372.922 185.616 374.459 185.864V185.864Z" fill="black"/>
<path d="M344.68 221.26C344.68 221.26 329.359 218.149 331.299 224.759C333.238 231.369 346.038 227.092 346.038 227.092L344.68 221.26Z" fill="#C4C4C4"/>
<path d="M368.921 183.545L374.933 184.517C374.933 184.517 379.2 196.181 378.424 204.152C377.649 212.122 377.843 222.426 372.606 224.37C367.37 226.314 343.903 227.869 343.903 227.869L342.934 220.871L365.043 214.844C365.043 214.844 362.327 199.68 365.43 193.46C368.533 187.239 368.921 183.545 368.921 183.545Z" fill="#0F2256"/>
<path d="M347.109 151.525L345.207 150.762C345.207 150.762 349.182 146.376 354.713 146.757L353.157 145.041C353.157 145.041 356.959 143.515 360.416 147.52C362.233 149.626 364.335 152.1 365.646 154.888H367.682L366.832 156.764L369.806 158.639L366.753 158.302C366.935 159.329 366.963 160.378 366.836 161.413C366.705 162.449 366.178 163.393 365.366 164.046C365.366 164.046 363.008 159.154 363.008 158.391V160.299C363.008 160.299 361.107 158.582 361.107 157.438L360.07 158.773H353.157L354.194 157.056L350.219 157.629L351.775 155.531L345.62 164.194C345.62 164.194 342.097 154.386 347.109 151.525Z" fill="#2F2E41"/>
<path d="M190.871 142.873H213.245L210.591 166.404L190.871 165.914V142.873Z" fill="#2F2E41"/>
<path d="M184.395 195.939C177.677 198.341 181.996 222.353 181.996 222.353L187.754 250.207L193.033 288.146L201.67 286.706L198.791 256.93L197.351 220.432L209.828 252.128L218.945 287.186L227.583 285.265L225.663 272.779C225.184 264.134 218.945 246.365 218.945 246.365L211.747 196.42L184.395 195.939Z" fill="#95A5C6"/>
<path d="M225.626 282.613C225.626 282.613 228.869 295.112 228.785 296.55L228.783 296.593C228.734 297.246 228.478 297.866 228.052 298.363C227.626 298.859 227.052 299.206 226.414 299.352C225.036 299.678 223.216 300.12 222.241 300.396C221.318 300.658 216.804 302.142 213.505 300.989C210.207 299.836 220.486 293.889 220.486 293.889L219.526 282.2L225.626 282.613Z" fill="#2F2E41"/>
<path d="M200.595 286.016C200.595 286.016 201.427 298.486 201.07 299.882C200.714 301.278 199.903 300.575 199.903 300.575C199.903 300.575 195.515 300.724 193.752 300.872C192.795 300.953 188.081 301.545 185.064 299.783C182.047 298.021 193.752 293.669 193.752 293.669L194.561 282.492L200.595 286.016Z" fill="#2F2E41"/>
<path d="M201.668 156.079C206.704 156.079 210.786 151.994 210.786 146.955C210.786 141.915 206.704 137.83 201.668 137.83C196.633 137.83 192.551 141.915 192.551 146.955C192.551 151.994 196.633 156.079 201.668 156.079Z" fill="#C4C4C4"/>
<path d="M198.791 153.197L200.71 166.644L208.867 162.802L206.948 152.237L198.791 153.197Z" fill="#C4C4C4"/>
<path d="M201.19 161.362L199.585 158.758L197.831 160.882L190.153 163.283L188.234 174.809C187.754 177.69 189.194 182.973 189.194 182.973C189.194 182.973 183.915 193.538 184.395 197.38C184.875 201.222 209.348 199.781 209.348 199.781L216.546 161.362L210.308 159.441L208.388 157.04L202.63 159.921L201.67 163.763L201.19 161.362Z" fill="#65779A"/>
<path d="M212.291 140.034C212.291 139.661 212.218 139.292 212.075 138.948C211.933 138.603 211.724 138.291 211.461 138.027C211.197 137.764 210.885 137.554 210.541 137.412C210.197 137.269 209.828 137.196 209.455 137.196H195.783C194.831 137.196 193.917 137.574 193.244 138.248C192.571 138.922 192.193 139.836 192.193 140.788V146.304C198.743 142.984 205.469 143.568 212.291 146.304V140.034Z" fill="#2F2E41"/>
<path d="M181.022 230.579C177.716 228.641 174.361 226.569 172.065 223.499C169.668 220.293 168.724 215.561 171.093 212.334C173.083 209.623 176.938 208.745 180.184 209.619C183.429 210.494 186.108 212.828 188.169 215.485C187.55 212.265 191 209.251 194.257 209.613C197.514 209.974 200.065 212.891 200.862 216.072C201.658 219.254 201.011 222.622 200.001 225.742C198.301 230.974 195.612 235.828 192.078 240.042C191.575 239.076 190.96 238.171 190.247 237.348C187.737 234.45 184.328 232.516 181.022 230.579Z" fill="#6C63FF"/>
<path d="M202.148 198.821L193.99 206.985C193.99 206.985 186.792 216.59 190.151 218.511C193.51 220.432 197.829 209.386 197.829 209.386L207.906 202.183L202.148 198.821Z" fill="#C4C4C4"/>
<path d="M182.956 199.301L182.476 204.103C182.476 204.103 186.315 211.787 183.436 214.189C180.557 216.59 178.157 204.584 178.157 204.584L179.117 198.821L182.956 199.301Z" fill="#C4C4C4"/>
<path d="M209.725 188.583L209.817 188.478L209.84 188.34L212.235 174.439L215.538 162.635L216.64 161.9C216.695 161.916 216.762 161.938 216.838 161.966C217.088 162.058 217.437 162.219 217.814 162.489C218.562 163.023 219.45 164.005 219.9 165.805C220.123 166.7 220.245 168.445 220.252 170.661C220.259 172.859 220.155 175.471 219.946 178.07C219.737 180.67 219.424 183.248 219.016 185.378C218.812 186.443 218.586 187.388 218.34 188.165C218.091 188.951 217.833 189.53 217.578 189.886C216.374 191.574 214.09 194.941 212.112 197.881C211.122 199.353 210.207 200.719 209.539 201.717C209.206 202.216 208.934 202.623 208.745 202.906L208.692 202.986L200.56 199.132L209.725 188.583Z" fill="#65779A" stroke="#0F2256"/>
<path d="M190.628 180.438L186.806 190.479L183.099 200.217L177.493 199.816C177.608 199.58 177.75 199.288 177.909 198.955C178.353 198.029 178.94 196.778 179.513 195.481C180.085 194.186 180.646 192.836 181.035 191.714C181.229 191.154 181.385 190.638 181.476 190.209C181.522 189.994 181.554 189.79 181.565 189.607C181.575 189.432 181.569 189.236 181.509 189.058C181.51 189.06 181.51 189.059 181.509 189.055C181.507 189.037 181.499 188.964 181.509 188.804C181.52 188.625 181.55 188.388 181.599 188.094C181.696 187.507 181.863 186.733 182.083 185.822C182.523 184.002 183.166 181.669 183.855 179.269C184.544 176.871 185.278 174.412 185.9 172.342C186.041 171.871 186.177 171.421 186.305 170.995C186.74 169.55 187.088 168.395 187.274 167.743C187.726 166.161 188.511 165.158 189.171 164.552C189.502 164.248 189.804 164.043 190.018 163.916C190.091 163.872 190.154 163.838 190.205 163.812L193.418 164.616L190.628 180.438ZM190.34 163.747L190.34 163.747L190.34 163.747Z" fill="#65779A" stroke="#0F2256"/>
<path d="M213.766 161.274C211.616 162.319 209.117 162.376 206.742 162.115C206.022 162.105 205.311 161.955 204.649 161.671C206.542 160.573 207.565 158.426 208.169 156.321C208.482 155.226 208.712 154.109 208.856 152.979C208.979 152.005 209.185 151.044 209.473 150.106C209.834 148.94 209.94 147.71 209.782 146.5C209.625 145.29 209.208 144.128 208.561 143.094C207.913 142.059 207.05 141.177 206.031 140.508C205.011 139.838 203.859 139.396 202.653 139.213C201.448 139.03 200.217 139.109 199.045 139.446C197.872 139.783 196.787 140.369 195.862 141.165C194.937 141.96 194.194 142.946 193.685 144.055C193.176 145.164 192.912 146.37 192.911 147.59C192.98 149.253 193.503 150.864 194.423 152.249C195.083 153.257 195.966 154.099 197.003 154.71C198.04 155.322 199.203 155.687 200.404 155.777C200.737 155.787 201.054 155.924 201.291 156.158C202.089 156.96 200.695 158.574 200.881 159.69C201.115 161.102 201.313 162.685 200.477 163.846C200.011 164.418 199.42 164.874 198.749 165.178C196.15 166.548 193.261 167.277 190.324 167.301C192.009 165.877 193.142 163.908 193.529 161.735C193.898 159.603 193.495 157.41 192.391 155.55C192.534 157.7 192.26 159.857 191.585 161.903C191.231 163.185 190.535 164.346 189.571 165.262C188.565 166.12 187.258 166.541 186.071 165.96C187.301 165.313 188.264 164.252 188.79 162.964C189.307 161.682 189.561 160.309 189.538 158.927C189.625 157.694 189.574 156.454 189.385 155.232C188.801 157.49 187.462 159.48 185.589 160.868C185.091 161.272 184.505 161.552 183.877 161.684C183.577 161.744 183.266 161.722 182.977 161.621C182.688 161.519 182.431 161.341 182.235 161.106C183.198 160.737 184.039 160.105 184.662 159.283C185.286 158.462 185.667 157.482 185.764 156.454C185.85 155.367 185.615 154.22 186.043 153.217C186.487 152.174 187.532 151.548 188.436 150.866C189.341 150.184 190.434 149.112 190.206 148.002C189.505 144.587 190.063 140.721 192.482 138.212C192.939 137.753 193.43 137.328 193.95 136.94C194.825 136.22 195.804 135.637 196.854 135.21C197.913 134.784 199.089 134.746 200.174 135.104C200.264 134.523 200.419 134.546 200.893 134.356C201.508 134.113 202.164 133.992 202.826 134C207.404 134.043 211.75 136.74 214.251 140.574C214.578 141.038 214.827 141.553 214.986 142.098C215.083 142.537 215.121 142.987 215.1 143.436C215.058 145.631 214.526 147.802 214.59 149.997C214.654 152.191 215.549 154.563 217.471 155.62C217.625 158.007 215.916 160.23 213.766 161.274Z" fill="#2F2E41"/>
<path d="M210.164 149.72C210.719 149.72 211.169 148.999 211.169 148.11C211.169 147.221 210.719 146.5 210.164 146.5C209.608 146.5 209.158 147.221 209.158 148.11C209.158 148.999 209.608 149.72 210.164 149.72Z" fill="#C4C4C4"/>
<path d="M15.4254 236.983C15.4254 236.983 12.8775 267.619 12.3304 274.184C11.9553 278.299 11.0355 282.346 9.59509 286.219C8.94037 287.59 8.56827 289.078 8.50097 290.596V318.496C8.50097 318.496 6.31271 318.496 6.85977 320.684C7.40683 322.872 7.9539 326.702 7.9539 326.702H16.1598C16.1598 326.702 15.6128 325.061 17.254 324.514C18.8952 323.967 17.254 319.59 17.254 319.59L26.007 286.766L39.1365 259.413C39.1365 259.413 46.7954 284.031 48.4365 286.766C48.4365 286.766 54.4542 317.402 55.5484 320.137C56.6425 322.872 57.1895 322.872 56.6425 323.967C56.0954 325.061 56.0954 326.155 56.6425 326.702C57.1895 327.249 67.5837 326.702 67.5837 326.702L64.8484 287.86L59.9249 241.36L34.76 233.701L15.4254 236.983Z" fill="#95A5C6"/>
<path d="M13.9716 322.325C13.9716 322.325 11.2363 312.478 6.85976 320.137C2.48326 327.796 2.48326 330.531 2.48326 330.531C2.48326 330.531 -4.62856 340.926 5.21857 339.831C15.0657 338.737 12.8775 333.814 12.8775 333.814C12.8775 333.814 16.7069 331.626 16.7069 329.984C16.7069 328.343 13.9716 322.325 13.9716 322.325Z" fill="#0F2256"/>
<path d="M58.2841 321.232C58.2841 321.232 61.0195 311.385 65.396 319.043C69.7725 326.702 69.7725 329.438 69.7725 329.438C69.7725 329.438 76.8843 339.832 67.0372 338.738C57.19 337.644 59.3783 332.72 59.3783 332.72C59.3783 332.72 55.5488 330.532 55.5488 328.891C55.5488 327.249 58.2841 321.232 58.2841 321.232Z" fill="#2F2E41"/>
<path d="M56.9513 180.22L44.8056 172.638C44.8056 172.638 37.895 180.721 30.4186 171.709L17.5979 175.214L19.5413 209.257C19.5413 209.257 16.6263 222.774 17.5979 225.278C18.5696 227.781 15.1687 228.782 16.1404 229.283C17.1121 229.783 16.1404 233.288 16.1404 233.288C16.1404 233.288 35.0883 243.3 55.9796 235.791L54.0362 229.283C54.3007 228.432 54.3503 227.526 54.1803 226.65C54.0103 225.774 53.6262 224.957 53.0645 224.276C53.0645 224.276 55.0079 221.272 52.5787 218.769C52.5787 218.769 53.5504 214.264 51.1212 212.261L50.6353 205.252L52.0929 201.748L56.9513 180.22Z" fill="#65779A"/>
<path d="M32.5704 163.13C32.5704 163.13 33.6645 170.242 30.3822 171.883C27.0998 173.525 37.494 179.542 40.2293 179.542C42.9646 179.542 47.8882 174.072 47.8882 174.072C47.8882 174.072 45.1529 165.866 45.6999 164.224L32.5704 163.13Z" fill="#C4C4C4"/>
<path d="M38.5884 168.601C44.9332 168.601 50.0767 163.458 50.0767 157.113C50.0767 150.768 44.9332 145.625 38.5884 145.625C32.2436 145.625 27.1001 150.768 27.1001 157.113C27.1001 163.458 32.2436 168.601 38.5884 168.601Z" fill="#C4C4C4"/>
<path d="M32.7095 151.778C32.7095 151.778 31.3398 154.742 36.8184 153.557C36.8184 153.557 38.8728 154.742 38.8728 152.964C38.8728 152.964 41.6121 155.928 42.2969 154.15C42.9817 152.371 44.3514 154.742 44.3514 154.742L45.721 151.778L47.0907 153.557H51.8844C51.8844 153.557 53.2541 141.7 36.8184 142.886C20.3827 144.072 28.4682 162.857 28.4682 162.857C28.4682 162.857 28.6005 159.485 29.9702 161.263C31.3398 163.042 32.7095 151.778 32.7095 151.778Z" fill="#2F2E41"/>
<path d="M65.9433 202.519L66.4903 214.007C66.4903 214.007 68.6786 235.342 64.3021 244.642V249.566C64.3021 249.566 63.2079 262.148 57.7373 261.601C52.2667 261.054 59.3785 243.548 59.3785 243.548L58.2844 219.478L57.1903 205.801L65.9433 202.519Z" fill="#C4C4C4"/>
<path d="M55.0022 181.184L60.4594 180.297C64.3906 184.074 67.0684 188.966 68.1317 194.313C69.7729 203.066 70.32 204.707 70.32 204.707L57.1904 207.99L50.0786 194.313L55.0022 181.184Z" fill="#CFCCE0"/>
<path d="M8.50035 195.954C8.50035 195.954 3.57677 216.742 9.59448 216.742C15.6122 216.742 29.8358 193.219 29.8358 193.219C29.8358 193.219 44.6065 185.56 38.5888 182.824C32.5711 180.089 24.9122 187.201 24.9122 187.201L16.075 199.47L15.6122 193.219L8.50035 195.954Z" fill="#C4C4C4"/>
<path d="M6.92869 198.238C7.00418 197.903 7.11013 197.431 7.23792 196.858C7.50307 195.669 7.86235 194.044 8.23877 192.299C8.9898 188.817 9.81476 184.831 10.0913 182.896C10.2109 182.059 10.6676 181.182 11.3342 180.318C11.997 179.459 12.84 178.647 13.679 177.942C14.5163 177.239 15.3387 176.651 15.9525 176.239C16.2279 176.055 16.4606 175.905 16.6328 175.798L19.487 178.652L19.2196 194.432L16.1818 198.988L6.92869 198.238Z" fill="#65779A" stroke="#0F2256"/>
<path d="M38.3654 181.202C37.9166 181.202 37.4864 181.326 37.1691 181.547C36.8518 181.768 36.6733 182.067 36.6729 182.379V272.354C36.6733 272.666 36.8517 272.965 37.169 273.186C37.4864 273.407 37.9166 273.531 38.3654 273.531H333.541C333.99 273.531 334.42 273.407 334.738 273.186C335.055 272.965 335.233 272.666 335.234 272.354V182.379C335.233 182.067 335.055 181.768 334.738 181.547C334.42 181.326 333.99 181.202 333.541 181.202H38.3654Z" fill="#EBF4F9"/>
<path d="M293.595 198.952H78.3062C77.7682 198.952 77.2527 198.802 76.8727 198.537C76.4927 198.273 76.2793 197.913 76.2793 197.539C76.2793 197.165 76.4927 196.806 76.8727 196.541C77.2527 196.276 77.7682 196.127 78.3062 196.126H293.595C294.134 196.126 294.65 196.275 295.031 196.54C295.412 196.805 295.626 197.164 295.626 197.539C295.626 197.914 295.412 198.273 295.031 198.538C294.65 198.804 294.134 198.952 293.595 198.952Z" fill="#C9D3DC"/>
<path d="M293.595 210.258H78.3062C77.7682 210.257 77.2527 210.108 76.8727 209.843C76.4927 209.578 76.2793 209.219 76.2793 208.845C76.2793 208.471 76.4927 208.112 76.8727 207.847C77.2527 207.582 77.7682 207.432 78.3062 207.432H293.595C294.134 207.432 294.65 207.581 295.031 207.846C295.412 208.111 295.626 208.47 295.626 208.845C295.626 209.22 295.412 209.579 295.031 209.844C294.65 210.109 294.134 210.258 293.595 210.258Z" fill="#C9D3DC"/>
<path d="M293.595 221.564H78.3062C77.7682 221.563 77.2527 221.414 76.8727 221.149C76.4927 220.884 76.2793 220.525 76.2793 220.151C76.2793 219.776 76.4927 219.417 76.8727 219.152C77.2527 218.887 77.7682 218.738 78.3062 218.737H293.595C293.862 218.737 294.127 218.773 294.374 218.844C294.62 218.915 294.845 219.019 295.034 219.15C295.223 219.281 295.373 219.437 295.475 219.609C295.578 219.781 295.63 219.965 295.63 220.151C295.63 220.336 295.578 220.52 295.475 220.692C295.373 220.864 295.223 221.02 295.034 221.151C294.845 221.282 294.62 221.386 294.374 221.457C294.127 221.528 293.862 221.564 293.595 221.564Z" fill="#C9D3DC"/>
<path d="M293.595 232.784H78.3062C77.7682 232.783 77.2527 232.634 76.8727 232.369C76.4927 232.104 76.2793 231.745 76.2793 231.371C76.2793 230.996 76.4927 230.637 76.8727 230.372C77.2527 230.108 77.7682 229.958 78.3062 229.958H293.595C293.862 229.957 294.127 229.993 294.374 230.064C294.62 230.135 294.845 230.239 295.034 230.37C295.223 230.502 295.373 230.658 295.475 230.829C295.578 231.001 295.63 231.185 295.63 231.371C295.63 231.557 295.578 231.741 295.475 231.912C295.373 232.084 295.223 232.24 295.034 232.371C294.845 232.502 294.62 232.606 294.374 232.677C294.127 232.748 293.862 232.784 293.595 232.784Z" fill="#C9D3DC"/>
<path d="M293.596 244.09H78.3069C77.7682 244.09 77.2516 243.941 76.8708 243.676C76.4899 243.411 76.2759 243.051 76.2759 242.676C76.2759 242.302 76.4899 241.942 76.8708 241.677C77.2516 241.412 77.7682 241.263 78.3069 241.263H293.596C294.134 241.263 294.651 241.412 295.032 241.677C295.413 241.942 295.627 242.302 295.627 242.676C295.627 243.051 295.413 243.411 295.032 243.676C294.651 243.941 294.134 244.09 293.596 244.09Z" fill="#C9D3DC"/>
<path d="M238.948 253.497C238.794 253.497 238.647 253.54 238.538 253.615C238.429 253.691 238.368 253.794 238.368 253.901V264.598C238.368 264.705 238.429 264.808 238.538 264.883C238.647 264.959 238.794 265.001 238.948 265.002H292.727C292.881 265.001 293.028 264.959 293.137 264.883C293.246 264.808 293.307 264.705 293.307 264.598V253.901C293.307 253.794 293.246 253.691 293.137 253.615C293.028 253.54 292.881 253.497 292.727 253.497H238.948Z" fill="#C9D3DC"/>
<path d="M102.975 78.1766L110.676 73.7197L106.23 66.0002L98.5285 70.4571L102.975 78.1766Z" fill="#0F2256"/>
<path d="M277.975 72.1766L285.676 67.7197L281.23 60.0002L273.528 64.4571L277.975 72.1766Z" fill="#0F2256"/>
<path d="M411.975 91.1766L419.676 86.7197L415.23 79.0002L407.528 83.4571L411.975 91.1766Z" fill="#0F2256"/>
<path d="M163.975 15.1766L171.676 10.7197L167.23 3.00016L159.528 7.45705L163.975 15.1766Z" fill="#0F2256"/>
<path d="M45.9747 18.1766L53.6758 13.7197L49.2296 6.00016L41.5285 10.4571L45.9747 18.1766Z" fill="#0F2256"/>
<path d="M335.975 12.1766L343.676 7.71973L339.23 0.000158231L331.528 4.45705L335.975 12.1766Z" fill="#0F2256"/>
<path d="M74.4454 117.04L82.1465 112.583L77.7003 104.863L69.9992 109.32L74.4454 117.04Z" fill="#3F3D56"/>
<path d="M249.445 111.04L257.146 106.583L252.7 98.8634L244.999 103.32L249.445 111.04Z" fill="#3F3D56"/>
<path d="M383.445 130.04L391.146 125.583L386.7 117.863L378.999 122.32L383.445 130.04Z" fill="#3F3D56"/>
<path d="M135.445 54.0399L143.146 49.583L138.7 41.8634L130.999 46.3203L135.445 54.0399Z" fill="#3F3D56"/>
<path d="M17.4454 57.0399L25.1465 52.583L20.7003 44.8634L12.9992 49.3203L17.4454 57.0399Z" fill="#3F3D56"/>
<path d="M307.445 51.0399L315.146 46.583L310.7 38.8634L302.999 43.3203L307.445 51.0399Z" fill="#3F3D56"/>
<path d="M152.717 106.774L160.418 102.317L155.972 94.5978L148.271 99.0547L152.717 106.774Z" fill="#D0CDE1"/>
<path d="M327.717 100.774L335.418 96.3174L330.972 88.5978L323.271 93.0547L327.717 100.774Z" fill="#D0CDE1"/>
<path d="M424.445 172.177L432.146 167.72L427.7 160L419.999 164.457L424.445 172.177Z" fill="#D0CDE1"/>
<path d="M213.717 43.7743L221.418 39.3174L216.972 31.5978L209.271 36.0547L213.717 43.7743Z" fill="#D0CDE1"/>
<path d="M95.7169 46.7743L103.418 42.3174L98.9718 34.5978L91.2707 39.0547L95.7169 46.7743Z" fill="#D0CDE1"/>
<path d="M385.717 40.7743L393.418 36.3174L388.972 28.5978L381.271 33.0547L385.717 40.7743Z" fill="#D0CDE1"/>
</svg>
