<svg width="67" height="55" viewBox="0 0 67 55" fill="none" xmlns="http://www.w3.org/2000/svg">
<path d="M65.597 22.2043C62.0385 9.47802 53.2599 0.239746 44.7267 0.239746C44.0413 0.239746 43.3566 0.299404 42.6895 0.417365C42.3112 0.483803 41.9803 0.706168 41.7756 1.02887C41.5715 1.3536 41.5139 1.74816 41.6176 2.11696L43.3742 8.40009C43.5437 9.00685 44.1287 9.417 44.7368 9.38921L44.8765 9.38649C48.0411 9.38649 53.8246 14.1294 56.773 24.6706C56.8896 25.0889 57.0001 25.5167 57.1065 25.9628C53.7968 24.3249 49.8485 23.9459 46.273 24.9418C38.2069 27.1987 33.4817 35.5956 35.7365 43.6604C37.5642 50.195 43.5755 54.7602 50.3549 54.7602C51.7359 54.7602 53.1148 54.5697 54.4537 54.1948C59.7728 52.7081 63.772 48.292 65.715 41.7628C67.4688 35.8722 67.4247 28.7437 65.597 22.2043Z" fill="#00103C"/>
<path d="M9.5506 0.241699C8.86656 0.241699 8.18117 0.300001 7.51475 0.417963C7.13714 0.483045 6.80563 0.706765 6.60157 1.02946C6.39751 1.3542 6.33989 1.74876 6.44293 2.11756L8.20015 8.40069C8.36963 9.00745 8.94385 9.4176 9.56281 9.3898L9.70111 9.38709C12.8657 9.38709 18.6499 14.13 21.5982 24.6712C21.7155 25.0922 21.826 25.52 21.9318 25.9634C18.6207 24.3255 14.6738 23.9465 11.0983 24.9424C3.03358 27.1993 -1.69301 35.5962 0.56317 43.661C2.39089 50.1956 8.40217 54.7608 15.1816 54.7608C16.5625 54.7608 17.9415 54.5704 19.2811 54.1954C24.5995 52.7087 28.5986 48.2926 30.5423 41.7634C32.2954 35.8728 32.2521 28.7436 30.4237 22.2035C26.8631 9.47861 18.0859 0.241699 9.5506 0.241699Z" fill="#00103C"/>
</svg>
