<svg width="40" height="40" viewBox="0 0 40 40" fill="none" xmlns="http://www.w3.org/2000/svg">
<path d="M2.34375 0L4.82819 35.0079L20.0156 40L35.2029 35.0079L37.6874 0H2.34375Z" fill="#2D5E98"/>
<path d="M37.6877 0L35.2033 35.0079L20.0159 40V0H37.6877Z" fill="#2D5E98"/>
<path d="M31.055 10.625H13.6877L14.1095 16.4844H30.6332L29.6252 30.6717L20.0159 33.8828L10.4065 30.6717L10.0784 25.9375H14.7659L14.8596 27.2266L20.0159 28.9374L25.1721 27.2266L25.5939 21.1719H9.72687L8.64868 5.9375H31.3831L31.055 10.625Z" fill="#ECECF1"/>
<path d="M30.6332 16.4844L29.6253 30.6717L20.0159 33.8828V28.9374L25.1721 27.2266L25.5939 21.1719H20.0159V16.4844H30.6332Z" fill="#E2E2E7"/>
<path d="M31.3831 5.9375L31.055 10.625H20.0159V5.9375H31.3831Z" fill="#E2E2E7"/>
</svg>
