<svg width="40" height="40" viewBox="0 0 40 40" fill="none" xmlns="http://www.w3.org/2000/svg">
<path d="M40 20C40 27.3584 36.0261 33.7894 30.1061 37.262C29.9469 37.3559 29.7853 37.4473 29.6228 37.5363C26.7681 39.107 23.489 40 20 40C17.3013 40 14.7281 39.4653 12.3796 38.4963C12.0025 38.3412 11.631 38.1747 11.2662 37.9967C4.59672 34.7551 0 27.9143 0 20C0 8.9543 8.9543 0 20 0C31.0457 0 40 8.9543 40 20Z" fill="#F2F2F2"/>
<path d="M22.6269 0.359375C23.2197 2.62258 23.058 3.75422 19.9327 6.34078C16.8073 8.92734 16.3223 8.98117 16.3223 10.5977C16.3223 12.2143 18.7202 14.7739 19.8787 15.5014C19.8787 15.5014 19.6902 15.0434 19.2591 14.3429C18.828 13.6424 17.5078 12.4569 17.7502 10.6517C17.9927 8.84656 21.8052 6.54289 22.7886 4.80508C23.7719 3.06711 23.543 1.59875 22.6269 0.359375Z" fill="#274C80"/>
<path d="M26.076 6.07129C23.3817 6.96043 20.0408 8.36145 20.0408 11.0827C20.0408 13.8039 21.7651 13.292 21.7651 14.7469C21.7651 16.2018 20.822 16.6329 20.822 16.6329C20.822 16.6329 23.3008 15.6899 23.193 13.8039C23.0853 11.9179 21.6034 12.1873 21.6034 10.436C21.6034 8.21926 26.076 6.07129 26.076 6.07129Z" fill="#274C80"/>
<path d="M16.538 15.7169C13.8437 15.7169 11.9846 16.7138 11.9846 17.2795C11.9846 17.8453 15.2986 18.3842 18.882 18.1417C22.4655 17.8992 24.3515 17.6029 25.7795 16.7406C25.7795 16.7406 23.2468 17.3334 21.3069 17.3334C19.367 17.3334 13.823 17.6801 13.9515 16.8484C14.08 16.0167 17.2925 15.7168 17.2925 15.7168L16.538 15.7169Z" fill="#274C80"/>
<path d="M15.5407 18.8691C14.1127 19.3811 13.7354 19.893 14.5707 20.4319C15.406 20.9707 17.0495 21.1323 19.3127 21.1323C21.5759 21.1323 24.7283 20.3509 24.7283 20.3509L23.7045 19.5426C23.7045 19.5426 22.3034 20.0545 19.6361 20.0545C16.9687 20.0545 14.2879 20.122 15.5407 18.8691Z" fill="#274C80"/>
<path d="M16.1872 21.9141C14.7862 22.3991 14.4898 23.0456 15.7292 23.6384C16.9686 24.2311 19.3396 24.3388 21.0908 24.0964C22.8421 23.854 24.324 23.315 24.324 23.315C24.324 23.315 23.3675 22.9512 22.9229 22.5066C22.9229 22.5066 20.8752 22.9377 18.9353 22.9377C16.9954 22.9377 15.4329 22.6684 16.1872 21.9141Z" fill="#274C80"/>
<path d="M26.6412 15.8788C26.6412 15.8788 27.3147 14.9627 29.0122 15.6633C30.7096 16.3637 30.6557 18.2498 29.1199 19.3814C27.5842 20.513 25.7251 20.8902 25.7251 20.8902C25.7251 20.8902 29.1738 19.3814 29.093 17.5223C29.0122 15.6633 27.4224 15.7173 26.6412 15.8788Z" fill="#274C80"/>
<path d="M12.8466 25.6854C18.1546 26.6553 26.2375 25.6587 27.665 25.3088C29.0933 24.958 28.5703 24.1981 28.5703 24.1981C28.9195 24.4447 29.0747 24.7163 28.9316 25.0121C28.15 26.6287 20.7138 26.8978 18.5313 26.8978C16.3489 26.8978 9.72095 26.7636 9.72095 25.5779C9.72095 24.4067 12.8482 23.6824 14.0154 23.9517C11.82 24.5797 10.517 25.2595 12.8466 25.6854Z" fill="#274C80"/>
<path d="M13.4529 27.4168C13.4529 27.4168 15.3322 28.8515 24.6881 28.023C28.4265 27.7198 29.9824 26.7903 30.1845 25.7598C30.1845 25.7598 28.4669 26.7297 26.3451 27.1339C24.2234 27.5381 20.7275 28.1645 13.4529 27.4168Z" fill="#274C80"/>
<path d="M13.2718 29.4912H11.7184C11.7527 30.7949 11.787 31.9402 11.787 33.1304C11.787 34.0374 11.7527 35.1027 11.7527 36.168C11.7527 36.8717 11.5919 37.4651 11.2661 37.9966C11.631 38.1746 12.0024 38.3411 12.3795 38.4962C12.9379 37.8203 13.2555 36.9819 13.2375 35.9305C13.2146 35.0685 13.2146 33.9582 13.2146 33.1305C13.2146 31.8945 13.2375 30.6929 13.2718 29.4912Z" fill="#274C80"/>
<path d="M23.7315 31.6901L22.7903 34.4787C22.6205 34.9889 22.4956 35.4763 22.3822 35.9636H22.2801C22.2009 35.4649 22.0875 35.0118 21.8948 34.4787L21.5887 33.5832C21.3618 32.9489 21.1691 32.2795 20.9994 31.6338L19.4353 31.8264L21.6116 37.4714L22.734 37.3579L24.0598 33.9236C24.321 33.255 24.6605 32.4607 24.9781 31.7579L23.7315 31.6901Z" fill="#274C80"/>
<path d="M28.0988 31.6328C27.4645 31.6328 26.7388 31.7691 25.7755 32.3022L26.0245 33.1862L26.1151 33.2426C26.7388 32.7895 27.2947 32.574 27.7249 32.574C28.3028 32.574 28.7338 32.9593 28.7338 33.5723V34.0703C26.2514 34.445 25.6392 35.2156 25.6392 36.1111C25.6392 37.0523 26.3085 37.5617 27.0563 37.5617C27.6799 37.5617 28.2236 37.1878 28.7118 36.7797L28.8131 36.8026C28.9143 37.3119 29.2506 37.5046 29.6228 37.5356C29.7853 37.4466 29.9469 37.3552 30.1061 37.2613V33.4017C30.1061 32.2116 29.3918 31.6328 28.0988 31.6328ZM28.7339 36.0884C28.3266 36.4402 27.9862 36.6214 27.68 36.6214C27.2947 36.6214 26.9771 36.3724 26.9771 35.8843C26.9771 35.3627 27.3281 34.9773 28.7338 34.7733V36.0884H28.7339Z" fill="#274C80"/>
<path d="M16.7977 31.6338C16.1634 31.6338 15.4377 31.7693 14.4737 32.3024L14.7234 33.1864L14.8141 33.2436C15.4377 32.7896 15.9928 32.5742 16.4238 32.5742C17.0018 32.5742 17.4328 32.9595 17.4328 33.5718V34.0705C14.9504 34.4452 14.3381 35.2158 14.3381 36.1113C14.3381 37.0525 15.0067 37.5619 15.7552 37.5619C16.3781 37.5619 16.9226 37.188 17.4099 36.7799L17.512 36.8028C17.6254 37.3807 18.045 37.5514 18.4752 37.5399C18.5813 37.5399 18.6924 37.5268 18.8042 37.5032V33.4019C18.8042 32.2118 18.0899 31.6338 16.7977 31.6338ZM17.4328 36.0885C17.0247 36.4404 16.6842 36.6215 16.3781 36.6215C15.9928 36.6215 15.6752 36.3718 15.6752 35.8844C15.6752 35.3628 16.0271 34.9775 17.4328 34.7734V36.0885Z" fill="#274C80"/>
</svg>
