<svg width="40" height="40" viewBox="0 0 40 40" fill="none" xmlns="http://www.w3.org/2000/svg">
<path d="M20 10C8.785 10 0 14.3929 0 20C0 25.6071 8.785 30 20 30C31.215 30 40 25.6071 40 20C40 14.3929 31.215 10 20 10Z" fill="#303C42"/>
<path d="M20.0004 28.3337C15.2086 28.3337 10.7866 27.4409 7.48012 26.0155L8.15137 23.3337H11.0746C13.2783 23.3337 15.1908 21.8404 15.7263 19.7017L15.872 19.115C16.1218 18.1189 15.9021 17.0829 15.2706 16.2739C14.6382 15.4643 13.6877 15.0004 12.6607 15.0004H9.16699C8.78449 15.0004 8.45168 15.2607 8.35887 15.6318L5.94637 25.2819C3.28809 23.8325 1.66699 21.9844 1.66699 20.0004C1.66699 15.4829 10.063 11.667 20.0004 11.667C29.9377 11.667 38.3337 15.4829 38.3337 20.0004C38.3337 24.5178 29.9377 28.3337 20.0004 28.3337Z" fill="#82B1FF"/>
<path opacity="0.2" d="M2.50035 20.8337C2.50035 16.3163 10.8964 12.5004 20.8337 12.5004C27.7928 12.5004 33.9836 14.3747 37.0768 17.0479C34.3889 13.9387 27.6617 11.667 20.0004 11.667C10.063 11.667 1.66699 15.4829 1.66699 20.0003C1.66699 21.3302 2.40848 22.5954 3.68918 23.724C2.92527 22.8188 2.50035 21.8443 2.50035 20.8337Z" fill="white"/>
<path d="M8.56738 21.667L9.81738 16.667H12.66C13.1694 16.667 13.6422 16.8973 13.9555 17.2993C14.2696 17.7014 14.3787 18.2157 14.2542 18.7113L14.1085 19.298C13.7593 20.6929 12.5118 21.667 11.0738 21.667H8.56738Z" fill="#82B1FF"/>
<path d="M8.56738 21.667L9.81738 16.667H12.66C13.1694 16.667 13.6422 16.8973 13.9555 17.2993C14.2696 17.7014 14.3787 18.2157 14.2542 18.7113L14.1085 19.298C13.7593 20.6929 12.5118 21.667 11.0738 21.667H8.56738Z" fill="#82B1FF"/>
<path d="M31.8269 15H28.3332C27.9507 15 27.6179 15.2604 27.5251 15.6315L25.8625 22.2795C25.8592 22.2916 25.8568 22.303 25.8535 22.3145L25.0251 25.6315C24.9127 26.0774 25.1846 26.5299 25.6313 26.6414C25.6989 26.6585 25.7673 26.6666 25.834 26.6666C26.2075 26.6666 26.5469 26.4144 26.6413 26.0352L27.3175 23.3334H30.2407C32.4445 23.3334 34.357 21.84 34.8924 19.7013L35.0381 19.1146C35.288 18.1185 35.0682 17.0826 34.4367 16.2736C33.8045 15.4639 32.8539 15 31.8269 15ZM33.4212 18.7109L33.2755 19.2977C32.9263 20.6925 31.6788 21.6666 30.2408 21.6666H27.7343L28.9843 16.6666H31.8269C32.3363 16.6666 32.8092 16.897 33.1224 17.299C33.4367 17.701 33.5456 18.2153 33.4212 18.7109Z" fill="#303C42"/>
<path d="M24.492 16.0172C23.9655 15.3711 23.1859 15 22.3517 15H19.71L19.986 13.4822C20.0691 13.0297 19.7687 12.596 19.3155 12.5138C18.8655 12.4308 18.4284 12.7311 18.347 13.1843L16.6803 22.3511C16.5973 22.8036 16.8976 23.2373 17.3509 23.3195C17.4013 23.3293 17.4509 23.3333 17.5006 23.3333C17.8962 23.3333 18.2469 23.0518 18.3193 22.649L19.4069 16.6667H22.3517C22.6821 16.6667 22.9905 16.8132 23.1989 17.0695C23.4073 17.3258 23.4886 17.6579 23.4211 17.9818L22.5169 22.3308C22.4234 22.7808 22.713 23.2218 23.1639 23.3163C23.2209 23.3277 23.2778 23.3334 23.334 23.3334C23.7205 23.3334 24.0672 23.0633 24.1494 22.6693L25.0536 18.3204C25.2228 17.504 25.0177 16.6642 24.492 16.0172Z" fill="#303C42"/>
<path d="M20 10C8.785 10 0 14.3929 0 20C0 25.6071 8.785 30 20 30C31.215 30 40 25.6071 40 20C40 14.3929 31.215 10 20 10Z" fill="url(#paint0_linear)"/>
<defs>
<linearGradient id="paint0_linear" x1="3.11183" y1="12.1243" x2="36.8884" y2="27.8791" gradientUnits="userSpaceOnUse">
<stop stop-color="white" stop-opacity="0.2"/>
<stop offset="1" stop-color="white" stop-opacity="0"/>
</linearGradient>
</defs>
</svg>
