<svg width="40" height="40" viewBox="0 0 40 40" fill="none" xmlns="http://www.w3.org/2000/svg">
<path d="M40 20C40 22.0294 39.698 23.9886 39.1355 25.8343C39.1355 25.8351 39.1355 25.8351 39.1348 25.8359C38.4858 27.9657 37.4923 29.9445 36.2172 31.707V31.7077C34.3992 34.2212 32.0106 36.2955 29.2425 37.7404C28.427 38.1665 27.5788 38.538 26.7029 38.849C25.9927 39.102 25.2637 39.3151 24.5184 39.4873H24.5177C23.0653 39.8229 21.5543 40 20 40C16.7551 40 13.6914 39.2277 10.982 37.8563C8.44899 36.5747 6.22531 34.7698 4.45469 32.5837C2.84492 30.5984 1.60898 28.2987 0.851406 25.791C0.297969 23.9584 0 22.0139 0 20C0 8.9543 8.9543 0 20 0C31.0457 0 40 8.9543 40 20Z" fill="#264D6F"/>
<path d="M29.0721 8.73348V18.5997C29.0721 20.9221 27.1897 22.8046 24.8672 22.8046H14.7602C11.8386 22.8046 9.47044 25.1736 9.47044 28.0952V32.9409H6.16591C5.56755 32.9409 4.99286 32.8225 4.45489 32.5842C2.84513 30.5989 1.60919 28.2993 0.851611 25.7915C0.792002 25.1728 0.760986 24.5123 0.760986 23.8103C0.760986 17.6805 3.18138 14.6797 6.16591 14.6797H20.0557V13.256H10.8116V8.73356C10.8116 6.43723 14.8997 4.5752 19.9422 4.5752C24.9847 4.5752 29.0721 6.43715 29.0721 8.73348Z" fill="#3876AC"/>
<path d="M14.791 10.791C15.7189 10.791 16.4712 10.0387 16.4712 9.11082C16.4712 8.1829 15.7189 7.43066 14.791 7.43066C13.8631 7.43066 13.1108 8.1829 13.1108 9.11082C13.1108 10.0387 13.8631 10.791 14.791 10.791Z" fill="#F2F2F2"/>
<path d="M39.293 23.2829C39.293 24.2037 39.2383 25.0543 39.1354 25.8339C39.1354 25.8347 39.1354 25.8347 39.1346 25.8355C38.4856 27.9653 37.4922 29.9441 36.217 31.7066V31.7073C35.5117 32.1784 34.7223 32.4127 33.8889 32.4127H19.9991V33.8371H29.2424V37.74C28.4269 38.1661 27.5787 38.5376 26.7028 38.8486C25.9926 39.1016 25.2636 39.3147 24.5183 39.487H24.5176C23.0652 39.8225 21.5542 39.9996 19.9999 39.9996C16.755 39.9996 13.6913 39.2273 10.9819 37.8559V28.4935C10.9819 26.1711 12.8652 24.2878 15.1876 24.2878H25.2946C28.2162 24.2878 30.5844 21.9196 30.5844 18.998V14.1523H33.8888C36.8733 14.1523 39.293 17.091 39.293 23.2829Z" fill="#F7CD00"/>
<path d="M26.9437 37.9818C26.9437 38.2993 26.8555 38.5964 26.7029 38.8487C25.9926 39.1018 25.2637 39.3148 24.5184 39.4871H24.5176C23.9642 39.2128 23.5837 38.6414 23.5837 37.9818C23.5837 37.0536 24.3356 36.3018 25.2637 36.3018C26.1918 36.3018 26.9437 37.0536 26.9437 37.9818Z" fill="#F2F2F2"/>
</svg>
