<svg width="40" height="40" viewBox="0 0 40 40" fill="none" xmlns="http://www.w3.org/2000/svg">
<path d="M20.0172 16.667C18.1764 16.667 16.6838 18.1595 16.6838 20.0003C16.6838 21.8411 18.1764 23.3337 20.0172 23.3337C21.8583 23.3337 23.3505 21.8411 23.3505 20.0003C23.3486 18.1602 21.8573 16.6693 20.0172 16.667ZM20.0172 22.0003C18.9127 22.0003 18.0172 21.1048 18.0172 20.0003C18.0172 18.8958 18.9127 18.0003 20.0172 18.0003C21.122 18.0003 22.0172 18.8958 22.0172 20.0003C22.0172 21.1048 21.122 22.0003 20.0172 22.0003Z" fill="url(#paint0_linear)"/>
<path d="M31.6172 20C32.6191 19.153 33.5713 18.2487 34.4691 17.292C37.3203 14.208 38.3132 11.6859 37.3398 10C35.9398 7.57812 31.237 8.02734 25.8197 9.9528C24.7764 4.29883 22.8132 0 20.0169 0C17.221 0 15.2578 4.29883 14.2171 9.95345C8.79981 8.028 4.09506 7.57878 2.69695 10C1.72364 11.6859 2.71648 14.208 5.56772 17.292C6.46485 18.2487 7.41602 19.1527 8.417 20C7.41505 20.847 6.4629 21.7513 5.56511 22.708C2.71583 25.792 1.72299 28.3141 2.6963 30C3.36296 31.1559 4.78386 31.6579 6.67579 31.6579C9.2601 31.5313 11.807 30.987 14.2171 30.0459C15.2578 35.7012 17.221 40 20.0169 40C22.8132 40 24.7764 35.7012 25.8171 30.0466C28.2272 30.987 30.7738 31.5313 33.3578 31.6579C35.249 31.6579 36.6696 31.1553 37.3372 30C38.3106 28.3141 37.3177 25.792 34.4665 22.708C33.5693 21.7513 32.6182 20.8473 31.6172 20ZM36.1852 10.6667C36.8092 11.748 35.8018 13.8867 33.4906 16.3867C32.5752 17.3607 31.6025 18.2786 30.5772 19.1361C29.3464 18.1462 28.0059 17.1647 26.5671 16.2139C26.4626 14.526 26.2871 12.8633 26.0443 11.2806C31.417 9.35189 35.3343 9.19987 36.1829 10.6667H36.1852ZM22.6836 24.6188C21.7796 25.1396 20.891 25.6243 20.0169 26.0732C19.1442 25.6253 18.2552 25.1403 17.3503 24.6188C16.4577 24.1032 15.5964 23.5693 14.7572 23.028C14.7083 22.0508 14.6836 21.0413 14.6836 20C14.6836 18.9587 14.7083 17.9492 14.7572 16.972C15.5964 16.4307 16.4577 15.8968 17.3503 15.3812C18.2536 14.86 19.1426 14.3753 20.0169 13.9274C20.8903 14.3766 21.7809 14.8607 22.6836 15.3812C23.5765 15.8968 24.4378 16.4307 25.277 16.972C25.3259 17.9492 25.3503 18.9587 25.3503 20C25.3503 21.0413 25.3259 22.0508 25.277 23.028C24.4378 23.5693 23.5765 24.1032 22.6836 24.6188ZM25.1725 24.6781C25.0752 25.932 24.9404 27.1221 24.7725 28.2399C23.7204 27.8245 22.6218 27.346 21.4863 26.8027C22.113 26.4694 22.7357 26.1273 23.3483 25.7741C23.9609 25.4206 24.5765 25.0495 25.1725 24.6781ZM18.5459 26.8001C17.4124 27.3428 16.3119 27.8219 15.2598 28.2373C15.0938 27.1195 14.959 25.9294 14.8597 24.6755C15.4557 25.0466 16.0632 25.4118 16.6816 25.7715C17.2966 26.1273 17.919 26.4668 18.5459 26.8001ZM13.3884 22.1152C12.3737 21.4206 11.4157 20.7155 10.5137 20C11.4134 19.2858 12.3714 18.5798 13.3884 17.8822C13.3643 18.5885 13.3503 19.2959 13.3503 20C13.3503 20.7041 13.3643 21.4115 13.3884 22.1178V22.1152ZM14.8617 15.3193C14.959 14.0661 15.0938 12.8766 15.2617 11.7594C16.3125 12.1742 17.4098 12.6533 18.5436 13.1953C17.918 13.5277 17.2985 13.8704 16.6859 14.2233C16.0645 14.5833 15.4564 14.9495 14.8617 15.3219V15.3193ZM21.4899 13.1999C22.6231 12.6572 23.723 12.1787 24.7744 11.7633C24.9404 12.8812 25.0752 14.0713 25.1745 15.3252C24.5772 14.9515 23.9691 14.585 23.3503 14.2259C22.7383 13.8727 22.1165 13.5332 21.4899 13.1999ZM26.6458 17.8854C27.6605 18.5794 28.6185 19.2845 29.5205 20C28.6208 20.7139 27.6628 21.4199 26.6458 22.1178C26.6696 21.4115 26.6836 20.7041 26.6836 20C26.6836 19.2959 26.6696 18.5885 26.6458 17.8822V17.8854ZM20.0169 1.33333C21.7139 1.33333 23.5397 4.80469 24.5537 10.4232C23.0619 11.0039 21.5332 11.6839 20.0205 12.4382C18.5046 11.6839 16.9749 11.0039 15.487 10.4232C16.4945 4.80534 18.3203 1.33333 20.0169 1.33333ZM6.54591 16.3867C4.23438 13.8867 3.22722 11.748 3.85125 10.6667C4.22787 10.0146 5.20769 9.68197 6.65105 9.68197C9.1683 9.81445 11.6475 10.3548 13.9919 11.2819C13.749 12.862 13.5739 14.5241 13.4691 16.2113C12.0303 17.1621 10.6898 18.1445 9.45899 19.1335C8.43393 18.277 7.46095 17.3597 6.54591 16.3867ZM3.85125 29.3333C3.22722 28.252 4.23438 26.1133 6.54591 23.6133C7.46095 22.6393 8.4336 21.7214 9.45899 20.8639C10.6898 21.8538 12.0303 22.8353 13.4691 23.7861C13.5739 25.474 13.749 27.1367 13.9919 28.7194C8.6172 30.6481 4.69988 30.8001 3.85125 29.3333ZM20.0169 38.6667C18.3203 38.6667 16.4951 35.1953 15.4837 29.5775C16.9749 28.9967 18.5046 28.3167 20.0205 27.5628C21.5365 28.3167 23.0658 28.9967 24.557 29.5775C23.5391 35.1953 21.7139 38.6667 20.0169 38.6667ZM36.1829 29.3333C35.335 30.8001 31.415 30.6481 26.0423 28.7174C26.2852 27.1367 26.4603 25.474 26.5651 23.7839C28.0039 22.8333 29.3444 21.8506 30.5752 20.862C31.6006 21.7191 32.5732 22.6374 33.4883 23.6113C35.7998 26.1133 36.807 28.252 36.1829 29.3333Z" fill="url(#paint1_linear)"/>
<defs>
<linearGradient id="paint0_linear" x1="20.0173" y1="39.703" x2="20.0173" y2="-2.18368" gradientUnits="userSpaceOnUse">
<stop stop-color="#006DF0"/>
<stop offset="1" stop-color="#00E7F0"/>
</linearGradient>
<linearGradient id="paint1_linear" x1="20.0171" y1="39.7027" x2="20.0171" y2="-2.184" gradientUnits="userSpaceOnUse">
<stop stop-color="#006DF0"/>
<stop offset="1" stop-color="#00E7F0"/>
</linearGradient>
</defs>
</svg>
