<svg width="40" height="40" viewBox="0 0 40 40" fill="none" xmlns="http://www.w3.org/2000/svg">
<path d="M27.0315 14.0048L32.3049 13.0667L35.1086 10.1227C35.0189 9.93591 34.8904 9.76898 34.7128 9.65027L20.6503 0.197449C20.4534 0.065918 20.227 0 20.0002 0L18.8284 7.10968L20.0002 10.2545L22.4416 12.9691L27.0315 14.0048Z" fill="#FF0059"/>
<path d="M12.9692 14.0052L9.74658 10.7233L4.89215 10.123C4.81738 10.279 4.76611 10.4478 4.76611 10.6257V29.3754C4.76611 29.5536 4.81738 29.7224 4.89215 29.8783L10.3325 29.1801L12.9692 25.9962L14.5317 19.61L12.9692 14.0052Z" fill="#FF0059"/>
<path d="M27.0315 25.9961L22.9299 26.7389L20.0002 29.7461L18.8284 34.6292L20.0002 40.0003C20.227 40.0003 20.4534 39.935 20.6503 39.8035L34.7128 30.3503C34.8904 30.2319 35.0189 30.065 35.1086 29.8782L31.719 26.6412L27.0315 25.9961Z" fill="#FF0059"/>
<path d="M19.9996 10.2545V0C19.7732 0 19.5464 0.065918 19.3499 0.197449L5.28741 9.65027C5.1098 9.76898 4.98132 9.93591 4.8916 10.1227L12.9687 14.0048L19.9996 10.2545Z" fill="#FF5E95"/>
<path d="M27.0308 25.9962L35.1078 29.8783C35.1826 29.7224 35.2339 29.5536 35.2339 29.3754V10.6257C35.2339 10.4478 35.1826 10.279 35.1078 10.123L27.0308 14.0052V25.9962Z" fill="#2D5E98"/>
<path d="M12.9687 25.9961L4.8916 29.8782C4.98132 30.065 5.1098 30.2319 5.28741 30.3506L19.3499 39.8035C19.5468 39.935 19.7732 40.0003 19.9996 40.0003V29.7461L12.9687 25.9961Z" fill="#FF5E95"/>
<path d="M27.0312 14V25.9998L19.9999 29.7498L12.969 25.9998V14L19.9999 10.25L27.0312 14Z" fill="#FFA2C3"/>
<path d="M27.031 14V25.9998L19.9998 29.7498V10.25L27.031 14Z" fill="#FF5E95"/>
</svg>
