<svg width="180" height="35" viewBox="0 0 180 35" fill="none" xmlns="http://www.w3.org/2000/svg">
<g clip-path="url(#clip0)">
<path fill-rule="evenodd" clip-rule="evenodd" d="M8.40906 3.79785C7.10824 5.33217 6.92335 6.83439 7.7283 8.39987L10.0199 11.4053L5.62347 13.0331C3.58026 13.3465 2.58948 14.7855 2.65111 17.2905C2.58948 19.6075 3.14603 22.0804 4.19939 24.7081C5.22099 26.3991 6.30422 27.2121 7.35664 27.2121L12.093 25.8033V31.0946C11.9697 32.4099 12.403 33.3484 13.4554 33.9754C15.1279 35.0395 17.8519 35.539 21.7525 35.539C24.7864 35.2897 26.2722 33.6619 26.3347 30.5952V28.0911L30.8236 29.8426C32.3719 30.344 33.6718 30.0938 34.7242 29.1543C37.0149 27.2754 38.4389 24.2398 38.9348 19.9814C39.0581 18.4178 38.254 17.3518 36.4583 16.9137L33.1143 15.5361L36.1483 11.7801L37.0149 9.65189C37.0149 8.96356 36.6432 8.02409 35.9624 6.83439C34.7868 5.0187 32.8052 3.29743 30.1419 1.48173C28.1613 0.417619 26.5822 0.730144 25.4056 2.4212L23.1765 5.0187L20.0183 0.792463C18.9659 -0.522806 17.4177 -0.835335 15.437 -0.271648C12.5272 0.793408 10.2048 2.10773 8.40906 3.79785ZM14.5704 8.77567L13.8271 7.52365C16.6136 5.33217 19.7093 4.67501 22.9907 5.39543L21.5666 7.14787L20.6991 9.27609L19.8325 7.89945C19.3376 7.08555 18.4084 6.89765 16.9844 7.33576L14.5704 8.77567ZM13.1463 14.9734L11.9072 15.3492C10.978 15.6627 10.5139 16.5389 10.5139 17.9788C10.6381 19.294 10.8239 20.107 11.0396 20.4828L9.64638 21.0455C8.19148 18.4178 8.40813 15.2859 10.2039 11.5932L11.7213 13.9093L13.1463 14.9734ZM18.4084 13.4079C19.8325 12.2182 20.6375 10.9662 20.8849 9.65094C21.194 12.5931 23.4856 14.4088 27.6645 15.1603C25.1572 17.0384 24.3205 19.667 25.2496 22.9547C22.5565 21.2948 19.7083 21.2948 16.7985 22.9547C17.6025 19.041 16.6127 16.4123 13.8262 14.9715C15.3744 15.098 16.8611 14.5976 18.4084 13.4079ZM31.0094 14.7855L28.4087 14.5976L29.7712 12.6884C29.7712 11.5932 28.9046 10.2779 27.2022 8.77567L28.038 7.52365C29.4621 8.7124 30.4529 9.77746 31.0104 10.716L32.992 15.5361L31.0094 14.7855ZM30.8236 20.2949L32.2477 21.0455C31.0711 24.4588 29.0895 26.7126 26.3347 27.9023V25.9601C26.3964 24.6467 26.1489 23.8319 25.5606 23.4561L27.2013 24.0207C27.8513 24.2398 28.532 23.9584 29.2753 23.2701C30.0803 22.7054 30.5761 21.7036 30.8236 20.2949ZM14.8795 24.896C15.437 24.6467 15.9945 24.1453 16.4894 23.4561V25.4918C16.242 26.9638 17.7277 27.7144 20.8859 27.7144V29.1543C18.1619 29.4659 15.3128 28.2762 12.2788 25.5862L14.8795 24.896Z" fill="#95A5C6"/>
<path fill-rule="evenodd" clip-rule="evenodd" d="M64.6921 16.4132C66.9212 14.8477 68.0362 13.0321 68.0362 10.9038C68.0362 7.08455 65.8688 5.20654 61.5349 5.20654H52.5879L50.3589 29.1542H60.884C65.6213 29.1542 68.1594 26.7749 68.4078 22.0803C68.4078 20.1702 67.8503 18.7293 66.7979 17.7908L64.6921 16.4132ZM57.1693 8.96256H60.6982C62.3389 8.90024 63.1439 9.71414 63.1439 11.4043C63.0206 14.2217 61.2865 15.4114 58.0358 14.9724L57.7258 18.7284H60.0174C62.2773 18.6661 63.4539 19.5432 63.4539 21.358C63.4539 23.9253 62.2773 25.2084 60.0174 25.2717H55.8068L57.1693 8.96256ZM84.5368 16.9137C84.7843 13.9715 83.4227 12.0935 80.512 11.4043C78.283 10.9661 75.5273 11.4043 72.2458 12.8442V16.4123C73.9183 15.4728 75.7131 14.9091 77.6639 14.7845C79.2121 14.7845 79.9545 15.4728 79.9545 16.9127L79.6454 22.39C79.397 24.6457 78.4072 25.8014 76.6423 25.8014C75.0949 25.8014 74.3516 25.0819 74.3516 23.642C74.3516 21.6705 75.6524 20.6697 78.2223 20.6697L78.593 17.1006C72.9891 17.1006 70.141 19.3544 70.141 23.8299C70.141 27.8371 72.1842 29.6518 76.3322 29.3403H79.0879C81.627 29.7774 83.1744 28.5877 83.6702 25.8014L84.5368 16.9137ZM102.09 16.4132C102.648 13.0944 101.409 11.4043 98.3742 11.4043L88.9323 11.5922L87.1991 29.1533H91.7188L93.1429 15.5361H95.4028C96.7036 15.4738 97.3218 16.0374 97.3218 17.1016L96.0835 29.1533H100.852L102.09 16.4132ZM114.505 11.4043C112.276 10.9661 109.583 11.4043 106.301 12.8442V16.4123C107.91 15.4728 109.706 14.9091 111.719 14.7845C113.205 14.7845 113.948 15.4728 114.009 16.9127L113.453 22.39C113.204 24.6457 112.276 25.8014 110.697 25.8014C109.026 25.8014 108.22 25.0819 108.22 23.642C108.22 21.6705 109.583 20.6697 112.214 20.6697L112.4 17.1006C106.92 17.1006 104.197 19.3544 104.197 23.8299C104.197 27.8371 106.24 29.6518 110.324 29.3403H112.956C115.619 29.7774 117.229 28.5877 117.661 25.8014L118.406 16.9118C118.717 13.9715 117.416 12.0935 114.505 11.4043ZM138.932 11.4043L122.06 11.5922L120.697 29.1533H125.279L126.641 15.6607L128.528 15.5351C129.581 15.4728 130.139 15.9109 130.139 16.7248L129.087 28.7766V28.9645H133.668L134.72 15.5351L137.011 15.3472C137.941 15.2849 138.312 15.6607 138.249 16.4113L137.197 28.9635H141.902L143.141 15.3463C143.142 12.594 141.718 11.2796 138.932 11.4043ZM152.4 14.7854C153.946 14.7854 154.69 15.4738 154.69 16.9137C154.69 19.0419 153.328 20.106 150.665 20.106L150.293 23.4551C155.557 24.1443 158.343 21.9538 158.59 16.9137C158.776 13.0944 156.795 11.2164 152.584 11.2164C147.816 11.2164 145.031 14.1585 144.349 20.106C143.576 26.2726 145.96 29.3412 151.718 29.3412C153.823 29.2156 155.495 28.7766 156.672 28.0892L156.982 24.5503C155.558 25.4908 154.071 25.9591 152.4 25.9591C149.986 25.9591 148.807 24.3322 148.931 21.1701C149.365 16.9137 150.541 14.7854 152.4 14.7854ZM172.616 11.7801L169.24 16.4132L167.849 13.9092C167.043 12.4693 166.115 11.781 165.062 11.781H161.533L166.115 20.2958L159.088 29.1552H163.824L168.219 23.8327L170.14 27.4009C170.789 28.5906 171.718 29.1542 172.802 29.1542H176.457L171.193 19.7935L177.354 11.781H172.616V11.7801Z" fill="#95A5C6"/>
</g>
<defs>
<clipPath id="clip0">
<rect width="180" height="35" fill="white"/>
</clipPath>
</defs>
</svg>
