<svg width="129" height="37" viewBox="0 0 129 37" fill="none" xmlns="http://www.w3.org/2000/svg">
<g clip-path="url(#clip0)">
<path fill-rule="evenodd" clip-rule="evenodd" d="M101.708 26.9633H105.613L110.074 20.1421L118.835 35.5551H127.105L114.791 13.4273L121.589 3.5166H117.734L113.219 10.6651L109.465 3.5166H101.35L108.4 17.0555L101.708 26.9633Z" fill="#95A5C6"/>
<path fill-rule="evenodd" clip-rule="evenodd" d="M87.9019 15.4366C87.9019 11.8891 88.4447 6.38255 91.2522 6.38255C94.8962 6.38255 95.0441 12.1013 95.0441 15.7016C95.0441 18.1902 94.6506 24.492 91.6952 24.492C87.9515 24.492 87.9019 17.9258 87.9019 15.4366ZM80.0698 15.4902C80.0698 22.3735 84.9466 27.5186 91.2522 27.5186C97.6059 27.5186 102.779 22.8508 102.779 15.7545C102.779 8.87112 97.7043 3.15234 91.2026 3.15234C84.6013 3.15234 80.0698 8.28881 80.0698 15.4902Z" fill="#95A5C6"/>
<path fill-rule="evenodd" clip-rule="evenodd" d="M70.7752 27.3192H77.8558V4.44192H85.888V0.211426H62.7437V4.44192H70.7752V27.3192Z" fill="#95A5C6"/>
<path fill-rule="evenodd" clip-rule="evenodd" d="M52.8613 24.2695V6.99241H54.2185C58.6636 6.99241 61.7856 10.1462 61.7856 15.5427C61.7856 21.7466 58.1209 24.2695 54.0485 24.2695H52.8613ZM46.5156 27.3189H56.1868C66.9776 27.3189 68.4365 18.5914 68.4365 16.1036C68.4365 8.21848 61.9556 3.94297 55.2706 3.94297H46.5156V27.3189ZM38.5382 24.0116C36.4937 24.0116 36.0219 23.5914 36.0219 21.5444V17.3454H43.6225V14.0373H36.0226V10.2576C36.0226 8.31565 36.7038 7.52828 38.644 7.52828H44.463V4.2209H33.978C30.5187 4.2209 28.5264 6.0057 28.5264 9.57529V22.7512C28.5264 26.2679 30.6231 27.3189 33.8208 27.3189H44.882V24.0116H38.5382ZM3.0297 27.3189H6.26146V9.63959L13.0502 23.6793H13.7449L19.2246 9.72105V27.3189H25.6875V4.96611C25.6875 2.15245 23.9381 0.779921 22.0816 0.644883C20.4433 0.525563 18.7207 1.3708 18.0428 3.04057L14.8331 11.4537L10.6396 2.93268C9.79773 1.2772 8.56164 0.59844 7.26064 0.607014C5.09297 0.620589 2.88448 2.24748 3.0297 4.63602V27.3189ZM2.01514 33.6958C2.02317 35.0369 3.0886 35.7049 4.00345 35.7049C5.17663 35.7049 6.00046 34.7882 6.00046 33.6243C6.00046 32.106 4.80252 31.7416 4.17009 31.528C3.82878 31.4122 3.37972 31.2436 3.37972 30.7285C3.37972 30.3727 3.57915 30.0347 4.03691 30.0347C4.48597 30.0347 4.67737 30.3905 4.67737 30.7199H5.85055C5.80906 29.8125 5.24288 28.8544 4.0697 28.8544C2.86306 28.8544 2.23933 29.8575 2.23933 30.7199C2.23933 32.0431 3.27933 32.399 3.96196 32.6469C4.32803 32.7812 4.86008 33.0291 4.86008 33.695C4.86008 34.1666 4.52746 34.521 4.02821 34.521C3.59588 34.521 3.22981 34.2095 3.20438 33.695H2.01514V33.6958ZM15.1985 30.8535C14.6825 29.5917 13.6177 28.8551 12.3442 28.8551C10.1638 28.8551 9.1238 30.7921 9.1238 32.2575C9.1238 33.7672 10.1725 35.7056 12.3275 35.7056C13.6666 35.7056 14.6571 34.9132 15.165 33.7586H13.8419C13.4591 34.2916 12.9097 34.5217 12.3609 34.5217C11.179 34.5217 10.2642 33.4921 10.2642 32.2568C10.2642 31.1014 11.1215 30.0354 12.3529 30.0354C13.085 30.0354 13.593 30.4363 13.9008 30.8535H15.1985ZM18.6043 35.5434H19.744V28.9708H18.6043V35.5434ZM23.5586 35.5434H26.8613V34.3631H24.6984V32.8519H26.7703V31.6709H24.6984V30.1519H26.8613V28.9708H23.5586V35.5434ZM30.5341 35.5434H31.6738V31.1022L34.4197 35.5434H35.5594V28.9708H34.4197V33.4114L31.6738 28.9708H30.5341V35.5434ZM39.9564 35.5434H41.0961V30.1519H42.2358V28.9708H38.8166V30.1519H39.9564V35.5434ZM45.5097 35.5434H46.6494V28.9708H45.5097V35.5434ZM50.4627 35.5434H51.6025V32.8519H53.4998V31.6709H51.6025V30.1519H53.5914V28.9708H50.4627V35.5434ZM57.1311 35.5434H58.2708V28.9708H57.1311V35.5434ZM67.8429 30.8535C67.3269 29.5917 66.2628 28.8551 64.9879 28.8551C62.8089 28.8551 61.7682 30.7921 61.7682 32.2575C61.7682 33.7672 62.8169 35.7056 64.9725 35.7056C66.3124 35.7056 67.3015 34.9132 67.8101 33.7586H66.4857C66.1029 34.2916 65.5534 34.5217 65.0047 34.5217C63.8235 34.5217 62.9079 33.4921 62.9079 32.2568C62.9079 31.1014 63.7652 30.0354 64.9966 30.0354C65.7288 30.0354 66.2361 30.4363 66.5439 30.8535H67.8429ZM71.2661 35.5449H71.756V35.6956C71.756 36.0164 71.5405 36.1936 71.2815 36.1936V36.7895C71.5732 36.7795 71.8724 36.6637 72.0725 36.4687C72.3891 36.1572 72.3717 35.7585 72.3717 35.4991V34.3631H71.2661V35.5449ZM80.9125 35.5434H82.0529V28.9708H80.9125V35.5434ZM85.8669 35.5434H87.0066V31.1022L89.7525 35.5434H90.8922V28.9708H89.7525V33.4114L87.0066 28.9708H85.8669V35.5434ZM100.43 30.8535C99.9149 29.5917 98.8501 28.8551 97.5766 28.8551C95.3962 28.8551 94.3562 30.7921 94.3562 32.2575C94.3562 33.7672 95.4042 35.7056 97.5598 35.7056C98.8997 35.7056 99.8901 34.9132 100.397 33.7586H99.0743C98.6915 34.2916 98.1421 34.5217 97.5933 34.5217C96.4114 34.5217 95.4966 33.4921 95.4966 32.2568C95.4966 31.1014 96.3525 30.0354 97.5839 30.0354C98.3174 30.0354 98.8247 30.4363 99.1312 30.8535H100.43ZM103.854 35.5434H104.961V34.3631H103.854V35.5434Z" fill="#95A5C6"/>
</g>
<defs>
<clipPath id="clip0">
<rect width="129" height="37" fill="white"/>
</clipPath>
</defs>
</svg>
