<svg width="230" height="38" viewBox="0 0 230 38" fill="none" xmlns="http://www.w3.org/2000/svg">
<g clip-path="url(#clip0)">
<path fill-rule="evenodd" clip-rule="evenodd" d="M224.063 3.44894V0.829616H224.916L225.38 2.57502L225.843 0.829616H226.62V3.44894H226.153V1.38575L225.613 3.44894H225.148L224.606 1.38575V3.44894H224.063ZM222.437 3.44894V1.3063H221.663V0.829616H223.754V1.3063H222.979V3.44894H222.437ZM193.932 0.829616L214.769 24.4745V0.829616H218.563V35.8208H214.769L190.135 8.44682V35.8208H186.34V0.829616H193.932ZM111.98 0.829616C116.55 0.829616 122.36 4.55876 122.514 10.1922C122.67 15.6668 118.643 18.7616 112.833 19.633L123.367 35.8208H115.002L103.383 17.4916H107.489C112.213 17.4916 115.079 14.1585 115.002 10.4293C115.002 6.06582 112.135 3.05049 106.249 3.05049H101.37V35.8208H93.3148V0.829616H111.98ZM128.71 0.829616H136.845V35.822H128.71V0.829616ZM161.631 0.354153C172.785 0.354153 181.848 8.52748 181.848 18.6846C181.848 28.6803 172.784 36.9331 161.631 36.9331C150.478 36.9331 141.415 28.6803 141.415 18.6846C141.415 8.52626 150.477 0.354153 161.631 0.354153ZM67.83 0.354153C78.9842 0.354153 88.0467 8.52748 88.0467 18.6846C88.0467 28.6803 78.9842 36.9331 67.83 36.9331C56.6758 36.9331 47.5358 28.6803 47.5358 18.6846C47.5358 8.52626 56.6758 0.354153 67.83 0.354153ZM36.6918 32.2506H29.3332C28.4812 32.2506 27.7844 32.8067 27.7844 33.4423C27.7844 34.1561 28.7139 34.5521 29.3332 34.5521H34.2135C30.9596 37.0113 26.9312 38.5196 22.5951 38.5196C11.9826 38.5196 3.38428 29.7107 3.38428 18.9999C3.38428 8.28914 11.9826 -0.518555 22.5951 -0.518555C26.5565 -0.51473 30.4219 0.731178 33.6717 3.05171H20.6573C19.8054 3.05171 19.1085 3.60784 19.1085 4.2422C19.1085 5.03545 20.038 5.35324 20.6573 5.35324H36.3815C37.3886 6.46428 38.3181 7.65478 39.0925 8.9235H23.6773C22.8254 8.9235 22.2061 9.40018 22.2061 10.0345C22.2061 10.9072 23.1356 11.225 23.6773 11.225H40.2547C40.7189 12.3361 41.1067 13.5266 41.4169 14.7965H25.9242C25.0722 14.7965 24.3754 15.272 24.3754 15.9063C24.3754 16.6996 25.3049 17.0968 25.9242 17.0968H41.726C41.8023 17.7312 41.8799 18.3668 41.8799 19.0011C41.8799 19.4778 41.8799 20.0339 41.8023 20.5082H27.6281C26.7761 20.5082 26.0793 21.0643 26.0793 21.6975C26.0793 22.4919 27.0088 22.8097 27.6281 22.8097H41.4933C41.2612 24.0373 40.8978 25.235 40.4099 26.3812H28.8678C28.0159 26.3812 27.319 26.9349 27.319 27.491C27.319 28.3625 28.2486 28.6803 28.8678 28.6803H39.3252C38.5604 29.9536 37.6786 31.1491 36.6918 32.2506Z" fill="#95A5C6"/>
</g>
<defs>
<clipPath id="clip0">
<rect width="230" height="38" fill="white"/>
</clipPath>
</defs>
</svg>
