<svg width="114" height="63" viewBox="0 0 114 63" fill="none" xmlns="http://www.w3.org/2000/svg">
<path d="M25.0435 24.6263C23.0045 24.8591 21.1705 23.3801 20.9384 21.3242C20.7079 19.2666 22.1724 17.4112 24.2097 17.1784C26.2453 16.9473 28.0843 18.4246 28.3116 20.4806C28.5453 22.538 27.0792 24.3952 25.0435 24.6263ZM39.1801 14.6682C36.7089 13.8552 35.3598 11.1705 36.1617 8.6766C36.9699 6.18105 39.6266 4.81683 42.0992 5.63145C44.567 6.44446 45.921 9.12754 45.1144 11.6248C44.3078 14.1202 41.6528 15.4828 39.1801 14.6682ZM55.5573 9.93237C53.3055 7.7099 53.2638 4.06346 55.4645 1.78942C57.6651 -0.483129 61.2757 -0.525034 63.529 1.69893C65.7792 3.9214 65.8192 7.56784 63.6186 9.84027C61.4164 12.1144 57.8058 12.1565 55.5573 9.93237ZM71.5134 10.907C70.1786 7.42393 71.891 3.50753 75.3417 2.16115C78.7873 0.811556 82.6668 2.54256 84.0016 6.02575C85.3363 9.50733 83.6239 13.4252 80.175 14.7716C76.7229 16.1197 72.8498 14.3886 71.5134 10.907ZM87.284 17.6374C87.284 13.157 90.8818 9.52357 95.3214 9.52357C99.7577 9.52357 103.354 13.1571 103.354 17.6374C103.354 22.1162 99.7577 25.7529 95.3214 25.7529C90.8817 25.7528 87.284 22.1162 87.284 17.6374Z" fill="#95A5C6"/>
<path d="M70.6833 34.2468C67.9802 32.8745 65.0033 32.1181 62.3034 32.1181C55.9513 32.1181 51.3422 36.7747 51.3422 43.1881C51.3422 48.2456 54.1908 53.3515 60.5509 53.3515C62.2217 53.3515 63.7102 52.9975 65.0354 52.2637V53.1899C65.0354 55.6482 64.4832 57.9224 60.4693 57.9224C59.5379 57.9224 58.6576 57.7769 57.8591 57.549C56.854 57.2484 55.9097 56.7571 54.9736 56.2819L54.8679 56.2333C54.6359 56.1349 54.3846 56.146 54.1525 56.2413C53.9765 56.3109 53.8501 56.4273 53.7412 56.5792C53.61 56.7571 52.2881 58.8227 52.1969 59.007L52.0784 59.3626L52.0641 59.5048C52.0641 59.7925 52.1873 60.0494 52.381 60.2321C52.7986 60.6248 53.3188 60.9271 53.8181 61.2019C53.9652 61.2826 54.1157 61.3554 54.2646 61.4298C55.8074 62.1991 58.0735 62.9426 61.0825 62.9426C64.2993 62.9426 66.844 62.023 68.6396 60.2078C70.8578 57.9676 70.8578 55.7112 70.8578 52.86V34.3307L70.6833 34.2468ZM65.0354 47.5716C64.7217 47.7768 63.3694 48.4994 61.8153 48.4994C59.5379 48.4994 57.2461 46.7666 57.2461 42.8989C57.2461 39.4061 59.293 36.967 62.2202 36.967C63.523 36.967 64.6577 37.3712 65.0354 37.5199V47.5716ZM27.5422 33.6196L27.5247 33.4886C27.4494 33.0376 27.0605 32.6949 26.5948 32.6949H22.5858C22.0625 32.6949 21.6383 33.1248 21.6383 33.6533V52.3931C21.6383 52.9216 22.0625 53.3515 22.5858 53.3515H26.5948C27.0638 53.3515 27.451 53.0039 27.5263 52.5514L27.5423 52.4076L27.5422 33.6196ZM113.94 27.5212C113.909 27.0186 113.501 26.6226 113 26.6226H108.988C108.472 26.6226 108.061 27.0379 108.048 27.5584V52.4658C108.087 52.9604 108.492 53.35 108.988 53.35H113C113.507 53.35 113.919 52.9427 113.94 52.4335V27.5212ZM96.6134 32.118C90.9223 32.118 86.7933 36.7551 86.7933 43.1444C86.7933 49.6953 90.7911 53.9268 96.9798 53.9268C100.475 53.9268 103.1 52.6387 104.076 52.0793C104.273 51.9743 104.817 51.4845 104.347 50.5567L103.372 48.6268C103.106 48.1112 102.741 48.0012 102.484 48.0012C102.356 48.0012 102.226 48.0271 102.031 48.1079L101.911 48.1662C100.369 48.8612 98.9148 49.1991 97.4678 49.1991C95.8979 49.1991 94.5935 48.6947 93.6973 47.7379C92.9019 46.8894 92.5499 45.808 92.5322 45.0371H105.82V43.1056C105.821 36.2251 102.38 32.118 96.6134 32.118ZM92.5323 40.6409C93.0125 38.1647 94.608 36.6388 96.735 36.6388C99.8959 36.6388 100.28 39.6339 100.32 40.6409H92.5323ZM85.3079 49.3043C85.0775 48.6707 84.6198 48.5753 84.362 48.5753L83.9748 48.64C83.3971 48.7952 82.8673 48.8695 82.3055 48.8695C80.1563 48.8695 79.9768 47.3309 79.9768 45.6144V37.7089H85.159C85.2835 37.7089 85.4067 37.6842 85.5217 37.6361C85.6367 37.588 85.7411 37.5176 85.8291 37.4287C85.9171 37.3398 85.9869 37.2343 86.0345 37.1182C86.0821 37.0021 86.1066 36.8777 86.1066 36.752V33.6503C86.1066 33.1493 85.7241 32.7453 85.2392 32.7032L85.1736 32.6951H85.1609L85.1596 32.694L79.9775 32.6951V27.5795C79.9777 27.454 79.9533 27.3297 79.9058 27.2137C79.8583 27.0978 79.7887 26.9924 79.7008 26.9037C79.6129 26.815 79.5086 26.7446 79.3938 26.6967C79.2789 26.6487 79.1559 26.6241 79.0316 26.6243H75.0225C74.8756 26.6252 74.731 26.6606 74.6 26.7277C74.1999 26.8974 74.0752 27.2627 74.0752 27.5504V45.4106C74.0752 48.2311 74.0752 50.2676 75.8452 52.0568C77.4569 53.686 79.8687 53.9269 81.165 53.9269C83.1512 53.9269 84.6092 53.4468 85.531 53.0039C85.7807 52.8827 86.4353 52.422 86.0703 51.4071L85.3085 49.3042L85.3079 49.3043ZM8.54527 34.9384C8.19953 34.7768 7.82985 34.5763 7.50816 34.321C7.28212 34.1615 7.09092 33.9568 6.94641 33.7196L6.82478 33.4853L6.7671 33.3383C6.69289 33.126 6.655 32.9025 6.65505 32.6773C6.65505 32.2959 6.76391 31.9403 6.9463 31.6347C7.31278 30.9785 7.99776 30.4904 8.7068 30.2786C10.8178 29.5836 13.1063 30.2333 14.9661 31.3163L15.3165 31.5022C15.5279 31.6299 15.7471 31.7091 15.9376 31.7091C16.2497 31.7091 16.5282 31.5718 16.7249 31.3551L16.7198 31.3615C17.4032 30.5308 18.4851 28.8514 18.5042 28.8224C18.7027 28.4975 18.7218 28.0562 18.5299 27.7217L18.3394 27.4647L18.0657 27.2433C15.1657 25.21 11.4383 24.5182 7.98306 25.0872C5.96813 25.433 4.01076 26.3511 2.62644 27.8882C0.392297 30.3111 -0.0686882 34.2695 1.67414 37.1013C2.89204 39.0926 4.96625 40.3371 7.04365 41.2455C8.57525 41.9745 10.2572 42.4431 11.6801 43.3952C12.4499 43.8687 12.9652 44.7205 12.9652 45.7001C12.9652 46.762 12.333 47.6689 11.5057 48.1116C11.0575 48.3507 10.619 48.54 10.1229 48.6402C9.62842 48.7403 9.11945 48.7694 8.61697 48.7532C8.3329 48.7432 8.04938 48.7211 7.76716 48.687C6.11233 48.5383 4.65277 47.7641 3.19959 47.0303L3.08594 46.977C2.8363 46.8751 2.5626 46.8833 2.31615 46.9835C2.12407 47.0627 1.98967 47.1888 1.86645 47.352C1.72567 47.5427 0.302927 49.7732 0.202044 49.9736L0.0724344 50.3534L0.0610352 50.5085C0.0610352 50.8204 0.192241 51.0984 0.401873 51.2956C1.84547 52.524 3.69238 53.2093 5.50885 53.6619C8.52247 54.3101 11.8146 54.2567 14.5993 52.8311C19.2677 50.6668 20.8153 43.6553 17.2752 39.8328C14.9193 37.3388 11.5473 36.3625 8.54493 34.9386L8.54527 34.9384ZM49.1192 47.7057V41.8596C49.1256 39.3026 49.1304 36.4062 46.8993 34.1531C45.5821 32.8244 43.732 32.1181 41.5411 32.1181C39.1356 32.1181 37.6601 33.3142 36.8935 34.0269V33.6552C36.8855 33.55 36.8807 33.5081 36.8567 33.4094V33.4082L36.8502 33.3871L36.8422 33.3693L36.8245 33.3112L36.815 33.2772L36.5685 32.9393L36.5188 32.8989L36.5092 32.8908L36.5028 32.8881L36.5017 32.8868C36.3432 32.7704 36.156 32.6977 35.9447 32.6977H31.934C31.4107 32.6977 30.9882 33.126 30.9882 33.6561V52.3956C30.9882 52.9242 31.4107 53.3525 31.934 53.3525H35.9447C36.4152 53.3525 36.7993 53.0066 36.8762 52.554L36.8938 52.4085L36.891 48.6328H36.8938V38.4354C37.4076 38.075 38.8896 37.2604 40.4004 37.2604C41.279 37.2604 41.9768 37.4932 42.4185 37.9409C43.1019 38.6293 43.2155 39.9014 43.2155 42.4892L43.2167 42.9142V52.3955C43.2167 52.924 43.6424 53.3524 44.1642 53.3524H48.1733C48.6421 53.3524 49.0295 53.0065 49.1047 52.5539L49.1208 52.4084L49.1196 48.6359L49.1208 48.6245V47.708L49.1196 47.7069" fill="#95A5C6"/>
</svg>
