<svg width="129" height="35" viewBox="0 0 129 35" fill="none" xmlns="http://www.w3.org/2000/svg">
<g clip-path="url(#clip0)">
<path fill-rule="evenodd" clip-rule="evenodd" d="M22.7095 11.5401C24.3853 10.8414 25.0211 11.7438 24.4141 13.0839C24.0962 13.8109 21.3516 17.9748 22.9692 18.9945C24.4428 19.8389 27.1586 15.762 27.2744 14.5109C27.7074 13.3752 29.4989 14.8023 29.4414 15.064C29.4414 15.122 29.5859 15.9374 29.5859 15.9374C29.9902 21.15 33.6308 14.7436 33.8329 14.2196C33.8905 14.0152 33.6308 13.7246 33.6308 13.4912C33.6308 12.9092 35.2203 12.0068 35.3066 11.9778C36.4048 11.2791 37.2133 11.5994 38.1669 12.4728C40.1031 14.2196 40.1031 14.2196 40.1606 15.18C40.2188 15.2683 39.8715 17.6261 40.4209 18.4705C40.9697 19.3439 45.5353 13.8709 45.9107 14.5109C46.2286 14.8313 46.8644 15.3843 46.4595 15.5307C45.5058 15.938 44.3213 17.5398 43.2525 18.4415C42.1543 19.4019 40.4209 21.6727 38.6588 21.5857C36.6652 21.4987 37.1852 16.1997 37.1852 16.1997C37.1852 15.7627 35.6252 14.6269 35.6252 14.6269C35.6252 14.6269 29.1248 25.5162 27.16 17.8885C27.16 17.8595 23.2021 23.3614 20.8617 22.1394C19.1284 21.237 19.0126 19.0242 19.5621 16.8404C19.3305 16.9288 19.0708 16.9288 18.8975 16.7824C18.5221 16.4911 18.1466 15.7627 18.6084 15.5887C19.186 15.3553 20.0526 14.6559 20.5733 14.1623C21.2646 12.8215 22.0737 11.8024 22.7095 11.5401ZM67.1444 12.1228C66.1037 11.6864 62.0013 17.8588 63.3016 18.4988C64.3128 18.9649 67.4616 14.8016 68.0686 13.7529C68.1562 13.5789 70.1205 12.7635 70.0335 14.4813C69.9759 15.3256 69.9471 16.9854 69.8896 16.9274C70.0622 19.3722 74.5114 13.8109 74.8005 14.3639L75.3492 15.0343C75.3492 15.5583 70.9871 19.9832 69.3401 20.0426C68.0398 20.1006 67.6644 18.5858 67.3752 17.3051C67.2889 18.0321 62.2034 22.6621 59.863 21.44C57.0034 19.9542 63.9949 9.968 67.4616 10.1137C68.5022 10.1427 69.3689 11.2204 69.4265 11.8314C69.4552 12.3555 68.6174 13.0839 67.8082 13.1129C67.1731 13.1129 67.7795 12.3845 67.1444 12.1228ZM50.7921 11.8024C50.7346 11.6278 52.9009 1.08782 54.0279 0.971142C54.6637 0.854466 57.1198 1.46617 56.8883 2.10688C55.8483 5.13505 51.1676 19.8672 52.5837 21.9054C54.9528 21.9344 55.7907 21.1493 57.8995 20.3919C58.564 20.1586 58.7661 20.974 58.4777 21.119V22.6627C57.3795 23.5651 56.0798 24.1182 54.6925 24.4095C53.9704 24.5849 50.4455 25.2539 49.9543 24.7299C48.423 22.9251 50.3009 14.6553 50.9943 12.3561C50.9943 12.3555 50.9073 12.0648 50.7921 11.8024ZM11.1236 7.60953C11.1236 11.8611 17.4801 13.5499 17.5952 19.0809C17.6527 22.2844 10.4008 27.0883 7.10752 26.1266C6.78963 26.1266 5.69141 25.3996 5.69141 24.0602C5.69141 22.9824 9.73629 21.3517 11.8163 21.1493C11.8451 21.1493 12.2205 21.2943 12.2205 21.2943C12.3356 21.2943 13.5202 20.6833 13.5496 19.8099C13.6942 14.977 7.62685 13.5202 7.62685 8.74594C7.62685 3.91232 15.1678 0.127436 18.1433 0.593465C18.9236 0.768141 19.2991 2.4279 18.8654 3.15561C18.1138 4.43635 14.6184 5.51408 13.1735 5.77576C12.7981 5.86344 12.5672 5.65976 12.5672 5.65976C12.5672 5.65976 11.3833 6.29979 11.1236 7.60953ZM115.797 16.4034C115.769 16.4034 119.235 14.0442 118.485 13.1999C117.618 12.1815 115.597 15.4127 115.797 16.4034ZM95.6888 16.4034C96.0354 16.112 96.2375 15.8793 96.2375 15.8503C96.1224 8.33791 104.962 -0.221917 106.755 -0.250917C110.049 -0.279918 105.57 10.318 99.0691 15.8794C98.8088 16.2867 98.6937 19.4019 99.6179 19.3729C101.322 19.3439 102.045 17.4508 102.132 16.1127C101.554 15.4423 101.814 14.3646 101.842 14.3066C101.959 13.6956 102.391 13.0265 103.114 13.0265C103.923 13.0265 104.153 13.9579 104.153 14.5979C104.153 15.3843 104.009 16.0837 104.038 16.1127C104.993 16.5201 106.783 15.5597 106.783 15.4713C107.303 8.27991 112.214 0.331784 114.468 0.768138C115.768 1.03049 115.942 10.1143 109.152 16.2577C108.805 18.0335 109.586 19.6642 109.846 19.6062C110.423 20.4506 113.341 18.0928 113.341 18.0335C113.023 12.3851 118.485 9.88167 120.16 11.6871C122.154 13.8116 115.942 17.9175 115.971 17.9755C116.981 22.6924 122.557 15.909 122.588 15.88C122.847 15.6467 123.309 16.1134 123.309 16.4621C123.309 16.4911 116.866 25.5459 113.804 19.5192C109.182 23.4788 106.726 21.1196 106.812 17.0441C106.87 17.0441 105.628 18.0928 103.576 17.7435C102.306 21.935 96.2375 23.4788 96.2951 17.6551C95.0249 18.8489 93.6088 20.0433 92.7997 20.0723C91.5281 20.1303 91.1527 18.6155 90.8636 17.3348C90.7772 18.0631 85.691 22.6917 83.3513 21.4697C80.4917 19.9839 87.4832 9.99767 90.9499 10.1433C91.9906 10.1723 92.8572 11.2501 92.9148 11.8618C92.9148 12.3851 92.1057 13.1135 91.2966 13.1425C90.6615 13.1425 91.2678 12.4148 90.6327 12.1531C89.592 11.7161 85.4902 17.8885 86.7899 18.5002C87.8018 18.9952 90.9506 14.832 91.5569 13.7832C91.6446 13.6092 93.6088 12.8809 93.5218 14.5116C93.4642 15.356 93.4354 17.0158 93.3779 16.9578C93.4642 18.1501 94.5624 17.3928 95.6888 16.4034ZM105.166 3.88332C104.675 3.73764 99.387 10.8124 99.3294 13.4912C101.728 11.6864 106.061 4.58203 105.166 3.88332ZM113.747 4.116C113.342 3.85432 110.221 10.347 109.557 14.0732C111.926 11.8314 114.498 4.61103 113.747 4.116ZM76.4756 2.01988C76.5632 0.942816 76.938 -0.105241 78.6426 0.0397607C79.8271 0.126762 86.9927 0.243438 87.3976 0.302113C88.3793 0.447789 88.8706 0.418112 89.1309 0.709464C89.1885 0.796465 89.3323 1.35017 89.3323 1.35017C89.2748 1.99087 89.1597 3.79564 88.0909 3.82465C88.0333 3.82465 84.5366 3.30061 83.8727 3.67897C83.8727 3.67897 84.4215 4.46535 84.4502 4.9887C84.5366 7.43418 82.312 12.8788 81.6193 20.2159C81.4453 22.022 81.0993 24.1755 80.4053 24.5842C80.0299 24.9045 79.5387 25.0779 78.846 25.0489C78.2972 25.0199 78.6145 23.5934 78.6145 23.5644C78.8748 16.8384 80.7527 6.24044 80.6081 4.9597C80.4355 3.47462 80.147 3.91164 78.9324 4.319C78.5569 4.46467 76.7366 4.90103 76.5064 4.81403C76.3324 4.72703 76.3611 3.96965 76.3611 3.88264L76.4762 2.1062V2.01988H76.4756Z" fill="#95A5C6"/>
</g>
<defs>
<clipPath id="clip0">
<rect width="129" height="35" fill="white"/>
</clipPath>
</defs>
</svg>
