<svg width="56" height="38" viewBox="0 0 56 38" fill="none" xmlns="http://www.w3.org/2000/svg">
<path d="M4.30675 31.968L3.48828 32.5427L3.49538 32.5525L4.30675 31.968ZM4.30675 5.952L3.49536 5.36745L3.49124 5.37325L4.30675 5.952ZM22.8828 5.952L22.0672 6.53079L22.0744 6.54069L22.8828 5.952ZM22.8828 31.92L22.0684 31.3396L22.0643 31.3454L22.8828 31.92ZM18.4188 28.56L17.5243 28.1128L17.5215 28.1185L18.4188 28.56ZM18.4188 9.36L17.5215 9.80151L17.5257 9.81012L17.5301 9.81864L18.4188 9.36ZM8.77075 9.36L7.87915 8.90713L7.87632 8.91279L8.77075 9.36ZM8.77075 28.56L7.87077 28.9959L7.87489 29.0044L7.87917 29.0129L8.77075 28.56ZM13.6188 35.432C9.83598 35.432 7.0518 34.0675 5.11812 31.3835L3.49538 32.5525C5.8497 35.8205 9.27352 37.432 13.6188 37.432V35.432ZM5.12516 31.3934C3.18061 28.6239 2.13875 24.4931 2.13875 18.864H0.13875C0.13875 24.6909 1.20889 29.2962 3.48834 32.5426L5.12516 31.3934ZM2.13875 18.864C2.13875 13.3342 3.17943 9.26836 5.12226 6.53074L3.49124 5.37325C1.21007 8.58764 0.13875 13.1298 0.13875 18.864H2.13875ZM5.11812 6.53653C7.0518 3.85246 9.83598 2.488 13.6188 2.488V0.487998C9.27352 0.487998 5.8497 2.09953 3.49538 5.36746L5.11812 6.53653ZM13.6188 2.488C17.4015 2.488 20.1662 3.85206 22.0672 6.53074L23.6983 5.37325C21.3753 2.09994 17.964 0.487998 13.6188 0.487998V2.488ZM22.0744 6.54069C24.0419 9.24237 25.0988 13.3019 25.0988 18.864H27.0988C27.0988 13.0981 26.0116 8.54962 23.6911 5.3633L22.0744 6.54069ZM25.0988 18.864C25.0988 24.4573 24.0423 28.5703 22.0684 31.3396L23.6971 32.5004C26.0112 29.2537 27.0988 24.6627 27.0988 18.864H25.0988ZM22.0643 31.3454C20.1615 34.0554 17.3971 35.432 13.6188 35.432V37.432C17.9684 37.432 21.38 35.8006 23.7012 32.4946L22.0643 31.3454ZM13.6188 32.584C14.8792 32.584 16.023 32.2945 17.0078 31.6741C17.9916 31.0543 18.7539 30.1439 19.316 29.0015L17.5215 28.1185C17.0916 28.9921 16.5579 29.5937 15.9417 29.9819C15.3265 30.3695 14.5663 30.584 13.6188 30.584V32.584ZM19.3132 29.0072C20.4451 26.7434 20.9548 23.3168 20.9548 18.864H18.9548C18.9548 23.2432 18.4404 26.2806 17.5243 28.1128L19.3132 29.0072ZM20.9548 18.864C20.9548 14.4765 20.4457 11.1069 19.3074 8.90136L17.5301 9.81864C18.4398 11.5811 18.9548 14.5475 18.9548 18.864H20.9548ZM19.316 8.91849C18.7539 7.77608 17.9916 6.86568 17.0078 6.24591C16.023 5.62548 14.8792 5.336 13.6188 5.336V7.336C14.5663 7.336 15.3265 7.55052 15.9417 7.93809C16.5579 8.32632 17.0916 8.92792 17.5215 9.80151L19.316 8.91849ZM13.6188 5.336C12.358 5.336 11.2122 5.62557 10.2215 6.24353C9.23217 6.86064 8.45809 7.76738 7.87917 8.90714L9.66233 9.81286C10.1074 8.93661 10.6533 8.33136 11.28 7.94047C11.9053 7.55043 12.6715 7.336 13.6188 7.336V5.336ZM7.87632 8.91279C6.77565 11.1141 6.28275 14.4785 6.28275 18.864H8.28275C8.28275 14.5455 8.78185 11.5739 9.66518 9.80721L7.87632 8.91279ZM6.28275 18.864C6.28275 23.3149 6.77627 26.7363 7.87077 28.9959L9.67073 28.1241C8.78123 26.2877 8.28275 23.2451 8.28275 18.864H6.28275ZM7.87917 29.0129C8.45809 30.1526 9.23217 31.0594 10.2215 31.6765C11.2122 32.2944 12.358 32.584 13.6188 32.584V30.584C12.6715 30.584 11.9053 30.3696 11.28 29.9795C10.6533 29.5886 10.1074 28.9834 9.66233 28.1071L7.87917 29.0129ZM54.448 30.96H55.448V29.96H54.448V30.96ZM54.448 36V37H55.448V36H54.448ZM33.376 36H32.376V37H33.376V36ZM33.376 30.96V29.96H32.376V30.96H33.376ZM40.864 30.96V31.96H41.864V30.96H40.864ZM40.864 8.928H41.864V7.16181L40.3495 8.07051L40.864 8.928ZM33.904 13.104H32.904V14.8702L34.4185 13.9615L33.904 13.104ZM33.904 7.584L33.3857 6.7288L32.904 7.02074V7.584H33.904ZM43.408 1.824V0.823999H43.1286L42.8897 0.968801L43.408 1.824ZM47.008 1.824H48.008V0.823999H47.008V1.824ZM47.008 30.96H46.008V31.96H47.008V30.96ZM53.448 30.96V36H55.448V30.96H53.448ZM54.448 35H33.376V37H54.448V35ZM34.376 36V30.96H32.376V36H34.376ZM33.376 31.96H40.864V29.96H33.376V31.96ZM41.864 30.96V8.928H39.864V30.96H41.864ZM40.3495 8.07051L33.3895 12.2465L34.4185 13.9615L41.3785 9.78549L40.3495 8.07051ZM34.904 13.104V7.584H32.904V13.104H34.904ZM34.4223 8.4392L43.9263 2.6792L42.8897 0.968801L33.3857 6.7288L34.4223 8.4392ZM43.408 2.824H47.008V0.823999H43.408V2.824ZM46.008 1.824V30.96H48.008V1.824H46.008ZM47.008 31.96H54.448V29.96H47.008V31.96Z" fill="#1958e3"/>
</svg>
