<svg width="57" height="38" viewBox="0 0 57 38" fill="none" xmlns="http://www.w3.org/2000/svg">
<path d="M4.30675 31.968L3.48828 32.5427L3.49538 32.5525L4.30675 31.968ZM4.30675 5.952L3.49536 5.36745L3.49124 5.37325L4.30675 5.952ZM22.8828 5.952L22.0672 6.53079L22.0744 6.54069L22.8828 5.952ZM22.8828 31.92L22.0684 31.3396L22.0643 31.3454L22.8828 31.92ZM18.4188 28.56L17.5243 28.1128L17.5215 28.1185L18.4188 28.56ZM18.4188 9.36L17.5215 9.80151L17.5257 9.81012L17.5301 9.81864L18.4188 9.36ZM8.77075 9.36L7.87915 8.90713L7.87632 8.91279L8.77075 9.36ZM8.77075 28.56L7.87077 28.9959L7.87489 29.0044L7.87917 29.0129L8.77075 28.56ZM13.6188 35.432C9.83598 35.432 7.0518 34.0675 5.11812 31.3835L3.49538 32.5525C5.8497 35.8205 9.27352 37.432 13.6188 37.432V35.432ZM5.12516 31.3934C3.18061 28.6239 2.13875 24.4931 2.13875 18.864H0.13875C0.13875 24.6909 1.20889 29.2962 3.48834 32.5426L5.12516 31.3934ZM2.13875 18.864C2.13875 13.3342 3.17943 9.26836 5.12226 6.53074L3.49124 5.37325C1.21007 8.58764 0.13875 13.1298 0.13875 18.864H2.13875ZM5.11812 6.53653C7.0518 3.85246 9.83598 2.488 13.6188 2.488V0.487998C9.27352 0.487998 5.8497 2.09953 3.49538 5.36746L5.11812 6.53653ZM13.6188 2.488C17.4015 2.488 20.1662 3.85206 22.0672 6.53074L23.6983 5.37325C21.3753 2.09994 17.964 0.487998 13.6188 0.487998V2.488ZM22.0744 6.54069C24.0419 9.24237 25.0988 13.3019 25.0988 18.864H27.0988C27.0988 13.0981 26.0116 8.54962 23.6911 5.3633L22.0744 6.54069ZM25.0988 18.864C25.0988 24.4573 24.0423 28.5703 22.0684 31.3396L23.6971 32.5004C26.0112 29.2537 27.0988 24.6627 27.0988 18.864H25.0988ZM22.0643 31.3454C20.1615 34.0554 17.3971 35.432 13.6188 35.432V37.432C17.9684 37.432 21.38 35.8006 23.7012 32.4946L22.0643 31.3454ZM13.6188 32.584C14.8792 32.584 16.023 32.2945 17.0078 31.6741C17.9916 31.0543 18.7539 30.1439 19.316 29.0015L17.5215 28.1185C17.0916 28.9921 16.5579 29.5937 15.9417 29.9819C15.3265 30.3695 14.5663 30.584 13.6188 30.584V32.584ZM19.3132 29.0072C20.4451 26.7434 20.9548 23.3168 20.9548 18.864H18.9548C18.9548 23.2432 18.4404 26.2806 17.5243 28.1128L19.3132 29.0072ZM20.9548 18.864C20.9548 14.4765 20.4457 11.1069 19.3074 8.90136L17.5301 9.81864C18.4398 11.5811 18.9548 14.5475 18.9548 18.864H20.9548ZM19.316 8.91849C18.7539 7.77608 17.9916 6.86568 17.0078 6.24591C16.023 5.62548 14.8792 5.336 13.6188 5.336V7.336C14.5663 7.336 15.3265 7.55052 15.9417 7.93809C16.5579 8.32632 17.0916 8.92792 17.5215 9.80151L19.316 8.91849ZM13.6188 5.336C12.358 5.336 11.2122 5.62557 10.2215 6.24353C9.23217 6.86064 8.45809 7.76738 7.87917 8.90714L9.66233 9.81286C10.1074 8.93661 10.6533 8.33136 11.28 7.94047C11.9053 7.55043 12.6715 7.336 13.6188 7.336V5.336ZM7.87632 8.91279C6.77565 11.1141 6.28275 14.4785 6.28275 18.864H8.28275C8.28275 14.5455 8.78185 11.5739 9.66518 9.80721L7.87632 8.91279ZM6.28275 18.864C6.28275 23.3149 6.77627 26.7363 7.87077 28.9959L9.67073 28.1241C8.78123 26.2877 8.28275 23.2451 8.28275 18.864H6.28275ZM7.87917 29.0129C8.45809 30.1526 9.23217 31.0594 10.2215 31.6765C11.2122 32.2944 12.358 32.584 13.6188 32.584V30.584C12.6715 30.584 11.9053 30.3696 11.28 29.9795C10.6533 29.5886 10.1074 28.9834 9.66233 28.1071L7.87917 29.0129ZM49.888 15.552L49.3937 16.4213L49.4002 16.425L49.4067 16.4286L49.888 15.552ZM53.68 19.392L52.7995 19.8661L52.8034 19.8733L53.68 19.392ZM53.488 31.008L54.3441 31.5249L54.3483 31.5178L53.488 31.008ZM49.072 34.992L49.5072 35.8924L49.5192 35.8864L49.072 34.992ZM36.064 35.328L35.7304 36.2708L35.7434 36.2752L36.064 35.328ZM30.928 32.4L30.0186 31.984L29.7139 32.6501L30.2571 33.1415L30.928 32.4ZM32.992 27.888L33.5985 27.0929L32.6033 26.3337L32.0826 27.472L32.992 27.888ZM47.392 29.856L48.078 30.5836L48.0786 30.583L47.392 29.856ZM47.344 20.736L46.6369 21.4431L46.6467 21.4529L46.6568 21.4625L47.344 20.736ZM38.896 19.776L39.2717 20.7027L39.2824 20.6984L39.2929 20.6939L38.896 19.776ZM35.776 21.936V22.936H36.2106L36.5071 22.6183L35.776 21.936ZM32.032 21.936H31.032V22.936H32.032V21.936ZM32.032 1.824V0.823999H31.032V1.824H32.032ZM53.44 1.824H54.44V0.823999H53.44V1.824ZM53.44 6.624V7.624H54.44V6.624H53.44ZM38.08 6.624V5.624H37.08V6.624H38.08ZM38.08 15.936H37.08V17.8334L38.6452 16.7609L38.08 15.936ZM44.224 15.16C46.2197 15.16 47.9327 15.5905 49.3937 16.4213L50.3823 14.6827C48.5793 13.6575 46.5163 13.16 44.224 13.16V15.16ZM49.4067 16.4286C50.8669 17.2303 51.9935 18.3692 52.7995 19.8661L54.5605 18.9179C53.5745 17.0868 52.1731 15.6657 50.3693 14.6754L49.4067 16.4286ZM52.8034 19.8733C53.6069 21.3367 54.024 23.0545 54.024 25.056H56.024C56.024 22.7695 55.5451 20.7113 54.5566 18.9107L52.8034 19.8733ZM54.024 25.056C54.024 27.1378 53.55 28.9418 52.6277 30.4982L54.3483 31.5178C55.474 29.6182 56.024 27.4542 56.024 25.056H54.024ZM52.6319 30.4911C51.7139 32.0116 50.3902 33.2149 48.6248 34.0976L49.5192 35.8864C51.5938 34.8491 53.2141 33.3964 54.3441 31.5249L52.6319 30.4911ZM48.6368 34.0917C46.8754 34.943 44.805 35.384 42.4 35.384V37.384C45.051 37.384 47.4286 36.897 49.5072 35.8923L48.6368 34.0917ZM42.4 35.384C40.3677 35.384 38.3639 35.0507 36.3846 34.3808L35.7434 36.2752C37.9241 37.0133 40.1443 37.384 42.4 37.384V35.384ZM36.3976 34.3853C34.4158 33.684 32.8261 32.7687 31.5989 31.6585L30.2571 33.1415C31.7179 34.4633 33.5522 35.5 35.7304 36.2707L36.3976 34.3853ZM31.8374 32.816L33.9014 28.304L32.0826 27.472L30.0186 31.984L31.8374 32.816ZM32.3855 28.6831C35.6264 31.1556 39.0022 32.44 42.496 32.44V30.44C39.5258 30.44 36.5655 29.3564 33.5985 27.0929L32.3855 28.6831ZM42.496 32.44C44.7941 32.44 46.7101 31.8733 48.078 30.5836L46.706 29.1284C45.8339 29.9507 44.4859 30.44 42.496 30.44V32.44ZM48.0786 30.583C49.4787 29.2607 50.12 27.4332 50.12 25.248H48.12C48.12 27.0308 47.6093 28.2753 46.7054 29.129L48.0786 30.583ZM50.12 25.248C50.12 23.1327 49.447 21.3488 48.0312 20.0095L46.6568 21.4625C47.609 22.3632 48.12 23.5873 48.12 25.248H50.12ZM48.0511 20.0289C46.6752 18.653 44.8489 18.008 42.688 18.008V20.008C44.4311 20.008 45.7088 20.515 46.6369 21.4431L48.0511 20.0289ZM42.688 18.008C41.2133 18.008 39.8137 18.2897 38.4991 18.8581L39.2929 20.6939C40.3463 20.2383 41.4747 20.008 42.688 20.008V18.008ZM38.5203 18.8493C37.1977 19.3855 36.0374 20.1904 35.0449 21.2537L36.5071 22.6183C37.3066 21.7616 38.2263 21.1265 39.2717 20.7027L38.5203 18.8493ZM35.776 20.936H32.032V22.936H35.776V20.936ZM33.032 21.936V1.824H31.032V21.936H33.032ZM32.032 2.824H53.44V0.823999H32.032V2.824ZM52.44 1.824V6.624H54.44V1.824H52.44ZM53.44 5.624H38.08V7.624H53.44V5.624ZM37.08 6.624V15.936H39.08V6.624H37.08ZM38.6452 16.7609C40.1856 15.7055 42.0305 15.16 44.224 15.16V13.16C41.6815 13.16 39.4304 13.7985 37.5148 15.1111L38.6452 16.7609Z" fill="#1958e3"/>
</svg>
