<svg width="57" height="38" viewBox="0 0 57 38" fill="none" xmlns="http://www.w3.org/2000/svg">
<path d="M4.30675 31.968L3.48828 32.5427L3.49538 32.5525L4.30675 31.968ZM4.30675 5.952L3.49536 5.36745L3.49124 5.37325L4.30675 5.952ZM22.8828 5.952L22.0672 6.53079L22.0744 6.54069L22.8828 5.952ZM22.8828 31.92L22.0684 31.3396L22.0643 31.3454L22.8828 31.92ZM18.4188 28.56L17.5243 28.1128L17.5215 28.1185L18.4188 28.56ZM18.4188 9.36L17.5215 9.80151L17.5257 9.81012L17.5301 9.81864L18.4188 9.36ZM8.77075 9.36L7.87915 8.90713L7.87632 8.91279L8.77075 9.36ZM8.77075 28.56L7.87077 28.9959L7.87489 29.0044L7.87917 29.0129L8.77075 28.56ZM13.6188 35.432C9.83598 35.432 7.0518 34.0675 5.11812 31.3835L3.49538 32.5525C5.8497 35.8205 9.27352 37.432 13.6188 37.432V35.432ZM5.12516 31.3934C3.18061 28.6239 2.13875 24.4931 2.13875 18.864H0.13875C0.13875 24.6909 1.20889 29.2962 3.48834 32.5426L5.12516 31.3934ZM2.13875 18.864C2.13875 13.3342 3.17943 9.26836 5.12226 6.53074L3.49124 5.37325C1.21007 8.58764 0.13875 13.1298 0.13875 18.864H2.13875ZM5.11812 6.53653C7.0518 3.85246 9.83598 2.488 13.6188 2.488V0.487998C9.27352 0.487998 5.8497 2.09953 3.49538 5.36746L5.11812 6.53653ZM13.6188 2.488C17.4015 2.488 20.1662 3.85206 22.0672 6.53074L23.6983 5.37325C21.3753 2.09994 17.964 0.487998 13.6188 0.487998V2.488ZM22.0744 6.54069C24.0419 9.24237 25.0988 13.3019 25.0988 18.864H27.0988C27.0988 13.0981 26.0116 8.54962 23.6911 5.3633L22.0744 6.54069ZM25.0988 18.864C25.0988 24.4573 24.0423 28.5703 22.0684 31.3396L23.6971 32.5004C26.0112 29.2537 27.0988 24.6627 27.0988 18.864H25.0988ZM22.0643 31.3454C20.1615 34.0554 17.3971 35.432 13.6188 35.432V37.432C17.9684 37.432 21.38 35.8006 23.7012 32.4946L22.0643 31.3454ZM13.6188 32.584C14.8792 32.584 16.023 32.2945 17.0078 31.6741C17.9916 31.0543 18.7539 30.1439 19.316 29.0015L17.5215 28.1185C17.0916 28.9921 16.5579 29.5937 15.9417 29.9819C15.3265 30.3695 14.5663 30.584 13.6188 30.584V32.584ZM19.3132 29.0072C20.4451 26.7434 20.9548 23.3168 20.9548 18.864H18.9548C18.9548 23.2432 18.4404 26.2806 17.5243 28.1128L19.3132 29.0072ZM20.9548 18.864C20.9548 14.4765 20.4457 11.1069 19.3074 8.90136L17.5301 9.81864C18.4398 11.5811 18.9548 14.5475 18.9548 18.864H20.9548ZM19.316 8.91849C18.7539 7.77608 17.9916 6.86568 17.0078 6.24591C16.023 5.62548 14.8792 5.336 13.6188 5.336V7.336C14.5663 7.336 15.3265 7.55052 15.9417 7.93809C16.5579 8.32632 17.0916 8.92792 17.5215 9.80151L19.316 8.91849ZM13.6188 5.336C12.358 5.336 11.2122 5.62557 10.2215 6.24353C9.23217 6.86064 8.45809 7.76738 7.87917 8.90714L9.66233 9.81286C10.1074 8.93661 10.6533 8.33136 11.28 7.94047C11.9053 7.55043 12.6715 7.336 13.6188 7.336V5.336ZM7.87632 8.91279C6.77565 11.1141 6.28275 14.4785 6.28275 18.864H8.28275C8.28275 14.5455 8.78185 11.5739 9.66518 9.80721L7.87632 8.91279ZM6.28275 18.864C6.28275 23.3149 6.77627 26.7363 7.87077 28.9959L9.67073 28.1241C8.78123 26.2877 8.28275 23.2451 8.28275 18.864H6.28275ZM7.87917 29.0129C8.45809 30.1526 9.23217 31.0594 10.2215 31.6765C11.2122 32.2944 12.358 32.584 13.6188 32.584V30.584C12.6715 30.584 11.9053 30.3696 11.28 29.9795C10.6533 29.5886 10.1074 28.9834 9.66233 28.1071L7.87917 29.0129ZM49.888 15.456L49.3787 16.3166L49.3863 16.321L49.888 15.456ZM53.632 19.344L52.7515 19.8181L53.632 19.344ZM53.488 30.912L52.6207 30.4141L52.6138 30.4264L53.488 30.912ZM49.408 34.992L49.8937 35.8662L49.899 35.8632L49.408 34.992ZM33.52 32.064L32.7366 32.6856L32.74 32.6897L33.52 32.064ZM31.648 9.792L30.7233 9.41123L30.7195 9.42061L31.648 9.792ZM36.448 3.552L35.8847 2.72575L35.8788 2.7298L36.448 3.552ZM49.888 2.448L49.5437 3.38687L49.5531 3.3903L49.5625 3.39353L49.888 2.448ZM54.976 5.376L55.8817 5.79994L56.198 5.12424L55.6404 4.62859L54.976 5.376ZM52.864 9.888L52.2454 10.6737L53.2355 11.4531L53.7697 10.3119L52.864 9.888ZM38.32 9.552L39.1616 10.0921L38.32 9.552ZM36.16 18.768L35.1601 18.752L37.0504 19.2231L36.16 18.768ZM39.52 15.36L40.0041 16.235L40.0111 16.2311L40.0181 16.2271L39.52 15.36ZM47.44 29.808L46.713 29.1214L46.7079 29.1268L46.7028 29.1323L47.44 29.808ZM47.44 20.736L46.7028 21.4117L46.7126 21.4224L46.7227 21.4328L47.44 20.736ZM38.8 20.736L38.083 20.0389L38.8 20.736ZM38.8 29.808L38.0735 30.4952L38.0831 30.5053L38.0929 30.5151L38.8 29.808ZM44.512 15.064C46.3684 15.064 47.9809 15.4893 49.3787 16.3166L50.3973 14.5954C48.6591 13.5667 46.6876 13.064 44.512 13.064V15.064ZM49.3863 16.321C50.8227 17.1541 51.9412 18.3132 52.7515 19.8181L54.5125 18.8699C53.5308 17.0468 52.1533 15.6139 50.3897 14.591L49.3863 16.321ZM52.7515 19.8181C53.559 21.3178 53.976 23.055 53.976 25.056H55.976C55.976 22.769 55.497 20.6982 54.5125 18.8699L52.7515 19.8181ZM53.976 25.056C53.976 27.0738 53.5179 28.8514 52.6207 30.4141L54.3553 31.4099C55.4421 29.5166 55.976 27.3901 55.976 25.056H53.976ZM52.6138 30.4264C51.7456 31.9892 50.5199 33.2174 48.917 34.1208L49.899 35.8632C51.8161 34.7826 53.3104 33.2908 54.3622 31.3976L52.6138 30.4264ZM48.9224 34.1178C47.3597 34.986 45.5623 35.432 43.504 35.432V37.432C45.8617 37.432 48.0003 36.918 49.8936 35.8662L48.9224 34.1178ZM43.504 35.432C39.4338 35.432 36.4151 34.0748 34.3 31.4383L32.74 32.6897C35.2969 35.8772 38.9342 37.432 43.504 37.432V35.432ZM34.3034 31.4424C32.1577 28.7383 31.016 24.8147 31.016 19.536H29.016C29.016 25.0733 30.2103 29.5017 32.7366 32.6856L34.3034 31.4424ZM31.016 19.536C31.016 15.8521 31.5472 12.7366 32.5765 10.1634L30.7195 9.42061C29.5728 12.2874 29.016 15.6679 29.016 19.536H31.016ZM32.5727 10.1727C33.6315 7.60144 35.1203 5.68747 37.0172 4.37419L35.8788 2.7298C33.6157 4.29653 31.9045 6.54256 30.7233 9.41125L32.5727 10.1727ZM37.0113 4.37823C38.9367 3.06545 41.2306 2.392 43.936 2.392V0.391999C40.8814 0.391999 38.1833 1.15854 35.8847 2.72577L37.0113 4.37823ZM43.936 2.392C45.8667 2.392 47.7342 2.72337 49.5437 3.38687L50.2323 1.50912C48.2018 0.764628 46.1013 0.391999 43.936 0.391999V2.392ZM49.5625 3.39353C51.3986 4.02564 52.9773 4.93732 54.3116 6.12341L55.6404 4.62859C54.0947 3.25468 52.2814 2.21436 50.2135 1.50246L49.5625 3.39353ZM54.0703 4.95206L51.9583 9.46406L53.7697 10.3119L55.8817 5.79994L54.0703 4.95206ZM53.4826 9.10226C50.3636 6.6469 47.2554 5.336 44.176 5.336V7.336C46.6646 7.336 49.3484 8.3931 52.2454 10.6737L53.4826 9.10226ZM44.176 5.336C41.3043 5.336 39.0366 6.58399 37.4784 9.01188L39.1616 10.0921C40.3554 8.23201 41.9917 7.336 44.176 7.336V5.336ZM37.4784 9.01188C35.96 11.3778 35.2256 14.663 35.1601 18.752L37.1599 18.784C37.2225 14.873 37.928 12.0142 39.1616 10.0921L37.4784 9.01188ZM37.0504 19.2231C37.69 17.9718 38.6628 16.977 40.0041 16.235L39.0359 14.485C37.3692 15.407 36.102 16.6842 35.2696 18.3129L37.0504 19.2231ZM40.0181 16.2271C41.3626 15.4547 42.8534 15.064 44.512 15.064V13.064C42.5226 13.064 40.6854 13.5373 39.0219 14.4929L40.0181 16.2271ZM43.216 32.536C45.2172 32.536 46.9068 31.8695 48.1772 30.4837L46.7028 29.1323C45.8612 30.0504 44.7348 30.536 43.216 30.536V32.536ZM48.167 30.4946C49.463 29.1224 50.072 27.3393 50.072 25.248H48.072C48.072 26.9327 47.593 28.1896 46.713 29.1214L48.167 30.4946ZM50.072 25.248C50.072 23.1576 49.4632 21.3836 48.1573 20.0392L46.7227 21.4328C47.5928 22.3284 48.072 23.5624 48.072 25.248H50.072ZM48.1772 20.0603C46.9032 18.6705 45.195 18.008 43.168 18.008V20.008C44.725 20.008 45.8648 20.4975 46.7028 21.4117L48.1772 20.0603ZM43.168 18.008C41.1401 18.008 39.4139 18.67 38.083 20.0389L39.517 21.4331C40.4261 20.498 41.6119 20.008 43.168 20.008V18.008ZM38.083 20.0389C36.7533 21.4066 36.12 23.1752 36.12 25.248H38.12C38.12 23.6088 38.6067 22.3694 39.517 21.4331L38.083 20.0389ZM36.12 25.248C36.12 27.3214 36.7532 29.0995 38.0735 30.4952L39.5265 29.1208C38.6068 28.1485 38.12 26.8867 38.12 25.248H36.12ZM38.0929 30.5151C39.4521 31.8743 41.1879 32.536 43.216 32.536V30.536C41.6601 30.536 40.4519 30.0457 39.5071 29.1009L38.0929 30.5151Z" fill="#1958e3"/>
</svg>
