<svg width="48" height="48" viewBox="0 0 48 48" fill="none" xmlns="http://www.w3.org/2000/svg">
<circle opacity="0.2" cx="24" cy="24" r="24" fill="#1958e3"/>
<g clip-path="url(#clip0)">
<path d="M15.0767 16.4888H16.4438V17.8548H15.0767V16.4888Z" fill="#1958e3"/>
<path d="M17.811 16.4888H19.1782V17.8548H17.811V16.4888Z" fill="#1958e3"/>
<path d="M20.5449 16.4888H21.9121V17.8548H20.5449V16.4888Z" fill="#1958e3"/>
<path d="M12.3428 13.7544V34.3344H35.6571V13.7544H12.3428ZM34.291 15.1205V19.2231H13.7088V15.1205H34.291ZM13.7088 32.9683V20.5892H34.291V32.9683H13.7088Z" fill="#1958e3"/>
<path d="M20.8874 22.6963L17.6748 26.7789L20.8874 30.8614L21.9609 30.0167L19.4132 26.7789L21.9609 23.541L20.8874 22.6963Z" fill="#1958e3"/>
<path d="M26.0386 23.541L28.5863 26.7789L26.0386 30.0167L27.112 30.8614L30.3246 26.7789L27.112 22.6963L26.0386 23.541Z" fill="#1958e3"/>
<path d="M23.3169 22.6777H24.683V30.8791H23.3169V22.6777Z" fill="#1958e3"/>
</g>
<ellipse cx="41.8285" cy="37.3714" rx="5.48571" ry="5.14286" fill="#1958e3"/>
<defs>
<clipPath id="clip0">
<rect width="23.3143" height="23.3143" fill="white" transform="translate(12.3428 12.3428)"/>
</clipPath>
</defs>
</svg>
