<svg width="64" height="64" viewBox="0 0 64 64" fill="none" xmlns="http://www.w3.org/2000/svg">
<g clip-path="url(#clip0)">
<path d="M63.3455 30.3534L48.5454 14.6733C47.6357 13.7085 46.1173 13.6645 45.1526 14.5749C44.1893 15.4846 44.1446 17.0037 45.055 17.9677L58.3007 31.9998L45.055 46.0335C44.1446 46.9975 44.1893 48.5159 45.1526 49.4263C45.6166 49.8639 46.2093 50.0806 46.7998 50.0806C47.4375 50.0806 48.0742 49.8279 48.5455 49.3294L63.3456 33.6485C64.2182 32.723 64.2182 31.2781 63.3455 30.3534Z" fill="white"/>
<path d="M18.9458 46.0329L5.70097 32L18.9458 17.9671C19.8554 17.0031 19.8114 15.4839 18.8474 14.5744C17.8842 13.6647 16.3642 13.7087 15.4547 14.6727L0.654566 30.3528C-0.218189 31.2776 -0.218189 32.7232 0.654566 33.6481L15.4554 49.3289C15.9274 49.8289 16.5634 50.0809 17.201 50.0809C17.7914 50.0809 18.3843 49.8633 18.8474 49.4257C19.8123 48.5161 19.8554 46.9969 18.9458 46.0329Z" fill="white"/>
<path d="M35.8828 6.58724C34.5732 6.38886 33.3476 7.28799 33.1476 8.59762L26.1075 54.6779C25.9075 55.9883 26.8075 57.2132 28.1179 57.4132C28.2412 57.4315 28.3627 57.4404 28.4835 57.4404C29.6492 57.4404 30.6716 56.59 30.8532 55.4028L37.8932 9.3225C38.0932 8.012 37.1932 6.78724 35.8828 6.58724Z" fill="white"/>
</g>
<defs>
<clipPath id="clip0">
<rect width="64" height="64" fill="white"/>
</clipPath>
</defs>
</svg>
