<svg width="48" height="48" viewBox="0 0 48 48" fill="none" xmlns="http://www.w3.org/2000/svg">
<circle opacity="0.25" cx="24" cy="24" r="24" fill="white"/>
<g clip-path="url(#clip0)">
<path d="M25.5 36H22.5C21.8 36 21 35.4 21 34.2V32.1C21 31.1 20.5 30.2 19.7 29.5C17.9 28.1 17 26.1 17 23.9C17.1 20.1 20.2 17.1 23.9 17C25.8 17 27.6 17.7 28.9 19C30.2 20.3 31 22.1 31 24C31 26.1 30.1 28.1 28.4 29.4C27.5 30.1 27 31.2 27 32.2V34.5C27 35.3 26.3 36 25.5 36ZM24 18C20.8 18 18.1 20.7 18 23.9C18 25.8 18.8 27.6 20.3 28.7C21.4 29.6 22 30.8 22 32.1V34.2C22 34.4 22 35 22.5 35H25.5C25.8 35 26 34.8 26 34.5V32.2C26 30.9 26.7 29.5 27.8 28.6C29.2 27.5 30 25.8 30 24C30 22.4 29.4 20.9 28.2 19.7C27.1 18.6 25.6 18 24 18Z" fill="white"/>
<path d="M26.5 33H21.5C21.2 33 21 32.8 21 32.5C21 32.2 21.2 32 21.5 32H26.5C26.8 32 27 32.2 27 32.5C27 32.8 26.8 33 26.5 33Z" fill="white"/>
<path d="M24 15C23.7 15 23.5 14.8 23.5 14.5V12.5C23.5 12.2 23.7 12 24 12C24.3 12 24.5 12.2 24.5 12.5V14.5C24.5 14.8 24.3 15 24 15Z" fill="white"/>
<path d="M30.6999 17.8002C30.5999 17.8002 30.3999 17.8002 30.2999 17.7002C30.0999 17.5002 30.0999 17.2002 30.2999 17.0002L31.6999 15.6002C31.8999 15.4002 32.1999 15.4002 32.3999 15.6002C32.5999 15.8002 32.5999 16.1002 32.3999 16.3002L30.9999 17.7002C30.9999 17.7002 30.7999 17.8002 30.6999 17.8002Z" fill="white"/>
<path d="M35.5 24.5H33.5C33.2 24.5 33 24.3 33 24C33 23.7 33.2 23.5 33.5 23.5H35.5C35.8 23.5 36 23.7 36 24C36 24.3 35.8 24.5 35.5 24.5Z" fill="white"/>
<path d="M32.0999 32.6C31.9999 32.6 31.7999 32.6 31.6999 32.5L30.2999 31.1C30.0999 30.9 30.0999 30.6 30.2999 30.4C30.4999 30.2 30.7999 30.2 30.9999 30.4L32.3999 31.8C32.5999 32 32.5999 32.3 32.3999 32.5C32.3999 32.6 32.2999 32.6 32.0999 32.6Z" fill="white"/>
<path d="M15.9001 32.6C15.8001 32.6 15.6001 32.6 15.5001 32.5C15.3001 32.3 15.3001 32 15.5001 31.8L16.9001 30.4C17.1001 30.2 17.4001 30.2 17.6001 30.4C17.8001 30.6 17.8001 30.9 17.6001 31.1L16.2001 32.5C16.1001 32.6 16.0001 32.6 15.9001 32.6Z" fill="white"/>
<path d="M14.5 24.5H12.5C12.2 24.5 12 24.3 12 24C12 23.7 12.2 23.5 12.5 23.5H14.5C14.8 23.5 15 23.7 15 24C15 24.3 14.8 24.5 14.5 24.5Z" fill="white"/>
<path d="M17.3001 17.8001C17.2001 17.8001 17.0001 17.8001 16.9001 17.7001L15.5001 16.2001C15.3001 16.0001 15.3001 15.7001 15.5001 15.5001C15.7001 15.3001 16.0001 15.3001 16.2001 15.5001L17.6001 16.9001C17.8001 17.1001 17.8001 17.4001 17.6001 17.6001C17.5001 17.7001 17.4001 17.8001 17.3001 17.8001Z" fill="white"/>
<path d="M28 24.5C27.7 24.5 27.5 24.3 27.5 24C27.5 22.1 25.9 20.5 24 20.5C23.7 20.5 23.5 20.3 23.5 20C23.5 19.7 23.7 19.5 24 19.5C26.5 19.5 28.5 21.5 28.5 24C28.5 24.3 28.3 24.5 28 24.5Z" fill="white"/>
</g>
<ellipse cx="39.7714" cy="40.8001" rx="5.48571" ry="5.14286" fill="white"/>
<defs>
<clipPath id="clip0">
<rect width="24" height="24" fill="white" transform="translate(12 12)"/>
</clipPath>
</defs>
</svg>
