<svg width="32" height="32" viewBox="0 0 32 32" fill="none" xmlns="http://www.w3.org/2000/svg">
<circle cx="16" cy="16" r="16" fill="#F9F9F9"/>
<path d="M18.8196 16.8983L16.0011 14.0798L13.1826 16.8983L13.8897 17.6054L15.5011 15.994V23.5H16.5011V15.994L18.1125 17.6054L18.8196 16.8983Z" fill="#1958e3"/>
<path d="M20.5 13.0454V13C20.5 10.5187 18.4812 8.5 16 8.5C13.5188 8.5 11.5 10.5187 11.5 13V13.0778C10.7594 13.2176 10.0767 13.5732 9.53769 14.1C9.20968 14.4184 8.94884 14.7993 8.77061 15.2202C8.59237 15.6411 8.50035 16.0935 8.5 16.5506C8.5 17.5231 8.89962 18.4494 9.62531 19.159C10.3344 19.8523 11.2918 20.25 12.2522 20.25H14.25V19.25H12.2522C10.7861 19.25 9.5 17.9886 9.5 16.5506C9.5 15.2297 10.6137 14.1157 12.0355 14.0145L12.5 13.9814V13C12.5 12.0717 12.8687 11.1815 13.5251 10.5251C14.1815 9.86875 15.0717 9.5 16 9.5C16.9283 9.5 17.8185 9.86875 18.4749 10.5251C19.1313 11.1815 19.5 12.0717 19.5 13V14.0012L19.9937 14.0075C21.446 14.0259 22.5 15.0954 22.5 16.5506C22.5 18.0643 21.3858 19.25 19.9634 19.25H17.75V20.25H19.9634C20.4399 20.2516 20.9114 20.1539 21.3479 19.9631C21.7845 19.7723 22.1765 19.4927 22.4991 19.1421C23.1445 18.4481 23.5 17.5278 23.5 16.5506C23.5 14.7244 22.2411 13.2935 20.5 13.0454Z" fill="#1958e3"/>
</svg>
