<svg width="40" height="40" viewBox="0 0 40 40" fill="none" xmlns="http://www.w3.org/2000/svg">
<rect width="40" height="40" rx="5" fill="#0B63A9" fill-opacity="0.15"/>
<path d="M26.364 25.3639L20 31.7279L13.636 25.3639C12.3773 24.1052 11.5202 22.5016 11.1729 20.7558C10.8257 19.0099 11.0039 17.2004 11.6851 15.5558C12.3663 13.9113 13.5198 12.5057 14.9999 11.5168C16.4799 10.5278 18.22 10 20 10C21.78 10 23.5201 10.5278 25.0001 11.5168C26.4802 12.5057 27.6337 13.9113 28.3149 15.5558C28.9961 17.2004 29.1743 19.0099 28.8271 20.7558C28.4798 22.5016 27.6227 24.1052 26.364 25.3639ZM20 22.9999C21.0609 22.9999 22.0783 22.5785 22.8284 21.8283C23.5786 21.0782 24 20.0608 24 18.9999C24 17.9391 23.5786 16.9216 22.8284 16.1715C22.0783 15.4213 21.0609 14.9999 20 14.9999C18.9391 14.9999 17.9217 15.4213 17.1716 16.1715C16.4214 16.9216 16 17.9391 16 18.9999C16 20.0608 16.4214 21.0782 17.1716 21.8283C17.9217 22.5785 18.9391 22.9999 20 22.9999ZM20 20.9999C19.4696 20.9999 18.9609 20.7892 18.5858 20.4141C18.2107 20.0391 18 19.5304 18 18.9999C18 18.4695 18.2107 17.9608 18.5858 17.5857C18.9609 17.2106 19.4696 16.9999 20 16.9999C20.5304 16.9999 21.0391 17.2106 21.4142 17.5857C21.7893 17.9608 22 18.4695 22 18.9999C22 19.5304 21.7893 20.0391 21.4142 20.4141C21.0391 20.7892 20.5304 20.9999 20 20.9999Z" fill="#77B1D6"/>
</svg>
