<svg width="450" height="1040" viewBox="0 0 450 1040" fill="none" xmlns="http://www.w3.org/2000/svg">
<path opacity="0.2" fill-rule="evenodd" clip-rule="evenodd" d="M336.532 238.401C359.659 226.644 383.278 217.862 406.49 206.272C439.721 189.68 467.025 150.49 503.948 154.809C538.222 158.818 553.961 200.949 577.476 226.273C599.434 249.92 621.901 272.346 638.684 299.911C656.82 329.697 677.24 360.008 680.058 394.752C682.919 430.029 671.025 465.252 654.633 496.57C638.627 527.15 619.209 561.642 586.686 573.14C552.302 585.297 515.598 554.244 479.371 558.536C451.682 561.816 432.608 598.53 404.979 594.669C377.084 590.77 366.124 554.247 342.179 539.364C319.08 525.006 290.027 524.212 267.382 509.146C240.061 490.968 212.005 471.314 196.447 442.403C179.838 411.542 162.882 372.574 176.548 340.36C190.995 306.305 235.239 297.352 266.408 277.488C289.224 262.947 312.413 250.663 336.532 238.401Z" fill="#5893C1"/>
<path opacity="0.2" fill-rule="evenodd" clip-rule="evenodd" d="M495.444 394.987C526.561 383.076 556.17 356.417 588.943 362.838C623.451 369.598 635.202 423.131 669.843 429.153C713.114 436.675 755.267 383.23 796.35 398.894C831.423 412.267 847.015 459.875 848.858 497.407C850.73 535.527 812.293 564.421 806.328 602.077C801.499 632.554 825.321 663.109 817.866 693.036C810.273 723.518 788.85 749.448 764.658 769.348C740.789 788.982 711.159 801.314 680.584 805.962C651.561 810.374 623.381 794.511 594.019 795.287C559.708 796.193 526.493 820.355 493.437 810.906C460.619 801.527 436.847 772.182 416.614 744.58C396.329 716.906 375.32 685.341 376.29 651.094C377.268 616.57 419.378 594.014 421.854 559.572C424.869 517.639 374.457 476.684 391.584 438.379C407.097 403.683 460.014 408.548 495.444 394.987Z" fill="#5F76A2"/>
</svg>
