<svg width="453" height="236" viewBox="0 0 453 236" fill="none" xmlns="http://www.w3.org/2000/svg">
<path opacity="0.1" fill-rule="evenodd" clip-rule="evenodd" d="M-17.8419 -12.5833C13.0782 -24.9976 42.2497 -52.1338 75.123 -46.2463C109.737 -40.0471 122.355 13.2876 157.089 18.7464C200.476 25.5652 241.757 -28.557 283.088 -13.5623C318.374 -0.761073 334.736 46.5874 337.189 84.0846C339.679 122.17 301.717 151.684 296.364 189.432C292.031 219.983 316.346 250.148 309.377 280.192C302.28 310.792 281.282 337.067 257.416 357.357C233.869 377.376 204.443 390.188 173.948 395.332C145 400.214 116.566 384.811 87.2203 386.063C52.9285 387.527 20.1098 412.224 -13.0952 403.314C-46.0603 394.468 -70.3058 365.514 -90.9846 338.244C-111.717 310.903 -133.235 279.683 -132.821 245.425C-132.404 210.89 -90.6662 187.653 -88.7495 153.176C-86.4159 111.199 -137.486 71.0674 -120.983 32.4895C-106.036 -2.45324 -53.0466 1.55118 -17.8419 -12.5833Z" fill="#5F76A2"/>
</svg>
