<svg width="351" height="263" viewBox="0 0 351 263" fill="none" xmlns="http://www.w3.org/2000/svg">
<path opacity="0.2" fill-rule="evenodd" clip-rule="evenodd" d="M311.388 149.931C306.773 158.531 301.366 166.317 296.689 174.883C289.992 187.146 289.981 205.114 277.652 211.713C266.207 217.839 252.295 208.211 239.593 205.444C227.732 202.859 215.977 200.762 204.872 195.856C192.872 190.555 180.054 185.582 171.719 175.459C163.256 165.181 159.361 151.749 157.694 138.557C156.067 125.675 154.652 110.852 162.224 100.314C170.23 89.1727 188.235 90.8758 198.5 81.7669C206.345 74.805 204.347 59.3702 213.708 54.6264C223.159 49.8368 234.39 58.7602 244.982 58.2112C255.199 57.6817 264.341 51.6849 274.571 51.472C286.913 51.215 299.799 51.2561 310.814 56.8406C322.574 62.8019 336.182 71.1917 338.883 84.0751C341.739 97.6948 330 109.965 324.644 122.796C320.722 132.188 316.201 140.963 311.388 149.931Z" fill="#5893C1"/>
<path opacity="0.2" fill-rule="evenodd" clip-rule="evenodd" d="M203.202 160.843C196.152 171.206 192.737 185.8 181.238 190.859C169.13 196.185 154 182.18 142.009 187.763C127.031 194.737 125.498 220.297 109.446 224.286C95.7432 227.693 80.7001 216.342 72.0671 205.148C63.2988 193.779 68.9597 176.599 62.7113 163.69C57.6542 153.242 43.7336 148.925 39.6058 138.082C35.4016 127.038 36.4454 114.429 39.64 103.086C42.792 91.8949 49.2919 81.7207 57.7343 73.7166C65.7484 66.1187 77.8583 64.9624 86.7583 58.4144C97.1583 50.7627 102.224 36.1655 114.461 31.9809C126.61 27.8265 140.255 31.7802 152.433 35.9563C164.643 40.1432 177.912 45.3764 184.97 56.1599C192.086 67.0306 183.929 83.043 190.564 94.2101C198.643 107.806 223.008 109.622 225.95 125.13C228.614 139.176 211.229 149.043 203.202 160.843Z" fill="#5F76A2"/>
</svg>
