<svg width="138" height="343" viewBox="0 0 138 343" fill="none" xmlns="http://www.w3.org/2000/svg">
<path opacity="0.2" fill-rule="evenodd" clip-rule="evenodd" d="M25.4627 34.8544C34.2014 39.2002 42.152 44.3624 50.859 48.7713C63.3245 55.0834 81.2837 54.536 88.263 66.6543C94.7417 77.9033 85.5507 92.1075 83.1793 104.889C80.9648 116.825 79.2333 128.64 74.6749 139.892C69.7493 152.051 65.1776 165.017 55.3186 173.662C45.3079 182.441 32.0038 186.751 18.8696 188.827C6.04453 190.854 -8.72693 192.729 -19.4952 185.488C-30.88 177.833 -29.7373 159.783 -39.1608 149.806C-46.3631 142.181 -61.7284 144.658 -66.7608 135.449C-71.8417 126.151 -63.2717 114.648 -64.1495 104.079C-64.9963 93.8826 -71.2742 84.9316 -71.805 74.7136C-72.4454 62.3857 -72.8047 49.5046 -67.5652 38.3206C-61.9722 26.3819 -54.0093 12.5197 -41.2161 9.41932C-27.6917 6.14175 -15.0624 17.4932 -2.07177 22.4485C7.43783 26.076 16.3494 30.3223 25.4627 34.8544Z" fill="#5893C1"/>
<path opacity="0.2" fill-rule="evenodd" clip-rule="evenodd" d="M39.7312 142.649C50.3088 149.373 65.0012 152.333 70.4149 163.67C76.1153 175.607 62.5867 191.165 68.5397 202.976C75.9757 217.729 101.571 218.468 106.058 234.388C109.888 247.979 99.0101 263.367 88.0903 272.344C76.9993 281.461 59.6516 276.337 46.9425 282.983C36.6565 288.363 32.7742 302.411 22.0648 306.873C11.1572 311.419 -1.4787 310.767 -12.9149 307.927C-24.1987 305.124 -34.57 298.944 -42.8325 290.754C-50.6759 282.98 -52.2079 270.912 -59.0293 262.219C-67.0005 252.062 -81.748 247.453 -86.3109 235.352C-90.8408 223.338 -87.3131 209.576 -83.5174 197.274C-79.7119 184.94 -74.8936 171.515 -64.3347 164.125C-53.6903 156.675 -37.4322 164.33 -26.4767 157.351C-13.1381 148.854 -12.0806 124.444 3.32826 121.022C17.2852 117.923 27.6879 134.993 39.7312 142.649Z" fill="#5F76A2"/>
</svg>
