<svg width="277" height="236" viewBox="0 0 277 236" fill="none" xmlns="http://www.w3.org/2000/svg">
<path opacity="0.1" fill-rule="evenodd" clip-rule="evenodd" d="M178.654 -118.382C204.279 -139.678 223.726 -174.45 256.822 -178.925C291.669 -183.636 320.031 -136.738 354.766 -142.19C398.154 -149.002 420.854 -213.173 464.793 -211.572C502.304 -210.205 532.394 -170.153 546.224 -135.213C560.271 -99.7253 533.185 -59.9941 539.662 -22.4226C544.904 7.98562 577.296 29.2434 579.874 59.9771C582.5 91.2799 570.568 122.727 554.072 149.357C537.796 175.631 513.715 196.847 486.265 211.092C460.208 224.614 428.421 218.67 400.873 228.859C368.681 240.765 345.014 274.335 310.676 276.033C276.587 277.72 244.632 257.593 216.589 237.975C188.473 218.307 158.42 195.188 148.311 162.453C138.12 129.452 170.724 94.5382 161.978 61.1339C151.331 20.4632 90.4164 -2.07897 94.2973 -43.8585C97.8126 -81.7012 149.478 -94.1348 178.654 -118.382Z" fill="#5F76A2"/>
</svg>
