<svg width="40" height="40" viewBox="0 0 40 40" fill="none" xmlns="http://www.w3.org/2000/svg">
<path d="M21.875 33.125H33.125V21.875H21.875V33.125ZM23.125 23.125H31.875V31.875H23.125V23.125Z" fill="#00103C"/>
<path d="M34.375 19.375V15.625H30.625V19.375H29.375V15.625H27.0219C27.7106 14.7681 28.125 13.6819 28.125 12.5C28.125 11.0206 27.4656 9.67562 26.4069 8.75H31.25C31.5944 8.75 31.875 9.03063 31.875 9.375V10.74C31.1494 10.9987 30.625 11.6862 30.625 12.5C30.625 13.5337 31.4662 14.375 32.5 14.375C33.5337 14.375 34.375 13.5337 34.375 12.5C34.375 11.6862 33.8506 10.9987 33.125 10.74V9.375C33.125 8.34125 32.2838 7.5 31.25 7.5H24.565C24.3406 7.02688 24.0406 6.60563 23.6763 6.25H36.25C36.5944 6.25 36.875 6.53062 36.875 6.875V8.24C36.1494 8.49875 35.625 9.18625 35.625 10C35.625 11.0337 36.4663 11.875 37.5 11.875C38.5337 11.875 39.375 11.0337 39.375 10C39.375 9.18625 38.8506 8.49875 38.125 8.24V6.875C38.125 5.84125 37.2837 5 36.25 5H20.625V5.00875C20.5775 5.00875 20.5319 5.00062 20.4837 5.0025C19.9125 2.4675 17.6556 0.625 15 0.625C12.7794 0.625 10.7987 1.91813 9.89 3.90125C9.51937 3.80063 9.13813 3.75 8.75 3.75C6.51312 3.75 4.6625 5.43812 4.4075 7.65562C2.21875 8.20562 0.625 10.2037 0.625 12.5C0.625 14.3456 1.63312 15.9575 3.125 16.8237V31.25C3.125 32.2838 3.96625 33.125 5 33.125H8.24C8.49875 33.8506 9.18625 34.375 10 34.375C11.0337 34.375 11.875 33.5337 11.875 32.5C11.875 31.4662 11.0337 30.625 10 30.625C9.18625 30.625 8.49875 31.1494 8.24 31.875H5C4.65562 31.875 4.375 31.5944 4.375 31.25V17.3356C4.77562 17.4394 5.1925 17.5 5.625 17.5V26.25C5.625 27.2838 6.46625 28.125 7.5 28.125H9.49C9.74875 28.8506 10.4362 29.375 11.25 29.375C12.2837 29.375 13.125 28.5338 13.125 27.5C13.125 26.4662 12.2837 25.625 11.25 25.625C10.4362 25.625 9.74875 26.1494 9.49 26.875H7.5C7.15562 26.875 6.875 26.5944 6.875 26.25V17.5H8.125V21.25C8.125 22.2838 8.96625 23.125 10 23.125H10.74C10.9987 23.8506 11.6862 24.375 12.5 24.375C13.5337 24.375 14.375 23.5338 14.375 22.5C14.375 21.4662 13.5337 20.625 12.5 20.625C11.6862 20.625 10.9987 21.1494 10.74 21.875H10C9.65563 21.875 9.375 21.5944 9.375 21.25V17.5H20.625V19.375C19.9356 19.375 19.375 19.9356 19.375 20.625H15.625V24.375H19.375V25.625H15.625V29.375H19.375V30.625H15.625V34.375H19.375C19.375 35.0644 19.9356 35.625 20.625 35.625V39.375H24.375V35.625H25.625V39.375H29.375V35.625H30.625V39.375H34.375V35.625C35.0644 35.625 35.625 35.0644 35.625 34.375H39.375V30.625H35.625V29.375H39.375V25.625H35.625V24.375H39.375V20.625H35.625C35.625 19.9356 35.0644 19.375 34.375 19.375ZM32.5 13.125C32.1556 13.125 31.875 12.8444 31.875 12.5C31.875 12.1556 32.1556 11.875 32.5 11.875C32.8444 11.875 33.125 12.1556 33.125 12.5C33.125 12.8444 32.8444 13.125 32.5 13.125ZM37.5 10.625C37.1556 10.625 36.875 10.3444 36.875 10C36.875 9.65563 37.1556 9.375 37.5 9.375C37.8444 9.375 38.125 9.65563 38.125 10C38.125 10.3444 37.8444 10.625 37.5 10.625ZM10 31.875C10.3444 31.875 10.625 32.1556 10.625 32.5C10.625 32.8444 10.3444 33.125 10 33.125C9.65563 33.125 9.375 32.8444 9.375 32.5C9.375 32.1556 9.65563 31.875 10 31.875ZM11.25 26.875C11.5944 26.875 11.875 27.1556 11.875 27.5C11.875 27.8444 11.5944 28.125 11.25 28.125C10.9056 28.125 10.625 27.8444 10.625 27.5C10.625 27.1556 10.9056 26.875 11.25 26.875ZM12.5 21.875C12.8444 21.875 13.125 22.1556 13.125 22.5C13.125 22.8444 12.8444 23.125 12.5 23.125C12.1556 23.125 11.875 22.8444 11.875 22.5C11.875 22.1556 12.1556 21.875 12.5 21.875ZM16.875 23.125V21.875H19.375V23.125H16.875ZM16.875 28.125V26.875H19.375V28.125H16.875ZM16.875 33.125V31.875H19.375V33.125H16.875ZM31.875 16.875H33.125V19.375H31.875V16.875ZM28.125 19.375H26.875V16.875H28.125V19.375ZM25.625 16.8237V19.375H24.375V17.3356C24.8188 17.2206 25.2381 17.0481 25.625 16.8237ZM1.875 12.5C1.875 10.6488 3.2575 9.055 5.09063 8.79313L5.625 8.66687V8.125C5.625 6.40188 7.02688 5 8.75 5C9.1825 5 9.60312 5.08813 10.0006 5.2625L10.6306 5.53813L10.8456 4.885C11.4369 3.085 13.1062 1.875 15 1.875C17.2281 1.875 19.0963 3.54313 19.345 5.75625L19.4194 6.41875L20.0756 6.30188C20.2712 6.26688 20.4506 6.25 20.625 6.25C22.0037 6.25 23.2038 7.13438 23.6106 8.45062L23.7144 8.785L24.0537 8.87125C25.715 9.295 26.875 10.7875 26.875 12.5C26.875 14.5681 25.1931 16.25 23.125 16.25H5.625C3.55687 16.25 1.875 14.5681 1.875 12.5ZM21.875 17.5H23.125V19.375H21.875V17.5ZM23.125 38.125H21.875V35.625H23.125V38.125ZM28.125 38.125H26.875V35.625H28.125V38.125ZM33.125 38.125H31.875V35.625H33.125V38.125ZM20.625 34.375V20.625H34.375L34.3756 34.375H20.625ZM38.125 31.875V33.125H35.625V31.875H38.125ZM38.125 26.875V28.125H35.625V26.875H38.125ZM38.125 21.875V23.125H35.625V21.875H38.125Z" fill="#00103C"/>
<path d="M10.0182 12.5H12.4795L13.1426 15.1519L14.3551 14.8487L12.362 6.875H10.1357L8.14258 14.8481L9.35508 15.1512L10.0182 12.5ZM11.3857 8.125L12.167 11.25H10.3307L11.112 8.125H11.3857Z" fill="#00103C"/>
<path d="M19.375 13.75H18.125V8.125H19.375V6.875H15.625V8.125H16.875V13.75H15.625V15H19.375V13.75Z" fill="#00103C"/>
</svg>
