<svg width="40" height="40" viewBox="0 0 40 40" fill="none" xmlns="http://www.w3.org/2000/svg">
<path d="M0.75 5C0.75 2.65279 2.65279 0.75 5 0.75H35C37.3472 0.75 39.25 2.65279 39.25 5V35C39.25 37.3472 37.3472 39.25 35 39.25H5C2.65279 39.25 0.75 37.3472 0.75 35V5Z" stroke="#00103C" stroke-width="1.5"/>
<g clip-path="url(#clip0)">
<path d="M23.5094 9.49003L24.6046 7.66462C24.7291 7.45673 24.662 7.18744 24.4541 7.06288C24.2458 6.93788 23.977 7.00498 23.8524 7.21331L22.6967 9.13959C22.0086 8.89486 21.2717 8.75451 20.5007 8.75451C19.7297 8.75451 18.9928 8.89486 18.3047 9.13959L17.149 7.21331C17.0245 7.00498 16.7552 6.93832 16.5473 7.06288C16.3394 7.18744 16.2723 7.45673 16.3968 7.66462L17.492 9.49003C15.3749 10.5843 13.9219 12.7904 13.9219 15.3338C13.9219 15.5763 14.1184 15.7724 14.3605 15.7724H26.6409C26.883 15.7724 27.0795 15.5763 27.0795 15.3338C27.0791 12.7908 25.6265 10.5847 23.5094 9.49003ZM14.8157 14.8952C15.0403 11.9553 17.5043 9.63213 20.5007 9.63213C23.4971 9.63213 25.9611 11.9553 26.1857 14.8952H14.8157Z" fill="#00103C"/>
<path d="M23.5604 11.9844H22.9824C22.8227 11.9844 22.6934 12.1138 22.6934 12.2734V12.8515C22.6934 13.0111 22.8227 13.1405 22.9824 13.1405H23.5609C23.7205 13.1405 23.8499 13.0111 23.8499 12.8515V12.2734C23.8499 12.1138 23.7201 11.9844 23.5604 11.9844Z" fill="#00103C"/>
<path d="M18.0179 11.9844H17.4394C17.2798 11.9844 17.1504 12.1138 17.1504 12.2734V12.8515C17.1504 13.0111 17.2798 13.1405 17.4394 13.1405H18.0179C18.1776 13.1405 18.3069 13.0111 18.3069 12.8515V12.2734C18.3069 12.1138 18.1776 11.9844 18.0179 11.9844Z" fill="#00103C"/>
<path d="M26.641 16.2109H14.3605C14.1184 16.2109 13.9219 16.407 13.9219 16.6495V25.4963C13.9219 26.6643 14.8732 27.6142 16.042 27.6142H16.5534V30.2484C16.5534 31.2142 17.3402 32.0001 18.3078 32.0001C19.2753 32.0001 20.0621 31.2142 20.0621 30.2484V27.6142H20.9393V30.2484C20.9393 31.2142 21.7261 32.0001 22.6937 32.0001C23.6612 32.0001 24.448 31.2142 24.448 30.2484V27.6142H24.9594C26.1287 27.6142 27.0795 26.6643 27.0795 25.4963V16.6495C27.0795 16.407 26.8835 16.2109 26.641 16.2109ZM26.2024 25.4963C26.2024 26.1805 25.6449 26.7371 24.9594 26.7371H24.0094C23.7673 26.7371 23.5708 26.9331 23.5708 27.1757V30.2484C23.5708 30.7309 23.1774 31.123 22.6937 31.123C22.2099 31.123 21.8165 30.7304 21.8165 30.2484V27.1757C21.8165 26.9331 21.62 26.7371 21.3779 26.7371H19.6235C19.3814 26.7371 19.1849 26.9331 19.1849 27.1757V30.2484C19.1849 30.7309 18.7915 31.123 18.3078 31.123C17.824 31.123 17.4306 30.7304 17.4306 30.2484V27.1757C17.4306 26.9331 17.2341 26.7371 16.992 26.7371H16.0425C15.3569 26.7371 14.7991 26.1801 14.7991 25.4963V17.0881H26.2024V25.4963Z" fill="#00103C"/>
<path d="M29.0526 16.2109C28.2062 16.2109 27.5176 16.9004 27.5176 17.7478V23.8845C27.5176 24.7318 28.2062 25.4213 29.0526 25.4213C29.8991 25.4213 30.5877 24.7318 30.5877 23.8845V17.7478C30.5877 16.9004 29.8991 16.2109 29.0526 16.2109ZM29.7105 23.8845C29.7105 24.2481 29.4154 24.5441 29.0526 24.5441C28.6899 24.5441 28.3948 24.2481 28.3948 23.8845V17.7478C28.3948 17.3842 28.6899 17.0881 29.0526 17.0881C29.4154 17.0881 29.7105 17.3842 29.7105 17.7478V23.8845Z" fill="#00103C"/>
<path d="M11.9472 16.2109C11.1007 16.2109 10.4121 16.9004 10.4121 17.7478V23.8845C10.4121 24.7318 11.1007 25.4213 11.9472 25.4213C12.7936 25.4213 13.4822 24.7318 13.4822 23.8845V17.7478C13.4822 16.9004 12.7936 16.2109 11.9472 16.2109ZM12.6051 23.8845C12.6051 24.2481 12.3099 24.5441 11.9472 24.5441C11.5845 24.5441 11.2893 24.2481 11.2893 23.8845V17.7478C11.2893 17.3842 11.5845 17.0881 11.9472 17.0881C12.3099 17.0881 12.6051 17.3842 12.6051 17.7478V23.8845Z" fill="#00103C"/>
</g>
<defs>
<clipPath id="clip0">
<rect width="25" height="25" fill="white" transform="translate(8 7)"/>
</clipPath>
</defs>
</svg>
