<svg width="40" height="40" viewBox="0 0 40 40" fill="none" xmlns="http://www.w3.org/2000/svg">
<path d="M0.75 5C0.75 2.65279 2.65279 0.75 5 0.75H35C37.3472 0.75 39.25 2.65279 39.25 5V35C39.25 37.3472 37.3472 39.25 35 39.25H5C2.65279 39.25 0.75 37.3472 0.75 35V5Z" stroke="#FDFDFD" stroke-width="1.5"/>
<g clip-path="url(#clip0)">
<path d="M29.2848 23.8259C28.5659 23.3944 27.0706 22.4959 27.0706 20.1587C27.0706 18.1861 28.3907 17.1907 29.0998 16.6559L29.1146 16.6446C29.3993 16.43 29.4671 16.0304 29.2695 15.7336C27.6853 13.3551 24.9647 13.2864 24.4357 13.2963H24.4326C24.0698 13.2967 23.7236 13.3385 23.3953 13.4045C23.5166 13.3075 23.6342 13.2042 23.7474 13.0946C24.8807 11.9981 25.5035 10.3803 25.4555 8.65468C25.4451 8.29052 25.147 8 24.7824 8C23.5565 8 22.1628 8.73236 21.1448 9.9115C20.1192 11.0996 19.6401 12.523 19.831 13.8162C19.8467 13.9235 19.888 14.0214 19.9473 14.1054C19.7676 14.0452 19.5777 13.9752 19.39 13.906C18.677 13.6434 17.8683 13.3457 17.1112 13.3457C17.0959 13.3457 15.5567 13.3569 14.0197 14.3115C12.6753 15.1471 11.0723 16.8862 11.0723 20.4286C11.0723 22.2709 11.7921 24.8501 12.9061 27.0001C13.6757 28.4855 15.2729 30.9784 17.3241 30.9901H17.3461C18.8418 30.9901 20.0811 30.1069 20.9239 30.1069C22.3635 30.1069 22.8758 31 24.4326 31C25.8282 31 27.1806 29.9398 28.4527 27.8496C28.9197 27.0818 29.283 26.3225 29.5052 25.8205C29.9296 24.8641 29.9296 24.7365 29.9296 24.6431C29.9296 24.2134 29.6018 24.0163 29.2848 23.8259ZM22.1645 10.7916C22.7173 10.1513 23.4137 9.67621 24.0734 9.46652C23.9472 10.5123 23.5053 11.4548 22.8107 12.1265C22.324 12.5976 21.7398 12.9038 21.1466 13.0093C21.2095 12.2693 21.5633 11.488 22.1645 10.7916ZM27.2367 27.2551C26.2754 28.8016 25.2794 29.6529 24.4326 29.6529C23.2674 29.6529 22.7227 28.7598 20.9239 28.7598C19.7102 28.7598 18.5521 29.6493 17.3317 29.643C16.3798 29.6377 15.1422 28.3876 14.1023 26.3804C13.0799 24.4079 12.4193 22.0716 12.4193 20.4286C12.4193 18.1026 13.184 16.4381 14.691 15.4808C15.8643 14.7358 17.0645 14.6941 17.1153 14.6927C18.1669 14.6954 19.6267 15.6263 20.6904 15.6263C21.6482 15.6263 22.9306 14.6433 24.4375 14.6433H24.4622C24.8277 14.6362 26.5533 14.677 27.7657 15.9927C26.909 16.7142 25.7235 18.0119 25.7235 20.1587C25.7235 23.0747 27.5677 24.3549 28.4388 24.8888C28.2219 25.4141 27.8084 26.336 27.2367 27.2551Z" fill="#FDFDFD"/>
</g>
<defs>
<clipPath id="clip0">
<rect width="23" height="23" fill="white" transform="translate(9 8)"/>
</clipPath>
</defs>
</svg>
