<svg width="40" height="40" viewBox="0 0 40 40" fill="none" xmlns="http://www.w3.org/2000/svg">
<path d="M38.125 3.75H36.875V1.875C36.875 1.70924 36.8092 1.55027 36.6919 1.43306C36.5747 1.31585 36.4158 1.25 36.25 1.25H3.75C3.58424 1.25 3.42527 1.31585 3.30806 1.43306C3.19085 1.55027 3.125 1.70924 3.125 1.875V3.75H1.875C1.70924 3.75 1.55027 3.81585 1.43306 3.93306C1.31585 4.05027 1.25 4.20924 1.25 4.375V24.375C1.25 24.5408 1.31585 24.6997 1.43306 24.8169C1.55027 24.9342 1.70924 25 1.875 25H38.125C38.2908 25 38.4497 24.9342 38.5669 24.8169C38.6842 24.6997 38.75 24.5408 38.75 24.375V4.375C38.75 4.20924 38.6842 4.05027 38.5669 3.93306C38.4497 3.81585 38.2908 3.75 38.125 3.75ZM35.625 21.875H20.625V2.5H35.625V21.875ZM4.375 2.5H19.375V21.875H4.375V2.5ZM37.5 23.75H2.5V5H3.125V22.5C3.125 22.6658 3.19085 22.8247 3.30806 22.9419C3.42527 23.0592 3.58424 23.125 3.75 23.125H36.25C36.4158 23.125 36.5747 23.0592 36.6919 22.9419C36.8092 22.8247 36.875 22.6658 36.875 22.5V5H37.5V23.75Z" fill="#00103C"/>
<path d="M35 26.25H5C4.83424 26.25 4.67527 26.3158 4.55806 26.4331C4.44085 26.5503 4.375 26.7092 4.375 26.875V31.875C4.375 32.0408 4.44085 32.1997 4.55806 32.3169C4.67527 32.4342 4.83424 32.5 5 32.5H35C35.1658 32.5 35.3247 32.4342 35.4419 32.3169C35.5592 32.1997 35.625 32.0408 35.625 31.875V26.875C35.625 26.7092 35.5592 26.5503 35.4419 26.4331C35.3247 26.3158 35.1658 26.25 35 26.25ZM34.375 31.25H5.625V27.5H6.875V28.75H8.125V27.5H9.375V28.75H10.625V27.5H11.875V28.75H13.125V27.5H14.375V28.75H15.625V27.5H16.875V28.75H18.125V27.5H19.375V28.75H20.625V27.5H21.875V28.75H23.125V27.5H24.375V28.75H25.625V27.5H26.875V28.75H28.125V27.5H29.375V28.75H30.625V27.5H31.875V28.75H33.125V27.5H34.375V31.25Z" fill="#00103C"/>
<path d="M32.5006 33.75H9.37558C9.27888 33.749 9.18324 33.7704 9.09621 33.8125L5.34621 35.6875C5.2422 35.7394 5.15471 35.8192 5.09355 35.918C5.0324 36.0168 5 36.1307 5 36.2469C5 36.3631 5.0324 36.477 5.09355 36.5758C5.15471 36.6746 5.2422 36.7544 5.34621 36.8063L9.09621 38.6813C9.18272 38.7256 9.27838 38.7492 9.37558 38.75H32.5006C33.1636 38.75 33.7995 38.4866 34.2684 38.0178C34.7372 37.549 35.0006 36.9131 35.0006 36.25C35.0006 35.587 34.7372 34.9511 34.2684 34.4823C33.7995 34.0134 33.1636 33.75 32.5006 33.75ZM11.5093 36.875H27.5006V37.5H10.8843L11.5093 36.875ZM27.5006 35.625H11.5093L10.8843 35H27.5006V35.625ZM9.25058 35.1357L10.3668 36.25L9.25058 37.3644L7.02308 36.25L9.25058 35.1357ZM28.7506 35H30.0006V37.5H28.7506V35ZM32.5006 37.5H31.2506V35H32.5006C32.8321 35 33.15 35.1317 33.3845 35.3662C33.6189 35.6006 33.7506 35.9185 33.7506 36.25C33.7506 36.5816 33.6189 36.8995 33.3845 37.1339C33.15 37.3683 32.8321 37.5 32.5006 37.5Z" fill="#00103C"/>
<path d="M6.87501 14.375C6.8736 15.2235 7.08812 16.0583 7.49839 16.801C7.90866 17.5437 8.50118 18.1698 9.22016 18.6203C9.93915 19.0708 10.761 19.3309 11.6082 19.3762C12.4555 19.4215 13.3003 19.2504 14.0632 18.8791C14.8261 18.5077 15.482 17.9484 15.9691 17.2536C16.4561 16.5589 16.7584 15.7516 16.8474 14.9079C16.9364 14.0641 16.8092 13.2115 16.4779 12.4304C16.1465 11.6494 15.6218 10.9655 14.9531 10.4431L16.7619 7.85813C16.8274 7.76447 16.8659 7.65466 16.8733 7.54063C16.8808 7.42661 16.8568 7.31272 16.804 7.21137C16.7512 7.11001 16.6717 7.02506 16.574 6.96576C16.4763 6.90645 16.3643 6.87506 16.25 6.875H7.50001C7.38574 6.87506 7.27367 6.90645 7.17599 6.96576C7.07831 7.02506 6.99877 7.11001 6.94599 7.21137C6.89322 7.31272 6.86925 7.42661 6.87668 7.54063C6.88411 7.65466 6.92265 7.76447 6.98813 7.85813L8.79688 10.4431C8.19879 10.9094 7.71485 11.5058 7.38184 12.1871C7.04882 12.8684 6.87548 13.6167 6.87501 14.375ZM8.70001 8.125H15.05L13.8788 9.7975C13.2475 9.51888 12.565 9.37498 11.875 9.37498C11.185 9.37498 10.5025 9.51888 9.87126 9.7975L8.70001 8.125ZM13.1419 10.85L11.875 12.66L10.6081 10.8475C11.4261 10.5475 12.3239 10.5475 13.1419 10.8475V10.85ZM11.3631 14.1081C11.4208 14.1904 11.4974 14.2576 11.5865 14.3039C11.6756 14.3503 11.7746 14.3745 11.875 14.3745C11.9755 14.3745 12.0744 14.3503 12.1635 14.3039C12.2526 14.2576 12.3292 14.1904 12.3869 14.1081L14.2369 11.4656C14.8388 11.9537 15.2747 12.6163 15.4847 13.3622C15.6947 14.1082 15.6684 14.9009 15.4095 15.6313C15.1506 16.3617 14.6717 16.994 14.0388 17.4411C13.4059 17.8883 12.65 18.1284 11.875 18.1284C11.1001 18.1284 10.3441 17.8883 9.71122 17.4411C9.07829 16.994 8.59944 16.3617 8.34051 15.6313C8.08159 14.9009 8.05531 14.1082 8.2653 13.3622C8.47528 12.6163 8.91121 11.9537 9.51313 11.4656L11.3631 14.1081Z" fill="#00103C"/>
<path d="M23.75 19.375H32.5C32.6658 19.375 32.8247 19.3092 32.9419 19.1919C33.0592 19.0747 33.125 18.9158 33.125 18.75V10C33.125 9.83424 33.0592 9.67527 32.9419 9.55806C32.8247 9.44085 32.6658 9.375 32.5 9.375H31.9506L33.0131 7.85813C33.0787 7.76439 33.1172 7.65446 33.1246 7.54032C33.132 7.42618 33.1079 7.31221 33.055 7.21081C33.0021 7.10942 32.9223 7.02448 32.8245 6.96527C32.7266 6.90606 32.6144 6.87484 32.5 6.875H23.75C23.6357 6.87506 23.5237 6.90645 23.426 6.96576C23.3283 7.02506 23.2488 7.11001 23.196 7.21137C23.1432 7.31272 23.1192 7.42661 23.1267 7.54063C23.1341 7.65466 23.1726 7.76447 23.2381 7.85813L24.2994 9.375H23.75C23.5842 9.375 23.4253 9.44085 23.3081 9.55806C23.1908 9.67527 23.125 9.83424 23.125 10V18.75C23.125 18.9158 23.1908 19.0747 23.3081 19.1919C23.4253 19.3092 23.5842 19.375 23.75 19.375ZM24.95 8.125H31.3L30.425 9.375H25.825L24.95 8.125ZM29.5494 10.625L28.125 12.66L26.7006 10.625H29.5494ZM27.6119 14.1081C27.6695 14.1904 27.7461 14.2576 27.8352 14.3039C27.9243 14.3503 28.0233 14.3745 28.1238 14.3745C28.2242 14.3745 28.3232 14.3503 28.4123 14.3039C28.5014 14.2576 28.578 14.1904 28.6356 14.1081L31.0756 10.625H31.875V18.125H24.375V10.625H25.1744L27.6119 14.1081Z" fill="#00103C"/>
</svg>
