<svg width="40" height="40" viewBox="0 0 40 40" fill="none" xmlns="http://www.w3.org/2000/svg">
<path d="M36 6H18V7.33333H36V6Z" fill="#00103C"/>
<path d="M29.3333 8.6665H18V9.99984H29.3333V8.6665Z" fill="#00103C"/>
<path d="M29.3333 11.3335H18V12.6668H29.3333V11.3335Z" fill="#00103C"/>
<path d="M36.0007 3.3335H23.334V4.66683H36.0007V3.3335Z" fill="#00103C"/>
<path d="M21.9993 3.3335H20.666V4.66683H21.9993V3.3335Z" fill="#00103C"/>
<path d="M20.6673 26.6665H19.334V27.9998H20.6673V26.6665Z" fill="#00103C"/>
<path d="M11.1372 4.47099L10.1945 3.52832L8.8612 4.86165C8.60095 5.12199 8.60095 5.54399 8.8612 5.80432L10.1945 7.13765L11.1372 6.19499L10.2752 5.33299L11.1372 4.47099Z" fill="#00103C"/>
<path d="M16.4713 4.86165L15.138 3.52832L14.1953 4.47099L15.0573 5.33299L14.1953 6.19499L15.138 7.13765L16.4713 5.80432C16.7316 5.54399 16.7316 5.12199 16.4713 4.86165Z" fill="#00103C"/>
<path d="M12.7018 3.12165L11.3672 7.12158L12.6314 7.54337L13.9659 3.54344L12.7018 3.12165Z" fill="#00103C"/>
<path d="M34.6673 20.6667V15.3333H33.334V20.6667H32.0007V14H30.6673V20.6667H29.334V17.3333H28.0007V20.6667H26.6673V16.6667H25.334V20.6667H24.0007V18H22.6673V20.6667H21.334V22H36.0007V20.6667H34.6673Z" fill="#00103C"/>
<path d="M35.3327 0H4.66602C2.45777 0.00216667 0.668182 1.79175 0.666016 4V17.084V17.09V24.6667V26.6667C0.668182 28.8749 2.45777 30.6645 4.66602 30.6667H12.9207L10.254 36H6.66602C5.56143 36 4.66602 36.8954 4.66602 38C4.66602 39.1046 5.56143 40 6.66602 40H33.3327C34.4373 40 35.3327 39.1046 35.3327 38C35.3327 36.8954 34.4373 36 33.3327 36H29.7447L27.078 30.6667H35.3327C37.5409 30.6645 39.3305 28.8749 39.3327 26.6667V4C39.3305 1.79175 37.5409 0.00216667 35.3327 0ZM1.99935 9.38L3.51468 11.184C3.64135 11.3349 3.82835 11.422 4.02535 11.422H6.06602C6.26302 11.422 6.45002 11.3349 6.57668 11.184L8.09268 9.38L9.58868 9.866L9.75402 12.2147C9.76768 12.4111 9.86752 12.5914 10.0267 12.7073L11.678 13.9073C11.8378 14.0227 12.0401 14.0619 12.2313 14.0147L14.52 13.446L15.4453 14.7187L14.198 16.7187C14.0947 16.8863 14.0708 17.0911 14.1327 17.278L14.764 19.2187C14.8248 19.4058 14.965 19.5567 15.1473 19.6307L17.3327 20.5167V22.09L15.146 22.976C14.9633 23.0497 14.8228 23.2009 14.7627 23.3887L14.5627 24H10.722C12.216 20.872 10.8913 17.1251 7.76335 15.6311C5.9261 14.7536 3.77727 14.8218 1.99935 15.814V9.38ZM1.99935 17.4C4.15568 15.7178 7.26752 16.1021 8.94968 18.2585C10.2485 19.9233 10.3488 22.2287 9.19935 24H1.99935V17.4ZM33.3327 37.3333C33.7009 37.3333 33.9994 37.6318 33.9994 38C33.9994 38.3682 33.7009 38.6667 33.3327 38.6667H6.66602C6.29785 38.6667 5.99935 38.3682 5.99935 38C5.99935 37.6318 6.29785 37.3333 6.66602 37.3333H33.3327ZM28.254 36H11.7447L14.4113 30.6667H25.5873L28.254 36ZM37.9994 26.6667C37.9994 28.1394 36.8054 29.3333 35.3327 29.3333H4.66602C3.19327 29.3333 1.99935 28.1394 1.99935 26.6667V25.3333H9.54735H9.55335H37.9994V26.6667ZM37.9994 24H16.1693L18.25 23.1567C18.5013 23.0547 18.6658 22.8106 18.666 22.5393V20.0667C18.6661 19.7952 18.5016 19.5508 18.25 19.4487L15.9327 18.5113L15.494 17.1613L16.8153 15.0413C16.9587 14.811 16.9481 14.5168 16.7887 14.2973L15.3353 12.2973C15.1758 12.0776 14.8989 11.9766 14.6353 12.042L12.2113 12.642L11.066 11.81L10.8907 9.32333C10.8716 9.05225 10.6898 8.81983 10.4313 8.736L8.08135 7.972C7.82277 7.88967 7.5401 7.97092 7.36468 8.178L5.76002 10.088H4.33802L2.73268 8.178C2.55718 7.97067 2.2741 7.88933 2.01535 7.972L1.99935 7.978V4C1.99935 2.52725 3.19327 1.33333 4.66602 1.33333H35.3327C36.8054 1.33333 37.9994 2.52725 37.9994 4V24Z" fill="#00103C"/>
</svg>
